<?xml version="1.0" encoding="UTF-8" standalone="no"?>
<svg
   xmlns:dc="http://purl.org/dc/elements/1.1/"
   xmlns:cc="http://creativecommons.org/ns#"
   xmlns:rdf="http://www.w3.org/1999/02/22-rdf-syntax-ns#"
   xmlns:svg="http://www.w3.org/2000/svg"
   xmlns="http://www.w3.org/2000/svg"
   xmlns:sodipodi="http://sodipodi.sourceforge.net/DTD/sodipodi-0.dtd"
   xmlns:inkscape="http://www.inkscape.org/namespaces/inkscape"
   viewBox="0 0 192 192"
   version="1.1"
   id="svg16"
   sodipodi:docname="ai-dungeon.svg"
   inkscape:version="0.92.4 (5da689c313, 2019-01-14)">
  <metadata
     id="metadata20">
    <rdf:RDF>
      <cc:Work
         rdf:about="">
        <dc:format>image/svg+xml</dc:format>
        <dc:type
           rdf:resource="http://purl.org/dc/dcmitype/StillImage" />
        <dc:title></dc:title>
      </cc:Work>
    </rdf:RDF>
  </metadata>
  <sodipodi:namedview
     pagecolor="#ffffff"
     bordercolor="#666666"
     borderopacity="1"
     objecttolerance="10"
     gridtolerance="10"
     guidetolerance="10"
     inkscape:pageopacity="0"
     inkscape:pageshadow="2"
     inkscape:window-width="1920"
     inkscape:window-height="1017"
     id="namedview18"
     showgrid="true"
     inkscape:zoom="6.9532167"
     inkscape:cx="81.489155"
     inkscape:cy="121.45161"
     inkscape:window-x="-8"
     inkscape:window-y="-8"
     inkscape:window-maximized="1"
     inkscape:current-layer="svg16"
     inkscape:snap-global="false">
    <inkscape:grid
       type="xygrid"
       id="grid827"
       spacingx="4"
       spacingy="4" />
  </sodipodi:namedview>
  <defs
     id="defs4">
    <style
       id="style2">.a{fill:none;stroke:#b1b5bd;stroke-linecap:round;stroke-linejoin:round;isolation:isolate;opacity:0.63;}</style>
  </defs>
  <circle
     class="a"
     cx="96"
     cy="96"
     r="88"
     id="circle8"
     style="fill:#56595b;opacity:1;stroke:none" />
  <path
     style="fill:#ffffff"
     d="m 66.012613,106.62242 c 0,-15.060451 19.15408,-22.278661 24.500379,-38.610111 1.465367,-4.476285 1.311814,-14.602671 1.311814,-14.602671 0,0 17.132064,9.266405 17.258204,25.743481 0.0979,12.787018 -8.32759,18.083161 -11.505888,25.396271 -0.786919,1.81066 0.902552,4.21807 2.418743,5.48254 1.984285,1.65486 4.983745,3.0981 8.011695,0.32977 5.99854,-5.48422 10.9302,-20.99748 10.9302,-20.99748 0,0 7.23917,11.19103 7.33473,20.85366 0.14012,14.16956 -17.12607,26.03112 -30.489483,26.03112 -15.413774,0 -29.770394,-15.82993 -29.770394,-29.62658 z"
     id="path829"
     inkscape:connector-curvature="0"
     sodipodi:nodetypes="sscsssscsss" />
</svg>
