<?xml version="1.0" encoding="UTF-8" standalone="no"?>
<svg
   xmlns:dc="http://purl.org/dc/elements/1.1/"
   xmlns:cc="http://creativecommons.org/ns#"
   xmlns:rdf="http://www.w3.org/1999/02/22-rdf-syntax-ns#"
   xmlns:svg="http://www.w3.org/2000/svg"
   xmlns="http://www.w3.org/2000/svg"
   xmlns:sodipodi="http://sodipodi.sourceforge.net/DTD/sodipodi-0.dtd"
   xmlns:inkscape="http://www.inkscape.org/namespaces/inkscape"
   width="192"
   height="192"
   viewBox="0 0 192 192"
   fill="none"
   version="1.1"
   id="svg15"
   sodipodi:docname="bittorrent.svg"
   inkscape:version="0.92.4 (5da689c313, 2019-01-14)">
  <metadata
     id="metadata21">
    <rdf:RDF>
      <cc:Work
         rdf:about="">
        <dc:format>image/svg+xml</dc:format>
        <dc:type
           rdf:resource="http://purl.org/dc/dcmitype/StillImage" />
      </cc:Work>
    </rdf:RDF>
  </metadata>
  <defs
     id="defs19" />
  <sodipodi:namedview
     pagecolor="#ffffff"
     bordercolor="#666666"
     borderopacity="1"
     objecttolerance="10"
     gridtolerance="10"
     guidetolerance="10"
     inkscape:pageopacity="0"
     inkscape:pageshadow="2"
     inkscape:window-width="1920"
     inkscape:window-height="1017"
     id="namedview17"
     showgrid="false"
     inkscape:zoom="4.1676432"
     inkscape:cx="-45.358744"
     inkscape:cy="87.045226"
     inkscape:window-x="-8"
     inkscape:window-y="-8"
     inkscape:window-maximized="1"
     inkscape:current-layer="svg15" />
  <path
     fill-rule="evenodd"
     clip-rule="evenodd"
     d="M96 183C144.049 183 183 144.049 183 96C183 47.9512 144.049 9 96 9C47.9512 9 9 47.9512 9 96C9 144.049 47.9512 183 96 183Z"
     fill="#BD9AFF"
     id="path2"
     style="fill:#bd9aff" />
  <mask
     id="mask0"
     mask-type="alpha"
     maskUnits="userSpaceOnUse"
     x="9"
     y="9"
     width="174"
     height="174">
    <path
       fill-rule="evenodd"
       clip-rule="evenodd"
       d="M96 183C144.049 183 183 144.049 183 96C183 47.9512 144.049 9 96 9C47.9512 9 9 47.9512 9 96C9 144.049 47.9512 183 96 183Z"
       fill="white"
       id="path4" />
  </mask>
  <path
     style="color:#000000;font-style:normal;font-variant:normal;font-weight:normal;font-stretch:normal;font-size:medium;line-height:normal;font-family:sans-serif;font-variant-ligatures:normal;font-variant-position:normal;font-variant-caps:normal;font-variant-numeric:normal;font-variant-alternates:normal;font-feature-settings:normal;text-indent:0;text-align:start;text-decoration:none;text-decoration-line:none;text-decoration-style:solid;text-decoration-color:#000000;letter-spacing:normal;word-spacing:normal;text-transform:none;writing-mode:lr-tb;direction:ltr;text-orientation:mixed;dominant-baseline:auto;baseline-shift:baseline;text-anchor:start;white-space:normal;shape-padding:0;clip-rule:nonzero;display:inline;overflow:visible;visibility:visible;opacity:1;isolation:auto;mix-blend-mode:normal;color-interpolation:sRGB;color-interpolation-filters:linearRGB;solid-color:#000000;solid-opacity:1;vector-effect:none;fill:#ffffff;fill-opacity:1;fill-rule:nonzero;stroke:none;stroke-width:10;stroke-linecap:round;stroke-linejoin:miter;stroke-miterlimit:4;stroke-dasharray:none;stroke-dashoffset:0;stroke-opacity:1;color-rendering:auto;image-rendering:auto;shape-rendering:auto;text-rendering:auto;enable-background:accumulate"
     d="M 96.095703 51.275391 C 83.580497 51.275391 72.179074 56.328323 63.921875 64.496094 C 55.556744 72.770562 50.365234 84.294627 50.365234 96.964844 C 50.365234 122.14219 70.901728 142.6543 96.095703 142.6543 L 169.44336 142.6543 C 171.47863 139.45705 173.30692 136.11713 174.91797 132.6543 L 96.095703 132.6543 C 76.300678 132.6543 60.365234 116.7325 60.365234 96.964844 C 60.365234 87.01706 64.409809 78.0798 70.955078 71.605469 C 77.415879 65.21464 86.262509 61.275391 96.095703 61.275391 A 5.0005 5.0005 0 1 0 96.095703 51.275391 z "
     id="path7" />
  <path
     style="color:#000000;font-style:normal;font-variant:normal;font-weight:normal;font-stretch:normal;font-size:medium;line-height:normal;font-family:sans-serif;font-variant-ligatures:normal;font-variant-position:normal;font-variant-caps:normal;font-variant-numeric:normal;font-variant-alternates:normal;font-feature-settings:normal;text-indent:0;text-align:start;text-decoration:none;text-decoration-line:none;text-decoration-style:solid;text-decoration-color:#000000;letter-spacing:normal;word-spacing:normal;text-transform:none;writing-mode:lr-tb;direction:ltr;text-orientation:mixed;dominant-baseline:auto;baseline-shift:baseline;text-anchor:start;white-space:normal;shape-padding:0;clip-rule:nonzero;display:inline;overflow:visible;visibility:visible;opacity:1;isolation:auto;mix-blend-mode:normal;color-interpolation:sRGB;color-interpolation-filters:linearRGB;solid-color:#000000;solid-opacity:1;vector-effect:none;fill:#ffffff;fill-opacity:1;fill-rule:nonzero;stroke:none;stroke-width:10;stroke-linecap:round;stroke-linejoin:miter;stroke-miterlimit:4;stroke-dasharray:none;stroke-dashoffset:0;stroke-opacity:1;color-rendering:auto;image-rendering:auto;shape-rendering:auto;text-rendering:auto;enable-background:accumulate"
     d="M 73.849609 35.070312 A 5.0005 5.0005 0 0 0 72.048828 35.439453 C 63.568824 38.749974 55.945492 43.756204 49.59375 50.039062 C 37.501135 62.000724 30 78.640015 30 96.964844 C 30 133.37804 59.654475 163 96.095703 163 L 151.49219 163 C 155.1649 159.95471 158.56816 156.60107 161.69531 153 L 96.095703 153 C 65.053531 153 40 127.96825 40 96.964844 C 40 81.362472 46.354168 67.309976 56.626953 57.148438 C 62.022811 51.811096 68.496151 47.560585 75.685547 44.753906 A 5.0005 5.0005 0 0 0 73.849609 35.070312 z "
     id="path9" />
  <path
     style="color:#000000;font-style:normal;font-variant:normal;font-weight:normal;font-stretch:normal;font-size:medium;line-height:normal;font-family:sans-serif;font-variant-ligatures:normal;font-variant-position:normal;font-variant-caps:normal;font-variant-numeric:normal;font-variant-alternates:normal;font-feature-settings:normal;text-indent:0;text-align:start;text-decoration:none;text-decoration-line:none;text-decoration-style:solid;text-decoration-color:#000000;letter-spacing:normal;word-spacing:normal;text-transform:none;writing-mode:lr-tb;direction:ltr;text-orientation:mixed;dominant-baseline:auto;baseline-shift:baseline;text-anchor:start;white-space:normal;shape-padding:0;clip-rule:nonzero;display:inline;overflow:visible;visibility:visible;opacity:1;isolation:auto;mix-blend-mode:normal;color-interpolation:sRGB;color-interpolation-filters:linearRGB;solid-color:#000000;solid-opacity:1;vector-effect:none;fill:#ffffff;fill-opacity:1;fill-rule:nonzero;stroke:none;stroke-width:10;stroke-linecap:round;stroke-linejoin:miter;stroke-miterlimit:4;stroke-dasharray:none;stroke-dashoffset:0;stroke-opacity:1;color-rendering:auto;image-rendering:auto;shape-rendering:auto;text-rendering:auto;enable-background:accumulate"
     d="M 96.095703 71.621094 C 89.167597 71.621094 82.827719 74.424922 78.25 78.953125 C 73.612485 83.540378 70.730469 89.949127 70.730469 96.964844 C 70.730469 110.90621 82.149089 122.31055 96.095703 122.31055 L 178.94531 122.31055 C 179.9767 119.05609 180.82037 115.71822 181.4668 112.31055 L 96.095703 112.31055 C 87.547718 112.31055 80.730469 105.49668 80.730469 96.964844 C 80.730469 92.67156 82.465518 88.849647 85.283203 86.0625 C 88.064484 83.311303 91.849609 81.621094 96.095703 81.621094 C 98.193766 81.621094 100.1681 82.034782 101.97461 82.783203 A 5.0005 5.0005 0 1 0 105.80078 73.544922 C 102.80729 72.304743 99.51884 71.621094 96.095703 71.621094 z "
     id="path11" />
</svg>
