<?xml version="1.0" encoding="UTF-8" standalone="no"?>
<svg
   xmlns:dc="http://purl.org/dc/elements/1.1/"
   xmlns:cc="http://creativecommons.org/ns#"
   xmlns:rdf="http://www.w3.org/1999/02/22-rdf-syntax-ns#"
   xmlns:svg="http://www.w3.org/2000/svg"
   xmlns="http://www.w3.org/2000/svg"
   xmlns:sodipodi="http://sodipodi.sourceforge.net/DTD/sodipodi-0.dtd"
   xmlns:inkscape="http://www.inkscape.org/namespaces/inkscape"
   width="192"
   height="192"
   version="1.1"
   viewBox="0 0 192 192"
   id="svg10"
   sodipodi:docname="folder-documents_new.svg"
   inkscape:version="0.92.4 (5da689c313, 2019-01-14)">
  <metadata
     id="metadata16">
    <rdf:RDF>
      <cc:Work
         rdf:about="">
        <dc:format>image/svg+xml</dc:format>
        <dc:type
           rdf:resource="http://purl.org/dc/dcmitype/StillImage" />
        <dc:title></dc:title>
      </cc:Work>
    </rdf:RDF>
  </metadata>
  <defs
     id="defs14">
    <clipPath
       id="_clipPath_scEBzsWn44mU0rAnApEnvgTmgfVtN7sS">
      <rect
         id="rect823"
         height="192"
         width="192" />
    </clipPath>
  </defs>
  <sodipodi:namedview
     pagecolor="#ffffff"
     bordercolor="#666666"
     borderopacity="1"
     objecttolerance="10"
     gridtolerance="10"
     guidetolerance="10"
     inkscape:pageopacity="0"
     inkscape:pageshadow="2"
     inkscape:window-width="1920"
     inkscape:window-height="1017"
     id="namedview12"
     showgrid="true"
     inkscape:snap-global="true"
     inkscape:zoom="3.4766083"
     inkscape:cx="91.542725"
     inkscape:cy="97.220339"
     inkscape:window-x="-8"
     inkscape:window-y="-8"
     inkscape:window-maximized="1"
     inkscape:current-layer="svg10">
    <inkscape:grid
       type="xygrid"
       id="grid865"
       spacingx="4"
       spacingy="4" />
  </sodipodi:namedview>
  <path
     inkscape:connector-curvature="0"
     d="M 29.93464,20 H 162.06536 C 167.54829,20 172,24.451713 172,29.934641 V 162.06536 C 172,167.54829 167.54829,172 162.06536,172 H 29.93464 C 24.451712,172 20,167.54829 20,162.06536 V 29.934641 C 20,24.451713 24.451712,20 29.93464,20 Z"
     style="isolation:isolate;fill:#53688e;stroke:none;stroke-width:0.99346405;stroke-miterlimit:10"
     id="path828" />
  <path
     style="isolation:isolate;fill:#728dbe;stroke-width:0.99346405"
     inkscape:connector-curvature="0"
     d="m 30.058824,33.411765 q 21.48366,0 34.150326,0 c 6.504209,0 8.786196,7.792732 13.908497,12.915033 q 7.699346,0 82.830063,0 c 6.09987,0 11.05229,4.952418 11.05229,11.052287 V 162.96643 C 172,167.95263 167.95263,172 162.96643,172 H 29.033569 C 24.047373,172 20,167.95263 20,162.96643 V 43.470589 c 0,-5.551478 4.507346,-10.058824 10.058824,-10.058824 z"
     id="path830" />
  <path
     style="isolation:isolate;fill:#53688e;stroke-width:0.99346405"
     inkscape:connector-curvature="0"
     d="m 80.819731,80.114323 c -2.636654,0 -4.769621,2.156811 -4.769621,4.793464 l -0.02384,42.278653 c 0,2.63666 2.132967,4.79347 4.769621,4.79347 h 30.484959 c 2.63666,0 4.79347,-2.15681 4.79347,-4.79347 V 94.494716 L 101.69392,80.114323 Z M 100,96 V 84 l 12,12 z"
     id="path832"
     sodipodi:nodetypes="sccsssccscccc" />
</svg>
