<?xml version="1.0" encoding="UTF-8" standalone="no"?>
<svg
   xmlns:dc="http://purl.org/dc/elements/1.1/"
   xmlns:cc="http://creativecommons.org/ns#"
   xmlns:rdf="http://www.w3.org/1999/02/22-rdf-syntax-ns#"
   xmlns:svg="http://www.w3.org/2000/svg"
   xmlns="http://www.w3.org/2000/svg"
   xmlns:sodipodi="http://sodipodi.sourceforge.net/DTD/sodipodi-0.dtd"
   xmlns:inkscape="http://www.inkscape.org/namespaces/inkscape"
   width="192"
   height="192"
   version="1.1"
   viewBox="0 0 192 192"
   id="svg8"
   sodipodi:docname="folder-sharepoint.svg"
   inkscape:version="0.92.4 (5da689c313, 2019-01-14)">
  <metadata
     id="metadata14">
    <rdf:RDF>
      <cc:Work
         rdf:about="">
        <dc:format>image/svg+xml</dc:format>
        <dc:type
           rdf:resource="http://purl.org/dc/dcmitype/StillImage" />
        <dc:title></dc:title>
      </cc:Work>
    </rdf:RDF>
  </metadata>
  <defs
     id="defs12" />
  <sodipodi:namedview
     pagecolor="#ffffff"
     bordercolor="#666666"
     borderopacity="1"
     objecttolerance="10"
     gridtolerance="10"
     guidetolerance="10"
     inkscape:pageopacity="0"
     inkscape:pageshadow="2"
     inkscape:window-width="1920"
     inkscape:window-height="1017"
     id="namedview10"
     showgrid="true"
     inkscape:zoom="3.4766083"
     inkscape:cx="127.56712"
     inkscape:cy="89.084746"
     inkscape:window-x="-8"
     inkscape:window-y="-8"
     inkscape:window-maximized="1"
     inkscape:current-layer="svg8">
    <inkscape:grid
       type="xygrid"
       id="grid821"
       spacingx="4"
       spacingy="4" />
  </sodipodi:namedview>
  <rect
     x="20"
     y="20"
     width="152"
     height="152"
     rx="10"
     style="fill-rule:evenodd;fill:#728dbe"
     id="rect2" />
  <path
     d="m20 42.997c0-5.5209 4.4776-9.9965 9.9985-9.9965h33.568c8.4587 0 11.574 13.256 15.366 13.256h83.064c5.5243 0 10.003 4.4753 10.003 9.9983v105.75c0 5.5219-4.477 9.9983-10.003 9.9983h-131.99c-5.5242 0-10.003-4.4674-10.003-9.9965z"
     style="fill-rule:evenodd;fill:#9abeff"
     id="path4" />
  <path
     inkscape:connector-curvature="0"
     d="m 116,115.94 c 11.436,0 16.248,1.4336 16.248,1.4336 4.5315,0.82794 8.2674,4.9761 8.7868,9.5386 l 0.008,0.0875 -0.007,0.0805 c -0.55404,5.0157 -4.8132,8.9175 -9.9759,8.9175 h -30.119 c -5.1673,0 -9.4225,-3.9025 -9.9757,-8.9177 l -0.0089,-0.0823 0.0096,-0.0865 c 0.51901,-4.5706 4.2521,-8.7706 8.7869,-9.5376 0,0 4.8123,-1.4336 16.248,-1.4336 z m 25.096,10.029 v 2.0228 c 0,-0.27116 -0.0118,-0.54167 -0.0349,-0.81094 l -0.0187,-0.18137 0.0192,-0.19421 c 0.0152,-0.18384 0.0254,-0.36907 0.0306,-0.55558 z m -50.193,0 c 0,0.28158 0.01162,0.56046 0.0344,0.83617 l 0.0176,0.19233 -0.01716,0.18277 c -0.01537,0.17976 -0.02573,0.36 -0.03093,0.54054 l -0.0039,0.271 z m 24.889,-45.972 c 8.0184,0 14.519,6.5002 14.519,14.519 0,8.0184 -6.5002,14.519 -14.519,14.519 -8.0184,0 -14.519,-6.5002 -14.519,-14.519 0,-8.0184 6.5002,-14.519 14.519,-14.519 z"
     style="fill:#728dbe;fill-rule:evenodd;opacity:0.5"
     id="path6-3" />
  <path
     d="m 80.208,115.94 c 11.436,0 16.248,1.4336 16.248,1.4336 4.5315,0.82794 8.2674,4.9761 8.7868,9.5386 l 0.008,0.0875 -0.007,0.0805 c -0.55404,5.0157 -4.8132,8.9175 -9.9759,8.9175 h -30.119 c -5.1673,0 -9.4225,-3.9025 -9.9757,-8.9177 l -0.0089,-0.0823 0.0096,-0.0865 c 0.51901,-4.5706 4.2521,-8.7706 8.7869,-9.5376 0,0 4.8123,-1.4336 16.248,-1.4336 z m 25.096,10.029 v 2.0228 c 0,-0.27116 -0.0118,-0.54167 -0.0349,-0.81094 l -0.0187,-0.18137 0.0192,-0.19421 c 0.0152,-0.18384 0.0254,-0.36907 0.0306,-0.55558 z m -50.193,0 c 0,0.28158 0.01162,0.56046 0.0344,0.83617 l 0.0176,0.19233 -0.01716,0.18277 c -0.01537,0.17976 -0.02573,0.36 -0.03093,0.54054 l -0.0039,0.271 z M 80,79.997 c 8.0184,0 14.519,6.5002 14.519,14.519 0,8.0184 -6.5002,14.519 -14.519,14.519 -8.0184,0 -14.519,-6.5002 -14.519,-14.519 0,-8.0184 6.5002,-14.519 14.519,-14.519 z"
     style="fill:#728dbe;fill-rule:evenodd"
     id="path6"
     inkscape:connector-curvature="0" />
</svg>
