<?xml version="1.0" encoding="UTF-8" standalone="no"?>
<svg
   xmlns:dc="http://purl.org/dc/elements/1.1/"
   xmlns:cc="http://creativecommons.org/ns#"
   xmlns:rdf="http://www.w3.org/1999/02/22-rdf-syntax-ns#"
   xmlns:svg="http://www.w3.org/2000/svg"
   xmlns="http://www.w3.org/2000/svg"
   xmlns:sodipodi="http://sodipodi.sourceforge.net/DTD/sodipodi-0.dtd"
   xmlns:inkscape="http://www.inkscape.org/namespaces/inkscape"
   viewBox="0 0 192 192"
   version="1.1"
   id="svg16"
   sodipodi:docname="folder_att.svg"
   inkscape:version="0.92.4 (5da689c313, 2019-01-14)">
  <metadata
     id="metadata20">
    <rdf:RDF>
      <cc:Work
         rdf:about="">
        <dc:format>image/svg+xml</dc:format>
        <dc:type
           rdf:resource="http://purl.org/dc/dcmitype/StillImage" />
        <dc:title></dc:title>
      </cc:Work>
    </rdf:RDF>
  </metadata>
  <sodipodi:namedview
     pagecolor="#ffffff"
     bordercolor="#666666"
     borderopacity="1"
     objecttolerance="10"
     gridtolerance="10"
     guidetolerance="10"
     inkscape:pageopacity="0"
     inkscape:pageshadow="2"
     inkscape:window-width="1920"
     inkscape:window-height="1017"
     id="namedview18"
     showgrid="true"
     inkscape:zoom="4.9166667"
     inkscape:cx="80.949149"
     inkscape:cy="96.711867"
     inkscape:window-x="-8"
     inkscape:window-y="-8"
     inkscape:window-maximized="1"
     inkscape:current-layer="svg16"
     showguides="false">
    <inkscape:grid
       type="xygrid"
       id="grid827"
       spacingx="4"
       spacingy="4" />
  </sodipodi:namedview>
  <defs
     id="defs4">
    <style
       id="style2">.a{fill:none;stroke:#b1b5bd;stroke-linecap:round;stroke-linejoin:round;isolation:isolate;opacity:0.63;}</style>
  </defs>
  <rect
     x="20"
     y="20"
     width="152"
     height="152"
     rx="10"
     style="fill:#56595b;fill-rule:evenodd"
     id="rect857" />
  <path
     inkscape:connector-curvature="0"
     d="M 172,55.07 V 30.003 C 172,24.4775 167.5217,20 161.997,20 H 30.007 c -5.5255,0 -10.003,4.4783 -10.003,10.003 v 11.864 c 0.59774,-4.9892 4.8601,-8.8668 9.9985,-8.8668 h 33.568 c 8.4587,0 11.574,13.256 15.366,13.256 h 83.064 c 5.1232,0 9.3771,3.8475 10.003,8.8127 z"
     style="opacity:0.25;fill-rule:evenodd"
     id="path859"
     sodipodi:nodetypes="csssscsssscc" />
  <path
     inkscape:connector-curvature="0"
     d="m 126.0295,120.9519 c -2.127,2.032 -11.788,10.17 -30.647,10.83 -16.654,0.583 -25.063,-5.238 -28.029,-7.92 0.6184,1.151 1.3041,2.26 2.0518,3.323 0.6441,0.511 10.736,8.326 26.595,8.914 12.24,0.454 21.731,-4.988 25.757,-7.776 1.729,-2.243 3.171,-4.718 4.272,-7.371 z m -30.029,20.048 c -7.3461,0 -14.123,-2.437 -19.566,-6.547 3.803,1.329 12.459,3.866 22.049,3.399 9.6627,-0.47 16.684,-3.842 19.594,-5.501 -5.797,5.368 -13.554,8.649 -22.077,8.649 z m -26.446,-13.605 1.3804,1.794 c -0.4803,-0.581 -0.9408,-1.18 -1.3804,-1.794 z m 58.946,-18.895 c 0,-0.5962 -0.016,-1.1887 -0.048,-1.777 -0.2,0.2373 -12.228,14.353 -36.927,14.793 -24.442,0.435 -27.892,-11.652 -28.013,-12.104 0.0592,2.1478 0.3268,4.2431 0.7832,6.2681 1.4842,2.138 8.1032,9.419 30.313,11.307 21.434,1.822 30.345,-7.059 32.852,-10.304 0.678,-2.614 1.039,-5.3566 1.039,-8.183 z m -3.285,-14.256 c -0.292,0.8909 -3.912,10.125 -29.434,13.069 -26.42,3.0477 -29.572,-11.185 -29.662,-11.617 -0.999,2.3282 -1.7338,4.7966 -2.1667,7.3675 2.018,2.4192 11.368,11.531 37.023,10.445 23.322,-0.987 26.654,-7.8709 27.022,-10.728 -0.534,-3.0091 -1.482,-5.875 -2.783,-8.5368 z m 3.233,12.4 -0.204,-2.2429 c 0.093,0.7401 0.161,1.4881 0.204,2.2429 z m -64.948,1.8558 c 0,-0.2605 0.0031,-0.5202 0.0092,-0.7792 v 1.5584 c -0.0061,-0.259 -0.0092,-0.5187 -0.0092,-0.7792 z m 54.279,-24.123 c 0.069,0.9184 -0.528,6.0781 -21.663,9.8811 -21.596,3.8859 -22.513,-7.6069 -22.532,-9.2894 -1.846,1.7591 -3.4853,3.7332 -4.8777,5.8821 0.8758,2.3403 5.2663,8.9109 27.076,10.503 24.108,1.7602 26.879,-8.9279 27.189,-10.994 -1.483,-2.2005 -3.228,-4.2097 -5.191,-5.9828 z M 96.0005,76 c -7.8774,0 -15.1,2.8026 -20.726,7.4651 L 76.777,82.308 c 0,0 -1.3295,6.6005 17.909,6.6005 16.341,0 19.53,-5.3161 20.12,-6.9177 C 109.498,78.2182 103.008,76 96,76 Z"
     style="clip-rule:evenodd;fill:#9abeff;fill-rule:evenodd"
     id="path820" />
</svg>
