<?xml version="1.0" encoding="UTF-8" standalone="no"?>
<svg
   xmlns:dc="http://purl.org/dc/elements/1.1/"
   xmlns:cc="http://creativecommons.org/ns#"
   xmlns:rdf="http://www.w3.org/1999/02/22-rdf-syntax-ns#"
   xmlns:svg="http://www.w3.org/2000/svg"
   xmlns="http://www.w3.org/2000/svg"
   xmlns:sodipodi="http://sodipodi.sourceforge.net/DTD/sodipodi-0.dtd"
   xmlns:inkscape="http://www.inkscape.org/namespaces/inkscape"
   width="192"
   height="192"
   version="1.1"
   viewBox="0 0 192 192"
   id="svg8"
   sodipodi:docname="folder-group.svg"
   inkscape:version="0.92.4 (5da689c313, 2019-01-14)">
  <metadata
     id="metadata14">
    <rdf:RDF>
      <cc:Work
         rdf:about="">
        <dc:format>image/svg+xml</dc:format>
        <dc:type
           rdf:resource="http://purl.org/dc/dcmitype/StillImage" />
        <dc:title></dc:title>
      </cc:Work>
    </rdf:RDF>
  </metadata>
  <defs
     id="defs12" />
  <sodipodi:namedview
     pagecolor="#ffffff"
     bordercolor="#666666"
     borderopacity="1"
     objecttolerance="10"
     gridtolerance="10"
     guidetolerance="10"
     inkscape:pageopacity="0"
     inkscape:pageshadow="2"
     inkscape:window-width="1920"
     inkscape:window-height="1017"
     id="namedview10"
     showgrid="true"
     inkscape:zoom="3.4766083"
     inkscape:cx="127.56712"
     inkscape:cy="89.084746"
     inkscape:window-x="-8"
     inkscape:window-y="-8"
     inkscape:window-maximized="1"
     inkscape:current-layer="svg8"
     inkscape:snap-global="true">
    <inkscape:grid
       type="xygrid"
       id="grid821"
       spacingx="4"
       spacingy="4" />
  </sodipodi:namedview>
  <rect
     x="20"
     y="20"
     width="152"
     height="152"
     rx="10"
     style="fill-rule:evenodd;fill:#728dbe"
     id="rect2" />
  <path
     d="m20 42.997c0-5.5209 4.4776-9.9965 9.9985-9.9965h33.568c8.4587 0 11.574 13.256 15.366 13.256h83.064c5.5243 0 10.003 4.4753 10.003 9.9983v105.75c0 5.5219-4.477 9.9983-10.003 9.9983h-131.99c-5.5242 0-10.003-4.4674-10.003-9.9965z"
     style="fill-rule:evenodd;fill:#9abeff"
     id="path4" />
  <path
     d="m 67.959255,112.22883 c 8.981577,0 12.760817,1.12592 12.760817,1.12592 3.55894,0.65025 6.49303,3.90811 6.90096,7.49141 l 0.006,0.0687 -0.005,0.0632 c -0.43513,3.93922 -3.78018,7.0036 -7.83485,7.0036 h -23.65501 c -4.058282,0 -7.400222,-3.06493 -7.834692,-7.00375 l -0.0069,-0.0646 0.0076,-0.0679 c 0.407618,-3.58964 3.339505,-6.88823 6.901035,-7.49061 0,0 3.779474,-1.12592 12.760818,-1.12592 z m 19.709837,7.87655 v 1.58867 c 0,-0.21297 -0.009,-0.42542 -0.0274,-0.63689 l -0.0147,-0.14246 0.0151,-0.15252 c 0.0119,-0.14438 0.02,-0.28986 0.024,-0.43634 z m -39.420463,0 c 0,0.22115 0.0091,0.44017 0.02701,0.65671 l 0.01383,0.15105 -0.01347,0.14355 c -0.01208,0.14118 -0.02021,0.28273 -0.02429,0.42452 l -0.0031,0.21284 z M 67.795896,84.000002 c 6.297473,0 11.402896,5.105113 11.402896,11.4029 0,6.297468 -5.10511,11.402898 -11.402896,11.402898 -6.297474,0 -11.402899,-5.10511 -11.402899,-11.402898 0,-6.297473 5.105112,-11.4029 11.402899,-11.4029 z"
     style="opacity:0.5;fill:#728dbe;fill-rule:evenodd;stroke-width:0.78537768"
     id="path6-3"
     inkscape:connector-curvature="0" />
  <path
     d="m 123.95926,112.22883 c 8.98158,0 12.76082,1.12592 12.76082,1.12592 3.55894,0.65025 6.49303,3.90811 6.90096,7.49141 l 0.006,0.0687 -0.005,0.0632 c -0.43513,3.93922 -3.78018,7.0036 -7.83485,7.0036 h -23.65501 c -4.05829,0 -7.40023,-3.06493 -7.8347,-7.00375 l -0.007,-0.0646 0.008,-0.0679 c 0.40762,-3.58964 3.33951,-6.88823 6.90104,-7.49061 0,0 3.77947,-1.12592 12.76082,-1.12592 z m 19.70984,7.87655 v 1.58867 c 0,-0.21297 -0.009,-0.42542 -0.0274,-0.63689 l -0.0147,-0.14246 0.0151,-0.15252 c 0.0119,-0.14438 0.02,-0.28986 0.024,-0.43634 z m -39.42047,0 c 0,0.22115 0.009,0.44017 0.027,0.65671 l 0.0138,0.15105 -0.0135,0.14355 c -0.0121,0.14118 -0.0202,0.28273 -0.0243,0.42452 l -0.003,0.21284 z M 123.7959,84.000002 c 6.29747,0 11.4029,5.105113 11.4029,11.4029 0,6.297468 -5.10511,11.402898 -11.4029,11.402898 -6.29747,0 -11.4029,-5.10511 -11.4029,-11.402898 0,-6.297473 5.10511,-11.4029 11.4029,-11.4029 z"
     style="opacity:0.5;fill:#728dbe;fill-rule:evenodd;stroke-width:0.78537768"
     id="path6-2"
     inkscape:connector-curvature="0" />
  <path
     d="m 96.163359,112.22883 c 8.981581,0 12.760821,1.12592 12.760821,1.12592 3.55894,0.65025 6.49303,3.90811 6.90096,7.49141 l 0.006,0.0687 -0.005,0.0632 c -0.43513,3.93922 -3.78018,7.0036 -7.83485,7.0036 H 84.336276 c -4.058282,0 -7.400222,-3.06493 -7.834692,-7.00375 l -0.0069,-0.0646 0.0076,-0.0679 c 0.407618,-3.58964 3.339505,-6.88823 6.901035,-7.49061 0,0 3.779474,-1.12592 12.760818,-1.12592 z m 19.709841,7.87655 v 1.58867 c 0,-0.21297 -0.009,-0.42542 -0.0274,-0.63689 l -0.0147,-0.14246 0.0151,-0.15252 c 0.0119,-0.14438 0.02,-0.28986 0.024,-0.43634 z m -39.420467,0 c 0,0.22115 0.0091,0.44017 0.02701,0.65671 l 0.01383,0.15105 -0.01347,0.14355 c -0.01208,0.14118 -0.02021,0.28273 -0.02429,0.42452 l -0.0031,0.21284 z M 96,84 c 6.29747,0 11.4029,5.105113 11.4029,11.4029 0,6.29747 -5.10511,11.4029 -11.4029,11.4029 -6.297474,0 -11.402899,-5.10511 -11.402899,-11.4029 C 84.597101,89.105427 89.702213,84 96,84 Z"
     style="fill:#728dbe;fill-rule:evenodd;stroke-width:0.78537768"
     id="path6"
     inkscape:connector-curvature="0" />
</svg>
