<?xml version="1.0" encoding="UTF-8" standalone="no"?>
<svg
   xmlns:dc="http://purl.org/dc/elements/1.1/"
   xmlns:cc="http://creativecommons.org/ns#"
   xmlns:rdf="http://www.w3.org/1999/02/22-rdf-syntax-ns#"
   xmlns:svg="http://www.w3.org/2000/svg"
   xmlns="http://www.w3.org/2000/svg"
   xmlns:sodipodi="http://sodipodi.sourceforge.net/DTD/sodipodi-0.dtd"
   xmlns:inkscape="http://www.inkscape.org/namespaces/inkscape"
   viewBox="0 0 192 192"
   version="1.1"
   id="svg16"
   sodipodi:docname="folder-games.svg"
   inkscape:version="0.92.4 (5da689c313, 2019-01-14)">
  <metadata
     id="metadata20">
    <rdf:RDF>
      <cc:Work
         rdf:about="">
        <dc:format>image/svg+xml</dc:format>
        <dc:type
           rdf:resource="http://purl.org/dc/dcmitype/StillImage" />
        <dc:title></dc:title>
      </cc:Work>
    </rdf:RDF>
  </metadata>
  <sodipodi:namedview
     pagecolor="#ffffff"
     bordercolor="#666666"
     borderopacity="1"
     objecttolerance="10"
     gridtolerance="10"
     guidetolerance="10"
     inkscape:pageopacity="0"
     inkscape:pageshadow="2"
     inkscape:window-width="1920"
     inkscape:window-height="1017"
     id="namedview18"
     showgrid="true"
     inkscape:zoom="4.9166667"
     inkscape:cx="61.195359"
     inkscape:cy="87.501506"
     inkscape:window-x="-8"
     inkscape:window-y="-8"
     inkscape:window-maximized="1"
     inkscape:current-layer="svg16"
     showguides="false">
    <inkscape:grid
       type="xygrid"
       id="grid827"
       spacingx="4"
       spacingy="4" />
  </sodipodi:namedview>
  <defs
     id="defs4">
    <style
       id="style2">.a{fill:none;stroke:#b1b5bd;stroke-linecap:round;stroke-linejoin:round;isolation:isolate;opacity:0.63;}</style>
  </defs>
  <rect
     x="20"
     y="20"
     width="152"
     height="152"
     rx="10"
     style="fill:#c39a54;fill-rule:evenodd"
     id="rect826" />
  <path
     inkscape:connector-curvature="0"
     d="m 20,42.997 c 0,-5.5209 4.4776,-9.9965 9.9985,-9.9965 h 33.568 c 8.4587,0 11.574,13.256 15.366,13.256 h 83.064 c 5.5243,0 10.003,4.4753 10.003,9.9983 v 105.75 c 0,5.5219 -4.477,9.9983 -10.003,9.9983 h -131.99 c -5.5242,0 -10.003,-4.4674 -10.003,-9.9965 z"
     style="fill:#f9de81;fill-rule:evenodd"
     id="path828" />
  <path
     d="m 93.927,114.172 c 1.1974,-1.1451 3.0965,-1.1027 4.2416,0.0948 l 5,5.2285 c 0.53387,0.55827 0.83183,1.301 0.83183,2.0734 v 13.431 c 0,1.6568 -1.3432,3 -3,3 h -10 c -1.6569,0 -3,-1.3432 -3,-3 v -13.431 c 0,-0.77246 0.29796,-1.5152 0.83183,-2.0734 l 5,-5.2285 c 0.03088,-0.0323 0.06247,-0.0639 0.09476,-0.0948 z M 122.117,101 c 1.6569,0 3,1.3432 3,3 v 9.9419 c 0,1.6569 -1.3431,3 -3,3 H 108.6 c -0.76826,0 -1.5072,-0.29474 -2.0646,-0.82346 l -5.2404,-4.971 c -1.2021,-1.1403 -1.2522,-3.0391 -0.11191,-4.2412 0.0363,-0.0383 0.0736,-0.0756 0.11191,-0.11191 l 5.2404,-4.971 c 0.55739,-0.52872 1.2964,-0.82346 2.0646,-0.82346 z m -38.6,0 c 0.76826,0 1.5072,0.29474 2.0646,0.82346 l 5.2404,4.971 c 0.03828,0.0363 0.0756,0.0736 0.11191,0.11191 1.1403,1.2021 1.0902,3.1009 -0.11191,4.2412 l -5.2404,4.971 c -0.55738,0.52872 -1.2964,0.82346 -2.0646,0.82346 H 70 c -1.6569,0 -3,-1.3431 -3,-3 v -9.9419 c 0,-1.6568 1.3431,-3 3,-3 z M 101,80 c 1.6568,0 3,1.3431 3,3 v 13.431 c 0,0.77246 -0.29796,1.5151 -0.83183,2.0734 l -5,5.2285 c -1.1451,1.1974 -3.0441,1.2399 -4.2416,0.0948 -0.03229,-0.0309 -0.06388,-0.0625 -0.09476,-0.0948 l -5,-5.2285 C 88.29794,97.94613 87.99998,97.2034 87.99998,96.431 V 83 c 0,-1.6569 1.3431,-3 3,-3 z"
     style="opacity:1;fill-rule:evenodd;fill:#c39a54"
     id="path4"
     inkscape:connector-curvature="0"
     sodipodi:nodetypes="cccsssssscccccsssscscccccccccccssssccssscccccssss" />
</svg>
