<?xml version="1.0" encoding="UTF-8" standalone="no"?>
<svg
   xmlns:dc="http://purl.org/dc/elements/1.1/"
   xmlns:cc="http://creativecommons.org/ns#"
   xmlns:rdf="http://www.w3.org/1999/02/22-rdf-syntax-ns#"
   xmlns:svg="http://www.w3.org/2000/svg"
   xmlns="http://www.w3.org/2000/svg"
   xmlns:sodipodi="http://sodipodi.sourceforge.net/DTD/sodipodi-0.dtd"
   xmlns:inkscape="http://www.inkscape.org/namespaces/inkscape"
   width="192"
   height="192"
   version="1.1"
   viewBox="0 0 192 192"
   id="svg16"
   sodipodi:docname="jetbrains-intellij-idea.svg"
   inkscape:version="0.92.4 (5da689c313, 2019-01-14)">
  <metadata
     id="metadata22">
    <rdf:RDF>
      <cc:Work
         rdf:about="">
        <dc:format>image/svg+xml</dc:format>
        <dc:type
           rdf:resource="http://purl.org/dc/dcmitype/StillImage" />
        <dc:title></dc:title>
      </cc:Work>
    </rdf:RDF>
  </metadata>
  <defs
     id="defs20" />
  <sodipodi:namedview
     pagecolor="#ffffff"
     bordercolor="#666666"
     borderopacity="1"
     objecttolerance="10"
     gridtolerance="10"
     guidetolerance="10"
     inkscape:pageopacity="0"
     inkscape:pageshadow="2"
     inkscape:window-width="1920"
     inkscape:window-height="1017"
     id="namedview18"
     showgrid="false"
     inkscape:zoom="3.884965"
     inkscape:cx="17.662348"
     inkscape:cy="90.651646"
     inkscape:window-x="-8"
     inkscape:window-y="-8"
     inkscape:window-maximized="1"
     inkscape:current-layer="svg16" />
  <path
     inkscape:connector-curvature="0"
     d="m 19.99999,131.10509 60,-15.104 64,32 24,-16 4,-28 v -74.064 c 0,-5.5038 -4.4318,-9.9356 -9.9356,-9.9356 h -74.064 l -16,4 -12,44 -40,-8.0801 0,71.184 z"
     style="fill:#9abeff"
     id="path2" />
  <path
     style="fill:#f8c18c;stroke:none;stroke-width:1px;stroke-linecap:butt;stroke-linejoin:miter;stroke-opacity:1"
     d="M 63.173828 56.367188 L 60 68.001953 L 20 59.921875 L 20 131.10547 L 80 116.00195 L 84.216797 118.10938 L 65.123047 56.863281 L 63.173828 56.367188 z "
     id="path837" />
  <path
     inkscape:connector-curvature="0"
     d="m 19.99999,59.92109 22.387,13.941 31.475,-13.43 c 0,0 0.91853,-8.4374 2.3438,-17.633 0.76886,-4.9606 1.1355,-9.6333 1.8535,-12.584 2.3395,-9.6138 11.121,-10.072 11.121,-10.072 L 88.7467,20.00051 h -58.811 c -5.5038,0 -9.9355,4.4318 -9.9355,9.9356 l 0,29.984 z"
     style="fill:#ff837d"
     id="path4" />
  <path
     inkscape:connector-curvature="0"
     d="m 19.99999,162.06509 c 0,5.5038 4.4318,9.9355 9.9355,9.9355 h 132.13 c 5.5038,0 9.9356,-4.4318 9.9356,-9.9355 v -61.482 c -2.4745,6.1262 -6.2434,15.726 -10.418,27.615 -2.0172,5.745 -9.6873,7.3625 -14.689,7.7168 -32.753,2.3197 -89.706,-27.617 -89.706,-27.617 l -37.187,22.807 z"
     style="fill:#bd9aff"
     id="path6" />
  <rect
     x="40"
     y="40"
     width="112"
     height="112"
     ry="9.0789"
     style="fill:#4a4a4a;paint-order:stroke fill markers"
     id="rect8" />
  <text
     x="49.390713"
     y="102.18638"
     style="font-size:64.01499939px;line-height:1.25;font-family:Now;letter-spacing:0px;word-spacing:0px;fill:#ffffff;stroke-width:1.60039997"
     xml:space="preserve"
     id="text12"><tspan
       x="49.390713"
       y="102.18638"
       style="font-weight:900;font-family:Now;fill:#ffffff;stroke-width:1.60039997"
       id="tspan10">IJ</tspan></text>
  <rect
     x="54.009"
     y="125.08"
     width="44.958"
     height="11.722"
     style="fill:#fff;paint-order:stroke fill markers"
     id="rect14" />
</svg>
