<?xml version="1.0" encoding="UTF-8" standalone="no"?>
<svg
   xmlns:dc="http://purl.org/dc/elements/1.1/"
   xmlns:cc="http://creativecommons.org/ns#"
   xmlns:rdf="http://www.w3.org/1999/02/22-rdf-syntax-ns#"
   xmlns:svg="http://www.w3.org/2000/svg"
   xmlns="http://www.w3.org/2000/svg"
   xmlns:sodipodi="http://sodipodi.sourceforge.net/DTD/sodipodi-0.dtd"
   xmlns:inkscape="http://www.inkscape.org/namespaces/inkscape"
   viewBox="0 0 192 192"
   version="1.1"
   id="svg16"
   sodipodi:docname="keyboard_new.svg"
   inkscape:version="0.92.4 (5da689c313, 2019-01-14)">
  <metadata
     id="metadata20">
    <rdf:RDF>
      <cc:Work
         rdf:about="">
        <dc:format>image/svg+xml</dc:format>
        <dc:type
           rdf:resource="http://purl.org/dc/dcmitype/StillImage" />
        <dc:title></dc:title>
      </cc:Work>
    </rdf:RDF>
  </metadata>
  <sodipodi:namedview
     pagecolor="#ffffff"
     bordercolor="#666666"
     borderopacity="1"
     objecttolerance="10"
     gridtolerance="10"
     guidetolerance="10"
     inkscape:pageopacity="0"
     inkscape:pageshadow="2"
     inkscape:window-width="1920"
     inkscape:window-height="1017"
     id="namedview18"
     showgrid="true"
     inkscape:zoom="3.4766083"
     inkscape:cx="67.163684"
     inkscape:cy="82.169494"
     inkscape:window-x="-8"
     inkscape:window-y="-8"
     inkscape:window-maximized="1"
     inkscape:current-layer="svg16"
     showguides="true"
     inkscape:guide-bbox="true">
    <inkscape:grid
       type="xygrid"
       id="grid827"
       spacingx="4"
       spacingy="4" />
  </sodipodi:namedview>
  <defs
     id="defs4">
    <style
       id="style2">.a{fill:none;stroke:#b1b5bd;stroke-linecap:round;stroke-linejoin:round;isolation:isolate;opacity:0.63;}</style>
  </defs>
  <rect
     class="a"
     x="8"
     y="32"
     width="176"
     height="128"
     rx="10"
     id="rect14"
     style="fill:#56595b;stroke:none;opacity:1" />
  <path
     inkscape:connector-curvature="0"
     d="m 135.00002,127 c 2.6886,0 4.8816,2.1276 4.9952,4.7835 l 0.005,0.21647 c 0,2.7614 -2.2298,5 -4.9998,5 H 60.000419 c -2.7613,0 -4.9998,-2.2442 -4.9998,-5 0,-2.7614 2.2299,-5 4.9998,-5 z m 21,-24 c 2.6888,0 4.8818,2.1276 4.9954,4.7835 l 0.005,0.21647 c 0,2.6888 -2.1276,4.8818 -4.7835,4.9954 l -0.21647,0.005 c -2.7614,0 -5,-2.2442 -5,-5 0,-2.6888 2.1276,-4.8818 4.7835,-4.9954 z m -20,0 c 2.6888,0 4.8818,2.1276 4.9954,4.7835 l 0.005,0.21647 c 0,2.6888 -2.1276,4.8818 -4.7835,4.9954 l -0.21647,0.005 c -2.7614,0 -5,-2.2442 -5,-5 0,-2.6888 2.1276,-4.8818 4.7835,-4.9954 z m -20,0 c 2.6888,0 4.8818,2.1276 4.9954,4.7835 l 0.005,0.21647 c 0,2.6888 -2.1276,4.8818 -4.7835,4.9954 l -0.21647,0.005 c -2.7614,0 -5,-2.2442 -5,-5 0,-2.6888 2.1276,-4.8818 4.7835,-4.9954 z m -20.000001,0 c 2.6888,0 4.881801,2.1276 4.995401,4.7835 l 0.005,0.21647 c 0,2.6888 -2.127601,4.8818 -4.783501,4.9954 l -0.21647,0.005 c -2.7614,0 -5,-2.2442 -5,-5 0,-2.6888 2.1276,-4.8818 4.7835,-4.9954 z m -20,0 c 2.6888,0 4.8818,2.1276 4.9954,4.7835 l 0.0046,0.21647 c 0,2.6888 -2.1276,4.8818 -4.7835,4.9954 l -0.21647,0.005 c -2.7614,0 -5,-2.2442 -5,-5 0,-2.6888 2.1276,-4.8818 4.7835,-4.9954 z m -20,0 c 2.6888,0 4.8818,2.1276 4.9954,4.7835 l 0.0046,0.21647 c 0,2.6888 -2.1276,4.8818 -4.7835,4.9954 l -0.21647,0.005 c -2.7614,0 -5,-2.2442 -5,-5 0,-2.6888 2.1276,-4.8818 4.7835,-4.9954 z m -20,0 c 2.6888,0 4.8818,2.1276 4.9954,4.7835 l 0.0046,0.21647 c 0,2.6888 -2.1276,4.8818 -4.7835,4.9954 l -0.21647,0.005 c -2.7614,0 -5,-2.2442 -5,-5 0,-2.6888 2.1276,-4.8818 4.7835,-4.9954 z M 156.00002,82 c 2.6888,0 4.8818,2.1276 4.9954,4.7835 l 0.005,0.21647 c 0,2.6888 -2.1276,4.8818 -4.7835,4.9954 l -0.21647,0.0046 c -2.7614,0 -5,-2.2442 -5,-5 0,-2.6888 2.1276,-4.8818 4.7835,-4.9954 z m -20,0 c 2.6888,0 4.8818,2.1276 4.9954,4.7835 l 0.005,0.21647 c 0,2.6888 -2.1276,4.8818 -4.7835,4.9954 l -0.21647,0.0046 c -2.7614,0 -5,-2.2442 -5,-5 0,-2.6888 2.1276,-4.8818 4.7835,-4.9954 z m -20,0 c 2.6888,0 4.8818,2.1276 4.9954,4.7835 l 0.005,0.21647 c 0,2.6888 -2.1276,4.8818 -4.7835,4.9954 l -0.21647,0.0046 c -2.7614,0 -5,-2.2442 -5,-5 0,-2.6888 2.1276,-4.8818 4.7835,-4.9954 z m -20.000001,0 c 2.6888,0 4.881801,2.1276 4.995401,4.7835 l 0.005,0.21647 c 0,2.6888 -2.127601,4.8818 -4.783501,4.9954 l -0.21647,0.0046 c -2.7614,0 -5,-2.2442 -5,-5 0,-2.6888 2.1276,-4.8818 4.7835,-4.9954 z m -20,0 c 2.6888,0 4.8818,2.1276 4.9954,4.7835 l 0.0046,0.21647 c 0,2.6888 -2.1276,4.8818 -4.7835,4.9954 l -0.21647,0.0046 c -2.7614,0 -5,-2.2442 -5,-5 0,-2.6888 2.1276,-4.8818 4.7835,-4.9954 z m -20,0 c 2.6888,0 4.8818,2.1276 4.9954,4.7835 l 0.0046,0.21647 c 0,2.6888 -2.1276,4.8818 -4.7835,4.9954 l -0.21647,0.0046 c -2.7614,0 -5,-2.2442 -5,-5 0,-2.6888 2.1276,-4.8818 4.7835,-4.9954 z m -20,0 c 2.6888,0 4.8818,2.1276 4.9954,4.7835 l 0.0046,0.21647 c 0,2.6888 -2.1276,4.8818 -4.7835,4.9954 l -0.21647,0.0046 c -2.7614,0 -5,-2.2442 -5,-5 0,-2.6888 2.1276,-4.8818 4.7835,-4.9954 z m 0,-21 c 2.6888,0 4.8818,2.1276 4.9954,4.7835 l 0.0046,0.21647 c 0,2.6888 -2.1276,4.8818 -4.7835,4.9954 l -0.21647,0.0046 c -2.7614,0 -5,-2.2442 -5,-5 0,-2.6888 2.1276,-4.8818 4.7835,-4.9954 z m 120.000001,0 c 2.6888,0 4.8818,2.1276 4.9954,4.7835 l 0.005,0.21647 c 0,2.6888 -2.1276,4.8818 -4.7835,4.9954 l -0.21647,0.0046 c -2.7614,0 -5,-2.2442 -5,-5 0,-2.6888 2.1276,-4.8818 4.7835,-4.9954 z m -20,0 c 2.6888,0 4.8818,2.1276 4.9954,4.7835 l 0.005,0.21647 c 0,2.6888 -2.1276,4.8818 -4.7835,4.9954 l -0.21647,0.0046 c -2.7614,0 -5,-2.2442 -5,-5 0,-2.6888 2.1276,-4.8818 4.7835,-4.9954 z m -20,0 c 2.6888,0 4.8818,2.1276 4.9954,4.7835 l 0.005,0.21647 c 0,2.6888 -2.1276,4.8818 -4.7835,4.9954 l -0.21647,0.0046 c -2.7614,0 -5,-2.2442 -5,-5 0,-2.6888 2.1276,-4.8818 4.7835,-4.9954 z m -20.000001,0 c 2.6888,0 4.881801,2.1276 4.995401,4.7835 l 0.005,0.21647 c 0,2.6888 -2.127601,4.8818 -4.783501,4.9954 l -0.21647,0.0046 c -2.7614,0 -5,-2.2442 -5,-5 0,-2.6888 2.1276,-4.8818 4.7835,-4.9954 z m -20,0 c 2.6888,0 4.8818,2.1276 4.9954,4.7835 l 0.0046,0.21647 c 0,2.6888 -2.1276,4.8818 -4.7835,4.9954 l -0.21647,0.0046 c -2.7614,0 -5,-2.2442 -5,-5 0,-2.6888 2.1276,-4.8818 4.7835,-4.9954 z m -20,0 c 2.6888,0 4.8818,2.1276 4.9954,4.7835 l 0.0046,0.21647 c 0,2.6888 -2.1276,4.8818 -4.7835,4.9954 l -0.21647,0.0046 c -2.7614,0 -5,-2.2442 -5,-5 0,-2.6888 2.1276,-4.8818 4.7835,-4.9954 z"
     style="fill:#b1b5bd;fill-rule:evenodd"
     id="path4" />
</svg>
