<?xml version="1.0" encoding="UTF-8" standalone="no"?>
<svg
   xmlns:dc="http://purl.org/dc/elements/1.1/"
   xmlns:cc="http://creativecommons.org/ns#"
   xmlns:rdf="http://www.w3.org/1999/02/22-rdf-syntax-ns#"
   xmlns:svg="http://www.w3.org/2000/svg"
   xmlns="http://www.w3.org/2000/svg"
   xmlns:sodipodi="http://sodipodi.sourceforge.net/DTD/sodipodi-0.dtd"
   xmlns:inkscape="http://www.inkscape.org/namespaces/inkscape"
   viewBox="0 0 192 192"
   version="1.1"
   id="svg16"
   sodipodi:docname="macbook-gold.svg"
   inkscape:version="0.92.4 (5da689c313, 2019-01-14)">
  <metadata
     id="metadata20">
    <rdf:RDF>
      <cc:Work
         rdf:about="">
        <dc:format>image/svg+xml</dc:format>
        <dc:type
           rdf:resource="http://purl.org/dc/dcmitype/StillImage" />
        <dc:title></dc:title>
      </cc:Work>
    </rdf:RDF>
  </metadata>
  <sodipodi:namedview
     pagecolor="#ffffff"
     bordercolor="#666666"
     borderopacity="1"
     objecttolerance="10"
     gridtolerance="10"
     guidetolerance="10"
     inkscape:pageopacity="0"
     inkscape:pageshadow="2"
     inkscape:window-width="1920"
     inkscape:window-height="1017"
     id="namedview18"
     showgrid="true"
     inkscape:zoom="4.9166667"
     inkscape:cx="139.77168"
     inkscape:cy="100.53445"
     inkscape:window-x="-8"
     inkscape:window-y="-8"
     inkscape:window-maximized="1"
     inkscape:current-layer="svg16"
     inkscape:snap-global="true">
    <inkscape:grid
       type="xygrid"
       id="grid827"
       spacingx="4"
       spacingy="4" />
  </sodipodi:namedview>
  <defs
     id="defs4">
    <style
       id="style2">.a{fill:none;stroke:#b1b5bd;stroke-linecap:round;stroke-linejoin:round;isolation:isolate;opacity:0.63;}</style>
    <style
       id="style2-2">.a{fill:none;stroke:#b1b5bd;stroke-linecap:round;stroke-linejoin:round;isolation:isolate;opacity:0.63;}</style>
  </defs>
  <rect
     class="a"
     x="20"
     y="76"
     width="152"
     height="96"
     rx="10"
     id="rect6-9"
     style="opacity:1;isolation:isolate;fill:#d3b69a;stroke:none;stroke-linecap:round;stroke-linejoin:round" />
  <path
     inkscape:connector-curvature="0"
     d="m 135.00002,112 c 2.6886,0 4.8816,2.1276 4.9952,4.7835 l 0.005,0.21647 c 0,2.7614 -2.2298,5 -4.9998,5 H 60.000419 c -2.7613,0 -4.9998,-2.2442 -4.9998,-5 0,-2.7614 2.2299,-5 4.9998,-5 z m 21,0 c 2.6888,0 4.8818,2.1276 4.9954,4.7835 l 0.005,0.21647 c 0,2.6888 -2.1276,4.8818 -4.7835,4.9954 l -0.21647,0.005 c -2.7614,0 -5,-2.2442 -5,-5 0,-2.6888 2.1276,-4.8818 4.7835,-4.9954 z m -120.000001,0 c 2.6888,0 4.8818,2.1276 4.9954,4.7835 l 0.0046,0.21647 c 0,2.6888 -2.1276,4.8818 -4.7835,4.9954 l -0.21647,0.005 c -2.7614,0 -5,-2.2442 -5,-5 0,-2.6888 2.1276,-4.8818 4.7835,-4.9954 z M 156.00002,93.644068 c 2.6888,0 4.8818,2.1276 4.9954,4.7835 l 0.005,0.21647 c 0,2.688802 -2.1276,4.881802 -4.7835,4.995402 l -0.21647,0.005 c -2.7614,0 -5,-2.2442 -5,-5.000002 0,-2.6888 2.1276,-4.8818 4.7835,-4.9954 z m -20,0 c 2.6888,0 4.8818,2.1276 4.9954,4.7835 l 0.005,0.21647 c 0,2.688802 -2.1276,4.881802 -4.7835,4.995402 l -0.21647,0.005 c -2.7614,0 -5,-2.2442 -5,-5.000002 0,-2.6888 2.1276,-4.8818 4.7835,-4.9954 z m -20,0 c 2.6888,0 4.8818,2.1276 4.9954,4.7835 l 0.005,0.21647 c 0,2.688802 -2.1276,4.881802 -4.7835,4.995402 l -0.21647,0.005 c -2.7614,0 -5,-2.2442 -5,-5.000002 0,-2.6888 2.1276,-4.8818 4.7835,-4.9954 z m -20.000001,0 c 2.6888,0 4.881801,2.1276 4.995401,4.7835 l 0.005,0.21647 c 0,2.688802 -2.127601,4.881802 -4.783501,4.995402 l -0.21647,0.005 c -2.7614,0 -5,-2.2442 -5,-5.000002 0,-2.6888 2.1276,-4.8818 4.7835,-4.9954 z m -20,0 c 2.6888,0 4.8818,2.1276 4.9954,4.7835 l 0.0046,0.21647 c 0,2.688802 -2.1276,4.881802 -4.7835,4.995402 l -0.21647,0.005 c -2.7614,0 -5,-2.2442 -5,-5.000002 0,-2.6888 2.1276,-4.8818 4.7835,-4.9954 z m -20,0 c 2.6888,0 4.8818,2.1276 4.9954,4.7835 l 0.0046,0.21647 c 0,2.688802 -2.1276,4.881802 -4.7835,4.995402 l -0.21647,0.005 c -2.7614,0 -5,-2.2442 -5,-5.000002 0,-2.6888 2.1276,-4.8818 4.7835,-4.9954 z m -20,0 c 2.6888,0 4.8818,2.1276 4.9954,4.7835 l 0.0046,0.21647 c 0,2.688802 -2.1276,4.881802 -4.7835,4.995402 l -0.21647,0.005 c -2.7614,0 -5,-2.2442 -5,-5.000002 0,-2.6888 2.1276,-4.8818 4.7835,-4.9954 z m 0,-21 c 2.6888,0 4.8818,2.1276 4.9954,4.7835 l 0.0046,0.21647 c 0,2.6888 -2.1276,4.8818 -4.7835,4.9954 l -0.21647,0.0046 c -2.7614,0 -5,-2.2442 -5,-5 0,-2.6888 2.1276,-4.8818 4.7835,-4.9954 z m 120.000001,0 c 2.6888,0 4.8818,2.1276 4.9954,4.7835 l 0.005,0.21647 c 0,2.6888 -2.1276,4.8818 -4.7835,4.9954 l -0.21647,0.0046 c -2.7614,0 -5,-2.2442 -5,-5 0,-2.6888 2.1276,-4.8818 4.7835,-4.9954 z m -20,0 c 2.6888,0 4.8818,2.1276 4.9954,4.7835 l 0.005,0.21647 c 0,2.6888 -2.1276,4.8818 -4.7835,4.9954 l -0.21647,0.0046 c -2.7614,0 -5,-2.2442 -5,-5 0,-2.6888 2.1276,-4.8818 4.7835,-4.9954 z m -20,0 c 2.6888,0 4.8818,2.1276 4.9954,4.7835 l 0.005,0.21647 c 0,2.6888 -2.1276,4.8818 -4.7835,4.9954 l -0.21647,0.0046 c -2.7614,0 -5,-2.2442 -5,-5 0,-2.6888 2.1276,-4.8818 4.7835,-4.9954 z m -20.000001,0 c 2.6888,0 4.881801,2.1276 4.995401,4.7835 l 0.005,0.21647 c 0,2.6888 -2.127601,4.8818 -4.783501,4.9954 l -0.21647,0.0046 c -2.7614,0 -5,-2.2442 -5,-5 0,-2.6888 2.1276,-4.8818 4.7835,-4.9954 z m -20,0 c 2.6888,0 4.8818,2.1276 4.9954,4.7835 l 0.0046,0.21647 c 0,2.6888 -2.1276,4.8818 -4.7835,4.9954 l -0.21647,0.0046 c -2.7614,0 -5,-2.2442 -5,-5 0,-2.6888 2.1276,-4.8818 4.7835,-4.9954 z m -20,0 c 2.6888,0 4.8818,2.1276 4.9954,4.7835 l 0.0046,0.21647 c 0,2.6888 -2.1276,4.8818 -4.7835,4.9954 l -0.21647,0.0046 c -2.7614,0 -5,-2.2442 -5,-5 0,-2.6888 2.1276,-4.8818 4.7835,-4.9954 z"
     style="fill:#56595b;fill-rule:evenodd"
     id="path4"
     sodipodi:nodetypes="sccssssscccccscccccccscccccccscccccccscccccccscccccccscccccccscccccccscccccccscccccccscccccccscccccccscccccccscccccccscccccccscccccccscc" />
  <path
     style="opacity:1;isolation:isolate;fill:#8e6f60;stroke:none;stroke-linecap:round;stroke-linejoin:round"
     d="M 20 84 L 20 90 C 20 95.54 24.46 100 30 100 L 162 100 C 167.54 100 172 95.54 172 90 L 172 84 L 20 84 z "
     id="rect6-9-6-3" />
  <rect
     class="a"
     x="20"
     y="20"
     width="152"
     height="76"
     rx="10"
     id="rect6-9-6"
     style="opacity:1;isolation:isolate;fill:#fcecdc;stroke:none;stroke-linecap:round;stroke-linejoin:round" />
  <rect
     style="opacity:1;vector-effect:none;fill:#d3b69a;fill-opacity:1;fill-rule:evenodd;stroke:#8e6f60;stroke-width:4;stroke-linecap:round;stroke-linejoin:round;stroke-miterlimit:4;stroke-dasharray:none;stroke-opacity:1;paint-order:stroke fill markers"
     id="rect893"
     width="50.000435"
     height="30.901972"
     x="71.104668"
     y="132.00664"
     ry="3.0625598" />
  <path
     style="fill:#d3b69a;stroke:none;stroke-width:1px;stroke-linecap:butt;stroke-linejoin:miter;stroke-opacity:1"
     d="M 100.29883 37.90625 C 99.222048 37.982683 96.854556 39.55255 95.998047 40.917969 C 95.203317 42.184901 94.689681 44.857147 95.496094 45.376953 C 96.386329 45.95079 99.644807 44.248376 100.60156 42.716797 C 101.43981 41.374919 101.68097 38.567289 100.67188 37.970703 C 100.57885 37.915706 100.45265 37.895331 100.29883 37.90625 z M 104.13477 45.865234 C 101.3894 45.763148 98.852342 47.215368 96.152344 47.236328 C 93.733671 47.255107 91.397564 45.987161 88.982422 46.119141 C 83.517532 46.417781 81.151818 50.952219 81.152344 54.865234 C 81.153078 60.326571 85.236868 66.866929 92.083984 67.068359 C 94.897049 67.151115 95.074661 65.388826 96.763672 65.441406 C 97.900736 65.476804 98.270011 67.101981 99.710938 67.119141 C 106.48501 67.199795 109.83008 61.373047 109.83008 61.373047 C 109.83008 61.373047 103.37985 60.798344 103.72852 55.017578 C 103.98843 50.708442 109.88086 49.576172 109.88086 49.576172 C 109.88086 49.576172 108.95714 46.044554 104.13477 45.865234 z "
     id="path895" />
  <path
     style="fill:#ffffff;stroke:none;stroke-width:1px;stroke-linecap:butt;stroke-linejoin:miter;stroke-opacity:1;opacity:0.5"
     d="M 100.29883 37.90625 C 99.222046 37.98268 96.854556 39.55255 95.998047 40.917969 C 95.203317 42.184901 94.689681 44.857147 95.496094 45.376953 C 96.386329 45.95079 99.64481 44.248376 100.60156 42.716797 C 101.43981 41.374919 101.68098 38.567289 100.67188 37.970703 C 100.57887 37.915703 100.45265 37.89533 100.29883 37.90625 z M 104.13477 45.865234 C 101.3894 45.763148 98.852342 47.215368 96.152344 47.236328 C 93.733671 47.255108 91.397564 45.987161 88.982422 46.119141 C 83.517532 46.417781 81.151818 50.952219 81.152344 54.865234 C 81.152712 57.605979 82.182074 60.618146 84.072266 62.964844 L 104.35938 45.882812 C 104.28269 45.878126 104.21352 45.868163 104.13477 45.865234 z "
     id="path895-4" />
</svg>
