<?xml version="1.0" encoding="UTF-8" standalone="no"?>
<svg
   xmlns:dc="http://purl.org/dc/elements/1.1/"
   xmlns:cc="http://creativecommons.org/ns#"
   xmlns:rdf="http://www.w3.org/1999/02/22-rdf-syntax-ns#"
   xmlns:svg="http://www.w3.org/2000/svg"
   xmlns="http://www.w3.org/2000/svg"
   xmlns:sodipodi="http://sodipodi.sourceforge.net/DTD/sodipodi-0.dtd"
   xmlns:inkscape="http://www.inkscape.org/namespaces/inkscape"
   viewBox="0 0 192 192"
   version="1.1"
   id="svg16"
   sodipodi:docname="windows-9x.svg"
   inkscape:version="0.92.4 (5da689c313, 2019-01-14)">
  <metadata
     id="metadata20">
    <rdf:RDF>
      <cc:Work
         rdf:about="">
        <dc:format>image/svg+xml</dc:format>
        <dc:type
           rdf:resource="http://purl.org/dc/dcmitype/StillImage" />
        <dc:title></dc:title>
      </cc:Work>
    </rdf:RDF>
  </metadata>
  <sodipodi:namedview
     pagecolor="#ffffff"
     bordercolor="#666666"
     borderopacity="1"
     objecttolerance="10"
     gridtolerance="10"
     guidetolerance="10"
     inkscape:pageopacity="0"
     inkscape:pageshadow="2"
     inkscape:window-width="1920"
     inkscape:window-height="1017"
     id="namedview18"
     showgrid="true"
     inkscape:zoom="4.1676432"
     inkscape:cx="56.840988"
     inkscape:cy="96.642977"
     inkscape:window-x="-8"
     inkscape:window-y="-8"
     inkscape:window-maximized="1"
     inkscape:current-layer="svg16"
     inkscape:snap-global="false">
    <inkscape:grid
       type="xygrid"
       id="grid827"
       spacingx="4"
       spacingy="4" />
  </sodipodi:namedview>
  <defs
     id="defs4">
    <style
       id="style2">.a{fill:none;stroke:#b1b5bd;stroke-linecap:round;stroke-linejoin:round;isolation:isolate;opacity:0.63;}</style>
  </defs>
  <path
     style="fill:#56595b;stroke-width:0.21960919"
     d="m 50.054688,23.53025 -5.527344,0.505859 -1.757813,4.019531 5.392578,-0.132812 z m 10.18164,6.789062 -7.158203,1.009766 -2.390625,5.896484 7.035156,-0.873047 z m 11.046875,9.658203 -9.417969,0.507813 -2.880859,7.027343 9.28125,-0.384765 z m 13.689453,4.158203 -11.554687,0.503906 -4.13086,9.923829 11.675782,-0.640625 z m 14.3125,5.158203 -13.6875,0.988282 -4.652344,11.18164 13.6875,-1.130859 z m 21.419924,1.607422 c -0.81053,-0.0051 -1.62636,-6.48e-4 -2.44531,0.01367 L 77.943359,148.23923 c 24.596231,-3.26559 46.446201,6.01009 65.927731,27.61524 L 183.92383,79.420874 C 166.90411,60.565871 145.83131,51.060504 120.70508,50.901343 Z m -4.72461,0.01367 -14.81641,0.876953 -5.025388,12.310547 14.820308,-1.388672 z m -5.89649,13.945313 -14.697261,1 L 90.25,78.170874 105.18359,76.788062 Z m -77.367183,0.49414 -5.392578,0.257813 -1.75586,4.132812 h 5.269532 z m 10.173828,6.658203 -7.150391,1.126953 -2.511718,5.914063 7.027343,-0.878906 z m 61.417965,6.910157 -14.685543,0.878906 -5.15625,12.195312 14.933594,-1.140625 z m -50.355465,2.761718 -9.425781,0.503907 -3.009766,7.027343 9.425781,-0.232422 z m 13.6875,4.388672 -11.673828,0.369141 -4.027344,9.923828 L 63.628906,95.749 Z m 14.308594,4.902344 -13.689453,1.130859 -4.773438,11.175779 13.945313,-1.13086 z m 16.589843,2.003906 -14.828124,0.878906 -5.015626,12.179686 14.820313,-1.25195 z m -5.777343,13.810542 -14.81836,0.87696 -5.029297,12.1875 14.933594,-1.25977 z m -77.498047,0.38086 -5.3906251,0.38086 -1.6367188,4.1543 5.2714839,-0.14258 z m 10.302734,6.65235 -7.27539,1.13281 -2.265625,5.78515 7.027343,-0.76953 z m 61.291016,7.28125 -14.826172,0.88867 -5.015625,12.29883 14.818359,-1.26172 z m -50.234375,2.39648 -9.533203,0.49023 -2.902344,7.16602 9.417969,-0.37695 z m 13.6875,4.26953 -11.548828,0.4961 -4.140625,9.77539 11.669922,-0.47461 z m 14.306641,5.12696 -13.673829,0.99609 -4.652343,11.05469 13.6875,-0.99414 z m 16.328124,2.27929 -14.693359,0.87695 -5.142578,12.29883 14.933594,-1.38867 z"
     id="path818"
     inkscape:connector-curvature="0" />
  <path
     style="fill:#ff837d;stroke-width:0.21960919"
     d="m 44.033203,37.729468 -5.271484,0.373047 -1.75586,4.146485 5.269532,-0.126954 z m 10.28125,6.664063 -7.148437,1.121093 -2.511719,5.90625 7.150391,-0.876953 z m -15.943359,6.894531 -5.261719,0.246094 -1.638672,4.146484 h 5.144531 z m 27.013672,2.892578 -9.417969,0.498047 -2.888672,7.027344 9.291016,-0.363281 z m -16.585938,3.779297 -7.28125,1.130859 -2.511719,5.896485 7.15625,-0.878907 z m 30.283203,0.488281 -11.568359,0.498047 -4.142578,9.794922 11.675781,-0.628906 z m 14.304688,5.023438 -13.6875,0.99414 -4.652344,11.175782 13.816406,-1.121094 z m 23.015621,0.957031 c -1.22357,-0.0048 -2.47786,0.0069 -3.76367,0.03711 L 99.945312,95.124 c 9.421238,-0.384316 17.716408,0.640848 24.746098,2.880862 v -0.0078 l 12.80468,-30.763668 c -5.48996,-1.873541 -12.52876,-2.771209 -21.09375,-2.804687 z M 59.84375,67.499 l -9.533203,0.626953 -2.888672,7.027343 9.427734,-0.257812 z m 13.695312,4.507812 -11.673828,0.384766 -4.021484,9.917968 11.673828,-0.625 z m 14.3125,4.888672 -13.80664,1.125 -4.527344,11.046875 13.681641,-0.988281 z"
     id="path836"
     inkscape:connector-curvature="0" />
  <path
     style="fill:#9abeff;stroke-width:0.21960919"
     d="m 26.697266,79.678687 -5.271485,0.242187 -1.755859,4.017579 5.269531,-0.121094 z m 10.308593,6.660156 -7.162109,1.001953 -2.376953,5.890625 7.027344,-0.867187 z m -15.845703,6.882813 -5.382812,0.263672 -1.75586,4.142574 5.269532,-0.12109 z m 26.902344,2.640625 -9.425781,0.503906 -3.007813,7.166013 9.544922,-0.37695 z m -16.712891,3.900391 -7.162109,1.130858 -2.376953,5.89648 7.027344,-0.8789 z m 30.386719,0.517578 -11.675781,0.49219 -4.138672,9.91796 11.800781,-0.61914 z m 40.755862,4.20117 c -2.13182,-0.0454 -4.297809,0.008 -6.496096,0.16406 l -12.333985,29.78906 c 7.405221,-0.40408 15.600909,0.48399 24.892581,2.48243 l 12.16992,-29.38086 c -5.74663,-1.88425 -11.83696,-2.9184 -18.23242,-3.05469 z m -26.433596,0.67383 -13.824219,1.1289 -4.517578,11.16993 13.808594,-1.09766 z m -33.660156,4.28125 -9.410157,0.50586 -2.896484,7.15625 9.425781,-0.37696 z m 13.802734,4.27148 -11.673828,0.62305 -4.021485,9.66211 11.552735,-0.49219 z m 14.328125,5.01367 -13.943359,1.13672 -4.517579,11.16992 13.822266,-1.13085 z"
     id="path842"
     inkscape:connector-curvature="0" />
  <path
     style="fill:#98dc9a;stroke-width:0.21960919"
     inkscape:connector-curvature="0"
     d="m 154.02179,112.95166 12.82078,-31.019791 a 49.223202,49.223202 0 0 0 -20.3402,-12.563841 q -6.52898,15.763547 -13.06235,31.524892 c 2.92519,0.58416 7.68632,2.54308 12.37717,5.4507 3.96395,2.45084 6.41698,4.51956 8.2046,6.60804 z"
     id="path906" />
  <path
     style="fill:#f9de81;stroke-width:0.21960919"
     inkscape:connector-curvature="0"
     d="m 150.26647,121.7514 c -5.7845,-5.79109 -12.68023,-9.68256 -20.58616,-11.80838 l -12.56604,30.25555 c 7.27565,2.51892 14.07256,6.65856 20.60154,12.17953 z"
     id="path908" />
</svg>
