<?xml version="1.0" encoding="UTF-8" standalone="no"?>
<svg
   xmlns:dc="http://purl.org/dc/elements/1.1/"
   xmlns:cc="http://creativecommons.org/ns#"
   xmlns:rdf="http://www.w3.org/1999/02/22-rdf-syntax-ns#"
   xmlns:svg="http://www.w3.org/2000/svg"
   xmlns="http://www.w3.org/2000/svg"
   xmlns:sodipodi="http://sodipodi.sourceforge.net/DTD/sodipodi-0.dtd"
   xmlns:inkscape="http://www.inkscape.org/namespaces/inkscape"
   viewBox="0 0 192 192"
   version="1.1"
   id="svg16"
   sodipodi:docname="extras_windows_classic.svg"
   inkscape:version="0.92.4 (5da689c313, 2019-01-14)">
  <metadata
     id="metadata20">
    <rdf:RDF>
      <cc:Work
         rdf:about="">
        <dc:format>image/svg+xml</dc:format>
        <dc:type
           rdf:resource="http://purl.org/dc/dcmitype/StillImage" />
        <dc:title></dc:title>
      </cc:Work>
    </rdf:RDF>
  </metadata>
  <sodipodi:namedview
     pagecolor="#ffffff"
     bordercolor="#666666"
     borderopacity="1"
     objecttolerance="10"
     gridtolerance="10"
     guidetolerance="10"
     inkscape:pageopacity="0"
     inkscape:pageshadow="2"
     inkscape:window-width="1920"
     inkscape:window-height="1017"
     id="namedview18"
     showgrid="true"
     inkscape:zoom="2.4583333"
     inkscape:cx="114.91525"
     inkscape:cy="82.169494"
     inkscape:window-x="-8"
     inkscape:window-y="-8"
     inkscape:window-maximized="1"
     inkscape:current-layer="svg16"
     inkscape:snap-global="false">
    <inkscape:grid
       type="xygrid"
       id="grid827"
       spacingx="4"
       spacingy="4" />
  </sodipodi:namedview>
  <defs
     id="defs4">
    <style
       id="style2">.a{fill:none;stroke:#b1b5bd;stroke-linecap:round;stroke-linejoin:round;isolation:isolate;opacity:0.63;}</style>
  </defs>
  <path
     style="fill:#f9de81;stroke-width:0.88424647"
     d="m 98.805532,173.1265 c -7.399749,-2.23811 -17.334041,-7.12983 -19.306852,-9.50691 -0.776425,-0.93563 0.846212,-7.68607 7.074001,-29.43342 4.444889,-15.52061 8.563769,-28.7479 9.152981,-29.39399 0.878755,-0.96364 2.403771,-0.45887 8.486308,2.80751 10.71473,5.75426 16.12247,7.12216 27.75276,7.02 7.7908,-0.0698 11.83437,-0.62811 20.31639,-2.81134 8.35461,-2.15061 10.79997,-2.49485 11.58607,-1.63093 0.75017,0.8244 -0.99779,8.055 -7.07396,29.26147 -9.19261,32.0832 -7.2493,28.96652 -20.52425,32.91642 -6.1172,1.82014 -10.27143,2.41136 -18.89428,2.68878 -9.93578,0.32016 -11.81298,0.12562 -18.569168,-1.91759 z"
     id="path840" />
  <path
     style="fill:#9abeff;stroke-width:0.88424647"
     d="m 63.877741,154.51092 c -14.653897,-7.93993 -28.602909,-8.47269 -47.849045,-1.82773 -3.829946,1.32236 -6.7580209,1.88199 -7.4874228,1.43123 -0.9609346,-0.59409 0.459746,-6.55379 7.1815638,-30.12722 l 8.379528,-29.386839 7.066148,-2.430553 c 14.980344,-5.152747 26.839466,-6.363097 37.56894,-3.834312 5.355398,1.26217 17.755752,7.15749 20.013745,9.514763 0.747638,0.779912 -1.108189,8.278411 -7.369304,29.780721 -4.602358,15.80588 -8.832031,29.18235 -9.399083,29.7254 -0.765952,0.73368 -2.848425,0.003 -8.10507,-2.84546 z"
     id="path838" />
  <path
     style="fill:#98dc9a;stroke-width:0.88424647"
     d="m 121.81866,106.79596 c -5.94185,-1.28807 -18.38556,-6.830518 -21.984937,-9.792177 l -2.066505,-1.700456 8.361732,-28.993998 c 4.59896,-15.946687 8.77297,-29.405155 9.27547,-29.907648 0.62898,-0.628991 2.80454,0.209372 6.977,2.68843 15.91977,9.457795 30.27719,10.42213 51.83128,3.481429 6.52377,-2.100704 8.89662,-2.53428 9.66501,-1.765883 1.4144,1.414399 -14.66571,57.424872 -17.10138,59.567713 -3.96881,3.49164 -22.88566,7.86011 -33.48522,7.73265 -3.16119,-0.0349 -8.32379,-0.62724 -11.47245,-1.31006 z"
     id="path836" />
  <path
     style="fill:#ff837d;stroke-width:0.88424647"
     d="m 83.204658,85.96671 c -9.265605,-5.017701 -15.627046,-6.403487 -26.842959,-5.847603 -7.059694,0.349826 -11.319553,1.118308 -17.776429,3.206278 -9.78729,3.16493 -11.41848,3.336964 -11.365176,1.198574 0.01746,-0.851452 3.723083,-14.280607 8.226335,-29.843357 l 8.187692,-28.295828 5.258474,-1.929107 c 21.566332,-7.911491 37.998763,-7.267932 54.041415,2.116582 3.26299,1.90878 5.59819,3.878889 5.59819,4.723009 0,1.491518 -15.66866,56.312582 -16.461748,57.595776 -0.723206,1.169782 -2.213853,0.67784 -8.865794,-2.924324 z"
     id="path833" />
</svg>
