<?xml version="1.0" encoding="UTF-8" standalone="no"?>
<svg
   xmlns:dc="http://purl.org/dc/elements/1.1/"
   xmlns:cc="http://creativecommons.org/ns#"
   xmlns:rdf="http://www.w3.org/1999/02/22-rdf-syntax-ns#"
   xmlns:svg="http://www.w3.org/2000/svg"
   xmlns="http://www.w3.org/2000/svg"
   xmlns:sodipodi="http://sodipodi.sourceforge.net/DTD/sodipodi-0.dtd"
   xmlns:inkscape="http://www.inkscape.org/namespaces/inkscape"
   viewBox="0 0 192 192"
   version="1.1"
   id="svg16"
   sodipodi:docname="7-days-to-die.svg"
   inkscape:version="0.92.4 (5da689c313, 2019-01-14)">
  <metadata
     id="metadata20">
    <rdf:RDF>
      <cc:Work
         rdf:about="">
        <dc:format>image/svg+xml</dc:format>
        <dc:type
           rdf:resource="http://purl.org/dc/dcmitype/StillImage" />
        <dc:title></dc:title>
      </cc:Work>
    </rdf:RDF>
  </metadata>
  <sodipodi:namedview
     pagecolor="#ffffff"
     bordercolor="#666666"
     borderopacity="1"
     objecttolerance="10"
     gridtolerance="10"
     guidetolerance="10"
     inkscape:pageopacity="0"
     inkscape:pageshadow="2"
     inkscape:window-width="960"
     inkscape:window-height="1017"
     id="namedview18"
     showgrid="true"
     inkscape:zoom="2.3122179"
     inkscape:cx="110.27337"
     inkscape:cy="114.19176"
     inkscape:window-x="952"
     inkscape:window-y="-8"
     inkscape:window-maximized="0"
     inkscape:current-layer="svg16"
     inkscape:snap-global="false">
    <inkscape:grid
       type="xygrid"
       id="grid827"
       spacingx="4"
       spacingy="4" />
  </sodipodi:namedview>
  <defs
     id="defs4">
    <style
       id="style2">.a{fill:none;stroke:#b1b5bd;stroke-linecap:round;stroke-linejoin:round;isolation:isolate;opacity:0.63;}</style>
  </defs>
  <rect
     class="a"
     x="20"
     y="20"
     width="152"
     height="152"
     rx="10"
     id="rect6"
     style="fill:#56595b;stroke:none;opacity:1" />
  <path
     inkscape:connector-curvature="0"
     sodipodi:nodetypes="ccccccccccccccccccccccccccccccccccccccccccccccccscscccscccccccc"
     d="m 83.132571,139.62842 c 1.160325,-1.87051 3.06864,1.07875 0,0 z m 2.891097,-1.55112 c -3.843896,0.25063 0.453051,-3.37683 0.366655,-5.48527 1.63212,-2.5488 2.620266,-7.25123 3.607639,-8.81097 -0.122671,-1.19162 1.839814,-2.04414 -0.316081,-2.38654 -1.717945,1.86172 -1.57321,4.92896 -4.034616,5.45077 0.358561,0.61272 0.929728,-0.83841 0.15297,1.12711 -0.542614,1.0751 -3.625581,3.59467 -2.157199,1.12859 1.172231,-0.20262 -1.385565,-0.80881 0.361485,-1.29369 -1.989586,0.001 1.037664,-3.89413 0.128761,-3.85385 2.030338,-1.04569 1.106487,-3.18887 1.63213,-5.50668 -0.33776,-3.3415 1.349148,-6.36921 1.681031,-9.62064 1.806662,-2.1757 2.885104,-5.01991 4.353789,-7.52765 -0.380763,-1.663327 1.768907,-1.789046 1.239066,-3.561407 2.172773,-2.147062 0.192206,-4.577014 0.494843,-6.71079 0.467202,-1.762575 2.560408,1.698763 2.380067,-1.47628 1.03536,-1.684551 1.771231,-5.279618 2.455555,-7.736415 0.788451,-3.160166 -0.26478,-4.36593 1.616674,-7.02704 1.061833,-2.210321 1.011193,-2.609935 1.011193,-2.609935 l -24.968843,0 -4.007602,-12.455289 51.882585,0 c -1.49722,3.76727 -3.63898,8.062328 -5.45097,11.688368 -1.01812,3.662786 -2.96751,6.595344 -4.85622,9.87755 -1.5111,1.316927 -1.19366,4.392248 -2.52425,4.407119 -1.07756,2.440902 -4.34226,4.815121 -3.40757,7.933112 0.0321,3.457951 -2.83177,5.26984 -4.27268,8.059027 -0.0137,1.95747 1.36116,2.48355 2.51994,0.48849 2.08324,1.48664 -2.01785,5.28227 -3.17889,7.29222 -0.6302,2.11033 -0.8174,-1.64726 -2.11138,0.8497 -2.165354,1.54727 -3.295104,2.88737 -2.695826,5.73094 -2.35005,1.47638 -0.32149,4.43212 -2.871635,5.37506 -0.786973,1.44973 -0.791041,3.06795 -2.692067,3.08925 -0.533945,2.20138 -1.91702,5.06899 -3.38246,7.30665 -1.230132,1.98378 -3.563114,3.39002 -2.617472,5.91007 0.344773,-0.23503 -0.37872,0.77911 -0.338643,0.34843 z m 0.936119,-19.00381 c -1.769898,-0.0288 0.167517,1.3975 0,0 z M 98.722655,87.494376 c -0.601681,-1.672345 4.156775,-1.273948 1.446695,-1.795799 1.92778,-4.190668 -3.517656,0.609841 -2.213726,2.332005 -2.290468,-1.897929 0.254963,2.596128 0.644636,0.0084 l 0.122395,-0.544624 z m 1.984685,-0.481782 c -1.58081,-0.37455 -0.2665,2.56606 0,0 z M 82.680289,134.29727 c 0.798371,-1.61952 1.028057,-1.22723 0.04797,0.27769 -0.598307,0.33792 -1.047886,-0.35768 -0.04797,-0.27769 z m -0.413777,-10.497 c -3.70885,0.39703 0.727256,-5.83211 0.942436,-1.95446 2.172901,1.76492 -1.987177,0.0472 -0.360243,2.16013 l -0.58218,-0.2057 z m 1.964815,-7.05271 c 1.702971,-1.45098 0.201382,1.32687 0,0 z m 15.490819,-1.8062 c 0.108897,-1.71013 3.360954,-3.99696 1.533564,-0.88576 -0.24956,0.41032 -1.273401,2.54386 -1.533564,0.88576 z M 108.7421,94.220798 c 0.83027,-1.924693 0.77198,1.441744 0,0 z"
     style="fill:#ba6561;fill-opacity:1;stroke-width:0.39217377"
     id="path6827" />
</svg>
