<?xml version="1.0" encoding="UTF-8" standalone="no"?>
<svg
   xmlns:dc="http://purl.org/dc/elements/1.1/"
   xmlns:cc="http://creativecommons.org/ns#"
   xmlns:rdf="http://www.w3.org/1999/02/22-rdf-syntax-ns#"
   xmlns:svg="http://www.w3.org/2000/svg"
   xmlns="http://www.w3.org/2000/svg"
   xmlns:sodipodi="http://sodipodi.sourceforge.net/DTD/sodipodi-0.dtd"
   xmlns:inkscape="http://www.inkscape.org/namespaces/inkscape"
   viewBox="0 0 192 192"
   version="1.1"
   id="svg16"
   sodipodi:docname="analogue-a-hate-story.svg"
   inkscape:version="0.92.4 (5da689c313, 2019-01-14)">
  <metadata
     id="metadata20">
    <rdf:RDF>
      <cc:Work
         rdf:about="">
        <dc:format>image/svg+xml</dc:format>
        <dc:type
           rdf:resource="http://purl.org/dc/dcmitype/StillImage" />
        <dc:title></dc:title>
      </cc:Work>
    </rdf:RDF>
  </metadata>
  <sodipodi:namedview
     pagecolor="#ffffff"
     bordercolor="#666666"
     borderopacity="1"
     objecttolerance="10"
     gridtolerance="10"
     guidetolerance="10"
     inkscape:pageopacity="0"
     inkscape:pageshadow="2"
     inkscape:window-width="1920"
     inkscape:window-height="1017"
     id="namedview18"
     showgrid="true"
     inkscape:zoom="5.8939376"
     inkscape:cx="93.252892"
     inkscape:cy="2.1124055"
     inkscape:window-x="-8"
     inkscape:window-y="-8"
     inkscape:window-maximized="1"
     inkscape:current-layer="svg16"
     inkscape:snap-global="false">
    <inkscape:grid
       type="xygrid"
       id="grid827"
       spacingx="4"
       spacingy="4" />
  </sodipodi:namedview>
  <defs
     id="defs4">
    <style
       id="style2">.a{fill:none;stroke:#b1b5bd;stroke-linecap:round;stroke-linejoin:round;isolation:isolate;opacity:0.63;}</style>
  </defs>
  <path
     style="fill:#fcecdc;stroke:none;stroke-width:1px;stroke-linecap:butt;stroke-linejoin:miter;stroke-opacity:1"
     d="m 92,156 c 36,0 56,-44 56,-44 L 132,52 H 57.856059 L 42.077134,112 C 42.077134,112 56,156 92,156 Z"
     id="path831"
     inkscape:connector-curvature="0"
     sodipodi:nodetypes="cccccc" />
  <path
     style="fill:none;stroke:#56595b;stroke-width:4;stroke-linecap:round;stroke-linejoin:round;stroke-miterlimit:4;stroke-dasharray:none;stroke-opacity:1"
     d="m 58.874054,93.5938 c 0,0 5.341079,-4.08424 11.706944,-4.750644 5.770686,-0.604098 11.706945,1.526993 11.706945,1.526993"
     id="path833"
     inkscape:connector-curvature="0"
     sodipodi:nodetypes="csc" />
  <path
     style="fill:none;stroke:#56595b;stroke-width:4;stroke-linecap:round;stroke-linejoin:round;stroke-miterlimit:4;stroke-dasharray:none;stroke-opacity:1"
     d="m 106.21083,90.879146 c 0,0 6.19661,-2.327062 11.87661,-1.696659 6.45582,0.716508 12.72494,4.241647 12.72494,4.241647"
     id="path835"
     inkscape:connector-curvature="0"
     sodipodi:nodetypes="csc" />
  <path
     style="fill:#54688c;stroke:none;stroke-width:1px;stroke-linecap:butt;stroke-linejoin:miter;stroke-opacity:1"
     d="M 20,96 C 20,44 44,8 96,8 c 36.87818,0 72,32 72,84 0,20.9654 -14.69906,75.53479 -40,92 0.88268,-7.77289 0,-12 0,-12 0,0 -2.90969,5.00287 -8,8 9.85734,-20.80404 12,-32 12,-32 0,0 -2.39256,5.66367 -8,8 11.07491,-22.48632 12,-36 12,-36 0,0 -1.71702,4.89996 -8,12 5.58626,-18.4709 8,-28 8,-28 V 88 c 0,0 -3.27458,7.923663 -12,16 5.82259,-20.426555 8,-40 8,-40 0,0 -4.80578,24.580578 -24,36 7.59267,-19.714087 12,-36 12,-36 0,0 -12.83576,21.430944 -48,36 C 86.850173,84.51464 88,76 88,76 88,76 85.960888,79.144585 72,88 84,76 88,64 88,64 88,64 52.079044,76 48.079044,112 46.234107,128.60444 60.161792,146.88374 68,156 59.441146,151.29439 52,144 52,144 c 0,0 3.011527,9.69671 12,20 -17.029023,-6.67491 -20,-20 -20,-20 0,0 4.234252,19.13774 16,40 -10.37581,-8.08507 -16,-16 -16,-16 0,0 0.890607,4.66147 4,16 C 30.624088,161.21107 20,126.78239 20,96 Z"
     id="path829"
     inkscape:connector-curvature="0"
     sodipodi:nodetypes="ssscccccccccccccccccscccccccs" />
  <path
     style="fill:#ba6561;stroke:#ba6561;stroke-width:8;stroke-linecap:round;stroke-linejoin:round;stroke-miterlimit:4;stroke-dasharray:none;stroke-opacity:1"
     d="m 80,124 c 0,0 4,-4 12,-4 8,0 12,4 12,4 0,0 0,16 -12,16 -12,0 -12,-16 -12,-16 z"
     id="path837"
     inkscape:connector-curvature="0"
     sodipodi:nodetypes="cscsc" />
  <path
     style="fill:#ff837d;stroke:none;stroke-width:1px;stroke-linecap:butt;stroke-linejoin:miter;stroke-opacity:1"
     d="M 92 120 C 81.890608 120 78.046892 126.27605 76.6875 129.74805 C 76.94 130.90024 77.280311 132.14138 77.753906 133.4043 C 78.657823 135.81474 80.057015 138.40376 82.404297 140.49023 C 84.751579 142.57671 88.111111 144 92 144 C 95.888889 144 99.248424 142.57671 101.5957 140.49023 C 103.94299 138.40376 105.34218 135.81474 106.24609 133.4043 C 106.71969 132.14138 107.06 130.90024 107.3125 129.74805 C 105.95311 126.27605 102.10939 120 92 120 z "
     id="path839" />
  <rect
     style="opacity:0.25;vector-effect:none;fill:#000000;fill-opacity:1;fill-rule:evenodd;stroke:none;stroke-width:6.50252008;stroke-linecap:round;stroke-linejoin:round;stroke-miterlimit:4;stroke-dasharray:none;stroke-opacity:1;paint-order:stroke fill markers"
     id="rect859"
     width="2.642673"
     height="8"
     x="91.491005"
     y="100"
     ry="4"
     rx="1.3213365" />
</svg>
