<?xml version="1.0" encoding="UTF-8" standalone="no"?>
<svg
   xmlns:dc="http://purl.org/dc/elements/1.1/"
   xmlns:cc="http://creativecommons.org/ns#"
   xmlns:rdf="http://www.w3.org/1999/02/22-rdf-syntax-ns#"
   xmlns:svg="http://www.w3.org/2000/svg"
   xmlns="http://www.w3.org/2000/svg"
   xmlns:sodipodi="http://sodipodi.sourceforge.net/DTD/sodipodi-0.dtd"
   xmlns:inkscape="http://www.inkscape.org/namespaces/inkscape"
   viewBox="0 0 192 192"
   version="1.1"
   id="svg16"
   sodipodi:docname="antichamber.svg"
   inkscape:version="0.92.4 (5da689c313, 2019-01-14)">
  <metadata
     id="metadata20">
    <rdf:RDF>
      <cc:Work
         rdf:about="">
        <dc:format>image/svg+xml</dc:format>
        <dc:type
           rdf:resource="http://purl.org/dc/dcmitype/StillImage" />
        <dc:title></dc:title>
      </cc:Work>
    </rdf:RDF>
  </metadata>
  <sodipodi:namedview
     pagecolor="#ffffff"
     bordercolor="#666666"
     borderopacity="1"
     objecttolerance="10"
     gridtolerance="10"
     guidetolerance="10"
     inkscape:pageopacity="0"
     inkscape:pageshadow="2"
     inkscape:window-width="1920"
     inkscape:window-height="1017"
     id="namedview18"
     showgrid="true"
     inkscape:zoom="4.1676432"
     inkscape:cx="61.586105"
     inkscape:cy="87.045226"
     inkscape:window-x="-8"
     inkscape:window-y="-8"
     inkscape:window-maximized="1"
     inkscape:current-layer="svg16"
     inkscape:snap-global="false">
    <inkscape:grid
       type="xygrid"
       id="grid827"
       spacingx="4"
       spacingy="4" />
  </sodipodi:namedview>
  <defs
     id="defs4">
    <style
       id="style2">.a{fill:none;stroke:#b1b5bd;stroke-linecap:round;stroke-linejoin:round;isolation:isolate;opacity:0.63;}</style>
  </defs>
  <circle
     class="a"
     cx="96"
     cy="96"
     r="88"
     id="circle8"
     style="fill:#56595b;stroke:none;opacity:1" />
  <path
     style="opacity:1;vector-effect:none;fill:#ffffff;fill-opacity:1;fill-rule:evenodd;stroke-width:0.08134893;paint-order:normal"
     d="m 97.081991,56.919255 c -0.419299,7.65e-4 -0.879622,0.0031 -1.361954,0.0054 L 92.212031,56.946035 79.694299,78.30013 C 71.47658,92.318715 67.176454,99.729211 67.176415,99.872512 c -7.2e-5,0.337158 0.38751,2.357348 0.657467,3.427318 0.735533,2.91519 2.012252,5.82722 3.707095,8.45506 l 0.511602,0.79312 h 22.5961 22.596251 l -0.44662,-0.43882 c -0.24561,-0.2413 -1.70461,-1.63237 -3.24236,-3.09111 l -2.7959,-2.65228 -20.316727,-0.0216 -20.31673,-0.0216 14.550645,-24.679372 C 92.68008,68.069502 99.227892,56.949643 99.227892,56.932463 c 0,-0.01266 -0.88799,-0.01881 -2.145901,-0.01591 z m 2.561225,0.232322 c -0.075,0.0031 -28.798969,48.764193 -28.737623,48.784403 0.02931,0.0109 1.936631,-0.52656 4.238089,-1.19163 2.780378,-0.80347 4.218357,-1.25572 4.285601,-1.34767 0.05563,-0.0764 4.665172,-7.785325 10.243446,-17.131565 5.578274,-9.346243 10.16669,-16.978035 10.196419,-16.959664 0.02969,0.01845 6.587532,11.182165 14.572902,24.808563 7.98535,13.626396 14.54901,24.766296 14.58575,24.755196 0.0369,-0.0109 0.77804,-1.36722 1.64732,-3.01345 0.86929,-1.6462 1.58043,-3.02985 1.58043,-3.07486 0,-0.10961 -32.549519,-55.631861 -32.612334,-55.629323 z M 89.14094,60.336098 c -0.394297,0.005 -2.99194,0.661509 -4.474502,1.139681 -10.232144,3.300161 -18.696897,11.258819 -22.60817,21.256534 -1.200725,3.069205 -1.927876,6.031669 -2.336553,9.519411 -0.199765,1.704921 -0.202188,5.838731 -0.0047,7.585482 0.843547,7.451594 3.594301,13.919254 8.346838,19.625744 0.936136,1.12403 2.989994,3.20275 4.123065,4.17296 1.08927,0.93265 3.562214,2.79073 2.958586,2.22294 -0.06552,-0.0615 -0.521836,-0.45441 -1.013996,-0.87274 -4.545281,-3.86383 -8.111134,-9.2082 -9.965881,-14.93661 -1.09629,-3.38583 -1.530363,-6.0176 -1.600443,-9.70355 -0.04909,-2.583497 0.04934,-4.028991 0.426447,-6.263875 1.917026,-11.361443 9.620403,-20.944238 20.356452,-25.322709 l 1.244386,-0.507475 2.310024,-3.942247 c 1.270515,-2.168246 2.299649,-3.952767 2.286818,-3.965598 -0.0054,-0.0057 -0.02243,-0.0081 -0.04855,-0.0081 z m 13.47104,8.23e-4 c -0.006,4.84e-4 -0.0109,0.0016 -0.0123,0.0033 -0.0152,0.0152 1.04116,1.850202 2.34751,4.077615 l 2.37517,4.049812 1.39611,0.677163 c 2.15297,1.044421 3.75729,2.031273 5.4642,3.360889 1.15541,0.900015 2.65414,2.25996 3.44367,3.124779 0.61679,0.675615 0.67016,0.714876 0.83128,0.611868 0.0947,-0.06052 1.13388,-0.686362 2.30923,-1.390718 l 2.13699,-1.280607 -0.17906,-0.258841 c -1.48475,-2.146469 -3.98908,-4.791578 -6.25067,-6.601967 -1.82481,-1.46073 -3.53957,-2.557416 -5.7351,-3.66801 -1.82362,-0.922463 -2.82763,-1.334743 -4.43353,-1.820182 -1.03627,-0.313249 -3.49038,-0.899339 -3.69326,-0.88515 z m 13.94577,5.840718 c -0.005,0.0068 0.0721,0.07676 0.23864,0.219443 2.71049,2.320311 4.30052,3.988169 6.01014,6.304384 0.55186,0.747665 0.61869,0.807317 1.33398,1.19211 0.79271,0.426408 0.94378,0.485448 0.81796,0.319001 -2.19991,-2.909611 -5.736,-6.317619 -8.24055,-7.941842 -0.10159,-0.06588 -0.15597,-0.09855 -0.16016,-0.09312 z m -16.671443,3.965605 c -0.03291,-0.03436 -0.562458,1.862225 -1.176225,4.215206 l -1.115844,4.27811 10.171952,17.121085 c 5.59458,9.416595 10.17194,17.138265 10.17194,17.159205 0,0.0216 -10.25123,0.038 -22.780544,0.038 -21.671197,0 -22.776752,0.007 -22.702696,0.14253 0.0428,0.0781 0.387396,0.52673 0.765663,0.99654 1.319676,1.63892 2.909963,3.24269 4.47689,4.51471 l 0.745803,0.60533 25.123154,0.002 25.12298,0.002 -0.16171,-0.26446 c -0.089,-0.14513 -6.55631,-11.17299 -14.37159,-24.506087 C 106.34078,81.114928 99.919448,70.177716 99.886347,70.143117 Z m -20.562366,1.06675 c -0.07459,0.0152 -0.694127,0.396208 -1.653515,1.034498 -6.177152,4.109711 -10.760108,10.101285 -13.061267,17.075643 -1.078319,3.268126 -1.557695,6.076704 -1.639533,9.606319 -0.126146,5.440656 0.946776,10.369716 3.310207,15.208126 1.575859,3.22608 3.474541,5.92149 5.980894,8.49079 0.671127,0.68798 1.58776,1.56862 2.036901,1.95683 2.96017,2.55859 6.71037,4.78653 10.00274,5.94229 2.445125,0.85832 5.705464,1.53601 8.582309,1.78394 1.13021,0.0974 4.766903,0.10024 5.897793,0.003 3.7339,-0.31545 7.27001,-1.14692 10.73807,-2.52483 1.36697,-0.54316 4.25716,-2.01654 5.55316,-2.83085 2.47945,-1.55797 4.48439,-3.16448 6.62883,-5.31185 0.79417,-0.79522 1.44395,-1.48354 1.44395,-1.52956 0,-0.0565 -1.38252,-0.0836 -4.22205,-0.0836 h -4.22203 l -1.03625,0.66221 c -2.04077,1.30437 -5.10887,2.74418 -7.48093,3.51058 -1.86973,0.60409 -4.68859,1.22009 -6.833302,1.49319 -1.413031,0.17979 -5.218206,0.20476 -6.58927,0.0427 C 86.507679,125.0013 81.021694,122.61943 76.409523,118.64028 67.763234,111.1806 64.15143,99.511902 67.057572,88.426726 68.80918,81.745401 73.042433,75.644518 78.646136,71.725892 c 0.524784,-0.366971 0.728861,-0.527871 0.677805,-0.517489 z m 48.297269,12.5012 c -0.003,-8.4e-5 -0.003,5.67e-4 -0.007,0.002 -0.0401,0.02497 -0.8683,0.520885 -1.84068,1.102502 -0.97237,0.581614 -1.77708,1.066544 -1.78825,1.077715 -0.0109,0.01121 0.10998,0.421376 0.26879,0.911523 0.63739,1.964918 1.11672,4.26922 1.34463,6.463579 0.11865,1.142774 0.11974,4.584691 0.002,5.531732 l -0.0861,0.691463 0.8661,1.483992 c 0.47633,0.81624 0.89052,1.45685 0.92057,1.42359 0.029,-0.0325 0.18631,-0.55456 0.34765,-1.1586 0.53957,-2.023233 0.8139,-3.442887 1.04532,-5.409683 0.14036,-1.194698 0.13891,-5.560874 -0.002,-6.75196 -0.25323,-2.132343 -0.89843,-5.360554 -1.069,-5.367914 z m 0.55625,0.03958 c -0.0325,0 -0.003,0.192204 0.0586,0.42708 0.22502,0.838751 0.60881,2.865679 0.77204,4.076659 0.21525,1.596557 0.29989,5.089394 0.16352,6.737027 -0.20187,2.437006 -0.6532,4.877978 -1.29236,6.99073 l -0.31076,1.0264 1.30711,2.22757 c 1.62056,2.76194 1.43562,2.47749 1.51612,2.33368 0.0361,-0.0651 0.23369,-0.70122 0.43834,-1.41373 1.50991,-5.2558 1.81268,-10.774772 0.89312,-16.283455 -0.22864,-1.369084 -0.78587,-3.6698 -1.14668,-4.733967 l -0.23297,-0.686384 -1.05515,-0.3508 c -0.58033,-0.192963 -1.08043,-0.350799 -1.11126,-0.350799 z m -32.279628,4.809912 -3.457331,2.008139 -3.457165,2.008301 0.01773,3.488472 0.01773,3.48863 3.375976,1.977492 c 1.856792,1.08758 3.430891,1.978 3.498007,1.97858 0.06714,5.7e-4 1.641212,-0.8873 3.498004,-1.97319 l 3.375957,-1.974303 0.0192,-3.492918 0.0192,-3.492763 -3.453358,-2.008301 z m 6.014578,4.79466 v 2.835768 2.835621 l -2.826882,1.647785 c -1.554779,0.90625 -2.854326,1.66272 -2.887883,1.68117 -0.03329,0.0182 -0.06099,-1.24106 -0.06099,-2.798922 v -2.832433 l 2.01338,-1.173207 c 1.107366,-0.645238 2.406905,-1.403294 2.887885,-1.684494 z m -11.946377,0.04782 c 0.0054,-0.001 0.01049,2.75e-4 0.01628,0.0037 0.06016,0.03545 1.359755,0.795444 2.887891,1.688147 l 2.778408,1.623167 v 2.830672 c 0,1.556928 -0.0091,2.829778 -0.02027,2.828628 -0.01121,-0.001 -1.310733,-0.75587 -2.887888,-1.6772 l -2.867396,-1.675095 v -2.841651 c 0,-2.211633 0.01628,-2.764382 0.09326,-2.780321 z M 61.283705,109.87094 c -0.07926,-0.003 -0.236303,0.24889 -0.732928,1.09455 -0.393007,0.66914 -0.766076,1.29911 -0.829062,1.39979 l -0.114534,0.18304 h 1.435055 c 1.328813,0 1.431728,-0.0109 1.391821,-0.14253 -0.02387,-0.0781 -0.259709,-0.61828 -0.52448,-1.19993 -0.264737,-0.58162 -0.518002,-1.14753 -0.562764,-1.25739 -0.01916,-0.0464 -0.03628,-0.0764 -0.06309,-0.0778 z m -0.135878,3.08412 c -0.852786,0 -1.538291,0.0325 -1.523383,0.0697 0.01483,0.0383 0.753621,1.44788 1.641592,3.13192 l 1.614585,3.06204 h 1.903754 c 1.047117,0 1.903918,-0.018 1.903918,-0.0417 0,-0.0217 -0.244621,-0.36142 -0.543711,-0.75251 -0.761771,-0.99618 -2.103572,-3.05857 -2.711841,-4.16831 -0.281992,-0.51454 -0.56253,-1.01789 -0.623462,-1.11856 -0.108636,-0.17944 -0.140544,-0.18305 -1.661452,-0.18305 z"
     id="rect835"
     inkscape:connector-curvature="0" />
</svg>
