<?xml version="1.0" encoding="UTF-8" standalone="no"?>
<svg
   xmlns:dc="http://purl.org/dc/elements/1.1/"
   xmlns:cc="http://creativecommons.org/ns#"
   xmlns:rdf="http://www.w3.org/1999/02/22-rdf-syntax-ns#"
   xmlns:svg="http://www.w3.org/2000/svg"
   xmlns="http://www.w3.org/2000/svg"
   xmlns:sodipodi="http://sodipodi.sourceforge.net/DTD/sodipodi-0.dtd"
   xmlns:inkscape="http://www.inkscape.org/namespaces/inkscape"
   viewBox="0 0 192 192"
   version="1.1"
   id="svg16"
   sodipodi:docname="chilloutvr.svg"
   inkscape:version="0.92.4 (5da689c313, 2019-01-14)">
  <metadata
     id="metadata20">
    <rdf:RDF>
      <cc:Work
         rdf:about="">
        <dc:format>image/svg+xml</dc:format>
        <dc:type
           rdf:resource="http://purl.org/dc/dcmitype/StillImage" />
        <dc:title></dc:title>
      </cc:Work>
    </rdf:RDF>
  </metadata>
  <sodipodi:namedview
     pagecolor="#ffffff"
     bordercolor="#666666"
     borderopacity="1"
     objecttolerance="10"
     gridtolerance="10"
     guidetolerance="10"
     inkscape:pageopacity="0"
     inkscape:pageshadow="2"
     inkscape:window-width="1920"
     inkscape:window-height="1017"
     id="namedview18"
     showgrid="true"
     inkscape:zoom="4.1676432"
     inkscape:cx="85.658289"
     inkscape:cy="95.862206"
     inkscape:window-x="-8"
     inkscape:window-y="-8"
     inkscape:window-maximized="1"
     inkscape:current-layer="svg16">
    <inkscape:grid
       type="xygrid"
       id="grid827"
       spacingx="4"
       spacingy="4" />
  </sodipodi:namedview>
  <defs
     id="defs4">
    <style
       id="style2">.a{fill:none;stroke:#b1b5bd;stroke-linecap:round;stroke-linejoin:round;isolation:isolate;opacity:0.63;}</style>
  </defs>
  <rect
     class="a"
     x="8"
     y="32"
     width="176"
     height="128"
     rx="10"
     id="rect14"
     style="fill:#ff837d;stroke:none;opacity:1" />
  <path
     style="fill:#ffffff;stroke:none;stroke-width:1px;stroke-linecap:butt;stroke-linejoin:miter;stroke-opacity:1"
     d="m 92,120 20,-32 h 12 c 0,0 4,0 4,4 0,4 -4,4 -4,4 h -8 l -9.98578,16 H 120 l 4,8 h 16 l -6.03234,-12 C 133.96766,108 144,104 144,92 144,72 124,72 124,72 H 101.67961 L 92,88 82.680309,72 c 0,0 -9.786873,0 -14.680309,0 -12,0 -24,12.686292 -24,24 0,16 12.06719,24.1609 24.359916,24.1609 8,0 13.180036,-2.18355 13.180036,-2.18355 L 73.240384,103.03146 C 73.240384,103.03146 72,104 68,104 c -3.771236,0 -8,-4 -8,-8 0,-4 4,-8 8,-8 6.58058,0 8,4 8,4 z"
     id="path829"
     inkscape:connector-curvature="0"
     sodipodi:nodetypes="cccscccccccsccccsssccssscc" />
</svg>
