<?xml version="1.0" encoding="UTF-8" standalone="no"?>
<svg
   xmlns:dc="http://purl.org/dc/elements/1.1/"
   xmlns:cc="http://creativecommons.org/ns#"
   xmlns:rdf="http://www.w3.org/1999/02/22-rdf-syntax-ns#"
   xmlns:svg="http://www.w3.org/2000/svg"
   xmlns="http://www.w3.org/2000/svg"
   xmlns:sodipodi="http://sodipodi.sourceforge.net/DTD/sodipodi-0.dtd"
   xmlns:inkscape="http://www.inkscape.org/namespaces/inkscape"
   viewBox="0 0 192 192"
   version="1.1"
   id="svg16"
   sodipodi:docname="dangerous-golf.svg"
   inkscape:version="0.92.4 (5da689c313, 2019-01-14)">
  <metadata
     id="metadata20">
    <rdf:RDF>
      <cc:Work
         rdf:about="">
        <dc:format>image/svg+xml</dc:format>
        <dc:type
           rdf:resource="http://purl.org/dc/dcmitype/StillImage" />
        <dc:title></dc:title>
      </cc:Work>
    </rdf:RDF>
  </metadata>
  <sodipodi:namedview
     pagecolor="#ffffff"
     bordercolor="#666666"
     borderopacity="1"
     objecttolerance="10"
     gridtolerance="10"
     guidetolerance="10"
     inkscape:pageopacity="0"
     inkscape:pageshadow="2"
     inkscape:window-width="1920"
     inkscape:window-height="1017"
     id="namedview18"
     showgrid="true"
     inkscape:zoom="8.3352865"
     inkscape:cx="60.114161"
     inkscape:cy="110.22269"
     inkscape:window-x="-8"
     inkscape:window-y="-8"
     inkscape:window-maximized="1"
     inkscape:current-layer="svg16"
     inkscape:snap-global="false">
    <inkscape:grid
       type="xygrid"
       id="grid827"
       spacingx="4"
       spacingy="4" />
  </sodipodi:namedview>
  <defs
     id="defs4">
    <style
       id="style2">.a{fill:none;stroke:#b1b5bd;stroke-linecap:round;stroke-linejoin:round;isolation:isolate;opacity:0.63;}</style>
  </defs>
  <rect
     class="a"
     x="32"
     y="8"
     width="128"
     height="176"
     rx="10"
     id="rect12"
     style="fill:#ffffff;stroke:none;opacity:1" />
  <rect
     style="opacity:1;vector-effect:none;fill:#71a372;fill-opacity:1;fill-rule:evenodd;stroke:none;stroke-width:8;stroke-linecap:round;stroke-linejoin:round;stroke-miterlimit:4;stroke-dasharray:none;stroke-opacity:1;paint-order:stroke fill markers"
     id="rect818"
     width="104"
     height="152"
     x="44"
     y="20" />
  <rect
     style="opacity:1;vector-effect:none;fill:#ececec;fill-opacity:1;fill-rule:evenodd;stroke:none;stroke-width:8;stroke-linecap:round;stroke-linejoin:round;stroke-miterlimit:4;stroke-dasharray:none;stroke-opacity:1;paint-order:stroke fill markers"
     id="rect820"
     width="48"
     height="48"
     x="20"
     y="124"
     rx="24" />
  <path
     style="opacity:1;vector-effect:none;fill:#cccccc;fill-opacity:1;fill-rule:evenodd;stroke:none;stroke-width:8;stroke-linecap:round;stroke-linejoin:round;stroke-miterlimit:4;stroke-dasharray:none;stroke-opacity:1;paint-order:stroke fill markers"
     d="M 41.119141 124.17578 C 39.884079 124.32237 38.678969 124.56312 37.509766 124.88867 C 36.595366 125.62051 36 126.73242 36 128 C 36 130.216 37.784 132 40 132 C 42.216 132 44 130.216 44 128 C 44 126.17537 42.783408 124.65991 41.119141 124.17578 z M 52.773438 125.65039 C 52.292808 126.31053 52 127.11735 52 128 C 52 130.216 53.784 132 56 132 C 57.59127 132 58.948604 131.07358 59.59375 129.73438 C 57.582501 128.01741 55.28179 126.63078 52.773438 125.65039 z M 32 132 C 29.784 132 28 133.784 28 136 C 28 138.216 29.784 140 32 140 C 34.216 140 36 138.216 36 136 C 36 133.784 34.216 132 32 132 z M 48 132 C 45.784 132 44 133.784 44 136 C 44 138.216 45.784 140 48 140 C 50.216 140 52 138.216 52 136 C 52 133.784 50.216 132 48 132 z M 62.265625 132.40625 C 60.926424 133.0514 60 134.40873 60 136 C 60 138.216 61.784 140 64 140 C 64.882654 140 65.689465 139.70719 66.349609 139.22656 C 65.369215 136.71821 63.982586 134.4175 62.265625 132.40625 z M 24 140 C 22.732422 140 21.62051 140.59537 20.888672 141.50977 C 20.563116 142.67897 20.322372 143.88408 20.175781 145.11914 C 20.659913 146.78341 22.175368 148 24 148 C 26.216 148 28 146.216 28 144 C 28 141.784 26.216 140 24 140 z M 40 140 C 37.784 140 36 141.784 36 144 C 36 146.216 37.784 148 40 148 C 42.216 148 44 146.216 44 144 C 44 141.784 42.216 140 40 140 z M 56 140 C 53.784 140 52 141.784 52 144 C 52 146.216 53.784 148 56 148 C 58.216 148 60 146.216 60 144 C 60 141.784 58.216 140 56 140 z M 32 148 C 29.784 148 28 149.784 28 152 C 28 154.216 29.784 156 32 156 C 34.216 156 36 154.216 36 152 C 36 149.784 34.216 148 32 148 z M 48 148 C 45.784 148 44 149.784 44 152 C 44 154.216 45.784 156 48 156 C 50.216 156 52 154.216 52 152 C 52 149.784 50.216 148 48 148 z M 64 148 C 61.784 148 60 149.784 60 152 C 60 154.216 61.784 156 64 156 C 65.267578 156 66.37949 155.40463 67.111328 154.49023 C 67.436884 153.32103 67.677628 152.11592 67.824219 150.88086 C 67.340087 149.21659 65.824632 148 64 148 z M 24 156 C 23.117346 156 22.310535 156.29281 21.650391 156.77344 C 22.630785 159.28179 24.017414 161.5825 25.734375 163.59375 C 27.073576 162.9486 28 161.59127 28 160 C 28 157.784 26.216 156 24 156 z M 40 156 C 37.784 156 36 157.784 36 160 C 36 162.216 37.784 164 40 164 C 42.216 164 44 162.216 44 160 C 44 157.784 42.216 156 40 156 z M 56 156 C 53.784 156 52 157.784 52 160 C 52 162.216 53.784 164 56 164 C 58.216 164 60 162.216 60 160 C 60 157.784 58.216 156 56 156 z M 32 164 C 30.40873 164 29.051396 164.92642 28.40625 166.26562 C 30.417499 167.98259 32.71821 169.36922 35.226562 170.34961 C 35.707192 169.68947 36 168.88265 36 168 C 36 165.784 34.216 164 32 164 z M 48 164 C 45.784 164 44 165.784 44 168 C 44 169.82463 45.216592 171.34009 46.880859 171.82422 C 48.115921 171.67763 49.321031 171.43688 50.490234 171.11133 C 51.404634 170.37949 52 169.26758 52 168 C 52 165.784 50.216 164 48 164 z "
     id="rect822" />
  <path
     inkscape:connector-curvature="0"
     style="fill:#ececec;stroke:none;stroke-width:1px;stroke-linecap:butt;stroke-linejoin:miter;stroke-opacity:1"
     d="m 148,32 -8,8 h 16 V 36 Z M 32,40 20,52 v 4 l 32,8 z m 124,20 -16,8 h 24 V 64 Z M 32,76 v 4 l 12,-4 z m 8,8 v 4 l 4,8 12,-8 z m 120,8 h -16 l 16,4 z m -16,4 12,20 8,-12 v -4 z M 28,112 v 12 l 20,-12 z m 116,16 8,16 8,-8 v -4 z m -12,24 8,24 12,-8 v -4 z"
     id="path913-4"
     sodipodi:nodetypes="ccccccccccccccccccccccccccccccccccccccccccccccc" />
  <path
     style="fill:#d8d8d8;stroke:none;stroke-width:1px;stroke-linecap:butt;stroke-linejoin:miter;stroke-opacity:1"
     d="M 148 28 L 140 40 L 156 36 L 148 28 z M 32 36 L 20 52 L 52 64 L 32 36 z M 156 56 L 140 68 L 164 64 L 156 56 z M 36 68 L 32 76 L 44 76 L 36 68 z M 40 84 L 44 92 L 56 88 L 40 84 z M 156 84 L 144 92 L 160 92 L 156 84 z M 144 96 L 156 112 L 164 100 L 144 96 z M 28 108 L 28 120 L 48 112 L 28 108 z M 144 128 L 152 140 L 160 132 L 144 128 z M 132 152 L 140 172 L 152 164 L 132 152 z "
     id="path913" />
  <rect
     style="opacity:1;vector-effect:none;fill:#ffffff;fill-opacity:1;fill-rule:evenodd;stroke:none;stroke-width:8;stroke-linecap:round;stroke-linejoin:round;stroke-miterlimit:4;stroke-dasharray:none;stroke-opacity:1;paint-order:stroke fill markers"
     id="rect949"
     width="56"
     height="24"
     x="68"
     y="124"
     ry="12"
     rx="27.760056" />
  <rect
     style="opacity:1;vector-effect:none;fill:#71a372;fill-opacity:1;fill-rule:evenodd;stroke:none;stroke-width:8;stroke-linecap:round;stroke-linejoin:round;stroke-miterlimit:4;stroke-dasharray:none;stroke-opacity:1;paint-order:stroke fill markers"
     id="rect951"
     width="40"
     height="16"
     x="76"
     y="128"
     rx="27.760099"
     ry="12" />
  <rect
     style="opacity:1;vector-effect:none;fill:#ffffff;fill-opacity:1;fill-rule:evenodd;stroke:none;stroke-width:8;stroke-linecap:round;stroke-linejoin:round;stroke-miterlimit:4;stroke-dasharray:none;stroke-opacity:1;paint-order:stroke fill markers"
     id="rect953"
     width="8"
     height="104"
     x="92"
     y="44"
     ry="4" />
  <path
     style="fill:#ff837d;stroke:#ff837d;stroke-width:4;stroke-linecap:round;stroke-linejoin:round;stroke-miterlimit:4;stroke-dasharray:none;stroke-opacity:1"
     d="m 94.08045,46.08045 c 0,0 -15.070782,2.196894 -19.098024,8.19183 -1.784003,2.655661 0.14075,7.150229 -1.91955,9.597751 -2.718211,3.229083 -11.517301,2.159494 -11.517301,2.159494 0,0 10.008515,12.819056 15.356401,10.317582 1.961443,-0.917466 0.497082,-4.84582 1.919551,-6.478482 C 82.77612,65.329674 94.08045,66.08045 94.08045,66.08045 Z"
     id="path955"
     inkscape:connector-curvature="0"
     sodipodi:nodetypes="csscsscc" />
</svg>
