<?xml version="1.0" encoding="UTF-8" standalone="no"?>
<svg
   xmlns:dc="http://purl.org/dc/elements/1.1/"
   xmlns:cc="http://creativecommons.org/ns#"
   xmlns:rdf="http://www.w3.org/1999/02/22-rdf-syntax-ns#"
   xmlns:svg="http://www.w3.org/2000/svg"
   xmlns="http://www.w3.org/2000/svg"
   xmlns:sodipodi="http://sodipodi.sourceforge.net/DTD/sodipodi-0.dtd"
   xmlns:inkscape="http://www.inkscape.org/namespaces/inkscape"
   viewBox="0 0 192 192"
   version="1.1"
   id="svg16"
   sodipodi:docname="extras_lsd_dream_emulator.svg"
   inkscape:version="0.92.4 (5da689c313, 2019-01-14)">
  <metadata
     id="metadata20">
    <rdf:RDF>
      <cc:Work
         rdf:about="">
        <dc:format>image/svg+xml</dc:format>
        <dc:type
           rdf:resource="http://purl.org/dc/dcmitype/StillImage" />
        <dc:title></dc:title>
      </cc:Work>
    </rdf:RDF>
  </metadata>
  <sodipodi:namedview
     pagecolor="#ffffff"
     bordercolor="#666666"
     borderopacity="1"
     objecttolerance="10"
     gridtolerance="10"
     guidetolerance="10"
     inkscape:pageopacity="0"
     inkscape:pageshadow="2"
     inkscape:window-width="1920"
     inkscape:window-height="1017"
     id="namedview18"
     showgrid="true"
     inkscape:zoom="6.9532167"
     inkscape:cx="107.24308"
     inkscape:cy="105.18043"
     inkscape:window-x="-8"
     inkscape:window-y="-8"
     inkscape:window-maximized="1"
     inkscape:current-layer="svg16"
     inkscape:snap-global="false">
    <inkscape:grid
       type="xygrid"
       id="grid827"
       spacingx="4"
       spacingy="4" />
  </sodipodi:namedview>
  <defs
     id="defs4">
    <style
       id="style2">.a{fill:none;stroke:#b1b5bd;stroke-linecap:round;stroke-linejoin:round;isolation:isolate;opacity:0.63;}</style>
  </defs>
  <rect
     style="opacity:1;vector-effect:none;fill:#f9de81;fill-opacity:1;fill-rule:evenodd;stroke:none;stroke-width:8;stroke-linecap:round;stroke-linejoin:round;stroke-miterlimit:4;stroke-dasharray:none;stroke-opacity:1;paint-order:stroke fill markers"
     id="rect829"
     width="152"
     height="160"
     x="20"
     y="24"
     ry="76" />
  <path
     style="fill:#f9de81;stroke:none;stroke-width:1px;stroke-linecap:butt;stroke-linejoin:miter;stroke-opacity:1"
     d="M 52,8 C 52,8 12,8 12,40 12,64 36,72 36,72 L 60,56 C 60,56 36,48 36,32 36,19.417996 52,8 52,8 Z"
     id="path831"
     inkscape:connector-curvature="0"
     sodipodi:nodetypes="csccsc" />
  <rect
     style="opacity:1;vector-effect:none;fill:#f9de81;fill-opacity:1;fill-rule:evenodd;stroke:none;stroke-width:8;stroke-linecap:round;stroke-linejoin:round;stroke-miterlimit:4;stroke-dasharray:none;stroke-opacity:1;paint-order:stroke fill markers"
     id="rect833"
     width="32"
     height="32"
     x="8"
     y="68"
     ry="16" />
  <path
     style="fill:#f9de81;stroke:none;stroke-width:1px;stroke-linecap:butt;stroke-linejoin:miter;stroke-opacity:1"
     d="m 140,8 c 0,0 40,0 40,32 0,24 -24,32 -24,32 L 132,56 c 0,0 24,-8 24,-24 C 156,19.417996 140,8 140,8 Z"
     id="path831-1"
     inkscape:connector-curvature="0"
     sodipodi:nodetypes="csccsc" />
  <rect
     style="opacity:1;vector-effect:none;fill:#f9de81;fill-opacity:1;fill-rule:evenodd;stroke:none;stroke-width:8;stroke-linecap:round;stroke-linejoin:round;stroke-miterlimit:4;stroke-dasharray:none;stroke-opacity:1;paint-order:stroke fill markers"
     id="rect833-9"
     width="32"
     height="32"
     x="-184"
     y="68"
     ry="16"
     transform="scale(-1,1)" />
  <rect
     style="opacity:1;vector-effect:none;fill:#ff837d;fill-opacity:1;fill-rule:evenodd;stroke:none;stroke-width:8;stroke-linecap:round;stroke-linejoin:round;stroke-miterlimit:4;stroke-dasharray:none;stroke-opacity:1;paint-order:stroke fill markers"
     id="rect853"
     width="24"
     height="24"
     x="84"
     y="116"
     ry="12" />
  <path
     style="fill:#9abeff;stroke:#ff837d;stroke-width:4;stroke-linecap:round;stroke-linejoin:round;stroke-miterlimit:4;stroke-dasharray:none;stroke-opacity:1"
     d="m 86.157275,112 c 0,0 -5.854314,-10.13036 -20.170732,-10.13036 -14.316417,0 -23.973086,6.13036 -23.973086,6.13036 0,0 6.899762,14.15727 19.973086,14.15727 C 75.059867,122.15727 86.157275,112 86.157275,112 Z"
     id="path855"
     inkscape:connector-curvature="0"
     sodipodi:nodetypes="czczc" />
  <rect
     style="opacity:1;vector-effect:none;fill:#56595b;fill-opacity:1;fill-rule:evenodd;stroke:none;stroke-width:4;stroke-linecap:round;stroke-linejoin:round;stroke-miterlimit:4;stroke-dasharray:none;stroke-opacity:1;paint-order:stroke fill markers"
     id="rect857"
     width="12"
     height="12"
     x="64"
     y="104"
     ry="6" />
  <path
     style="fill:#9abeff;stroke:#ff837d;stroke-width:4;stroke-linecap:round;stroke-linejoin:round;stroke-miterlimit:4;stroke-dasharray:none;stroke-opacity:1"
     d="m 106.01346,112 c 0,0 5.85431,-10.13036 20.17073,-10.13036 14.31642,0 23.82927,6.13036 23.82927,6.13036 0,0 -6.75595,14.15727 -19.82927,14.15727 C 117.11086,122.15727 106.01346,112 106.01346,112 Z"
     id="path855-1"
     inkscape:connector-curvature="0"
     sodipodi:nodetypes="czczc" />
  <rect
     style="opacity:1;vector-effect:none;fill:#56595b;fill-opacity:1;fill-rule:evenodd;stroke:none;stroke-width:4;stroke-linecap:round;stroke-linejoin:round;stroke-miterlimit:4;stroke-dasharray:none;stroke-opacity:1;paint-order:stroke fill markers"
     id="rect857-6"
     width="12"
     height="12"
     x="-128.17073"
     y="104"
     ry="6"
     transform="scale(-1,1)" />
</svg>
