<?xml version="1.0" encoding="UTF-8" standalone="no"?>
<svg
   xmlns:dc="http://purl.org/dc/elements/1.1/"
   xmlns:cc="http://creativecommons.org/ns#"
   xmlns:rdf="http://www.w3.org/1999/02/22-rdf-syntax-ns#"
   xmlns:svg="http://www.w3.org/2000/svg"
   xmlns="http://www.w3.org/2000/svg"
   xmlns:sodipodi="http://sodipodi.sourceforge.net/DTD/sodipodi-0.dtd"
   xmlns:inkscape="http://www.inkscape.org/namespaces/inkscape"
   viewBox="0 0 192 192"
   version="1.1"
   id="svg16"
   sodipodi:docname="quaver.svg"
   inkscape:version="0.92.4 (5da689c313, 2019-01-14)">
  <metadata
     id="metadata20">
    <rdf:RDF>
      <cc:Work
         rdf:about="">
        <dc:format>image/svg+xml</dc:format>
        <dc:type
           rdf:resource="http://purl.org/dc/dcmitype/StillImage" />
        <dc:title></dc:title>
      </cc:Work>
    </rdf:RDF>
  </metadata>
  <sodipodi:namedview
     pagecolor="#ffffff"
     bordercolor="#666666"
     borderopacity="1"
     objecttolerance="10"
     gridtolerance="10"
     guidetolerance="10"
     inkscape:pageopacity="0"
     inkscape:pageshadow="2"
     inkscape:window-width="1920"
     inkscape:window-height="1017"
     id="namedview18"
     showgrid="true"
     inkscape:zoom="2.9469688"
     inkscape:cx="66.554401"
     inkscape:cy="80.258592"
     inkscape:window-x="-8"
     inkscape:window-y="-8"
     inkscape:window-maximized="1"
     inkscape:current-layer="svg16"
     inkscape:snap-global="false">
    <inkscape:grid
       type="xygrid"
       id="grid827"
       spacingx="4"
       spacingy="4" />
  </sodipodi:namedview>
  <defs
     id="defs4">
    <style
       id="style2">.a{fill:none;stroke:#b1b5bd;stroke-linecap:round;stroke-linejoin:round;isolation:isolate;opacity:0.63;}</style>
  </defs>
  <circle
     class="a"
     cx="96"
     cy="96"
     r="88"
     id="circle8"
     style="fill:#56595b;stroke:none;opacity:1" />
  <path
     d="M 96 59.5 C 89.35947 59.51328 82.848377 61.3379 77.167969 64.777344 C 78.100457 70.249978 79.618693 77.976912 81.439453 82.566406 C 87.641441 98.199432 105.36328 122.60547 105.36328 122.60547 C 105.36328 122.60547 107.21223 125.94152 111.17969 129.14648 C 111.17969 129.14648 125.15397 140.52197 139.12695 121.58789 C 131.36641 127.34511 124.71104 123.41567 122.14453 121.40625 C 128.64914 114.72223 132.48747 105.66774 132.5 96 C 132.5 75.841607 116.15839 59.5 96 59.5 z "
     id="path841"
     style="fill:#ffffff" />
  <path
     d="M 65.298828,76.328125 C 61.525532,82.19645 59.51314,89.023265 59.5,96 c 0,20.15839 16.341607,36.5 36.5,36.5 2.635385,-0.0152 5.26137,-0.31578 7.83203,-0.89648 -1.01904,-1.14611 -2.02206,-2.30698 -2.71094,-3.22852 -0.95834,-1.28202 -1.610512,-2.7727 -2.544918,-4.07227 -5.770278,-8.02529 -18.833984,-22.90429 -18.833984,-22.90429 0,0 -8.864115,-10.872926 -11.875,-17.136721 -0.984037,-2.047173 -1.918261,-5.371225 -2.56836,-7.933594 z"
     id="circle10"
     style="fill:#9abeff" />
  <rect
     style="opacity:1;vector-effect:none;fill:#56595b;fill-opacity:1;fill-rule:evenodd;stroke:none;stroke-width:8;stroke-linecap:round;stroke-linejoin:round;stroke-miterlimit:4;stroke-dasharray:none;stroke-opacity:1;paint-order:stroke fill markers"
     id="rect831"
     width="56"
     height="56"
     x="68"
     y="68"
     ry="28" />
  <rect
     style="opacity:1;vector-effect:none;fill:#ffffff;fill-opacity:1;fill-rule:evenodd;stroke:none;stroke-width:6.66666651;stroke-linecap:round;stroke-linejoin:round;stroke-miterlimit:4;stroke-dasharray:none;stroke-opacity:1;paint-order:stroke fill markers"
     id="rect829"
     width="20"
     height="20"
     x="71.660667"
     y="63.745502"
     ry="10" />
</svg>
