<?xml version="1.0" encoding="UTF-8" standalone="no"?>
<svg
   xmlns:dc="http://purl.org/dc/elements/1.1/"
   xmlns:cc="http://creativecommons.org/ns#"
   xmlns:rdf="http://www.w3.org/1999/02/22-rdf-syntax-ns#"
   xmlns:svg="http://www.w3.org/2000/svg"
   xmlns="http://www.w3.org/2000/svg"
   xmlns:sodipodi="http://sodipodi.sourceforge.net/DTD/sodipodi-0.dtd"
   xmlns:inkscape="http://www.inkscape.org/namespaces/inkscape"
   width="192"
   height="192"
   version="1.1"
   viewBox="0 0 192 192"
   id="svg14"
   sodipodi:docname="extras_yinyang.svg"
   inkscape:version="0.92.4 (5da689c313, 2019-01-14)">
  <metadata
     id="metadata20">
    <rdf:RDF>
      <cc:Work
         rdf:about="">
        <dc:format>image/svg+xml</dc:format>
        <dc:type
           rdf:resource="http://purl.org/dc/dcmitype/StillImage" />
      </cc:Work>
    </rdf:RDF>
  </metadata>
  <defs
     id="defs18" />
  <sodipodi:namedview
     pagecolor="#ffffff"
     bordercolor="#666666"
     borderopacity="1"
     objecttolerance="10"
     gridtolerance="10"
     guidetolerance="10"
     inkscape:pageopacity="0"
     inkscape:pageshadow="2"
     inkscape:window-width="1920"
     inkscape:window-height="1017"
     id="namedview16"
     showgrid="true"
     inkscape:zoom="2.4583333"
     inkscape:cx="114.91525"
     inkscape:cy="89.084746"
     inkscape:window-x="-8"
     inkscape:window-y="-8"
     inkscape:window-maximized="1"
     inkscape:current-layer="svg14">
    <inkscape:grid
       type="xygrid"
       id="grid827" />
  </sodipodi:namedview>
  <style
     type="text/css"
     id="style2">.st0{fill:#FFFFFF;}</style>
  <style
     type="text/css"
     id="style4">.st0{fill:#FFFFFF;}</style>
  <path
     d="m96 8a88 88 0 0 0-88 88 88 88 0 0 0 88 88 88 88 0 0 0 3.8516-0.1328l-0.10936-0.0548 0.18748 0.0468a88 88 0 0 0 11.734-1.2969l6.7109-2.3594 23.188-15.047 22.367-39.055-67.523-55.32z"
     style="fill:#ececec;paint-order:stroke fill markers;stroke-width:4"
     id="path6" />
  <path
     d="m 96,8 v 0.1328 c -24.264536,0.0011 -43.933314,19.673464 -43.93,43.938 0.0011,24.261412 19.668588,43.928896 43.93,43.93 32,0 43.34922,24.87737 43.93,44.0708 -0.0157,22.80009 -17.47085,41.79892 -40.188,43.742 47.06109,-2.00294 84.19997,-40.70834 84.258,-87.812 0,-48.601058 -39.39894,-88 -88,-88 z"
     style="fill:#56595b;stroke-width:4;paint-order:stroke fill markers"
     id="path8"
     inkscape:connector-curvature="0"
     sodipodi:nodetypes="ccccccccc" />
  <circle
     cx="96"
     cy="52"
     r="15.932203"
     style="fill:#ececec;stroke-width:3.18644071;paint-order:stroke fill markers"
     id="circle10" />
  <circle
     cx="96"
     cy="140"
     r="15.932203"
     style="fill:#56595b;stroke-width:3.18644071;paint-order:stroke fill markers"
     id="circle12" />
</svg>
