<?xml version="1.0" encoding="UTF-8" standalone="no"?>
<svg
   xmlns:dc="http://purl.org/dc/elements/1.1/"
   xmlns:cc="http://creativecommons.org/ns#"
   xmlns:rdf="http://www.w3.org/1999/02/22-rdf-syntax-ns#"
   xmlns:svg="http://www.w3.org/2000/svg"
   xmlns="http://www.w3.org/2000/svg"
   xmlns:sodipodi="http://sodipodi.sourceforge.net/DTD/sodipodi-0.dtd"
   xmlns:inkscape="http://www.inkscape.org/namespaces/inkscape"
   viewBox="0 0 192 192"
   version="1.1"
   id="svg16"
   sodipodi:docname="spore.svg"
   inkscape:version="0.92.4 (5da689c313, 2019-01-14)">
  <metadata
     id="metadata20">
    <rdf:RDF>
      <cc:Work
         rdf:about="">
        <dc:format>image/svg+xml</dc:format>
        <dc:type
           rdf:resource="http://purl.org/dc/dcmitype/StillImage" />
        <dc:title></dc:title>
      </cc:Work>
    </rdf:RDF>
  </metadata>
  <sodipodi:namedview
     pagecolor="#ffffff"
     bordercolor="#666666"
     borderopacity="1"
     objecttolerance="10"
     gridtolerance="10"
     guidetolerance="10"
     inkscape:pageopacity="0"
     inkscape:pageshadow="2"
     inkscape:window-width="1920"
     inkscape:window-height="1017"
     id="namedview18"
     showgrid="true"
     inkscape:zoom="4.9166667"
     inkscape:cx="29.185099"
     inkscape:cy="106.57627"
     inkscape:window-x="-8"
     inkscape:window-y="-8"
     inkscape:window-maximized="1"
     inkscape:current-layer="svg16"
     inkscape:snap-global="false">
    <inkscape:grid
       type="xygrid"
       id="grid827"
       spacingx="4"
       spacingy="4" />
  </sodipodi:namedview>
  <defs
     id="defs4">
    <style
       id="style2">.a{fill:none;stroke:#b1b5bd;stroke-linecap:round;stroke-linejoin:round;isolation:isolate;opacity:0.63;}</style>
  </defs>
  <circle
     class="a"
     cx="96"
     cy="96"
     r="88"
     id="circle8"
     style="fill:#728dbe;stroke:none;opacity:1" />
  <path
     style="opacity:1;vector-effect:none;fill:#ffffff;fill-opacity:1;fill-rule:evenodd;stroke-width:3.87454915;paint-order:normal"
     d="m 101.24587,60.000739 c -6.000276,0.172903 -12.233986,2.22717 -16.67284,6.112367 -9.447555,8.269194 -11.989222,22.770755 -5.58541,31.852153 1.971263,2.795501 2.005706,3.312731 0.212442,3.312731 -2.282733,0 -7.85346,-6.215181 -8.886603,-9.915604 -1.917763,-6.868863 -0.337016,-14.651718 4.249768,-20.94801 4.149887,-5.696441 1.194719,-7.356937 -4.614035,-2.59587 -6.97748,5.719003 -10.003575,17.141192 -7.141167,26.932082 1.746621,5.974302 7.761847,12.512952 14.054656,15.280872 4.294816,1.88911 11.795614,2.47437 16.490695,1.28285 3.636653,-0.92292 3.885244,1.12836 0.432559,3.56932 -4.207094,2.9743 -8.907663,3.90961 -14.07742,2.80715 -5.988938,-1.27716 -9.36217,-3.41729 -14.639001,-9.30436 -3.545818,-3.95587 -4.412492,-4.55049 -4.887244,-3.3203 -1.07982,2.79812 1.400413,8.35005 5.608212,12.53411 8.018261,7.97305 19.558166,9.98363 29.353859,5.11625 8.227219,-4.088 12.871279,-10.51115 14.411329,-19.93681 0.6579,-4.02643 2.7492,-4.363794 3.52127,-0.24147 1.76941,9.44744 -2.28678,18.66639 -12.96186,25.49831 -1.786259,1.14319 -4.198866,1.58938 -5.031431,1.59978 -1.7464,0.0221 -2.027247,1.36907 -0.43256,2.07517 2.053755,0.90938 8.434951,-0.30599 12.589991,-2.39967 8.51959,-4.29287 13.96186,-12.75395 13.99393,-21.77054 0.0334,-9.855401 -5.27539,-18.80279 -13.63726,-22.98546 -5.90823,-2.955317 0.8548,-4.315685 7.20186,-1.448848 1.92143,0.867871 5.06201,3.355059 6.98178,5.523758 3.66457,4.139648 5.27794,8.160329 6.12426,15.2658 0.64704,5.43248 2.33546,4.4605 3.711,-2.12803 1.15066,-5.511598 0.11974,-10.96789 -3.24047,-17.107021 -4.65864,-8.511149 -12.23107,-12.252678 -23.44971,-11.590816 -7.309793,0.431225 -10.532275,1.745363 -15.754606,6.436827 -1.887138,1.695298 -3.703982,2.814045 -4.037289,2.482653 -1.155456,-1.148939 3.698234,-8.636125 7.141167,-11.017323 5.387058,-3.725823 11.861758,-4.728956 19.078518,-2.958082 7.2187,1.771355 8.7851,0.916129 5.18322,-2.822229 -3.52239,-3.655851 -9.29139,-5.364569 -15.29164,-5.19174 z"
     id="rect847"
     inkscape:connector-curvature="0"
     sodipodi:nodetypes="cscssccccccsccsscssccccscssssssccsscc" />
</svg>
