<?xml version="1.0" encoding="UTF-8" standalone="no"?>
<svg
   xmlns:dc="http://purl.org/dc/elements/1.1/"
   xmlns:cc="http://creativecommons.org/ns#"
   xmlns:rdf="http://www.w3.org/1999/02/22-rdf-syntax-ns#"
   xmlns:svg="http://www.w3.org/2000/svg"
   xmlns="http://www.w3.org/2000/svg"
   xmlns:sodipodi="http://sodipodi.sourceforge.net/DTD/sodipodi-0.dtd"
   xmlns:inkscape="http://www.inkscape.org/namespaces/inkscape"
   viewBox="0 0 192 192"
   version="1.1"
   id="svg16"
   sodipodi:docname="world-of-horror.svg"
   inkscape:version="0.92.4 (5da689c313, 2019-01-14)">
  <metadata
     id="metadata20">
    <rdf:RDF>
      <cc:Work
         rdf:about="">
        <dc:format>image/svg+xml</dc:format>
        <dc:type
           rdf:resource="http://purl.org/dc/dcmitype/StillImage" />
        <dc:title></dc:title>
      </cc:Work>
    </rdf:RDF>
  </metadata>
  <sodipodi:namedview
     pagecolor="#ffffff"
     bordercolor="#666666"
     borderopacity="1"
     objecttolerance="10"
     gridtolerance="10"
     guidetolerance="10"
     inkscape:pageopacity="0"
     inkscape:pageshadow="2"
     inkscape:window-width="960"
     inkscape:window-height="1017"
     id="namedview18"
     showgrid="true"
     inkscape:zoom="2.3122179"
     inkscape:cx="91.381263"
     inkscape:cy="69.745819"
     inkscape:window-x="952"
     inkscape:window-y="-8"
     inkscape:window-maximized="0"
     inkscape:current-layer="svg16">
    <inkscape:grid
       type="xygrid"
       id="grid827"
       spacingx="4"
       spacingy="4" />
  </sodipodi:namedview>
  <defs
     id="defs4">
    <style
       id="style2">.a{fill:none;stroke:#b1b5bd;stroke-linecap:round;stroke-linejoin:round;isolation:isolate;opacity:0.63;}</style>
  </defs>
  <rect
     class="a"
     x="20"
     y="20"
     width="152"
     height="152"
     rx="10"
     id="rect6"
     style="fill:#ffffff;stroke:none;opacity:1" />
  <rect
     style="opacity:1;vector-effect:none;fill:#56595b;fill-opacity:1;fill-rule:evenodd;stroke:none;stroke-width:8;stroke-linecap:round;stroke-linejoin:round;stroke-miterlimit:4;stroke-dasharray:none;stroke-opacity:1;paint-order:stroke fill markers"
     id="rect893"
     width="128"
     height="128"
     x="32"
     y="32"
     rx="4" />
  <path
     style="opacity:1;vector-effect:none;fill:#ffffff;fill-opacity:1;fill-rule:evenodd;stroke:none;stroke-width:8;stroke-linecap:round;stroke-linejoin:round;stroke-miterlimit:4;stroke-dasharray:none;stroke-opacity:1;paint-order:stroke fill markers"
     d="M 88 60 L 88 64 L 104 64 L 104 60 L 88 60 z M 104 64 L 104 68 L 112 68 L 112 64 L 104 64 z M 112 68 L 112 72 L 120 72 L 120 68 L 112 68 z M 120 72 L 120 80 L 124 80 L 124 72 L 120 72 z M 124 80 L 124 88 L 128 88 L 128 80 L 124 80 z M 128 88 L 128 104 L 132 104 L 132 88 L 128 88 z M 128 104 L 124 104 L 124 112 L 128 112 L 128 104 z M 124 112 L 120 112 L 120 120 L 124 120 L 124 112 z M 120 120 L 112 120 L 112 124 L 120 124 L 120 120 z M 112 124 L 104 124 L 104 128 L 112 128 L 112 124 z M 104 128 L 88 128 L 88 132 L 104 132 L 104 128 z M 88 128 L 88 124 L 80 124 L 80 128 L 88 128 z M 80 124 L 80 120 L 72 120 L 72 124 L 80 124 z M 72 120 L 72 112 L 68 112 L 68 120 L 72 120 z M 68 112 L 68 104 L 64 104 L 64 112 L 68 112 z M 64 104 L 64 88 L 60 88 L 60 104 L 64 104 z M 64 88 L 68 88 L 68 80 L 64 80 L 64 88 z M 68 80 L 72 80 L 72 72 L 68 72 L 68 80 z M 72 72 L 80 72 L 80 68 L 72 68 L 72 72 z M 80 68 L 88 68 L 88 64 L 80 64 L 80 68 z "
     id="rect822" />
  <path
     style="opacity:1;vector-effect:none;fill:#ffffff;fill-opacity:1;fill-rule:evenodd;stroke:none;stroke-width:8;stroke-linecap:round;stroke-linejoin:round;stroke-miterlimit:4;stroke-dasharray:none;stroke-opacity:1;paint-order:stroke fill markers"
     d="M 88 68 L 88 72 L 80 72 L 80 76 L 76 76 L 76 80 L 72 80 L 72 88 L 68 88 L 68 104 L 72 104 L 72 112 L 76 112 L 76 116 L 80 116 L 80 120 L 88 120 L 88 124 L 104 124 L 104 120 L 112 120 L 112 116 L 116 116 L 116 112 L 120 112 L 120 104 L 124 104 L 124 88 L 120 88 L 120 80 L 116 80 L 116 76 L 112 76 L 112 72 L 104 72 L 104 68 L 88 68 z "
     id="rect883" />
  <path
     style="opacity:1;vector-effect:none;fill:#56595b;fill-opacity:1;fill-rule:evenodd;stroke:none;stroke-width:8;stroke-linecap:round;stroke-linejoin:round;stroke-miterlimit:4;stroke-dasharray:none;stroke-opacity:1;paint-order:stroke fill markers"
     d="M 80 68 L 80 72 L 72 72 L 72 80 L 68 80 L 68 88 L 64 92 L 80 92 L 80 88 L 84 88 L 84 72 L 84 68 L 80 68 z M 88 72 L 88 80 L 92 80 L 92 72 L 88 72 z M 112 72 L 112 84 L 108 84 L 108 80 L 100 80 L 100 84 L 104 84 L 104 88 L 96 88 L 96 92 L 92 92 L 92 96 L 100 96 L 100 100 L 96 100 L 96 112 L 100 112 L 100 116 L 104 116 L 104 112 L 108 112 L 108 108 L 112 108 L 112 100 L 108 100 L 104 100 L 104 96 L 112 96 L 112 100 L 120 100 L 120 96 L 124 96 L 128 88 L 124 88 L 120 80 L 120 72 L 112 72 z M 72 96 L 72 104 L 76 104 L 76 112 L 80 112 L 80 116 L 84 116 L 84 112 L 84 104 L 88 104 L 88 96 L 72 96 z M 84 116 L 84 120 L 80 120 L 80 124 L 88 124 L 96 128 L 104 124 L 112 124 L 112 120 L 96 120 L 96 116 L 84 116 z "
     id="rect919" />
</svg>
