<?xml version="1.0" encoding="UTF-8" standalone="no"?>
<svg
   xmlns:dc="http://purl.org/dc/elements/1.1/"
   xmlns:cc="http://creativecommons.org/ns#"
   xmlns:rdf="http://www.w3.org/1999/02/22-rdf-syntax-ns#"
   xmlns:svg="http://www.w3.org/2000/svg"
   xmlns="http://www.w3.org/2000/svg"
   xmlns:sodipodi="http://sodipodi.sourceforge.net/DTD/sodipodi-0.dtd"
   xmlns:inkscape="http://www.inkscape.org/namespaces/inkscape"
   inkscape:version="0.92.4 (5da689c313, 2019-01-14)"
   sodipodi:docname="0cc-famitracker.svg"
   id="svg16"
   version="1.1"
   viewBox="0 0 192 192">
  <metadata
     id="metadata20">
    <rdf:RDF>
      <cc:Work
         rdf:about="">
        <dc:format>image/svg+xml</dc:format>
        <dc:type
           rdf:resource="http://purl.org/dc/dcmitype/StillImage" />
        <dc:title></dc:title>
      </cc:Work>
    </rdf:RDF>
  </metadata>
  <sodipodi:namedview
     pagecolor="#ffffff"
     bordercolor="#666666"
     borderopacity="1"
     objecttolerance="10"
     gridtolerance="10"
     guidetolerance="10"
     inkscape:pageopacity="0"
     inkscape:pageshadow="2"
     inkscape:window-width="1920"
     inkscape:window-height="1017"
     id="namedview18"
     showgrid="true"
     inkscape:zoom="2.0838216"
     inkscape:cx="56.840988"
     inkscape:cy="92.667459"
     inkscape:window-x="-8"
     inkscape:window-y="-8"
     inkscape:window-maximized="1"
     inkscape:current-layer="svg16"
     inkscape:snap-global="false">
    <inkscape:grid
       spacingy="4"
       spacingx="4"
       id="grid827"
       type="xygrid" />
  </sodipodi:namedview>
  <defs
     id="defs4">
    <style
       id="style2">.a{fill:none;stroke:#b1b5bd;stroke-linecap:round;stroke-linejoin:round;isolation:isolate;opacity:0.63;}</style>
  </defs>
  <path
     inkscape:connector-curvature="0"
     style="clip-rule:evenodd;fill:#56595b;fill-rule:evenodd;stroke-width:1.01333022"
     d="m 32.120675,30.261244 c 0,-6.008036 5.197371,-10.696714 11.172979,-10.079596 L 150.70666,31.263427 a 10.133302,10.133302 0 0 1 9.09362,10.079596 V 150.74113 a 10.133302,10.133302 0 0 1 -9.09362,10.07959 L 43.293654,171.9025 c -5.974595,0.61611 -11.172979,-4.07257 -11.172979,-10.08061 z"
     id="path2" />
  <path
     inkscape:connector-curvature="0"
     style="clip-rule:evenodd;fill:#8c72bd;fill-rule:evenodd;stroke-width:1.01333022;opacity:0.25"
     d="m 32.120675,30.26124 c 0,-6.008036 5.197371,-10.696714 11.172979,-10.079596 L 150.70665,31.263423 a 10.133302,10.133302 0 0 1 9.09362,10.079596 V 150.74113 a 10.133302,10.133302 0 0 1 -9.09362,10.07959 L 43.293654,171.9025 c -5.974595,0.61611 -11.172979,-4.07257 -11.172979,-10.08061 z"
     id="path2-8" />
  <path
     id="path843"
     d="M 66.095063,57.505647 C 56.791574,56.696648 52,63.679907 52,74.512708 c 0,10.832802 4.791574,18.287623 14.095063,18.394229 8.831336,0.101196 13.239658,-6.829418 13.239658,-17.049152 0,-10.219734 -4.408322,-17.584195 -13.239658,-18.352138 v 0 m 34.871377,3.032294 c -9.042807,-0.786331 -16.665733,6.173932 -16.665733,15.564208 0,9.390276 7.622926,17.100751 16.665733,17.20437 6.11344,0.07005 11.26792,-3.342383 13.77426,-8.340695 l -5.64516,-3.259755 c -1.46002,2.928675 -4.46074,4.837168 -8.1291,4.737126 -5.32744,-0.145288 -9.478069,-4.497401 -9.478069,-9.987358 0,-5.489957 4.150629,-9.435689 9.478069,-9.05665 3.66836,0.260998 6.66908,2.464822 8.1291,5.537193 l 5.64516,-2.702147 c -2.50634,-5.244973 -7.66082,-9.164688 -13.77426,-9.696292 v 0 m 31.13766,2.707623 c -7.78025,-0.676544 -14.32085,5.811511 -14.32085,14.504182 0,8.69267 6.5406,15.824419 14.32085,15.913571 5.27307,0.06042 9.72731,-3.117004 11.8959,-7.770534 l -4.8819,-3.018397 c -1.26114,2.725293 -3.85118,4.504238 -7.014,4.417983 -4.58644,-0.125079 -8.15416,-4.15104 -8.15416,-9.239175 0,-5.088135 3.56772,-8.764929 8.15416,-8.438611 3.16282,0.225029 5.75286,2.258886 7.014,5.108301 L 144,72.186835 c -2.16859,-4.866953 -6.62283,-8.482743 -11.8959,-8.941271 v 0 M 66.095063,64 c 4.338283,0.317157 5.76752,4.849025 5.76752,11.490099 0,6.641073 -1.429237,11.032284 -5.76752,10.922487 -4.482048,-0.113435 -5.973887,-4.690817 -5.973887,-11.500254 0,-6.809437 1.491839,-11.239999 5.973887,-10.912332 v 0 m 10.275129,37.98177 v 35.90783 l 7.977821,-0.69372 v -14.22857 l 11.3452,-0.62583 v -6.64889 l -11.3452,0.4529 v -7.40887 l 13.199746,-0.30841 v -6.61854 l -21.177567,0.1721 v 0 m 27.540588,-0.17409 v 6.673 l 8.32905,-0.19573 v 27.0176 l 6.92654,-0.60231 v -26.57806 l 7.70983,-0.18117 v -6.31996 l -22.96542,0.18663 v 0"
     style="font-style:normal;font-variant:normal;font-weight:bold;font-stretch:normal;font-size:40px;line-height:1.25;font-family:Now;-inkscape-font-specification:'Now Bold';letter-spacing:0px;word-spacing:0px;fill:#ffffff;fill-opacity:1;stroke:none"
     inkscape:connector-curvature="0"
     sodipodi:nodetypes="cssscccssccssscccccssccssscccccssscccccccccccccccccccccccc" />
</svg>
