<?xml version="1.0" encoding="UTF-8" standalone="no"?>
<svg
   xmlns:dc="http://purl.org/dc/elements/1.1/"
   xmlns:cc="http://creativecommons.org/ns#"
   xmlns:rdf="http://www.w3.org/1999/02/22-rdf-syntax-ns#"
   xmlns:svg="http://www.w3.org/2000/svg"
   xmlns="http://www.w3.org/2000/svg"
   xmlns:sodipodi="http://sodipodi.sourceforge.net/DTD/sodipodi-0.dtd"
   xmlns:inkscape="http://www.inkscape.org/namespaces/inkscape"
   viewBox="0 0 192 192"
   version="1.1"
   id="svg16"
   sodipodi:docname="aural_fractals.svg"
   inkscape:version="0.92.4 (5da689c313, 2019-01-14)">
  <metadata
     id="metadata20">
    <rdf:RDF>
      <cc:Work
         rdf:about="">
        <dc:format>image/svg+xml</dc:format>
        <dc:type
           rdf:resource="http://purl.org/dc/dcmitype/StillImage" />
        <dc:title></dc:title>
      </cc:Work>
    </rdf:RDF>
  </metadata>
  <sodipodi:namedview
     pagecolor="#ffffff"
     bordercolor="#666666"
     borderopacity="1"
     objecttolerance="10"
     gridtolerance="10"
     guidetolerance="10"
     inkscape:pageopacity="0"
     inkscape:pageshadow="2"
     inkscape:window-width="1920"
     inkscape:window-height="1017"
     id="namedview18"
     showgrid="true"
     inkscape:zoom="3.7265625"
     inkscape:cx="87.573128"
     inkscape:cy="98.227387"
     inkscape:window-x="-8"
     inkscape:window-y="-8"
     inkscape:window-maximized="1"
     inkscape:current-layer="svg16"
     inkscape:snap-global="true">
    <inkscape:grid
       type="xygrid"
       id="grid827"
       spacingx="4"
       spacingy="4" />
  </sodipodi:namedview>
  <defs
     id="defs4">
    <style
       id="style2">.a{fill:none;stroke:#b1b5bd;stroke-linecap:round;stroke-linejoin:round;isolation:isolate;opacity:0.63;}</style>
  </defs>
  <rect
     class="a"
     x="20"
     y="20"
     width="152"
     height="152"
     rx="10"
     id="rect6"
     style="fill:#56595b;stroke:none;opacity:1" />
  <path
     style="fill:none;stroke:#71a372;stroke-width:16;stroke-linecap:round;stroke-linejoin:round;stroke-miterlimit:4;stroke-dasharray:none;stroke-opacity:1"
     d="m 56,28 c 0,0 -40,20 -40,68 0,48 40,68 40,68"
     id="path829"
     inkscape:connector-curvature="0"
     sodipodi:nodetypes="czc" />
  <path
     style="fill:#98dc9a;stroke:none;stroke-width:1px;stroke-linecap:butt;stroke-linejoin:miter;stroke-opacity:1"
     d="m 64,40 c 0,0 -36,12 -36,56 0,44 36,56 36,56 0,0 -24,-20 -24,-56 0,-36 24,-56 24,-56 z"
     id="path831"
     inkscape:connector-curvature="0"
     sodipodi:nodetypes="czczc" />
  <path
     style="fill:none;stroke:#71a372;stroke-width:16;stroke-linecap:round;stroke-linejoin:round;stroke-miterlimit:4;stroke-dasharray:none;stroke-opacity:1"
     d="m 136,27.999998 c 0,0 40,20 40,68 C 176,144 136,164 136,164"
     id="path829-8"
     inkscape:connector-curvature="0"
     sodipodi:nodetypes="czc" />
  <path
     style="fill:#98dc9a;stroke:none;stroke-width:1px;stroke-linecap:butt;stroke-linejoin:miter;stroke-opacity:1"
     d="m 128,40 c 0,0 36,12 36,56 0,44 -36,56 -36,56 0,0 24,-20 24,-56 0,-36 -24,-56 -24,-56 z"
     id="path831-9"
     inkscape:connector-curvature="0"
     sodipodi:nodetypes="czczc" />
  <path
     style="fill:#98dc9a;stroke:none;stroke-width:1px;stroke-linecap:butt;stroke-linejoin:miter;stroke-opacity:1"
     d="M 80.548828 53.484375 C 75.748508 58.043067 76.46875 64.109375 76.46875 64.109375 C 76.46875 64.109375 74.731869 63.112251 74.191406 61.927734 C 72.688009 64.038569 73.052734 66.482422 73.052734 66.482422 C 73.052734 66.482422 71.999192 63.999729 70.964844 59.460938 C 69.264431 63.999728 70.585938 68.853516 70.585938 68.853516 C 70.585938 68.853516 68.915471 67.838479 68.214844 66.197266 C 67.424796 67.422962 68.308594 69.613281 68.308594 69.613281 C 68.308594 69.613281 66.810807 68.49235 65.748047 66.007812 C 64.057528 70.532179 66.03125 76.443359 66.03125 76.443359 C 66.03125 76.443359 62.906185 75.670138 59.580078 72.173828 C 61.084159 81.490936 65.177734 87.353516 65.177734 87.353516 C 65.177734 87.353516 60.737898 84.857113 57.019531 82.800781 C 58.936385 89.666881 63.945312 93.900391 63.945312 93.900391 C 63.945312 93.900391 61.096973 93.568117 57.304688 93.046875 C 62.367748 103.46065 69.162109 104.81055 69.162109 104.81055 C 69.162109 104.81055 67.234107 105.68532 63.185547 105.66406 C 69.564393 111.333 76.943359 112.02148 76.943359 112.02148 C 76.943359 112.02148 75.846452 113.45932 73.431641 114.77344 C 80.870667 117.96285 87.283203 117.71289 87.283203 117.71289 L 88.660156 119.84766 L 85.861328 127.05859 L 90.320312 120.46484 L 88.849609 129.33594 L 92.40625 122.78906 L 90.9375 131.23242 L 93.925781 124.87695 L 92.644531 132.08789 L 93.783203 130.52148 L 93.59375 136.64062 C 93.59375 136.64062 93.119141 140.77803 93.119141 142.85547 C 93.119141 147.78977 95.443359 149.25977 95.443359 149.25977 L 96 139.1543 L 96.011719 108.76953 L 96.025391 139.1543 L 96.582031 149.25977 C 96.582031 149.25977 98.90625 147.78977 98.90625 142.85547 C 98.90625 140.77803 98.431641 136.64062 98.431641 136.64062 L 98.242188 130.52148 L 99.380859 132.08789 L 98.099609 124.87695 L 101.08789 131.23242 L 99.617188 122.78906 L 103.17578 129.33594 L 101.70508 120.46484 L 106.16406 127.05859 L 103.36523 119.84766 L 104.74023 117.71289 C 104.74023 117.71289 111.15277 117.96285 118.5918 114.77344 C 116.17699 113.45932 115.08203 112.02148 115.08203 112.02148 C 115.08203 112.02148 122.45904 111.333 128.83789 105.66406 C 124.78933 105.68532 122.86133 104.81055 122.86133 104.81055 C 122.86133 104.81055 129.65763 103.46064 134.7207 93.046875 C 130.92841 93.568117 128.08008 93.900391 128.08008 93.900391 C 128.08008 93.900391 133.089 89.666881 135.00586 82.800781 C 131.28749 84.857113 126.8457 87.353516 126.8457 87.353516 C 126.8457 87.353516 130.93928 81.490936 132.44336 72.173828 C 129.11726 75.670138 125.99219 76.443359 125.99219 76.443359 C 125.99219 76.443359 127.96786 70.532179 126.27734 66.007812 C 125.21458 68.49235 123.71484 69.613281 123.71484 69.613281 C 123.71484 69.613281 124.6006 67.422962 123.81055 66.197266 C 123.10992 67.838479 121.43945 68.853516 121.43945 68.853516 C 121.43945 68.853516 122.759 63.999728 121.05859 59.460938 C 120.02424 63.999729 118.97266 66.482422 118.97266 66.482422 C 118.97266 66.482422 119.33738 64.038569 117.83398 61.927734 C 117.29352 63.112251 115.55664 64.109375 115.55664 64.109375 C 115.55664 64.109375 116.27688 58.043067 111.47656 53.484375 C 111.95204 57.981638 108.25195 61.927734 108.25195 61.927734 C 108.25195 61.927734 112.45732 66.655255 111.95117 74.072266 C 111.31708 83.364142 101.89972 88.862513 101.60938 90.105469 C 100.88148 93.221704 105.75948 93.020992 104.56055 101.33398 C 104.27429 103.31881 100.75586 105.57031 100.75586 105.57031 L 98.009766 106.88867 C 97.780199 106.58499 97.565302 106.26752 97.476562 105.99609 C 97.334104 105.56036 97.460704 104.91734 97.810547 104.62109 C 99.748311 102.9802 100.42773 101.4668 100.42773 101.4668 C 100.42773 101.4668 99.069374 102.41918 98.28125 102.60742 C 97.160905 102.87501 95.977393 102.50262 94.826172 102.54102 C 92.295704 102.62531 91.304688 104.6543 91.304688 104.6543 C 91.304688 104.6543 92.518274 104.5639 93.115234 104.6543 C 93.884802 104.7709 94.279879 105.2891 94.355469 105.86133 C 94.398325 106.18577 94.103743 106.561 93.871094 106.82031 L 91.269531 105.57031 C 91.269531 105.57031 87.751104 103.31881 87.464844 101.33398 C 86.26591 93.020988 91.141966 93.221704 90.414062 90.105469 C 90.123728 88.862513 80.708311 83.364142 80.074219 74.072266 C 79.56807 66.655255 83.773437 61.927734 83.773438 61.927734 C 83.773438 61.927734 80.073339 57.981638 80.548828 53.484375 z "
     id="path851" />
</svg>
