<?xml version="1.0" encoding="UTF-8" standalone="no"?>
<svg
   xmlns:dc="http://purl.org/dc/elements/1.1/"
   xmlns:cc="http://creativecommons.org/ns#"
   xmlns:rdf="http://www.w3.org/1999/02/22-rdf-syntax-ns#"
   xmlns:svg="http://www.w3.org/2000/svg"
   xmlns="http://www.w3.org/2000/svg"
   xmlns:sodipodi="http://sodipodi.sourceforge.net/DTD/sodipodi-0.dtd"
   xmlns:inkscape="http://www.inkscape.org/namespaces/inkscape"
   viewBox="0 0 192 192"
   version="1.1"
   id="svg16"
   sodipodi:docname="cakewalk-sonar.svg"
   inkscape:version="0.92.4 (5da689c313, 2019-01-14)">
  <metadata
     id="metadata20">
    <rdf:RDF>
      <cc:Work
         rdf:about="">
        <dc:format>image/svg+xml</dc:format>
        <dc:type
           rdf:resource="http://purl.org/dc/dcmitype/StillImage" />
        <dc:title></dc:title>
      </cc:Work>
    </rdf:RDF>
  </metadata>
  <sodipodi:namedview
     pagecolor="#ffffff"
     bordercolor="#666666"
     borderopacity="1"
     objecttolerance="10"
     gridtolerance="10"
     guidetolerance="10"
     inkscape:pageopacity="0"
     inkscape:pageshadow="2"
     inkscape:window-width="1920"
     inkscape:window-height="1017"
     id="namedview18"
     showgrid="true"
     inkscape:zoom="2.9469688"
     inkscape:cx="68.570258"
     inkscape:cy="87.045226"
     inkscape:window-x="-8"
     inkscape:window-y="-8"
     inkscape:window-maximized="1"
     inkscape:current-layer="svg16"
     inkscape:snap-global="true">
    <inkscape:grid
       type="xygrid"
       id="grid827"
       spacingx="4"
       spacingy="4" />
  </sodipodi:namedview>
  <defs
     id="defs4">
    <style
       id="style2">.a{fill:none;stroke:#b1b5bd;stroke-linecap:round;stroke-linejoin:round;isolation:isolate;opacity:0.63;}</style>
  </defs>
  <circle
     class="a"
     cx="96"
     cy="96"
     r="88"
     id="circle8"
     style="fill:#54688c;opacity:1;stroke:none" />
  <path
     style="fill:#fdf5d9;stroke:none;stroke-width:1px;stroke-linecap:butt;stroke-linejoin:miter;stroke-opacity:1"
     d="m 72,68 v 4 c 0,0 -8,8 -8,20 0,20 24,20 28,20 8,0 8,8 8,8 v 40 h -4 l -4,-28 c 0,0 -1.187661,-4 -5.187661,-4 C 78.812339,128 60,120 60,96 60,76 72,68 72,68 Z"
     id="path829"
     inkscape:connector-curvature="0"
     sodipodi:nodetypes="ccssccccssc" />
  <rect
     style="opacity:1;vector-effect:none;fill:#fdf5d9;fill-opacity:1;fill-rule:evenodd;stroke:none;stroke-width:4;stroke-linecap:round;stroke-linejoin:round;stroke-miterlimit:4;stroke-dasharray:none;stroke-dashoffset:0;stroke-opacity:1;paint-order:stroke fill markers"
     id="rect831"
     width="16"
     height="16"
     x="88"
     y="88"
     ry="8" />
  <path
     style="fill:#fdf5d9;stroke:none;stroke-width:1px;stroke-linecap:butt;stroke-linejoin:miter;stroke-opacity:1"
     d="m 120,124 v -4 c 0,0 8,-8 8,-20 0,-20 -24,-20 -28,-20 -8,0 -8,-8 -8,-8 V 32 h 4 l 4,28 c 0,0 1.18766,4 5.18766,4 8,0 26.81234,8 26.81234,32 0,20 -12,28 -12,28 z"
     id="path829-3"
     inkscape:connector-curvature="0"
     sodipodi:nodetypes="ccssccccssc" />
</svg>
