<?xml version="1.0" encoding="UTF-8" standalone="no"?>
<svg
   xmlns:dc="http://purl.org/dc/elements/1.1/"
   xmlns:cc="http://creativecommons.org/ns#"
   xmlns:rdf="http://www.w3.org/1999/02/22-rdf-syntax-ns#"
   xmlns:svg="http://www.w3.org/2000/svg"
   xmlns="http://www.w3.org/2000/svg"
   xmlns:sodipodi="http://sodipodi.sourceforge.net/DTD/sodipodi-0.dtd"
   xmlns:inkscape="http://www.inkscape.org/namespaces/inkscape"
   viewBox="0 0 192 192"
   version="1.1"
   id="svg16"
   sodipodi:docname="digital-performer-9.svg"
   inkscape:version="0.92.4 (5da689c313, 2019-01-14)">
  <metadata
     id="metadata20">
    <rdf:RDF>
      <cc:Work
         rdf:about="">
        <dc:format>image/svg+xml</dc:format>
        <dc:type
           rdf:resource="http://purl.org/dc/dcmitype/StillImage" />
        <dc:title></dc:title>
      </cc:Work>
    </rdf:RDF>
  </metadata>
  <sodipodi:namedview
     pagecolor="#ffffff"
     bordercolor="#666666"
     borderopacity="1"
     objecttolerance="10"
     gridtolerance="10"
     guidetolerance="10"
     inkscape:pageopacity="0"
     inkscape:pageshadow="2"
     inkscape:window-width="1920"
     inkscape:window-height="1017"
     id="namedview18"
     showgrid="true"
     inkscape:zoom="3.5327288"
     inkscape:cx="73.312327"
     inkscape:cy="90.327057"
     inkscape:window-x="-8"
     inkscape:window-y="-8"
     inkscape:window-maximized="1"
     inkscape:current-layer="svg16"
     showguides="true"
     inkscape:guide-bbox="true">
    <inkscape:grid
       type="xygrid"
       id="grid827"
       spacingx="4"
       spacingy="4" />
  </sodipodi:namedview>
  <defs
     id="defs4">
    <style
       id="style2">.a{fill:none;stroke:#b1b5bd;stroke-linecap:round;stroke-linejoin:round;isolation:isolate;opacity:0.63;}</style>
  </defs>
  <circle
     class="a"
     cx="96"
     cy="96"
     r="88"
     id="circle8"
     style="fill:#d8d8d8;stroke:none;opacity:1" />
  <path
     inkscape:connector-curvature="0"
     style="opacity:1;vector-effect:none;fill:#96dfd3;fill-opacity:1;fill-rule:evenodd;paint-order:stroke fill markers"
     d="M 96,172 V 96 H 20 c 0,42.104 33.896,76 76,76 z"
     id="rect826-2" />
  <path
     style="opacity:1;vector-effect:none;fill:#8c72bd;fill-opacity:1;fill-rule:evenodd;paint-order:stroke fill markers"
     d="M 96 20 L 96 96 L 172 96 C 172 53.896 138.104 20 96 20 z "
     id="rect826" />
  <path
     inkscape:connector-curvature="0"
     style="opacity:1;vector-effect:none;fill:#f8c18c;fill-opacity:1;fill-rule:evenodd;paint-order:stroke fill markers"
     d="M 96,20 V 96 H 20 C 20,53.896 53.896,20 96,20 Z"
     id="rect826-9-3" />
  <path
     style="fill:#ff837d;stroke:none;stroke-width:1px;stroke-linecap:butt;stroke-linejoin:miter;stroke-opacity:1"
     d="M 96 20 L 96 96 L 149.78906 42.210938 C 136.05206 28.473938 117.052 20 96 20 z "
     id="path879" />
  <path
     inkscape:connector-curvature="0"
     style="opacity:1;vector-effect:none;fill:#728dbe;fill-opacity:1;fill-rule:evenodd;paint-order:stroke fill markers"
     d="M 96,172 V 96 h 76 c 0,42.104 -33.896,76 -76,76 z"
     id="rect826-9" />
  <path
     inkscape:connector-curvature="0"
     style="fill:#f9de81;stroke:none;stroke-width:1px;stroke-linecap:butt;stroke-linejoin:miter;stroke-opacity:1"
     d="M 20,96 H 96 L 42.21094,42.21094 C 28.473938,55.94794 20,74.948 20,96 Z"
     id="path879-4" />
  <path
     inkscape:connector-curvature="0"
     style="fill:#9abeff;stroke:none;stroke-width:1px;stroke-linecap:butt;stroke-linejoin:miter;stroke-opacity:1"
     d="M 96,172 V 96 l 53.78906,53.78906 C 136.05206,163.52606 117.052,172 96,172 Z"
     id="path879-0" />
  <path
     inkscape:connector-curvature="0"
     style="fill:#98dc9a;stroke:none;stroke-width:1px;stroke-linecap:butt;stroke-linejoin:miter;stroke-opacity:1"
     d="M 20,96 H 96 L 42.21094,149.78906 C 28.47394,136.05206 20,117.052 20,96 Z"
     id="path879-0-7" />
  <rect
     style="opacity:0.25;vector-effect:none;fill:#000000;fill-opacity:1;fill-rule:evenodd;stroke:none;stroke-width:1.27272725;paint-order:stroke fill markers"
     id="rect930"
     width="112"
     height="112"
     x="40"
     y="40"
     ry="56" />
  <rect
     style="opacity:1;vector-effect:none;fill:#56595b;fill-opacity:1;fill-rule:evenodd;stroke-width:1.05882359;paint-order:stroke fill markers"
     id="rect822"
     width="72"
     height="72"
     x="60"
     y="60"
     ry="36" />
  <rect
     style="opacity:1;vector-effect:none;fill:#ffffff;fill-opacity:1;fill-rule:evenodd;stroke:none;stroke-width:16;stroke-linecap:round;stroke-linejoin:round;stroke-miterlimit:4;stroke-dasharray:none;stroke-opacity:1;paint-order:stroke fill markers"
     id="rect820"
     width="8"
     height="32"
     x="52"
     y="80"
     ry="4" />
  <path
     style="fill:#ffffff"
     d="m 56,80 v 8 h 20 c 0,0 8,0 8,8 0,8 -8,8 -8,8 H 56 v 8 h 20 c 0,0 16,0 16,-16 C 92,80 76,80 76,80 Z"
     id="path822"
     inkscape:connector-curvature="0"
     sodipodi:nodetypes="cccsccccscc" />
  <rect
     style="opacity:1;vector-effect:none;fill:#ffffff;fill-opacity:1;fill-rule:evenodd;stroke:none;stroke-width:16;stroke-linecap:round;stroke-linejoin:round;stroke-miterlimit:4;stroke-dasharray:none;stroke-opacity:1;paint-order:stroke fill markers"
     id="rect820-8"
     width="8"
     height="32"
     x="100"
     y="80"
     ry="4" />
  <path
     style="fill:none;stroke:#ffffff;stroke-width:8;stroke-linecap:butt;stroke-linejoin:round;stroke-miterlimit:4;stroke-dasharray:none;stroke-opacity:1"
     d="m 104,100 h 24 c 0,0 8,0 8,-8 0,-8 -8,-8 -8,-8 h -24"
     id="path839"
     inkscape:connector-curvature="0"
     sodipodi:nodetypes="ccscc" />
</svg>
