<?xml version="1.0" encoding="UTF-8" standalone="no"?>
<svg
   xmlns:dc="http://purl.org/dc/elements/1.1/"
   xmlns:cc="http://creativecommons.org/ns#"
   xmlns:rdf="http://www.w3.org/1999/02/22-rdf-syntax-ns#"
   xmlns:svg="http://www.w3.org/2000/svg"
   xmlns="http://www.w3.org/2000/svg"
   xmlns:sodipodi="http://sodipodi.sourceforge.net/DTD/sodipodi-0.dtd"
   xmlns:inkscape="http://www.inkscape.org/namespaces/inkscape"
   viewBox="0 0 192 192"
   version="1.1"
   id="svg16"
   sodipodi:docname="harrison-mixbus.svg"
   inkscape:version="0.92.4 (5da689c313, 2019-01-14)">
  <metadata
     id="metadata20">
    <rdf:RDF>
      <cc:Work
         rdf:about="">
        <dc:format>image/svg+xml</dc:format>
        <dc:type
           rdf:resource="http://purl.org/dc/dcmitype/StillImage" />
        <dc:title></dc:title>
      </cc:Work>
    </rdf:RDF>
  </metadata>
  <sodipodi:namedview
     pagecolor="#ffffff"
     bordercolor="#666666"
     borderopacity="1"
     objecttolerance="10"
     gridtolerance="10"
     guidetolerance="10"
     inkscape:pageopacity="0"
     inkscape:pageshadow="2"
     inkscape:window-width="1920"
     inkscape:window-height="1017"
     id="namedview18"
     showgrid="true"
     inkscape:zoom="4.1676432"
     inkscape:cx="71.171928"
     inkscape:cy="106.24073"
     inkscape:window-x="-8"
     inkscape:window-y="-8"
     inkscape:window-maximized="1"
     inkscape:current-layer="svg16"
     inkscape:snap-global="false">
    <inkscape:grid
       type="xygrid"
       id="grid827"
       spacingx="4"
       spacingy="4" />
  </sodipodi:namedview>
  <defs
     id="defs4">
    <style
       id="style2">.a{fill:none;stroke:#b1b5bd;stroke-linecap:round;stroke-linejoin:round;isolation:isolate;opacity:0.63;}</style>
  </defs>
  <path
     style="fill:#ff837d;stroke:none;stroke-width:1px;stroke-linecap:butt;stroke-linejoin:miter;stroke-opacity:1"
     d="m 32,32 -8,52 c 0,0 -3.543835,12 12,12 h 36 c 0,0 4,0 4,4 0,4 -4,4 -4,4 H 36 c -14.168563,0 -16.959775,16 -16.959775,16 L 8,160 h 52 c 18.134824,0 20,-16 20,-16 l 4,-24 c 0,0 0,-8 8,-8 10.56034,0 8,8 8,8 l -4,24 c 0,0 -4.695758,16 16,16 h 48 l 4,-48 c 0,0 1.95278,-12 -12,-12 H 104 C 90.135772,100 92,88 92,88 l 4,-36 c 0,0 3.455076,-20 -16,-20 z"
     id="path829"
     inkscape:connector-curvature="0"
     sodipodi:nodetypes="ccscscsccsccsccsccssccsc" />
  <path
     style="fill:#ff837d;stroke:none;stroke-width:1px;stroke-linecap:butt;stroke-linejoin:miter;stroke-opacity:1"
     d="m 104,84 c 0,0 -1.7926,8 8,8 h 37.12067 C 168,92 172,76 172,76 l 12,-44 h -52 c -22.28219,0 -24,20 -24,20 z"
     id="path831"
     inkscape:connector-curvature="0"
     sodipodi:nodetypes="cssccscc" />
</svg>
