<?xml version="1.0" encoding="UTF-8" standalone="no"?>
<svg
   xmlns:dc="http://purl.org/dc/elements/1.1/"
   xmlns:cc="http://creativecommons.org/ns#"
   xmlns:rdf="http://www.w3.org/1999/02/22-rdf-syntax-ns#"
   xmlns:svg="http://www.w3.org/2000/svg"
   xmlns="http://www.w3.org/2000/svg"
   xmlns:sodipodi="http://sodipodi.sourceforge.net/DTD/sodipodi-0.dtd"
   xmlns:inkscape="http://www.inkscape.org/namespaces/inkscape"
   viewBox="0 0 192 192"
   version="1.1"
   id="svg16"
   sodipodi:docname="mulab.svg"
   inkscape:version="0.92.4 (5da689c313, 2019-01-14)">
  <metadata
     id="metadata20">
    <rdf:RDF>
      <cc:Work
         rdf:about="">
        <dc:format>image/svg+xml</dc:format>
        <dc:type
           rdf:resource="http://purl.org/dc/dcmitype/StillImage" />
        <dc:title></dc:title>
      </cc:Work>
    </rdf:RDF>
  </metadata>
  <sodipodi:namedview
     pagecolor="#ffffff"
     bordercolor="#666666"
     borderopacity="1"
     objecttolerance="10"
     gridtolerance="10"
     guidetolerance="10"
     inkscape:pageopacity="0"
     inkscape:pageshadow="2"
     inkscape:window-width="1920"
     inkscape:window-height="1017"
     id="namedview18"
     showgrid="true"
     inkscape:zoom="2.9469688"
     inkscape:cx="74.97504"
     inkscape:cy="87.045226"
     inkscape:window-x="-8"
     inkscape:window-y="-8"
     inkscape:window-maximized="1"
     inkscape:current-layer="svg16">
    <inkscape:grid
       type="xygrid"
       id="grid827"
       spacingx="4"
       spacingy="4" />
  </sodipodi:namedview>
  <defs
     id="defs4">
    <style
       id="style2">.a{fill:none;stroke:#b1b5bd;stroke-linecap:round;stroke-linejoin:round;isolation:isolate;opacity:0.63;}</style>
  </defs>
  <path
     style="fill:#f8c18c;stroke:none;opacity:1"
     d="M 96 8 A 88 88 0 0 0 8.2070312 91.878906 L 56 64 L 124 168 L 156 148 L 183.64648 103.07422 A 88 88 0 0 0 184 96 A 88 88 0 0 0 96 8 z "
     id="circle8" />
  <path
     style="fill:#9abeff;stroke:none;stroke-width:1px;stroke-linecap:butt;stroke-linejoin:miter;stroke-opacity:1"
     d="M 52 36 L 28 56 L 8.109375 99.095703 A 88 88 0 0 0 96 184 A 88 88 0 0 0 183.67188 102.57617 L 176 116 L 148 156 L 128 156 L 108 136 L 88 72 L 68 40 L 52 36 z "
     id="path831" />
  <path
     style="color:#000000;font-style:normal;font-variant:normal;font-weight:normal;font-stretch:normal;font-size:medium;line-height:normal;font-family:sans-serif;font-variant-ligatures:normal;font-variant-position:normal;font-variant-caps:normal;font-variant-numeric:normal;font-variant-alternates:normal;font-feature-settings:normal;text-indent:0;text-align:start;text-decoration:none;text-decoration-line:none;text-decoration-style:solid;text-decoration-color:#000000;letter-spacing:normal;word-spacing:normal;text-transform:none;writing-mode:lr-tb;direction:ltr;text-orientation:mixed;dominant-baseline:auto;baseline-shift:baseline;text-anchor:start;white-space:normal;shape-padding:0;clip-rule:nonzero;display:inline;overflow:visible;visibility:visible;opacity:1;isolation:auto;mix-blend-mode:normal;color-interpolation:sRGB;color-interpolation-filters:linearRGB;solid-color:#000000;solid-opacity:1;vector-effect:none;fill:#ffffff;fill-opacity:1;fill-rule:nonzero;stroke:none;stroke-width:8;stroke-linecap:round;stroke-linejoin:round;stroke-miterlimit:4;stroke-dasharray:none;stroke-dashoffset:0;stroke-opacity:1;color-rendering:auto;image-rendering:auto;shape-rendering:auto;text-rendering:auto;enable-background:accumulate"
     d="M 56 32 C 47.285714 32 39.681567 37.381472 33.113281 44.546875 C 26.544996 51.712278 20.807538 60.953481 15.962891 70.132812 C 13.24716 75.278408 10.852721 80.367425 8.7597656 85.095703 A 88 88 0 0 0 8 96 A 88 88 0 0 0 8.7460938 106.55664 C 10.69696 101.10856 15.793068 87.592739 23.037109 73.867188 C 27.692462 65.04652 33.205004 56.287722 39.011719 49.953125 C 44.818433 43.618528 50.714286 40 56 40 C 65.181818 40 71.556898 46.000911 77.361328 56.662109 C 83.165758 67.323308 87.667969 82.148438 92.167969 97.148438 C 96.667969 112.14844 101.16576 127.32331 107.61133 139.16211 C 114.0569 151.00091 123.18182 160 136 160 C 145.41667 160 153.63446 155.02181 160.45312 148.20312 C 167.27181 141.38446 172.9205 132.58766 177.53516 123.87109 C 179.0783 120.95626 180.49429 118.05218 181.80078 115.22461 A 88 88 0 0 0 184 96 A 88 88 0 0 0 183.63086 88.552734 C 182.41786 92.421106 177.94957 105.99109 170.46484 120.12891 C 166.0795 128.41234 160.7282 136.61554 154.79688 142.54688 C 148.86554 148.47819 142.58333 152 136 152 C 126.81818 152 120.4431 145.99909 114.63867 135.33789 C 108.83424 124.67669 104.33203 109.85156 99.832031 94.851562 C 95.332031 79.851562 90.834242 64.676692 84.388672 52.837891 C 77.943102 40.999089 68.818182 32 56 32 z "
     id="path829" />
</svg>
