<?xml version="1.0" encoding="UTF-8" standalone="no"?>
<svg
   xmlns:dc="http://purl.org/dc/elements/1.1/"
   xmlns:cc="http://creativecommons.org/ns#"
   xmlns:rdf="http://www.w3.org/1999/02/22-rdf-syntax-ns#"
   xmlns:svg="http://www.w3.org/2000/svg"
   xmlns="http://www.w3.org/2000/svg"
   xmlns:sodipodi="http://sodipodi.sourceforge.net/DTD/sodipodi-0.dtd"
   xmlns:inkscape="http://www.inkscape.org/namespaces/inkscape"
   viewBox="0 0 192 192"
   version="1.1"
   id="svg16"
   sodipodi:docname="paulxstretch.svg"
   inkscape:version="0.92.4 (5da689c313, 2019-01-14)">
  <metadata
     id="metadata20">
    <rdf:RDF>
      <cc:Work
         rdf:about="">
        <dc:format>image/svg+xml</dc:format>
        <dc:type
           rdf:resource="http://purl.org/dc/dcmitype/StillImage" />
        <dc:title></dc:title>
      </cc:Work>
    </rdf:RDF>
  </metadata>
  <sodipodi:namedview
     pagecolor="#ffffff"
     bordercolor="#666666"
     borderopacity="1"
     objecttolerance="10"
     gridtolerance="10"
     guidetolerance="10"
     inkscape:pageopacity="0"
     inkscape:pageshadow="2"
     inkscape:window-width="1920"
     inkscape:window-height="1017"
     id="namedview18"
     showgrid="true"
     inkscape:zoom="5.8939376"
     inkscape:cx="84.543839"
     inkscape:cy="119.814"
     inkscape:window-x="-8"
     inkscape:window-y="-8"
     inkscape:window-maximized="1"
     inkscape:current-layer="svg16"
     inkscape:snap-global="true">
    <inkscape:grid
       type="xygrid"
       id="grid827"
       spacingx="4"
       spacingy="4" />
  </sodipodi:namedview>
  <defs
     id="defs4">
    <style
       id="style2">.a{fill:none;stroke:#b1b5bd;stroke-linecap:round;stroke-linejoin:round;isolation:isolate;opacity:0.63;}</style>
  </defs>
  <rect
     class="a"
     x="20"
     y="20"
     width="152"
     height="152"
     rx="10"
     id="rect6"
     style="fill:#56595b;stroke:none;opacity:1" />
  <path
     style="opacity:1;vector-effect:none;fill:#8c72bd;fill-opacity:1;fill-rule:evenodd;stroke:none;stroke-width:8;stroke-linecap:round;stroke-linejoin:round;stroke-miterlimit:4;stroke-dasharray:none;stroke-opacity:1;paint-order:stroke fill markers"
     d="M 80 40 L 80 44 L 72 44 L 72 48 L 88 48 L 88 52 L 64 52 L 64 56 L 76 56 L 76 60 L 56 60 L 56 64 L 72 64 L 72 72 L 64 72 L 64 76 L 80 76 L 80 80 L 52 80 L 52 84 L 72 84 L 72 88 L 60 88 L 60 92 L 52 92 L 52 100 L 60 100 L 60 104 L 40 104 L 40 108 L 64 108 L 64 112 L 52 112 L 52 120 L 60 120 L 60 124 L 72 124 L 72 128 L 52 128 L 52 132 L 80 132 L 80 136 L 64 136 L 64 140 L 72 140 L 72 148 L 56 148 L 56 152 L 76 152 L 76 156 L 64 156 L 64 160 L 88 160 L 88 164 L 72 164 L 72 168 L 80 168 L 80 172 L 108 172 L 108 168 L 116 168 L 116 164 L 100 164 L 100 160 L 124 160 L 124 156 L 112 156 L 112 152 L 132 152 L 132 148 L 116 148 L 116 140 L 128 140 L 128 136 L 112 136 L 112 132 L 140 132 L 140 128 L 120 128 L 120 124 L 132 124 L 132 120 L 140 120 L 140 112 L 128 112 L 128 108 L 148 108 L 148 104 L 132 104 L 132 100 L 140 100 L 140 92 L 132 92 L 132 88 L 120 88 L 120 84 L 140 84 L 140 80 L 112 80 L 112 76 L 128 76 L 128 72 L 116 72 L 116 64 L 132 64 L 132 60 L 112 60 L 112 56 L 124 56 L 124 52 L 100 52 L 100 48 L 116 48 L 116 44 L 108 44 L 108 40 L 80 40 z "
     id="rect820" />
  <path
     style="fill:#9abeff;stroke:none;stroke-width:1px;stroke-linecap:butt;stroke-linejoin:miter;stroke-opacity:1"
     d="M 30 20 C 24.46 20 20 24.46 20 30 L 20 52 C 20 52 48 40 92 40 C 136 40 172 52 172 52 L 172 30 C 172 24.46 167.54 20 162 20 L 30 20 z "
     id="path818" />
  <rect
     style="opacity:1;vector-effect:none;fill:#9abeff;fill-opacity:1;fill-rule:evenodd;stroke:none;stroke-width:8;stroke-linecap:round;stroke-linejoin:round;stroke-miterlimit:4;stroke-dasharray:none;stroke-opacity:1;paint-order:stroke fill markers"
     id="rect869"
     width="28"
     height="12"
     x="60"
     y="108" />
  <rect
     style="opacity:1;vector-effect:none;fill:#9abeff;fill-opacity:1;fill-rule:evenodd;stroke:none;stroke-width:8;stroke-linecap:round;stroke-linejoin:round;stroke-miterlimit:4;stroke-dasharray:none;stroke-opacity:1;paint-order:stroke fill markers"
     id="rect871"
     width="32"
     height="24"
     x="68"
     y="108"
     ry="12" />
  <rect
     style="opacity:1;vector-effect:none;fill:#9abeff;fill-opacity:1;fill-rule:evenodd;stroke:none;stroke-width:8;stroke-linecap:round;stroke-linejoin:round;stroke-miterlimit:4;stroke-dasharray:none;stroke-opacity:1;paint-order:stroke fill markers"
     id="rect873"
     width="12"
     height="40"
     x="68"
     y="108" />
  <rect
     style="opacity:1;vector-effect:none;fill:#8c72bd;fill-opacity:1;fill-rule:evenodd;stroke:none;stroke-width:8;stroke-linecap:round;stroke-linejoin:round;stroke-miterlimit:4;stroke-dasharray:none;stroke-opacity:1;paint-order:stroke fill markers"
     id="rect875"
     width="8"
     height="8"
     x="84"
     y="116"
     ry="4" />
  <rect
     style="opacity:1;vector-effect:none;fill:#8c72bd;fill-opacity:1;fill-rule:evenodd;stroke:none;stroke-width:11.31370831;stroke-linecap:round;stroke-linejoin:round;stroke-miterlimit:4;stroke-dasharray:none;stroke-opacity:1;paint-order:stroke fill markers"
     id="rect877"
     width="8"
     height="8"
     x="80"
     y="116" />
  <path
     style="fill:none;stroke:#9abeff;stroke-width:12;stroke-linecap:square;stroke-linejoin:round;stroke-miterlimit:4;stroke-dasharray:none;stroke-opacity:1"
     d="m 90.092571,141.9537 h 28.503869 c 7.30676,0 4.58098,-4.58097 4.58098,-4.58097 l -13.06427,-19.51158 c 0,0 -3.26958,-4.41131 4.24164,-4.41131 h 11.70694"
     id="path879"
     inkscape:connector-curvature="0"
     sodipodi:nodetypes="csccsc" />
</svg>
