<?xml version="1.0" encoding="UTF-8" standalone="no"?>
<svg
   xmlns:dc="http://purl.org/dc/elements/1.1/"
   xmlns:cc="http://creativecommons.org/ns#"
   xmlns:rdf="http://www.w3.org/1999/02/22-rdf-syntax-ns#"
   xmlns:svg="http://www.w3.org/2000/svg"
   xmlns="http://www.w3.org/2000/svg"
   xmlns:sodipodi="http://sodipodi.sourceforge.net/DTD/sodipodi-0.dtd"
   xmlns:inkscape="http://www.inkscape.org/namespaces/inkscape"
   viewBox="0 0 192 192"
   version="1.1"
   id="svg16"
   sodipodi:docname="studio-one.svg"
   inkscape:version="0.92.4 (5da689c313, 2019-01-14)">
  <metadata
     id="metadata20">
    <rdf:RDF>
      <cc:Work
         rdf:about="">
        <dc:format>image/svg+xml</dc:format>
        <dc:type
           rdf:resource="http://purl.org/dc/dcmitype/StillImage" />
        <dc:title></dc:title>
      </cc:Work>
    </rdf:RDF>
  </metadata>
  <sodipodi:namedview
     pagecolor="#ffffff"
     bordercolor="#666666"
     borderopacity="1"
     objecttolerance="10"
     gridtolerance="10"
     guidetolerance="10"
     inkscape:pageopacity="0"
     inkscape:pageshadow="2"
     inkscape:window-width="1920"
     inkscape:window-height="1017"
     id="namedview18"
     showgrid="true"
     inkscape:zoom="2.0838216"
     inkscape:cx="105.48413"
     inkscape:cy="106.24073"
     inkscape:window-x="-8"
     inkscape:window-y="-8"
     inkscape:window-maximized="1"
     inkscape:current-layer="svg16"
     inkscape:snap-global="false">
    <inkscape:grid
       type="xygrid"
       id="grid827"
       spacingx="4"
       spacingy="4" />
  </sodipodi:namedview>
  <defs
     id="defs4">
    <style
       id="style2">.a{fill:none;stroke:#b1b5bd;stroke-linecap:round;stroke-linejoin:round;isolation:isolate;opacity:0.63;}</style>
  </defs>
  <rect
     class="a"
     x="20"
     y="20"
     width="152"
     height="152"
     rx="10"
     id="rect6"
     style="fill:#56595b;stroke:none;opacity:1" />
  <path
     style="fill:#9abeff;stroke:none;stroke-width:1px;stroke-linecap:butt;stroke-linejoin:miter;stroke-opacity:1"
     d="M 101.13477 20 C 101.60887 21.449217 102.16221 23.190995 102.47852 24.371094 C 103.95934 29.895827 96.708984 38.283203 96.708984 38.283203 C 96.708984 38.283203 60.979858 71.447975 42.925781 87.824219 C 36.547598 93.609654 24.321972 96.47306 20 97.341797 L 20 128.21484 C 23.946353 128.24179 41.242291 128.3484 51.408203 128.03516 C 59.30409 127.79186 69.5625 117.85547 69.5625 117.85547 L 116.56055 73.912109 C 116.56055 73.912109 123.51187 65.961501 121.82031 59.490234 C 118.47135 46.678347 112.12885 25.594223 110.44141 20 L 101.13477 20 z "
     id="path829" />
  <path
     style="fill:#9abeff;stroke:none;stroke-width:1px;stroke-linecap:butt;stroke-linejoin:miter;stroke-opacity:1"
     d="M 143.70703 71.876953 C 143.70703 71.876953 136.20985 72.242761 124.02539 82.734375 C 108.73998 95.896105 94.300627 110.01059 79.574219 123.79492 C 72.790836 130.14436 76.689453 140.5918 76.689453 140.5918 L 86.560547 172 L 105.29883 172 L 99.423828 153.14648 C 99.423828 153.14648 98.383284 147.7031 102.30859 143.98438 C 119.62766 127.57675 139.115 109.55679 155.07422 95.628906 C 159.10905 92.107633 162.37109 92.066406 162.37109 92.066406 L 172 92.197266 L 172 72.183594 L 143.70703 71.876953 z "
     id="path831" />
</svg>
