<?xml version="1.0" encoding="UTF-8" standalone="no"?>
<svg
   xmlns:dc="http://purl.org/dc/elements/1.1/"
   xmlns:cc="http://creativecommons.org/ns#"
   xmlns:rdf="http://www.w3.org/1999/02/22-rdf-syntax-ns#"
   xmlns:svg="http://www.w3.org/2000/svg"
   xmlns="http://www.w3.org/2000/svg"
   xmlns:sodipodi="http://sodipodi.sourceforge.net/DTD/sodipodi-0.dtd"
   xmlns:inkscape="http://www.inkscape.org/namespaces/inkscape"
   viewBox="0 0 192 192"
   version="1.1"
   id="svg16"
   sodipodi:docname="xlutop_chainer.svg"
   inkscape:version="0.92.4 (5da689c313, 2019-01-14)">
  <metadata
     id="metadata20">
    <rdf:RDF>
      <cc:Work
         rdf:about="">
        <dc:format>image/svg+xml</dc:format>
        <dc:type
           rdf:resource="http://purl.org/dc/dcmitype/StillImage" />
        <dc:title></dc:title>
      </cc:Work>
    </rdf:RDF>
  </metadata>
  <sodipodi:namedview
     pagecolor="#ffffff"
     bordercolor="#666666"
     borderopacity="1"
     objecttolerance="10"
     gridtolerance="10"
     guidetolerance="10"
     inkscape:pageopacity="0"
     inkscape:pageshadow="2"
     inkscape:window-width="1920"
     inkscape:window-height="1017"
     id="namedview18"
     showgrid="true"
     inkscape:zoom="4.1676432"
     inkscape:cx="94.569877"
     inkscape:cy="85.739558"
     inkscape:window-x="-8"
     inkscape:window-y="-8"
     inkscape:window-maximized="1"
     inkscape:current-layer="svg16"
     inkscape:snap-global="true">
    <inkscape:grid
       type="xygrid"
       id="grid827"
       spacingx="4"
       spacingy="4" />
  </sodipodi:namedview>
  <defs
     id="defs4">
    <style
       id="style2">.a{fill:none;stroke:#b1b5bd;stroke-linecap:round;stroke-linejoin:round;isolation:isolate;opacity:0.63;}</style>
  </defs>
  <rect
     style="opacity:1;vector-effect:none;fill:#56595b;fill-opacity:1;fill-rule:evenodd;stroke:none;stroke-width:5.33333349;stroke-linecap:round;stroke-linejoin:round;stroke-miterlimit:4;stroke-dasharray:none;stroke-opacity:1;paint-order:stroke fill markers"
     id="rect818-6-4"
     width="128"
     height="128"
     x="20"
     y="44"
     ry="42.666668" />
  <rect
     style="opacity:1;vector-effect:none;fill:#56595b;fill-opacity:1;fill-rule:evenodd;stroke:none;stroke-width:5.33333349;stroke-linecap:round;stroke-linejoin:round;stroke-miterlimit:4;stroke-dasharray:none;stroke-opacity:1;paint-order:stroke fill markers"
     id="rect818-6"
     width="128"
     height="128"
     x="44"
     y="20"
     ry="42.666668" />
  <path
     style="opacity:1;vector-effect:none;fill:#ececec;fill-opacity:1;fill-rule:evenodd;stroke:none;stroke-width:16.02015495;stroke-linecap:round;stroke-linejoin:round;stroke-miterlimit:4;stroke-dasharray:none;stroke-opacity:1;paint-order:stroke fill markers"
     d="m 64.201668,72.000004 c -13.329518,0 -24.060501,10.703999 -24.060501,23.999997 V 128 c 0,13.29601 10.730983,24.00001 24.060501,24.00001 H 96.28234 c 13.32953,0 24.06051,-10.704 24.06051,-24.00001 V 96.000001 c 0,-13.295998 -10.73098,-23.999997 -24.06051,-23.999997 z m 2.33399,12.640623 H 93.94834 c 7.59622,0 13.72199,6.110384 13.72199,13.687494 v 27.343759 c 0,7.57713 -6.12577,13.68751 -13.72199,13.68751 H 66.535658 c -7.596214,0 -13.722002,-6.11038 -13.722002,-13.68751 V 98.328121 c 0,-7.57711 6.125788,-13.687494 13.722002,-13.687494 z"
     id="rect820-5"
     inkscape:connector-curvature="0" />
  <path
     style="opacity:1;vector-effect:none;fill:#b1b5bd;fill-opacity:1;fill-rule:evenodd;stroke:none;stroke-width:21.3602066;stroke-linecap:round;stroke-linejoin:round;stroke-miterlimit:4;stroke-dasharray:none;stroke-opacity:1;paint-order:stroke fill markers"
     d="m 64.201668,80.000002 c -8.886346,0 -16.040333,7.136001 -16.040333,15.999999 V 128 c 0,8.86401 7.153987,16.00001 16.040333,16.00001 H 96.28234 c 8.88635,0 16.04033,-7.136 16.04033,-16.00001 V 96.000001 c 0,-8.863998 -7.15398,-15.999999 -16.04033,-15.999999 z m 0,8.000001 H 96.28234 c 4.44317,0 8.02017,3.568 8.02017,7.999998 V 128 c 0,4.43201 -3.577,8.00001 -8.02017,8.00001 H 64.201668 c -4.443172,0 -8.020168,-3.568 -8.020168,-8.00001 V 96.000001 c 0,-4.431998 3.576996,-7.999998 8.020168,-7.999998 z"
     id="rect822-8"
     inkscape:connector-curvature="0" />
  <path
     style="opacity:1;vector-effect:none;fill:#ececec;fill-opacity:1;fill-rule:evenodd;stroke:none;stroke-width:16.02015495;stroke-linecap:round;stroke-linejoin:round;stroke-miterlimit:4;stroke-dasharray:none;stroke-opacity:1;paint-order:stroke fill markers"
     d="m 95.99999,40.000003 c -13.32951,0 -24.060497,10.704 -24.060497,24.000001 V 96.000001 C 71.939493,109.296 82.67048,120 95.99999,120 h 32.08068 c 13.3295,0 24.0605,-10.704 24.0605,-23.999999 V 64.000004 c 0,-13.296001 -10.731,-24.000001 -24.0605,-24.000001 z m 2.334,12.640624 h 27.41268 c 7.59622,0 13.722,6.110385 13.722,13.687505 v 27.343743 c 0,7.577125 -6.12578,13.687505 -13.722,13.687505 H 98.33399 c -7.59622,0 -13.72201,-6.11038 -13.72201,-13.687505 V 66.328132 c 0,-7.57712 6.12579,-13.687505 13.72201,-13.687505 z"
     id="rect820-4"
     inkscape:connector-curvature="0" />
  <path
     style="opacity:1;vector-effect:none;fill:#b1b5bd;fill-opacity:1;fill-rule:evenodd;stroke:none;stroke-width:21.3602066;stroke-linecap:round;stroke-linejoin:round;stroke-miterlimit:4;stroke-dasharray:none;stroke-opacity:1;paint-order:stroke fill markers"
     d="m 95.99999,48.000003 c -8.88634,0 -16.04033,7.136001 -16.04033,16.000001 V 96.000001 C 79.95966,104.864 87.11365,112 95.99999,112 h 32.08068 c 8.88634,0 16.04032,-7.136 16.04032,-15.999999 V 64.000004 c 0,-8.864 -7.15398,-16.000001 -16.04032,-16.000001 z m 0,8.000001 h 32.08068 c 4.44316,0 8.02016,3.568 8.02016,8 v 31.999997 c 0,4.431999 -3.577,7.999999 -8.02016,7.999999 H 95.99999 c -4.44317,0 -8.02016,-3.568 -8.02016,-7.999999 V 64.000004 c 0,-4.432 3.57699,-8 8.02016,-8 z"
     id="rect822-4"
     inkscape:connector-curvature="0" />
  <rect
     style="opacity:1;vector-effect:none;fill:#b1b5bd;fill-opacity:1;fill-rule:evenodd;stroke:none;stroke-width:16.02015495;stroke-linecap:round;stroke-linejoin:round;stroke-miterlimit:4;stroke-dasharray:none;stroke-opacity:1;paint-order:stroke fill markers"
     id="rect918"
     width="32.080669"
     height="16"
     x="63.919334"
     y="72" />
  <rect
     style="opacity:1;vector-effect:none;fill:#ececec;fill-opacity:1;fill-rule:evenodd;stroke:none;stroke-width:16.02015495;stroke-linecap:round;stroke-linejoin:round;stroke-miterlimit:4;stroke-dasharray:none;stroke-opacity:1;paint-order:stroke fill markers"
     id="rect920"
     width="32.080669"
     height="8"
     x="63.919334"
     y="72" />
</svg>
