<?xml version="1.0" encoding="UTF-8" standalone="no"?>
<svg
   xmlns:dc="http://purl.org/dc/elements/1.1/"
   xmlns:cc="http://creativecommons.org/ns#"
   xmlns:rdf="http://www.w3.org/1999/02/22-rdf-syntax-ns#"
   xmlns:svg="http://www.w3.org/2000/svg"
   xmlns="http://www.w3.org/2000/svg"
   xmlns:sodipodi="http://sodipodi.sourceforge.net/DTD/sodipodi-0.dtd"
   xmlns:inkscape="http://www.inkscape.org/namespaces/inkscape"
   viewBox="0 0 192 192"
   version="1.1"
   id="svg16"
   sodipodi:docname="start-here-alt.svg"
   inkscape:version="0.92.4 (5da689c313, 2019-01-14)">
  <metadata
     id="metadata20">
    <rdf:RDF>
      <cc:Work
         rdf:about="">
        <dc:format>image/svg+xml</dc:format>
        <dc:type
           rdf:resource="http://purl.org/dc/dcmitype/StillImage" />
        <dc:title></dc:title>
      </cc:Work>
    </rdf:RDF>
  </metadata>
  <sodipodi:namedview
     pagecolor="#ffffff"
     bordercolor="#666666"
     borderopacity="1"
     objecttolerance="10"
     gridtolerance="10"
     guidetolerance="10"
     inkscape:pageopacity="0"
     inkscape:pageshadow="2"
     inkscape:window-width="1920"
     inkscape:window-height="1017"
     id="namedview18"
     showgrid="true"
     inkscape:zoom="3.4766083"
     inkscape:cx="77.907787"
     inkscape:cy="82.169494"
     inkscape:window-x="-8"
     inkscape:window-y="-8"
     inkscape:window-maximized="1"
     inkscape:current-layer="svg16"
     inkscape:snap-global="false">
    <inkscape:grid
       type="xygrid"
       id="grid827"
       spacingx="4"
       spacingy="4" />
  </sodipodi:namedview>
  <defs
     id="defs4">
    <style
       id="style2">.a{fill:none;stroke:#b1b5bd;stroke-linecap:round;stroke-linejoin:round;isolation:isolate;opacity:0.63;}</style>
    <clipPath
       id="clip0">
      <rect
         style="fill:#ffffff"
         y="0"
         x="0"
         width="192"
         height="192"
         id="rect22" />
    </clipPath>
  </defs>
  <g
     transform="matrix(0.92269211,0,0,0.92269211,7.4223148,7.4223054)"
     clip-path="url(#clip0)"
     id="g20">
    <path
       style="clip-rule:evenodd;fill:#ff837d;fill-rule:evenodd"
       inkscape:connector-curvature="0"
       d="m 85.0802,26.7888 c 6.0362,6.0362 15.8228,6.0362 21.8588,0 6.037,-6.0363 6.037,-15.823 0,-21.8592 -6.036,-6.03625 -15.8226,-6.03625 -21.8588,0 -6.0363,6.0362 -6.0363,15.8229 0,21.8592 z"
       id="path2" />
    <path
       style="clip-rule:evenodd;fill:#b1b5bd;fill-rule:evenodd"
       inkscape:connector-curvature="0"
       d="m 85.0802,187.09 c 6.0362,6.036 15.8228,6.036 21.8588,0 6.037,-6.037 6.037,-15.823 0,-21.86 -6.036,-6.036 -15.8226,-6.036 -21.8588,0 -6.0363,6.037 -6.0363,15.823 0,21.86 z"
       id="path4" />
    <path
       style="clip-rule:evenodd;fill:#bd9aff;fill-rule:evenodd"
       inkscape:connector-curvature="0"
       d="m 125.155,147.014 c 6.037,6.037 15.823,6.037 21.86,0 6.036,-6.036 6.036,-15.823 0,-21.859 -6.037,-6.036 -15.823,-6.036 -21.86,0 -6.036,6.036 -6.036,15.823 0,21.859 z"
       id="path6" />
    <path
       style="clip-rule:evenodd;fill:#f9de81;fill-rule:evenodd"
       inkscape:connector-curvature="0"
       d="m 165.231,106.939 c 6.036,6.036 15.823,6.036 21.859,0 6.036,-6.036 6.036,-15.8228 0,-21.859 -6.036,-6.0363 -15.823,-6.0363 -21.859,0 -6.037,6.0362 -6.037,15.823 0,21.859 z"
       id="path8" />
    <path
       style="clip-rule:evenodd;fill:#96dfd3;fill-rule:evenodd"
       inkscape:connector-curvature="0"
       d="m 45.005,147.014 c 6.0362,6.037 15.8229,6.037 21.8592,0 6.0362,-6.036 6.0362,-15.823 0,-21.859 -6.0363,-6.036 -15.823,-6.036 -21.8592,0 -6.0363,6.036 -6.0363,15.823 0,21.859 z"
       id="path10" />
    <path
       style="clip-rule:evenodd;fill:#9abeff;fill-rule:evenodd"
       inkscape:connector-curvature="0"
       d="m 85.0802,106.939 c 6.0362,6.036 15.8228,6.036 21.8588,0 6.037,-6.036 6.037,-15.8228 0,-21.859 -6.036,-6.0363 -15.8226,-6.0363 -21.8588,0 -6.0363,6.0362 -6.0363,15.823 0,21.859 z"
       id="path12" />
    <path
       style="clip-rule:evenodd;fill:#f8c18c;fill-rule:evenodd"
       inkscape:connector-curvature="0"
       d="m 125.155,66.864 c 6.037,6.0362 15.823,6.0362 21.86,0 6.036,-6.0363 6.036,-15.823 0,-21.8592 -6.037,-6.0363 -15.823,-6.0363 -21.86,0 -6.036,6.0362 -6.036,15.8229 0,21.8592 z"
       id="path14" />
    <path
       style="clip-rule:evenodd;fill:#d3b69a;fill-rule:evenodd"
       inkscape:connector-curvature="0"
       d="m 4.92978,106.939 c 6.03622,6.036 15.82292,6.036 21.85922,0 6.0362,-6.036 6.0362,-15.8228 0,-21.859 -6.0363,-6.0363 -15.823,-6.0363 -21.85922,0 -6.03625,6.0362 -6.03625,15.823 0,21.859 z"
       id="path16" />
    <path
       style="clip-rule:evenodd;fill:#98dc9a;fill-rule:evenodd"
       inkscape:connector-curvature="0"
       d="m 45.005,66.864 c 6.0362,6.0362 15.8229,6.0362 21.8592,0 6.0362,-6.0363 6.0362,-15.823 0,-21.8592 -6.0363,-6.0363 -15.823,-6.0363 -21.8592,0 -6.0363,6.0362 -6.0363,15.8229 0,21.8592 z"
       id="path18" />
  </g>
</svg>
