<?xml version="1.0" encoding="UTF-8" standalone="no"?>
<svg
   xmlns:dc="http://purl.org/dc/elements/1.1/"
   xmlns:cc="http://creativecommons.org/ns#"
   xmlns:rdf="http://www.w3.org/1999/02/22-rdf-syntax-ns#"
   xmlns:svg="http://www.w3.org/2000/svg"
   xmlns="http://www.w3.org/2000/svg"
   xmlns:sodipodi="http://sodipodi.sourceforge.net/DTD/sodipodi-0.dtd"
   xmlns:inkscape="http://www.inkscape.org/namespaces/inkscape"
   width="192"
   height="192"
   fill="none"
   version="1.1"
   viewBox="0 0 192 192"
   id="svg24"
   sodipodi:docname="delta-windows.svg"
   inkscape:version="0.92.4 (5da689c313, 2019-01-14)">
  <metadata
     id="metadata30">
    <rdf:RDF>
      <cc:Work
         rdf:about="">
        <dc:format>image/svg+xml</dc:format>
        <dc:type
           rdf:resource="http://purl.org/dc/dcmitype/StillImage" />
        <dc:title></dc:title>
      </cc:Work>
    </rdf:RDF>
  </metadata>
  <defs
     id="defs28" />
  <sodipodi:namedview
     pagecolor="#ffffff"
     bordercolor="#666666"
     borderopacity="1"
     objecttolerance="10"
     gridtolerance="10"
     guidetolerance="10"
     inkscape:pageopacity="0"
     inkscape:pageshadow="2"
     inkscape:window-width="1920"
     inkscape:window-height="1017"
     id="namedview26"
     showgrid="false"
     inkscape:zoom="3.4766083"
     inkscape:cx="112.90506"
     inkscape:cy="89.084746"
     inkscape:window-x="-8"
     inkscape:window-y="-8"
     inkscape:window-maximized="1"
     inkscape:current-layer="svg24" />
  <path
     style="clip-rule:evenodd;fill:#56595b;fill-rule:evenodd"
     inkscape:connector-curvature="0"
     id="path2"
     d="m 96,183 c 48.049,0 87,-38.951 87,-87 C 183,47.951 144.049,9 96,9 47.951,9 9,47.951 9,96 c 0,48.049 38.951,87 87,87 z" />
  <path
     style="clip-rule:evenodd;fill:#9abeff;fill-rule:evenodd"
     inkscape:connector-curvature="0"
     id="path4"
     d="m 91.423,69.452 c 3.1381,3.1381 8.226,3.1381 11.364,0 3.138,-3.1381 3.138,-8.2261 0,-11.364 -3.1381,-3.1382 -8.226,-3.1382 -11.364,0 -3.1382,3.1381 -3.1382,8.2261 0,11.364 z" />
  <path
     style="clip-rule:evenodd;fill:#9abeff;fill-rule:evenodd"
     inkscape:connector-curvature="0"
     id="path6"
     d="m 91.423,136.12 c 3.1381,3.138 8.226,3.138 11.364,0 3.138,-3.139 3.138,-8.227 0,-11.365 -3.1381,-3.138 -8.226,-3.138 -11.364,0 -3.1382,3.138 -3.1382,8.226 0,11.365 z" />
  <path
     style="clip-rule:evenodd;fill:#728dbe;fill-rule:evenodd"
     inkscape:connector-curvature="0"
     id="path8"
     d="m 108.09,119.46 c 3.138,3.138 8.226,3.138 11.365,0 3.138,-3.139 3.138,-8.227 0,-11.365 -3.139,-3.138 -8.227,-3.138 -11.365,0 -3.138,3.138 -3.138,8.226 0,11.365 z" />
  <path
     style="clip-rule:evenodd;fill:#9abeff;fill-rule:evenodd"
     inkscape:connector-curvature="0"
     id="path10"
     d="m 124.76,102.79 c 3.138,3.138 8.226,3.138 11.364,0 3.138,-3.1386 3.138,-8.2265 0,-11.365 -3.138,-3.1381 -8.226,-3.1381 -11.364,0 -3.138,3.1382 -3.138,8.2261 0,11.365 z" />
  <path
     style="clip-rule:evenodd;fill:#728dbe;fill-rule:evenodd"
     inkscape:connector-curvature="0"
     id="path12"
     d="m 74.755,119.46 c 3.1381,3.138 8.2261,3.138 11.364,0 3.1381,-3.139 3.1381,-8.227 0,-11.365 -3.1381,-3.138 -8.2261,-3.138 -11.364,0 -3.1379,3.138 -3.1381,8.226 0,11.365 z" />
  <path
     style="clip-rule:evenodd;fill:#9abeff;fill-rule:evenodd"
     inkscape:connector-curvature="0"
     id="path14"
     d="m 91.423,102.79 c 3.1381,3.138 8.226,3.138 11.364,0 3.138,-3.1386 3.138,-8.2265 0,-11.365 -3.1381,-3.1381 -8.226,-3.1381 -11.364,0 -3.1382,3.1382 -3.1382,8.2261 0,11.365 z" />
  <path
     style="clip-rule:evenodd;fill:#728dbe;fill-rule:evenodd"
     inkscape:connector-curvature="0"
     id="path16"
     d="m 108.09,86.12 c 3.138,3.1381 8.226,3.1381 11.365,0 3.138,-3.1382 3.138,-8.2261 0,-11.364 -3.139,-3.1382 -8.227,-3.1382 -11.365,0 -3.138,3.1381 -3.138,8.226 0,11.364 z" />
  <path
     style="clip-rule:evenodd;fill:#9abeff;fill-rule:evenodd"
     inkscape:connector-curvature="0"
     id="path18"
     d="m 58.088,102.79 c 3.1382,3.138 8.2261,3.138 11.364,0 3.1382,-3.1386 3.1382,-8.2265 0,-11.365 -3.1381,-3.1381 -8.226,-3.1381 -11.364,0 -3.1381,3.1382 -3.1381,8.2261 0,11.365 z" />
  <path
     style="clip-rule:evenodd;fill:#728dbe;fill-rule:evenodd"
     inkscape:connector-curvature="0"
     id="path20"
     d="m 74.755,86.12 c 3.1381,3.1381 8.2261,3.1381 11.364,0 3.1381,-3.1382 3.1381,-8.2261 0,-11.364 -3.1381,-3.1382 -8.2261,-3.1382 -11.364,0 -3.1381,3.1381 -3.1381,8.226 0,11.364 z" />
</svg>
