<?xml version="1.0" encoding="UTF-8" standalone="no"?>
<svg
   xmlns:dc="http://purl.org/dc/elements/1.1/"
   xmlns:cc="http://creativecommons.org/ns#"
   xmlns:rdf="http://www.w3.org/1999/02/22-rdf-syntax-ns#"
   xmlns:svg="http://www.w3.org/2000/svg"
   xmlns="http://www.w3.org/2000/svg"
   xmlns:sodipodi="http://sodipodi.sourceforge.net/DTD/sodipodi-0.dtd"
   xmlns:inkscape="http://www.inkscape.org/namespaces/inkscape"
   viewBox="0 0 192 192"
   version="1.1"
   id="svg16"
   sodipodi:docname="delta-install.svg"
   inkscape:version="0.92.4 (5da689c313, 2019-01-14)">
  <metadata
     id="metadata20">
    <rdf:RDF>
      <cc:Work
         rdf:about="">
        <dc:format>image/svg+xml</dc:format>
        <dc:type
           rdf:resource="http://purl.org/dc/dcmitype/StillImage" />
        <dc:title></dc:title>
      </cc:Work>
    </rdf:RDF>
  </metadata>
  <sodipodi:namedview
     pagecolor="#ffffff"
     bordercolor="#666666"
     borderopacity="1"
     objecttolerance="10"
     gridtolerance="10"
     guidetolerance="10"
     inkscape:pageopacity="0"
     inkscape:pageshadow="2"
     inkscape:window-width="1920"
     inkscape:window-height="1017"
     id="namedview18"
     showgrid="true"
     inkscape:zoom="3.4766083"
     inkscape:cx="27.614691"
     inkscape:cy="82.169494"
     inkscape:window-x="-8"
     inkscape:window-y="-8"
     inkscape:window-maximized="1"
     inkscape:current-layer="svg16">
    <inkscape:grid
       type="xygrid"
       id="grid827"
       spacingx="4"
       spacingy="4" />
  </sodipodi:namedview>
  <defs
     id="defs4">
    <style
       id="style2">.a{fill:none;stroke:#b1b5bd;stroke-linecap:round;stroke-linejoin:round;isolation:isolate;opacity:0.63;}</style>
  </defs>
  <rect
     class="a"
     x="32"
     y="8"
     width="128"
     height="176"
     rx="10"
     id="rect12"
     style="fill:#56595b;stroke:none;opacity:1" />
  <path
     id="path820"
     d="m 90.4,49.29773 c 3.1381,3.1381 8.226,3.1381 11.364,0 3.138,-3.1381 3.138,-8.2261 0,-11.364 -3.1381,-3.1382 -8.226,-3.1382 -11.364,0 -3.1382,3.1381 -3.1382,8.2261 0,11.364 z"
     inkscape:connector-curvature="0"
     style="clip-rule:evenodd;fill:#ff837d;fill-rule:evenodd" />
  <path
     id="path822"
     d="m 90.4,115.96573 c 3.1381,3.138 8.226,3.138 11.364,0 3.138,-3.139 3.138,-8.227 0,-11.365 -3.1381,-3.138 -8.226,-3.138 -11.364,0 -3.1382,3.138 -3.1382,8.226 0,11.365 z"
     inkscape:connector-curvature="0"
     style="clip-rule:evenodd;fill:#b1b5bd;fill-rule:evenodd" />
  <path
     id="path824"
     d="m 107.067,99.30573 c 3.138,3.138 8.226,3.138 11.365,0 3.138,-3.139 3.138,-8.227 0,-11.365 -3.139,-3.138 -8.227,-3.138 -11.365,0 -3.138,3.138 -3.138,8.226 0,11.365 z"
     inkscape:connector-curvature="0"
     style="clip-rule:evenodd;fill:#bd9aff;fill-rule:evenodd" />
  <path
     id="path826"
     d="m 123.737,82.63573 c 3.138,3.138 8.226,3.138 11.364,0 3.138,-3.1386 3.138,-8.2265 0,-11.365 -3.138,-3.1381 -8.226,-3.1381 -11.364,0 -3.138,3.1382 -3.138,8.2261 0,11.365 z"
     inkscape:connector-curvature="0"
     style="clip-rule:evenodd;fill:#f9de81;fill-rule:evenodd" />
  <path
     id="path828"
     d="m 73.732,99.30573 c 3.1381,3.138 8.2261,3.138 11.364,0 3.1381,-3.139 3.1381,-8.227 0,-11.365 -3.1381,-3.138 -8.2261,-3.138 -11.364,0 -3.1379,3.138 -3.1381,8.226 0,11.365 z"
     inkscape:connector-curvature="0"
     style="clip-rule:evenodd;fill:#96dfd3;fill-rule:evenodd" />
  <path
     id="path830"
     d="m 90.4,82.63573 c 3.1381,3.138 8.226,3.138 11.364,0 3.138,-3.1386 3.138,-8.2265 0,-11.365 -3.1381,-3.1381 -8.226,-3.1381 -11.364,0 -3.1382,3.1382 -3.1382,8.2261 0,11.365 z"
     inkscape:connector-curvature="0"
     style="clip-rule:evenodd;fill:#9abeff;fill-rule:evenodd" />
  <path
     id="path832"
     d="m 107.067,65.96573 c 3.138,3.1381 8.226,3.1381 11.365,0 3.138,-3.1382 3.138,-8.2261 0,-11.364 -3.139,-3.1382 -8.227,-3.1382 -11.365,0 -3.138,3.1381 -3.138,8.226 0,11.364 z"
     inkscape:connector-curvature="0"
     style="clip-rule:evenodd;fill:#f8c18c;fill-rule:evenodd" />
  <path
     id="path834"
     d="m 57.065,82.63573 c 3.1382,3.138 8.2261,3.138 11.364,0 3.1382,-3.1386 3.1382,-8.2265 0,-11.365 -3.1381,-3.1381 -8.226,-3.1381 -11.364,0 -3.1381,3.1382 -3.1381,8.2261 0,11.365 z"
     inkscape:connector-curvature="0"
     style="clip-rule:evenodd;fill:#d3b69a;fill-rule:evenodd" />
  <path
     id="path836"
     d="m 73.732,65.96573 c 3.1381,3.1381 8.2261,3.1381 11.364,0 3.1381,-3.1382 3.1381,-8.2261 0,-11.364 -3.1381,-3.1382 -8.2261,-3.1382 -11.364,0 -3.1381,3.1381 -3.1381,8.226 0,11.364 z"
     inkscape:connector-curvature="0"
     style="clip-rule:evenodd;fill:#98dc9a;fill-rule:evenodd" />
  <path
     inkscape:connector-curvature="0"
     d="m 92.00005,132 h 8.089 v 17.29773 l 6.3795,-6.23169 4.326,4.53646 -14.75,13.93632 -14.75,-13.93632 4.32595,-4.53646 L 92,149.29773 V 132 Z"
     style="clip-rule:evenodd;fill:#ffffff;fill-rule:evenodd;stroke-width:0.50032884"
     id="path863" />
</svg>
