<?xml version="1.0" encoding="UTF-8" standalone="no"?>
<svg
   xmlns:dc="http://purl.org/dc/elements/1.1/"
   xmlns:cc="http://creativecommons.org/ns#"
   xmlns:rdf="http://www.w3.org/1999/02/22-rdf-syntax-ns#"
   xmlns:svg="http://www.w3.org/2000/svg"
   xmlns="http://www.w3.org/2000/svg"
   xmlns:sodipodi="http://sodipodi.sourceforge.net/DTD/sodipodi-0.dtd"
   xmlns:inkscape="http://www.inkscape.org/namespaces/inkscape"
   viewBox="0 0 192 192"
   version="1.1"
   id="svg16"
   sodipodi:docname="internet-explorer.svg"
   inkscape:version="0.92.4 (5da689c313, 2019-01-14)">
  <metadata
     id="metadata20">
    <rdf:RDF>
      <cc:Work
         rdf:about="">
        <dc:format>image/svg+xml</dc:format>
        <dc:type
           rdf:resource="http://purl.org/dc/dcmitype/StillImage" />
        <dc:title></dc:title>
      </cc:Work>
    </rdf:RDF>
  </metadata>
  <sodipodi:namedview
     pagecolor="#ffffff"
     bordercolor="#666666"
     borderopacity="1"
     objecttolerance="10"
     gridtolerance="10"
     guidetolerance="10"
     inkscape:pageopacity="0"
     inkscape:pageshadow="2"
     inkscape:window-width="1920"
     inkscape:window-height="1017"
     id="namedview18"
     showgrid="true"
     inkscape:zoom="4.1676432"
     inkscape:cx="102.42105"
     inkscape:cy="83.882025"
     inkscape:window-x="-8"
     inkscape:window-y="-8"
     inkscape:window-maximized="1"
     inkscape:current-layer="svg16"
     inkscape:snap-global="false">
    <inkscape:grid
       type="xygrid"
       id="grid827"
       spacingx="4"
       spacingy="4" />
  </sodipodi:namedview>
  <defs
     id="defs4">
    <style
       id="style2">.a{fill:none;stroke:#b1b5bd;stroke-linecap:round;stroke-linejoin:round;isolation:isolate;opacity:0.63;}</style>
  </defs>
  <path
     style="opacity:1;vector-effect:none;fill:#9abeff;fill-opacity:1;fill-rule:evenodd;stroke:none;stroke-width:4;stroke-linecap:round;stroke-linejoin:round;stroke-miterlimit:4;stroke-dasharray:none;stroke-opacity:1;paint-order:stroke fill markers"
     d="m 107.99719,24.079044 c -42.104002,0 -76.000002,33.896 -76.000002,75.999996 0,42.104 33.896,76 76.000002,76 32.20154,0 59.58008,-19.83804 70.6875,-48 h -36.69531 c -8.05732,9.78253 -20.27167,16 -33.99219,16 -20.210558,0 -37.141131,-13.49606 -42.341799,-32 h 84.683599 25.6582 7.05664 c 0.61508,-3.90824 0.94336,-7.91364 0.94336,-12 0,-42.103996 -33.896,-75.999996 -76,-75.999996 z m 0,32 c 20.21056,0 37.14113,13.496056 42.3418,32 H 65.655391 c 5.200668,-18.503944 22.131241,-32 42.341799,-32 z"
     id="rect818"
     inkscape:connector-curvature="0" />
  <path
     style="opacity:1;vector-effect:none;fill:#f9de81;fill-opacity:1;fill-rule:evenodd;stroke:none;stroke-width:5.13529444;stroke-linecap:round;stroke-linejoin:round;stroke-miterlimit:4;stroke-dasharray:none;stroke-opacity:1;paint-order:stroke fill markers"
     d="M 154.38477,7.9492188 C 129.38124,7.6397984 92.796717,26.536108 60.169922,58.908203 15.741946,102.98935 -4.0264689,156.31016 15.845703,176.67208 30.95085,192.14949 64.48437,183.3713 99.214844,159.60938 l -9.71875,-3.14258 c -28.88323,20.123 -54.768343,24.58026 -65.189453,13.83581 -14.5320961,-14.983 6.67188,-56.6254 47.542968,-97.242063 31.930541,-31.731768 66.138321,-51.267839 86.505861,-51.152344 5.70291,0.03234 10.3211,1.605283 13.5,4.882813 7.56714,7.801934 5.42643,23.685144 -4.11719,42.845703 l 4.4668,9.070312 C 185.77037,52.123436 188.2211,28.373889 176.23633,16.09375 170.95778,10.685114 163.42859,8.0611367 154.38477,7.9492188 Z"
     id="rect843"
     inkscape:connector-curvature="0"
     sodipodi:nodetypes="sssccssssccss" />
  <path
     style="opacity:1;vector-effect:none;fill:#9abeff;fill-opacity:1;fill-rule:evenodd;stroke:none;stroke-width:4;stroke-linecap:round;stroke-linejoin:round;stroke-miterlimit:4;stroke-dasharray:none;stroke-opacity:1;paint-order:stroke fill markers"
     d="M 167.91602 53.248047 L 145.4375 76.923828 C 147.55653 80.355235 149.22154 84.099213 150.33984 88.078125 L 134.84766 88.078125 L 112.0625 112.07812 L 150.33984 112.07812 L 175.99805 112.07812 L 183.05469 112.07812 C 183.66977 108.16988 183.99805 104.16448 183.99805 100.07812 C 183.99805 82.376184 177.99016 66.139147 167.91602 53.248047 z M 141.99023 128.07812 C 133.93291 137.86066 121.71857 144.07812 107.99805 144.07812 C 100.30399 144.07812 93.087661 142.11938 86.810547 138.67578 L 64.337891 162.3457 C 76.678302 170.99544 91.718728 176.07812 107.99805 176.07812 C 140.19959 176.07812 167.57813 156.24009 178.68555 128.07812 L 141.99023 128.07812 z "
     id="rect818-1" />
</svg>
