<?xml version="1.0" encoding="UTF-8" standalone="no"?>
<svg
   xmlns:dc="http://purl.org/dc/elements/1.1/"
   xmlns:cc="http://creativecommons.org/ns#"
   xmlns:rdf="http://www.w3.org/1999/02/22-rdf-syntax-ns#"
   xmlns:svg="http://www.w3.org/2000/svg"
   xmlns="http://www.w3.org/2000/svg"
   xmlns:sodipodi="http://sodipodi.sourceforge.net/DTD/sodipodi-0.dtd"
   xmlns:inkscape="http://www.inkscape.org/namespaces/inkscape"
   width="192"
   height="192"
   version="1.1"
   viewBox="0 0 192 192"
   id="svg8"
   sodipodi:docname="visual-studio-code-exploration.svg"
   inkscape:version="0.92.4 (5da689c313, 2019-01-14)">
  <metadata
     id="metadata14">
    <rdf:RDF>
      <cc:Work
         rdf:about="">
        <dc:format>image/svg+xml</dc:format>
        <dc:type
           rdf:resource="http://purl.org/dc/dcmitype/StillImage" />
        <dc:title />
      </cc:Work>
    </rdf:RDF>
  </metadata>
  <defs
     id="defs12" />
  <sodipodi:namedview
     pagecolor="#ffffff"
     bordercolor="#666666"
     borderopacity="1"
     objecttolerance="10"
     gridtolerance="10"
     guidetolerance="10"
     inkscape:pageopacity="0"
     inkscape:pageshadow="2"
     inkscape:window-width="1920"
     inkscape:window-height="1017"
     id="namedview10"
     showgrid="false"
     inkscape:zoom="3.2931149"
     inkscape:cx="62.730204"
     inkscape:cy="90.19536"
     inkscape:window-x="-8"
     inkscape:window-y="-8"
     inkscape:window-maximized="1"
     inkscape:current-layer="svg8" />
  <path
     d="m132.74 13.872c-2.5981 0.04282-5.1475 1.074-7.0691 2.9954l-110.79 101.01c-2.9799 2.7172-2.9767 7.4086 0.0071 10.121l9.05 8.2271c2.4395 2.218 6.1132 2.3805 8.7397 0.38839l133.41-101.21c4.4757-3.3954 10.905-0.20363 10.905 5.4144v-0.39371c0-3.9435-2.2603-7.5379-5.8134-9.2487l-33.841-16.295c-1.4688-0.70728-3.0451-1.0366-4.6039-1.0109z"
     style="fill:#f8c18c;paint-order:stroke fill markers;stroke-width:0.90802"
     id="path2" />
  <path
     inkscape:connector-curvature="0"
     d="m 132.74,13.872004 c -2.5981,0.04282 -5.1475,1.074 -7.0691,2.9954 L 14.8809,117.8774 c -2.9799,2.7172 -2.9767,7.4086 0.0071,10.121 l 9.05,8.2271 c 2.4395,2.218 6.1132,2.3805 8.7397,0.38839 l 133.41,-101.209996 c 4.4757,-3.3954 10.905,-0.20363 10.905,5.4144 v -0.39371 c 0,-3.9435 -2.2603,-7.5379 -5.8134,-9.2487 l -33.841,-16.295 c -1.4688,-0.70728 -3.0451,-1.0366 -4.6039,-1.0109 z"
     style="fill:#ba6561;stroke-width:0.90802002;paint-order:stroke fill markers;opacity:0.5"
     id="path2-4" />
  <path
     d="m28.825 53.136c-1.7472-0.07066-3.5102 0.52781-4.8824 1.7752l-9.05 8.2271c-2.9839 2.7126-2.987 7.4025-0.0071 10.119l110.79 101.01c3.0745 3.0739 7.7561 3.8684 11.673 1.9827l33.841-16.295c3.5531-1.7111 5.8134-5.3054 5.8134-9.2486v-0.39371c0 5.6184-6.4293 8.8115-10.905 5.4162l-133.41-101.21c-1.1491-0.87176-2.4984-1.3319-3.8573-1.3869z"
     style="fill:#f8c18c;paint-order:stroke fill markers;stroke-width:0.90802"
     id="path4" />
  <path
     d="m132.74 13.87c-2.5984 0.04357-5.1493 1.0756-7.0708 2.9972 3.788-3.7882 10.267-1.1063 10.267 4.251v148.9c0 5.3573-6.4787 8.0407-10.267 4.2528 3.0745 3.0745 7.7566 3.8706 11.675 1.9863l33.836-16.272c3.5557-1.7098 5.817-5.307 5.817-9.2522v-110.33c0-3.9453-2.2613-7.5406-5.817-9.2504l-33.836-16.272c-1.4693-0.70666-3.0449-1.037-4.6039-1.0109z"
     style="fill:#f8c18c;paint-order:stroke fill markers;stroke-width:0.90802"
     id="path6" />
  <path
     inkscape:connector-curvature="0"
     d="m 132.74,13.870002 c -2.5984,0.04357 -5.1493,1.0756 -7.0708,2.9972 3.788,-3.7882 10.267,-1.1063 10.267,4.251 V 170.0182 c 0,5.3573 -6.4787,8.0407 -10.267,4.2528 3.0745,3.0745 7.7566,3.8706 11.675,1.9863 l 33.836,-16.272 c 3.5557,-1.7098 5.817,-5.307 5.817,-9.2522 V 40.403102 c 0,-3.9453 -2.2613,-7.5406 -5.817,-9.2504 l -33.836,-16.272 c -1.4693,-0.70666 -3.0449,-1.037 -4.6039,-1.0109 z"
     style="fill:#ffffff;stroke-width:0.90802002;paint-order:stroke fill markers;opacity:0.5"
     id="path6-9" />
</svg>
