<?xml version="1.0" encoding="UTF-8" standalone="no"?>
<svg
   xmlns:dc="http://purl.org/dc/elements/1.1/"
   xmlns:cc="http://creativecommons.org/ns#"
   xmlns:rdf="http://www.w3.org/1999/02/22-rdf-syntax-ns#"
   xmlns:svg="http://www.w3.org/2000/svg"
   xmlns="http://www.w3.org/2000/svg"
   xmlns:sodipodi="http://sodipodi.sourceforge.net/DTD/sodipodi-0.dtd"
   xmlns:inkscape="http://www.inkscape.org/namespaces/inkscape"
   viewBox="0 0 192 192"
   version="1.1"
   id="svg16"
   sodipodi:docname="autodesk-smoke.svg"
   inkscape:version="0.92.4 (5da689c313, 2019-01-14)">
  <metadata
     id="metadata20">
    <rdf:RDF>
      <cc:Work
         rdf:about="">
        <dc:format>image/svg+xml</dc:format>
        <dc:type
           rdf:resource="http://purl.org/dc/dcmitype/StillImage" />
        <dc:title></dc:title>
      </cc:Work>
    </rdf:RDF>
  </metadata>
  <sodipodi:namedview
     pagecolor="#ffffff"
     bordercolor="#666666"
     borderopacity="1"
     objecttolerance="10"
     gridtolerance="10"
     guidetolerance="10"
     inkscape:pageopacity="0"
     inkscape:pageshadow="2"
     inkscape:window-width="1920"
     inkscape:window-height="1017"
     id="namedview18"
     showgrid="true"
     inkscape:zoom="1.7383042"
     inkscape:cx="98.799099"
     inkscape:cy="159.33789"
     inkscape:window-x="-8"
     inkscape:window-y="-8"
     inkscape:window-maximized="1"
     inkscape:current-layer="svg16">
    <inkscape:grid
       type="xygrid"
       id="grid827"
       spacingx="4"
       spacingy="4" />
  </sodipodi:namedview>
  <defs
     id="defs4">
    <style
       id="style2">.a{fill:none;stroke:#b1b5bd;stroke-linecap:round;stroke-linejoin:round;isolation:isolate;opacity:0.63;}</style>
  </defs>
  <path
     style="fill:#e0f4e0"
     d="m 88,76 c 0,0 -8,-8 -8,-16 0,-7.774603 8,-12 20,-12 11.392,0 28,8 28,8 L 98.089992,12 84,8 C 84,8 68,8 52,24 44,32 40,48 40,48 l 4,24 z"
     id="path835"
     inkscape:connector-curvature="0"
     sodipodi:nodetypes="csscccsccc" />
  <path
     style="fill:#73ada4;stroke:none;stroke-width:1px;stroke-linecap:butt;stroke-linejoin:miter;stroke-opacity:1"
     d="m 60,124 c 0,0 22.272493,20 36,20 8,0 16,-5.33333 16,-12 0,-6.66667 -9.46279,-10.69256 -16,-12 C 36,108 40,60 40,60 V 48 c 0,0 8,24 48,28 29.45788,2.945788 72,12 72,52 0,11.392 -3.90446,23.98501 -12,32 -11.09033,10.97998 -44,16 -44,16 L 72,168 60,136 Z"
     id="path833"
     inkscape:connector-curvature="0"
     sodipodi:nodetypes="csssccssscccc" />
  <path
     style="fill:#73ada4;stroke:none;stroke-width:1px;stroke-linecap:butt;stroke-linejoin:miter;stroke-opacity:1"
     d="m 32,152 c 0,0 20,32 64,32 32,0 52,-24 52,-24 0,0 -28.79766,12 -44,12 -36,0 -72,-20 -72,-20 z"
     id="path831"
     inkscape:connector-curvature="0"
     sodipodi:nodetypes="cscsc" />
  <path
     style="fill:#000000;stroke:none;stroke-width:1px;stroke-linecap:butt;stroke-linejoin:miter;stroke-opacity:1;opacity:0.25"
     d="m 32,152 c 0,0 20,32 64,32 32,0 52,-24 52,-24 0,0 -28.79766,12 -44,12 -36,0 -72,-20 -72,-20 z"
     id="path831-4"
     inkscape:connector-curvature="0"
     sodipodi:nodetypes="cscsc" />
  <path
     style="fill:#96dfd3;stroke:none;stroke-width:1px;stroke-linecap:butt;stroke-linejoin:miter;stroke-opacity:1"
     d="m 32,152 28,-28 c 0,0 12,44 44,48 -48,4 -72,-20 -72,-20 z"
     id="path829"
     inkscape:connector-curvature="0"
     sodipodi:nodetypes="cccc" />
  <path
     style="fill:#96dfd3;stroke:none;stroke-width:1px;stroke-linecap:butt;stroke-linejoin:miter;stroke-opacity:1"
     d="m 84,8 c 0,0 8,1.67704 16,12 12.25115,15.808519 36,48 36,48 L 160,36 C 160,36 134.75127,16.91709 120,12 108,8 84,8 84,8 Z"
     id="path837"
     inkscape:connector-curvature="0"
     sodipodi:nodetypes="csccsc" />
</svg>
