<?xml version="1.0" encoding="UTF-8" standalone="no"?>
<svg
   xmlns:dc="http://purl.org/dc/elements/1.1/"
   xmlns:cc="http://creativecommons.org/ns#"
   xmlns:rdf="http://www.w3.org/1999/02/22-rdf-syntax-ns#"
   xmlns:svg="http://www.w3.org/2000/svg"
   xmlns="http://www.w3.org/2000/svg"
   xmlns:sodipodi="http://sodipodi.sourceforge.net/DTD/sodipodi-0.dtd"
   xmlns:inkscape="http://www.inkscape.org/namespaces/inkscape"
   viewBox="0 0 192 192"
   version="1.1"
   id="svg16"
   sodipodi:docname="mudbox.svg"
   inkscape:version="0.92.4 (5da689c313, 2019-01-14)">
  <metadata
     id="metadata20">
    <rdf:RDF>
      <cc:Work
         rdf:about="">
        <dc:format>image/svg+xml</dc:format>
        <dc:type
           rdf:resource="http://purl.org/dc/dcmitype/StillImage" />
        <dc:title></dc:title>
      </cc:Work>
    </rdf:RDF>
  </metadata>
  <sodipodi:namedview
     pagecolor="#ffffff"
     bordercolor="#666666"
     borderopacity="1"
     objecttolerance="10"
     gridtolerance="10"
     guidetolerance="10"
     inkscape:pageopacity="0"
     inkscape:pageshadow="2"
     inkscape:window-width="1920"
     inkscape:window-height="1017"
     id="namedview18"
     showgrid="true"
     inkscape:zoom="4.9166667"
     inkscape:cx="34.554198"
     inkscape:cy="94.983053"
     inkscape:window-x="-8"
     inkscape:window-y="-8"
     inkscape:window-maximized="1"
     inkscape:current-layer="svg16">
    <inkscape:grid
       type="xygrid"
       id="grid827"
       spacingx="4"
       spacingy="4" />
  </sodipodi:namedview>
  <defs
     id="defs4">
    <style
       id="style2">.a{fill:none;stroke:#b1b5bd;stroke-linecap:round;stroke-linejoin:round;isolation:isolate;opacity:0.63;}</style>
  </defs>
  <circle
     class="a"
     cx="115.52"
     cy="77"
     r="36.5"
     id="circle10"
     style="opacity:0.62999998;isolation:isolate;fill:none;stroke:#b1b5bd;stroke-linecap:round;stroke-linejoin:round" />
  <path
     inkscape:connector-curvature="0"
     style="fill:#71a372"
     d="m 32,44 h 134.74 a 1,1 0 0 1 1,1 v 125.86 a 1,1 0 0 1 -1,1 H 37 a 5,5 0 0 1 -5,-5 z"
     id="path4" />
  <path
     inkscape:connector-curvature="0"
     style="fill:#000000;opacity:0.25"
     d="m 32,44 h 134.74 a 1,1 0 0 1 1,1 v 125.86 a 1,1 0 0 1 -1,1 H 37 a 5,5 0 0 1 -5,-5 z"
     id="path4-8" />
  <path
     style="fill:#71a372"
     d="M 44 20 L 20.599609 33.619141 C 20.053266 33.934568 19.718603 34.519534 19.720703 35.150391 L 19.720703 142.33008 C 19.725102 143.68752 21.191359 144.53427 22.369141 143.85938 L 44 132 L 156.88086 132 C 157.43314 132 157.88086 131.55228 157.88086 131 L 157.88086 25 C 157.88086 22.238576 155.64228 20 152.88086 20 L 44 20 z "
     id="path6" />
  <path
     inkscape:connector-curvature="0"
     style="fill:#ffffff;opacity:0.5"
     d="m 44,132 -21.62999,11.86 c -1.177782,0.67489 -2.645601,-0.17256 -2.65,-1.53 V 35.15 c -0.0021,-0.630857 0.333657,-1.214573 0.88,-1.53 L 44,20 Z"
     id="path8"
     sodipodi:nodetypes="ccccccc" />
  <text
     xml:space="preserve"
     style="font-style:normal;font-variant:normal;font-weight:normal;font-stretch:normal;font-size:64.1355896px;line-height:1.25;font-family:Aleo;-inkscape-font-specification:Aleo;letter-spacing:0px;word-spacing:0px;fill:#ffffff;fill-opacity:1;stroke:none;stroke-width:1.60338986"
     x="67.038651"
     y="100"
     id="text849"><tspan
       sodipodi:role="line"
       id="tspan847"
       x="67.038651"
       y="100"
       style="font-style:normal;font-variant:normal;font-weight:bold;font-stretch:normal;font-family:Now;-inkscape-font-specification:'Now Bold';fill:#ffffff;stroke-width:1.60338986">M</tspan></text>
  <text
     xml:space="preserve"
     style="font-style:normal;font-variant:normal;font-weight:normal;font-stretch:normal;font-size:25.90354156px;line-height:1.25;font-family:Aleo;-inkscape-font-specification:Aleo;letter-spacing:0px;word-spacing:0px;fill:#ffffff;fill-opacity:1;stroke:none;stroke-width:0.64758855"
     x="70.314224"
     y="159.929"
     id="text853"><tspan
       sodipodi:role="line"
       id="tspan851"
       x="70.314224"
       y="159.929"
       style="font-style:normal;font-variant:normal;font-weight:bold;font-stretch:normal;font-family:Now;-inkscape-font-specification:'Now Bold';fill:#ffffff;stroke-width:0.64758855">MBX</tspan></text>
</svg>
