<?xml version="1.0" encoding="UTF-8" standalone="no"?>
<svg
   xmlns:dc="http://purl.org/dc/elements/1.1/"
   xmlns:cc="http://creativecommons.org/ns#"
   xmlns:rdf="http://www.w3.org/1999/02/22-rdf-syntax-ns#"
   xmlns:svg="http://www.w3.org/2000/svg"
   xmlns="http://www.w3.org/2000/svg"
   xmlns:sodipodi="http://sodipodi.sourceforge.net/DTD/sodipodi-0.dtd"
   xmlns:inkscape="http://www.inkscape.org/namespaces/inkscape"
   width="192"
   height="192"
   version="1.1"
   viewBox="0 0 192 192"
   id="svg6"
   sodipodi:docname="preferences-accessibility.svg"
   inkscape:version="0.92.4 (5da689c313, 2019-01-14)">
  <metadata
     id="metadata12">
    <rdf:RDF>
      <cc:Work
         rdf:about="">
        <dc:format>image/svg+xml</dc:format>
        <dc:type
           rdf:resource="http://purl.org/dc/dcmitype/StillImage" />
      </cc:Work>
    </rdf:RDF>
  </metadata>
  <defs
     id="defs10" />
  <sodipodi:namedview
     pagecolor="#ffffff"
     bordercolor="#666666"
     borderopacity="1"
     objecttolerance="10"
     gridtolerance="10"
     guidetolerance="10"
     inkscape:pageopacity="0"
     inkscape:pageshadow="2"
     inkscape:window-width="1920"
     inkscape:window-height="1017"
     id="namedview8"
     showgrid="false"
     inkscape:zoom="6.9532167"
     inkscape:cx="120.83339"
     inkscape:cy="100.59021"
     inkscape:window-x="-8"
     inkscape:window-y="-8"
     inkscape:window-maximized="1"
     inkscape:current-layer="svg6" />
  <circle
     cx="96"
     cy="96"
     r="88"
     style="fill:#728dbe"
     id="circle2" />
  <path
     d="m 96,56 c -5.5228,0 -10,4.4772 -10,10 0,5.5228 4.4772,10 10,10 5.5228,0 10,-4.4772 10,-10 0,-5.5228 -4.4772,-10 -10,-10 z M 63.961,71.969 c -3.9904,-0.008 -5.5303,5.1921 -2.1797,7.3594 0,0 5.559,2.4816 14.367,5.9844 2.0265,0.80592 5.2428,3.294 6.6484,6.6875 2.041,4.9274 1.040184,10.66949 1.2031,16 0.289365,9.46783 -2.860638,13.93004 -7.4766,22.0159 -2.6473,4.6358 4.3059,8.6046 6.9531,3.9687 l 7.595763,-15.095 c 2.076006,-4.19257 7.000086,-4.46851 9.167997,-0.0515 l 8.28304,15.14618 c 2.6454,4.6369 9.5986,0.66812 6.9531,-3.9687 -4.90326,-6.89234 -7.48009,-14.01687 -7.4766,-22.0159 0.002,-5.3333 -0.43942,-11.073 1.6016,-16 1.4065,-3.3956 4.5488,-5.8878 6.2656,-6.6875 8.5851,-3.999 14.352,-5.9844 14.352,-5.9844 4.5547,-2.9344 0.0228,-9.732 -4.4375,-6.6562 0,0 -10.848,7.3281 -29.781,7.3281 -18.933,0 -29.781,-7.3281 -29.781,-7.3281 -0.66455,-0.45656 -1.4516,-0.70164 -2.2578,-0.70312 z"
     style="color:#000000;font-variant-ligatures:normal;font-variant-position:normal;font-variant-caps:normal;font-variant-numeric:normal;font-variant-alternates:normal;font-feature-settings:normal;text-indent:0;text-decoration:none;text-decoration-line:none;text-decoration-style:solid;text-decoration-color:#000000;text-transform:none;text-orientation:mixed;dominant-baseline:auto;white-space:normal;shape-padding:0;isolation:auto;mix-blend-mode:normal;solid-color:#000000;fill:#ffffff;color-rendering:auto;image-rendering:auto;shape-rendering:auto"
     id="path4"
     inkscape:connector-curvature="0"
     sodipodi:nodetypes="sssssccccsccccccsccccsccc" />
</svg>
