<?xml version="1.0" encoding="UTF-8" standalone="no"?>
<svg
   xmlns:dc="http://purl.org/dc/elements/1.1/"
   xmlns:cc="http://creativecommons.org/ns#"
   xmlns:rdf="http://www.w3.org/1999/02/22-rdf-syntax-ns#"
   xmlns:svg="http://www.w3.org/2000/svg"
   xmlns="http://www.w3.org/2000/svg"
   xmlns:sodipodi="http://sodipodi.sourceforge.net/DTD/sodipodi-0.dtd"
   xmlns:inkscape="http://www.inkscape.org/namespaces/inkscape"
   width="192"
   height="192"
   version="1.1"
   viewBox="0 0 192 192"
   id="svg10"
   sodipodi:docname="adobe-indesign.svg"
   inkscape:version="0.92.4 (5da689c313, 2019-01-14)">
  <metadata
     id="metadata16">
    <rdf:RDF>
      <cc:Work
         rdf:about="">
        <dc:format>image/svg+xml</dc:format>
        <dc:type
           rdf:resource="http://purl.org/dc/dcmitype/StillImage" />
        <dc:title></dc:title>
      </cc:Work>
    </rdf:RDF>
  </metadata>
  <defs
     id="defs14" />
  <sodipodi:namedview
     pagecolor="#ffffff"
     bordercolor="#666666"
     borderopacity="1"
     objecttolerance="10"
     gridtolerance="10"
     guidetolerance="10"
     inkscape:pageopacity="0"
     inkscape:pageshadow="2"
     inkscape:window-width="1920"
     inkscape:window-height="1017"
     id="namedview12"
     showgrid="false"
     inkscape:zoom="1.2291667"
     inkscape:cx="-5.2881356"
     inkscape:cy="89.084746"
     inkscape:window-x="-8"
     inkscape:window-y="-8"
     inkscape:window-maximized="1"
     inkscape:current-layer="svg10" />
  <rect
     class="cls-1"
     x="19.5"
     y="19.5"
     width="153"
     height="153"
     rx="10"
     ry="10"
     style="fill:#ba6561"
     id="rect2" />
  <path
     d="m114.28 64.52v25.898c-2.4279-2.1851-5.5018-3.4805-9.2246-3.4805-8.9834 0-16.025 7.446-16.025 16.834s7.042 16.834 16.025 16.834c3.7228 0 6.7967-1.2953 9.2246-3.4805v2.9141l10.279-0.08203v-55.437h-10.279zm-43.57 6.8789v48.559h10.684v-48.559h-10.684zm36.369 24.686c4.2084 0 7.6875 3.3981 7.6875 7.6875s-3.4791 7.6895-7.6875 7.6895c-4.2894 0-7.6895-3.4001-7.6895-7.6895s3.4001-7.6875 7.6895-7.6875z"
     style="fill:#ff837d;stroke-width:1.6186"
     id="path6" />
  <style
     type="text/css"
     id="style8">.st0{fill:#FFFFFF;}</style>
</svg>
