<?xml version="1.0" encoding="UTF-8" standalone="no"?>
<svg
   xmlns:dc="http://purl.org/dc/elements/1.1/"
   xmlns:cc="http://creativecommons.org/ns#"
   xmlns:rdf="http://www.w3.org/1999/02/22-rdf-syntax-ns#"
   xmlns:svg="http://www.w3.org/2000/svg"
   xmlns="http://www.w3.org/2000/svg"
   xmlns:sodipodi="http://sodipodi.sourceforge.net/DTD/sodipodi-0.dtd"
   xmlns:inkscape="http://www.inkscape.org/namespaces/inkscape"
   width="192"
   height="192"
   version="1.1"
   viewBox="0 0 192 192"
   id="svg12"
   sodipodi:docname="adobe-premiere-rush.svg"
   inkscape:version="0.92.4 (5da689c313, 2019-01-14)">
  <metadata
     id="metadata18">
    <rdf:RDF>
      <cc:Work
         rdf:about="">
        <dc:format>image/svg+xml</dc:format>
        <dc:type
           rdf:resource="http://purl.org/dc/dcmitype/StillImage" />
        <dc:title></dc:title>
      </cc:Work>
    </rdf:RDF>
  </metadata>
  <defs
     id="defs16" />
  <sodipodi:namedview
     pagecolor="#ffffff"
     bordercolor="#666666"
     borderopacity="1"
     objecttolerance="10"
     gridtolerance="10"
     guidetolerance="10"
     inkscape:pageopacity="0"
     inkscape:pageshadow="2"
     inkscape:window-width="1920"
     inkscape:window-height="1017"
     id="namedview14"
     showgrid="false"
     inkscape:zoom="1.2291667"
     inkscape:cx="-5.2881356"
     inkscape:cy="89.084746"
     inkscape:window-x="-8"
     inkscape:window-y="-8"
     inkscape:window-maximized="1"
     inkscape:current-layer="svg12" />
  <rect
     class="cls-1"
     x="19.5"
     y="19.5"
     width="153"
     height="153"
     rx="10"
     ry="10"
     style="fill:#8c72bd"
     id="rect2" />
  <path
     d="m59.5 71.398v48.559h10.684v-18.775h4.2891l11.977 18.775h11.979l-13.596-19.988c5.7461-1.6996 9.793-7.0414 9.793-13.678 0-8.255-6.1524-14.893-14.488-14.893h-20.637zm10.684 9.4688h8.3359c3.3991 0 5.9082 2.4279 5.9082 5.7461 0 3.3991-2.5091 5.7461-5.9082 5.7461h-8.3359v-11.492zm31.836 6.7188v19.99c0 7.9313 5.4222 13.029 15.215 13.029s15.215-5.098 15.215-13.029v-19.99h-10.277v18.613c0 3.0754-2.1049 5.2617-4.9375 5.2617-2.7517 0-4.8555-2.1863-4.8555-5.2617v-18.613h-10.359z"
     style="fill:#bd9aff;stroke-width:1.6186"
     id="path6" />
  <style
     type="text/css"
     id="style8">.st0{fill:#FFFFFF;}</style>
  <style
     type="text/css"
     id="style10">.st0{fill:#FFFFFF;}</style>
</svg>
