<?xml version="1.0" encoding="UTF-8" standalone="no"?>
<svg
   xmlns:dc="http://purl.org/dc/elements/1.1/"
   xmlns:cc="http://creativecommons.org/ns#"
   xmlns:rdf="http://www.w3.org/1999/02/22-rdf-syntax-ns#"
   xmlns:svg="http://www.w3.org/2000/svg"
   xmlns="http://www.w3.org/2000/svg"
   xmlns:sodipodi="http://sodipodi.sourceforge.net/DTD/sodipodi-0.dtd"
   xmlns:inkscape="http://www.inkscape.org/namespaces/inkscape"
   width="192"
   height="192"
   version="1.1"
   viewBox="0 0 192 192"
   id="svg10"
   sodipodi:docname="adobe-premiere-pro.svg"
   inkscape:version="0.92.4 (5da689c313, 2019-01-14)">
  <metadata
     id="metadata16">
    <rdf:RDF>
      <cc:Work
         rdf:about="">
        <dc:format>image/svg+xml</dc:format>
        <dc:type
           rdf:resource="http://purl.org/dc/dcmitype/StillImage" />
        <dc:title></dc:title>
      </cc:Work>
    </rdf:RDF>
  </metadata>
  <defs
     id="defs14" />
  <sodipodi:namedview
     pagecolor="#ffffff"
     bordercolor="#666666"
     borderopacity="1"
     objecttolerance="10"
     gridtolerance="10"
     guidetolerance="10"
     inkscape:pageopacity="0"
     inkscape:pageshadow="2"
     inkscape:window-width="1920"
     inkscape:window-height="1017"
     id="namedview12"
     showgrid="false"
     inkscape:zoom="3.4766083"
     inkscape:cx="-5.2881356"
     inkscape:cy="89.084746"
     inkscape:window-x="-8"
     inkscape:window-y="-8"
     inkscape:window-maximized="1"
     inkscape:current-layer="svg10" />
  <rect
     class="cls-1"
     x="19.5"
     y="19.5"
     width="153"
     height="153"
     rx="10"
     ry="10"
     style="fill:#8c72bd"
     id="rect2" />
  <path
     d="m66.699 71.398v48.559h10.684v-19.666h9.9551c8.1741 0 14.486-6.0701 14.486-14.244 0-8.0931-6.3123-14.648-14.486-14.648h-20.639zm10.684 9.3887h8.2559c3.3991 0 5.9883 2.1855 5.9883 5.3418 0 3.2372-2.5892 5.3418-5.9883 5.3418h-8.2559v-10.684zm48.953 6.1504c-3.8038 0-6.9602 1.9433-9.0645 5.0996v-4.4512h-10.359v32.371h10.359v-15.457c0-5.3415 3.6416-8.416 8.7402-8.416 1.214 0 2.2677 0.1604 2.9961 0.32227v-9.1445c-0.72838-0.24279-1.7007-0.32422-2.6719-0.32422z"
     style="fill:#bd9aff;stroke-width:1.6186"
     id="path6" />
  <style
     type="text/css"
     id="style8">.st0{fill:#FFFFFF;}</style>
</svg>
