<?xml version="1.0" encoding="UTF-8" standalone="no"?>
<svg
   xmlns:dc="http://purl.org/dc/elements/1.1/"
   xmlns:cc="http://creativecommons.org/ns#"
   xmlns:rdf="http://www.w3.org/1999/02/22-rdf-syntax-ns#"
   xmlns:svg="http://www.w3.org/2000/svg"
   xmlns="http://www.w3.org/2000/svg"
   xmlns:sodipodi="http://sodipodi.sourceforge.net/DTD/sodipodi-0.dtd"
   xmlns:inkscape="http://www.inkscape.org/namespaces/inkscape"
   width="192"
   height="192"
   version="1.1"
   viewBox="0 0 192 192"
   id="svg12"
   sodipodi:docname="adobe-character-animator.svg"
   inkscape:version="0.92.4 (5da689c313, 2019-01-14)">
  <metadata
     id="metadata18">
    <rdf:RDF>
      <cc:Work
         rdf:about="">
        <dc:format>image/svg+xml</dc:format>
        <dc:type
           rdf:resource="http://purl.org/dc/dcmitype/StillImage" />
        <dc:title></dc:title>
      </cc:Work>
    </rdf:RDF>
  </metadata>
  <defs
     id="defs16" />
  <sodipodi:namedview
     pagecolor="#ffffff"
     bordercolor="#666666"
     borderopacity="1"
     objecttolerance="10"
     gridtolerance="10"
     guidetolerance="10"
     inkscape:pageopacity="0"
     inkscape:pageshadow="2"
     inkscape:window-width="1920"
     inkscape:window-height="1017"
     id="namedview14"
     showgrid="false"
     inkscape:zoom="1.2291667"
     inkscape:cx="-5.2881356"
     inkscape:cy="89.084746"
     inkscape:window-x="-8"
     inkscape:window-y="-8"
     inkscape:window-maximized="1"
     inkscape:current-layer="svg12" />
  <rect
     class="cls-1"
     x="19.5"
     y="19.5"
     width="153"
     height="153"
     rx="10"
     ry="10"
     style="fill:#8c72bd"
     id="rect2" />
  <path
     d="m106.5 64.52v55.437h10.359v-18.289c0-2.8326 2.3476-5.584 5.5039-5.584 2.9135 0 4.9356 2.2651 4.9356 5.0977v18.775h10.359v-20.475c0-7.122-5.1789-12.545-11.734-12.545-3.561 0-6.7984 1.6183-9.0644 4.2891v-26.707h-10.359zm-28.953 6.2324c-13.758 0-24.928 11.167-24.928 24.926 0 13.758 11.169 24.928 24.928 24.928 9.6308 0 17.966-5.4222 22.094-13.354l-9.2266-4.7754c-2.347 4.6131-7.1211 7.6895-12.867 7.6895-8.1741 0-14.406-6.3142-14.406-14.488s6.2322-14.486 14.406-14.486c5.7461 0 10.52 3.0764 12.867 7.6895l9.2266-4.7754c-4.1275-7.9313-12.463-13.354-22.094-13.354z"
     style="fill:#bd9aff;stroke-width:1.6186"
     id="path6" />
  <style
     type="text/css"
     id="style8">.st0{fill:#FFFFFF;}</style>
  <style
     type="text/css"
     id="style10">.st0{fill:#FFFFFF;}</style>
</svg>
