<?xml version="1.0" encoding="UTF-8" standalone="no"?>
<svg
   xmlns:dc="http://purl.org/dc/elements/1.1/"
   xmlns:cc="http://creativecommons.org/ns#"
   xmlns:rdf="http://www.w3.org/1999/02/22-rdf-syntax-ns#"
   xmlns:svg="http://www.w3.org/2000/svg"
   xmlns="http://www.w3.org/2000/svg"
   xmlns:sodipodi="http://sodipodi.sourceforge.net/DTD/sodipodi-0.dtd"
   xmlns:inkscape="http://www.inkscape.org/namespaces/inkscape"
   width="192"
   height="192"
   version="1.1"
   viewBox="0 0 192 192"
   id="svg10"
   sodipodi:docname="adobe-incopy.svg"
   inkscape:version="0.92.4 (5da689c313, 2019-01-14)">
  <metadata
     id="metadata16">
    <rdf:RDF>
      <cc:Work
         rdf:about="">
        <dc:format>image/svg+xml</dc:format>
        <dc:type
           rdf:resource="http://purl.org/dc/dcmitype/StillImage" />
        <dc:title></dc:title>
      </cc:Work>
    </rdf:RDF>
  </metadata>
  <defs
     id="defs14" />
  <sodipodi:namedview
     pagecolor="#ffffff"
     bordercolor="#666666"
     borderopacity="1"
     objecttolerance="10"
     gridtolerance="10"
     guidetolerance="10"
     inkscape:pageopacity="0"
     inkscape:pageshadow="2"
     inkscape:window-width="1920"
     inkscape:window-height="1017"
     id="namedview12"
     showgrid="false"
     inkscape:zoom="1.2291667"
     inkscape:cx="-5.2881356"
     inkscape:cy="89.084746"
     inkscape:window-x="-8"
     inkscape:window-y="-8"
     inkscape:window-maximized="1"
     inkscape:current-layer="svg10" />
  <rect
     class="cls-1"
     x="19.5"
     y="19.5"
     width="153"
     height="153"
     rx="10"
     ry="10"
     style="fill:#ba6561"
     id="rect2" />
  <path
     d="m71.705 71.398v48.559h10.684v-48.559h-10.684zm36.369 15.539c-10.845 0-18.049 7.1222-18.049 16.834s7.204 16.834 18.049 16.834c9.7118 0 16.347-5.6647 17.723-13.758h-10.682c-1.0521 2.7517-3.7228 4.5324-7.041 4.6133-4.4512-0.0809-7.6894-3.3192-7.6894-7.6895s3.2382-7.6066 7.6894-7.6875c3.3182 0.08093 5.9889 1.8597 7.041 4.6113h10.682c-1.3758-8.0931-8.0109-13.758-17.723-13.758z"
     style="fill:#ff837d;stroke-width:1.6186"
     id="path6" />
  <style
     type="text/css"
     id="style8">.st0{fill:#FFFFFF;}</style>
</svg>
