<?xml version="1.0" encoding="UTF-8" standalone="no"?>
<svg
   xmlns:dc="http://purl.org/dc/elements/1.1/"
   xmlns:cc="http://creativecommons.org/ns#"
   xmlns:rdf="http://www.w3.org/1999/02/22-rdf-syntax-ns#"
   xmlns:svg="http://www.w3.org/2000/svg"
   xmlns="http://www.w3.org/2000/svg"
   xmlns:sodipodi="http://sodipodi.sourceforge.net/DTD/sodipodi-0.dtd"
   xmlns:inkscape="http://www.inkscape.org/namespaces/inkscape"
   width="192"
   height="192"
   version="1.1"
   viewBox="0 0 192 192"
   id="svg10"
   sodipodi:docname="adobe-animate.svg"
   inkscape:version="0.92.4 (5da689c313, 2019-01-14)">
  <metadata
     id="metadata16">
    <rdf:RDF>
      <cc:Work
         rdf:about="">
        <dc:format>image/svg+xml</dc:format>
        <dc:type
           rdf:resource="http://purl.org/dc/dcmitype/StillImage" />
        <dc:title></dc:title>
      </cc:Work>
    </rdf:RDF>
  </metadata>
  <defs
     id="defs14" />
  <sodipodi:namedview
     pagecolor="#ffffff"
     bordercolor="#666666"
     borderopacity="1"
     objecttolerance="10"
     gridtolerance="10"
     guidetolerance="10"
     inkscape:pageopacity="0"
     inkscape:pageshadow="2"
     inkscape:window-width="1920"
     inkscape:window-height="1017"
     id="namedview12"
     showgrid="false"
     inkscape:zoom="1.2291667"
     inkscape:cx="-5.2881356"
     inkscape:cy="89.084746"
     inkscape:window-x="-8"
     inkscape:window-y="-8"
     inkscape:window-maximized="1"
     inkscape:current-layer="svg10" />
  <rect
     class="cls-1"
     x="19.5"
     y="19.5"
     width="153"
     height="153"
     rx="10"
     ry="10"
     style="fill:#8c72bd"
     id="rect2" />
  <path
     d="m71.555 71.398-17.482 48.559h11.412l2.9941-9.1445h18.129l2.9941 9.1445h11.412l-17.482-48.559h-11.977zm5.9883 11.25 6.2324 19.262h-12.465l6.2324-19.262zm46.834 4.2891c-3.7228 0-6.9605 1.7807-9.2266 4.6133v-3.9648h-10.359v32.371h10.359v-18.775c0-2.9135 2.4274-5.0977 5.4219-5.0977s5.0996 2.1841 5.0996 5.0977v18.775h10.277v-20.475c0-7.122-5.1787-12.545-11.572-12.545z"
     style="fill:#bd9aff;stroke-width:1.6186"
     id="path6" />
  <style
     type="text/css"
     id="style8">.st0{fill:#FFFFFF;}</style>
</svg>
