<svg width="192" height="192" viewBox="0 0 192 192" fill="none" xmlns="http://www.w3.org/2000/svg">
<rect x="20" y="20" width="152" height="152" rx="10" fill="#FF837D"/>
<path d="M67.25 98.12C69.95 98.12 72.38 95.96 72.38 93.08C72.38 90.38 69.95 88.04 67.25 88.04C64.55 88.04 62.21 90.38 62.21 93.08C62.21 95.96 64.55 98.12 67.25 98.12ZM89.8203 98.12C92.5203 98.12 94.9503 95.96 94.9503 93.08C94.9503 90.38 92.5203 88.04 89.8203 88.04C87.1203 88.04 84.7803 90.38 84.7803 93.08C84.7803 95.96 87.1203 98.12 89.8203 98.12ZM112.391 98.12C115.091 98.12 117.521 95.96 117.521 93.08C117.521 90.38 115.091 88.04 112.391 88.04C109.691 88.04 107.351 90.38 107.351 93.08C107.351 95.96 109.691 98.12 112.391 98.12ZM131.631 129.8H139.731V65H131.631V129.8Z" fill="white"/>
</svg>
