<?xml version="1.0" encoding="UTF-8" standalone="no"?>
<svg
   xmlns:dc="http://purl.org/dc/elements/1.1/"
   xmlns:cc="http://creativecommons.org/ns#"
   xmlns:rdf="http://www.w3.org/1999/02/22-rdf-syntax-ns#"
   xmlns:svg="http://www.w3.org/2000/svg"
   xmlns="http://www.w3.org/2000/svg"
   xmlns:sodipodi="http://sodipodi.sourceforge.net/DTD/sodipodi-0.dtd"
   xmlns:inkscape="http://www.inkscape.org/namespaces/inkscape"
   width="192"
   height="192"
   version="1.1"
   viewBox="0 0 192 192"
   id="svg6"
   sodipodi:docname="application-pdf.svg"
   inkscape:version="0.92.4 (5da689c313, 2019-01-14)">
  <metadata
     id="metadata12">
    <rdf:RDF>
      <cc:Work
         rdf:about="">
        <dc:format>image/svg+xml</dc:format>
        <dc:type
           rdf:resource="http://purl.org/dc/dcmitype/StillImage" />
        <dc:title></dc:title>
      </cc:Work>
    </rdf:RDF>
  </metadata>
  <defs
     id="defs10" />
  <sodipodi:namedview
     pagecolor="#ffffff"
     bordercolor="#666666"
     borderopacity="1"
     objecttolerance="10"
     gridtolerance="10"
     guidetolerance="10"
     inkscape:pageopacity="0"
     inkscape:pageshadow="2"
     inkscape:window-width="1920"
     inkscape:window-height="1017"
     id="namedview8"
     showgrid="true"
     inkscape:zoom="6.9532167"
     inkscape:cx="72.194715"
     inkscape:cy="116.68589"
     inkscape:window-x="-8"
     inkscape:window-y="-8"
     inkscape:window-maximized="1"
     inkscape:current-layer="svg6">
    <inkscape:grid
       type="xygrid"
       id="grid820" />
  </sodipodi:namedview>
  <path
     d="m33 18.996c0-5.5205 4.4729-9.9958 10.001-9.9958h80.821l35.178 35v129c0 5.5209-4.4844 9.9965-9.9923 9.9965h-106.02c-5.5186 0-9.9923-4.476-9.9923-9.9958z"
     style="fill-rule:evenodd;fill:#ff837d"
     id="path2" />
  <path
     d="m120 13.998c0-5.5218 3.1644-6.8337 7.0694-2.9287l29.861 29.861c3.9043 3.9043 2.5878 7.0694-2.9287 7.0694h-24.004c-5.5218 0-9.998-4.4815-9.998-9.998z"
     style="fill-rule:evenodd;fill:#ba6561"
     id="path4" />
  <path
     inkscape:connector-curvature="0"
     d="m 96.492,76.9985 c -3.78,0.04603 -6.899,3.0816 -7.0723,6.8594 -0.03873,0.84454 0.07144,1.6713 0.30664,2.4414 0.25939,0.85006 0.69462,1.6055 1.2422,2.2422 l 0.8418,0.97852 c 0.0019,0.002 0.0039,0.0039 0.0059,0.0059 l 1.955,2.2617 -12.691,22.1 -3.7207,0.48242 c -0.0039,6.4e-4 -0.0078,10e-4 -0.01172,0.002 l -1.1484,0.1543 c -0.0039,6.4e-4 -0.0078,10e-4 -0.01172,0.002 -0.16656,0.0232 -0.34547,0.0582 -0.53711,0.11329 -0.0078,0.002 -0.01564,0.004 -0.02344,0.006 -1.1088,0.33012 -2.1624,0.94102 -3.0312,1.8144 -2.7967,2.812 -2.7733,7.4431 0.0625,10.227 v 0.002 c 2.6977,2.6467 7.0537,2.7251 9.8418,0.16993 0.62333,-0.57109 1.1284,-1.2349 1.5039,-1.9473 0.4147,-0.78583 0.63877,-1.6309 0.69922,-2.4688 l 0.0918,-1.291 c 6.55e-4,-0.003 0.0013,-0.005 0.002,-0.008 l 0.16797,-2.4355 h 23.848 l 0.35742,2.7949 c 6.5e-4,0.003 0.001,0.007 0.002,0.01 l 0.15234,1.1562 c 6.4e-4,0.005 0.001,0.009 0.002,0.0137 0.0228,0.16469 0.0579,0.34309 0.11328,0.53711 0.002,0.007 0.004,0.0143 0.006,0.0215 0.32643,1.1059 0.92837,2.1621 1.7988,3.0371 2.7967,2.8119 7.4428,2.7893 10.211,-0.0625 2.6325,-2.7123 2.7092,-7.0556 0.16992,-9.8574 -0.56808,-0.62732 -1.2284,-1.1352 -1.9394,-1.5137 -0.78476,-0.41911 -1.6288,-0.64507 -2.4668,-0.70703 h -0.004 l -1.2832,-0.0937 h -0.006 l -3.4102,-0.23828 -12.695,-22.109 2.0371,-2.6543 c 0.003,-0.0032 0.005,-0.0065 0.008,-0.0098 l 0.69532,-0.91602 0.008,-0.0098 c 0.11154,-0.14626 0.21419,-0.30334 0.30469,-0.4668 0.005,-0.0078 0.009,-0.0156 0.0137,-0.02344 0.54901,-1.0171 0.86328,-2.1918 0.86328,-3.4238 0,-3.9656 -3.2821,-7.2435 -7.2559,-7.1953 z m 0.0625,5 c 1.2367,-0.015 2.1953,0.9365 2.1953,2.1953 0,0.37432 -0.09654,0.70584 -0.25391,1.0098 l -0.60742,0.79883 -1.1797,1.5371 -1.1094,-1.2812 -0.83984,-0.97656 c -0.12667,-0.14729 -0.20908,-0.30076 -0.25195,-0.44141 v -0.002 c -0.0712,-0.2331 -0.10615,-0.4807 -0.09375,-0.75195 0.053,-1.1548 1.0102,-2.0741 2.1406,-2.0879 z m 0.26758,14.516 9.8711,17.195 h -19.744 z m 17.057,22.4 1.6953,0.11914 1.2773,0.0918 c 0.19001,0.014 0.35328,0.064 0.47852,0.13086 l 0.004,0.002 c 0.20956,0.11137 0.40506,0.2614 0.58399,0.45899 h 0.002 c 0.76868,0.84814 0.74477,2.1959 -0.0527,3.0176 -0.87186,0.8982 -2.2008,0.90167 -3.0781,0.0195 -0.25923,-0.2606 -0.42404,-0.56396 -0.52734,-0.89258 l -0.13281,-0.99805 z m -33.951,0.16602 -0.11914,1.7148 -0.09375,1.2891 c -0.01416,0.19617 -0.06412,0.36396 -0.13281,0.49414 v 0.002 c -0.11312,0.21476 -0.26221,0.41151 -0.45898,0.5918 l -0.002,0.002 c -0.84109,0.77082 -2.1442,0.74661 -2.9609,-0.0547 -0.89299,-0.87651 -0.89667,-2.2508 -0.01953,-3.1328 0.26134,-0.26271 0.55954,-0.42579 0.88086,-0.52734 l 0.98633,-0.13086 z"
     style="color:#000000;font-variant-ligatures:normal;font-variant-position:normal;font-variant-caps:normal;font-variant-numeric:normal;font-variant-alternates:normal;font-feature-settings:normal;text-indent:0;text-decoration:none;text-decoration-line:none;text-decoration-style:solid;text-decoration-color:#000000;text-transform:none;text-orientation:mixed;dominant-baseline:auto;white-space:normal;shape-padding:0;clip-rule:evenodd;isolation:auto;mix-blend-mode:normal;solid-color:#000000;fill:#ffffff;fill-rule:evenodd;color-rendering:auto;image-rendering:auto;shape-rendering:auto"
     id="path6" />
</svg>
