<?xml version="1.0" encoding="UTF-8" standalone="no"?>
<svg
   xmlns:dc="http://purl.org/dc/elements/1.1/"
   xmlns:cc="http://creativecommons.org/ns#"
   xmlns:rdf="http://www.w3.org/1999/02/22-rdf-syntax-ns#"
   xmlns:svg="http://www.w3.org/2000/svg"
   xmlns="http://www.w3.org/2000/svg"
   xmlns:sodipodi="http://sodipodi.sourceforge.net/DTD/sodipodi-0.dtd"
   xmlns:inkscape="http://www.inkscape.org/namespaces/inkscape"
   viewBox="0 0 192 192"
   version="1.1"
   id="svg16"
   sodipodi:docname="altstore.svg"
   inkscape:version="0.92.4 (5da689c313, 2019-01-14)">
  <metadata
     id="metadata20">
    <rdf:RDF>
      <cc:Work
         rdf:about="">
        <dc:format>image/svg+xml</dc:format>
        <dc:type
           rdf:resource="http://purl.org/dc/dcmitype/StillImage" />
        <dc:title></dc:title>
      </cc:Work>
    </rdf:RDF>
  </metadata>
  <sodipodi:namedview
     pagecolor="#ffffff"
     bordercolor="#666666"
     borderopacity="1"
     objecttolerance="10"
     gridtolerance="10"
     guidetolerance="10"
     inkscape:pageopacity="0"
     inkscape:pageshadow="2"
     inkscape:window-width="1920"
     inkscape:window-height="1017"
     id="namedview18"
     showgrid="true"
     inkscape:zoom="4.1676432"
     inkscape:cx="51.928696"
     inkscape:cy="110.21625"
     inkscape:window-x="-8"
     inkscape:window-y="-8"
     inkscape:window-maximized="1"
     inkscape:current-layer="svg16"
     inkscape:snap-global="false">
    <inkscape:grid
       type="xygrid"
       id="grid827"
       spacingx="4"
       spacingy="4" />
  </sodipodi:namedview>
  <defs
     id="defs4">
    <style
       id="style2">.a{fill:none;stroke:#b1b5bd;stroke-linecap:round;stroke-linejoin:round;isolation:isolate;opacity:0.63;}</style>
  </defs>
  <circle
     class="a"
     cx="96"
     cy="96"
     r="88"
     id="circle8"
     style="fill:#73ada4;stroke:none;opacity:1" />
  <path
     style="fill:#96dfd3;stroke-width:0.0623291"
     d="m 97.714486,139.4993 c 1.635332,-0.19646 3.090244,-0.58346 4.487694,-1.1937 0.43634,-0.19053 1.47702,-0.72746 1.58939,-0.82001 0.0514,-0.0424 0.205,-0.14072 0.3413,-0.21857 0.72594,-0.41472 2.3432,-1.83341 3.0604,-2.68466 0.99677,-1.18307 1.76859,-2.24069 3.27945,-4.49388 1.1289,-1.68354 1.78218,-2.63984 1.93311,-2.82979 0.0273,-0.0343 0.47724,-0.6375 1.00002,-1.34049 2.59365,-3.48774 5.12308,-6.28087 8.18068,-9.0336 1.46645,-1.32022 4.25569,-3.47581 6.66921,-5.15413 0.51423,-0.35757 1.18738,-0.8262 1.49591,-1.04138 0.43906,-0.30622 2.11729,-1.44844 3.16939,-2.15711 0.0738,-0.0496 0.38648,-0.27223 0.695,-0.4946 2.0656,-1.48875 3.4105,-3.04677 4.39126,-5.08704 0.45089,-0.93804 0.52987,-1.12664 0.77221,-1.8442 1.61759,-4.789756 0.84095,-10.155436 -2.03154,-14.035466 -0.41769,-0.564191 -1.31317,-1.608246 -1.58929,-1.852968 -0.98387,-0.871987 -1.53823,-1.281476 -3.72415,-2.750872 -1.82649,-1.227787 -2.19966,-1.48231 -3.55276,-2.423166 -1.10372,-0.767453 -2.76664,-1.996382 -3.73974,-2.763726 -2.39594,-1.889335 -4.6949,-4.035013 -6.85659,-6.399438 -1.04231,-1.140057 -2.91138,-3.439426 -3.86654,-4.756688 -1.23118,-1.697941 -2.40049,-3.375448 -3.59132,-5.15213 -2.46651,-3.679969 -3.49594,-4.849014 -5.35039,-6.075937 -1.88461,-1.24689 -3.82699,-1.991595 -6.201742,-2.377738 -0.964277,-0.156796 -3.510187,-0.158024 -4.487695,-0.0021 -0.972799,0.155107 -2.620632,0.569118 -3.116455,0.782995 -0.06856,0.02958 -0.250875,0.101905 -0.40514,0.160728 -0.598213,0.228112 -1.989615,0.942726 -2.524328,1.296477 -1.246087,0.824375 -2.300189,1.79034 -3.292722,3.017402 -0.441328,0.545611 -0.770192,1.012894 -3.150107,4.475986 -3.436602,5.000712 -5.320569,7.375643 -8.10881,10.221972 -2.026331,2.068548 -3.538655,3.396445 -6.110458,5.365293 -0.762558,0.583776 -2.67729,1.94372 -4.425367,3.143128 -4.209927,2.888558 -5.18558,3.619136 -6.201745,4.643929 -4.114992,4.149927 -5.248772,10.985813 -2.754853,16.609789 0.721592,1.62725 1.557979,2.86334 2.762755,4.08306 1.320921,1.33731 2.071878,1.91093 5.401007,4.12558 2.437133,1.62126 2.843596,1.90373 4.407925,3.06324 0.839541,0.62227 1.313052,0.98856 2.458475,1.90175 4.011576,3.19828 7.120765,6.61342 10.960001,12.0385 0.509461,0.7199 0.967169,1.365 1.017129,1.43356 0.189804,0.26049 0.9525,1.36257 1.551809,2.24235 2.211714,3.24676 3.154523,4.3522 4.830506,5.66375 0.403708,0.31591 1.616925,1.03582 2.243847,1.33146 0.646857,0.30502 1.777452,0.73704 2.212683,0.84546 0.06856,0.0171 0.33502,0.0881 0.592127,0.15762 1.62777,0.44067 3.824797,0.5901 5.578454,0.37943 z"
     id="path866"
     inkscape:connector-curvature="0" />
  <path
     style="fill:#ffffff;stroke-width:0.0623291"
     d="m 97.434005,119.87438 c 0.119983,-0.0306 0.414488,-0.10221 0.654456,-0.1593 1.697361,-0.40342 3.085039,-1.30211 4.328189,-2.80302 0.51981,-0.62762 0.68452,-0.85635 1.63316,-2.26821 1.73251,-2.57848 2.8511,-3.97997 4.59955,-5.76283 1.7406,-1.77486 3.31826,-3.02757 6.76098,-5.36842 2.02285,-1.37543 2.63809,-1.93058 3.29872,-2.9766 0.52026,-0.823777 0.93672,-1.889162 1.14207,-2.921645 0.1459,-0.733551 0.14619,-2.51972 6.2e-4,-3.203106 -0.25907,-1.215557 -0.62991,-2.112995 -1.27269,-3.079981 -0.66242,-0.99641 -1.39891,-1.663899 -3.00729,-2.725485 -5.8053,-3.831697 -8.18673,-6.211816 -12.15206,-12.145316 -1.30938,-1.95931 -2.1203,-2.768778 -3.539088,-3.532753 -0.514588,-0.277092 -1.481645,-0.608121 -2.259629,-0.773481 -0.626834,-0.133234 -2.532522,-0.161023 -2.991797,-0.04362 -0.154265,0.03943 -0.490842,0.119035 -0.747949,0.176896 -1.210168,0.272339 -2.475005,0.947509 -3.451809,1.842572 -0.454381,0.416356 -1.211645,1.391311 -2.148943,2.766696 -2.122432,3.114438 -3.280618,4.58718 -4.932866,6.272598 -1.578306,1.609989 -2.893545,2.645349 -6.640123,5.227121 -0.572096,0.394231 -1.07222,0.744832 -1.111388,0.779114 -0.03917,0.03428 -0.288506,0.226586 -0.554084,0.427345 -0.860023,0.650122 -1.706239,1.669787 -2.179957,2.62678 -0.926998,1.872707 -1.102142,4.345874 -0.450228,6.35757 0.405187,1.250339 0.993792,2.228155 1.883473,3.128915 0.67505,0.68345 1.238878,1.11414 2.910007,2.22286 3.128621,2.07571 5.284626,3.8642 7.07312,5.86746 1.153951,1.29251 2.079273,2.51614 3.974881,5.2563 1.496912,2.16383 2.082323,2.84709 2.950567,3.44377 1.140726,0.78392 2.658741,1.34634 3.923932,1.45383 0.434217,0.0369 2.062226,-0.0238 2.306176,-0.086 z"
     id="path868"
     inkscape:connector-curvature="0" />
</svg>
