<?xml version="1.0" encoding="UTF-8" standalone="no"?>
<svg
   xmlns:dc="http://purl.org/dc/elements/1.1/"
   xmlns:cc="http://creativecommons.org/ns#"
   xmlns:rdf="http://www.w3.org/1999/02/22-rdf-syntax-ns#"
   xmlns:svg="http://www.w3.org/2000/svg"
   xmlns="http://www.w3.org/2000/svg"
   xmlns:sodipodi="http://sodipodi.sourceforge.net/DTD/sodipodi-0.dtd"
   xmlns:inkscape="http://www.inkscape.org/namespaces/inkscape"
   viewBox="0 0 192 192"
   version="1.1"
   id="svg16"
   sodipodi:docname="amarok.svg"
   inkscape:version="0.92.4 (5da689c313, 2019-01-14)">
  <metadata
     id="metadata20">
    <rdf:RDF>
      <cc:Work
         rdf:about="">
        <dc:format>image/svg+xml</dc:format>
        <dc:type
           rdf:resource="http://purl.org/dc/dcmitype/StillImage" />
        <dc:title></dc:title>
      </cc:Work>
    </rdf:RDF>
  </metadata>
  <sodipodi:namedview
     pagecolor="#ffffff"
     bordercolor="#666666"
     borderopacity="1"
     objecttolerance="10"
     gridtolerance="10"
     guidetolerance="10"
     inkscape:pageopacity="0"
     inkscape:pageshadow="2"
     inkscape:window-width="1920"
     inkscape:window-height="1017"
     id="namedview18"
     showgrid="true"
     inkscape:zoom="3.4766083"
     inkscape:cx="7.7873638"
     inkscape:cy="91.230048"
     inkscape:window-x="-8"
     inkscape:window-y="-8"
     inkscape:window-maximized="1"
     inkscape:current-layer="svg16">
    <inkscape:grid
       type="xygrid"
       id="grid827"
       spacingx="4"
       spacingy="4" />
  </sodipodi:namedview>
  <defs
     id="defs4">
    <style
       id="style2">.a{fill:none;stroke:#b1b5bd;stroke-linecap:round;stroke-linejoin:round;isolation:isolate;opacity:0.63;}</style>
  </defs>
  <circle
     class="a"
     cx="96"
     cy="96"
     r="88"
     id="circle8"
     style="fill:#728dbe;stroke:none;opacity:1" />
  <rect
     style="opacity:1;vector-effect:none;fill:#ffffff;fill-opacity:1;fill-rule:evenodd;stroke:none;stroke-opacity:1;paint-order:stroke fill markers"
     id="rect818"
     width="152"
     height="152"
     x="20"
     y="20"
     ry="76" />
  <path
     inkscape:connector-curvature="0"
     d="m 111.3,164.46 c 1.2982,-5.7283 -0.71983,-11.72701 -0.38242,-17.59101 0.62441,-10.852 0.70681,-23.352 5.6088,-33.015 2.338,-4.6087 6.1698,-6.9982 10.325,-10.07 3.79061,-2.8024 7.13451,-4.164995 11.60001,-6.373595 2.0922,-1.0348 3.5656,-1.253 3.6967,-3.5692 0.0714,-1.2613 -0.75134,-2.4194 -1.2747,-3.5692 -0.62723,-1.378 -0.23841,-2.0361 -3.4791,-1.3339 -1.7167,0.37198 -3.551,1.6017 -5.2728,1.9494 -4.43511,0.89577 -9.85911,-0.1056 -9.85911,-0.1056 0,0 2.4048,-7.4835 3.9516,-11.09 1.7078,-3.9818 5.86371,-11.6 5.86371,-11.6 0,0 1.7217,-2.8099 0,-5.6088 -1.1801,-1.9185 -2.60571,-3.6753 -3.95161,-5.4813 -1.711,-2.2958 -4.0791,-0.12747 -4.0791,-0.12747 0,0 -14.177,10.176 -27.615,21.534 -0.86227,0.7288 -2.8858,1.8545 -3.998,2.0486 -2.7626,0.48213 -5.6089,-0.02708 -8.4132,0 -2.9639,0.02862 -4.0822,1.1848 -5.8637,2.2945 -5.7692,3.5936 -9.2567,7.5962 -14.231,12.054 -1.1214,1.0052 -6.2875,1.653 -8.7145,2.7324 -3.2215,1.4327 -5.108,4.911695 -8.0308,6.883495 -5.3566,3.6137 -17.643,7.0973 -17.209,8.9231 0.64402,2.7097 4.1463,6.1444 6.6286,8.7318 5.3526,5.5794 9.8791,8.0308 9.8791,8.0308 0,0 -1.3825,3.4512 -2.8681,5.0352 -1.6528,1.7622 -11.926,11.201 -11.926,11.201 l 12.185,11.81901 20.268,12.747 21.67,5.6088 22.049,-0.47013 c 0,0 2.9163,-9.2693 3.4418,-11.588 z"
     style="fill:#728dbe;stroke-width:0.85911"
     id="path6" />
  <path
     inkscape:connector-curvature="0"
     d="m 75.478,104.93001 c -0.33223,-1.7292 1.2041,-7.084305 3.5692,-10.708005 1.8593,-2.8485 4.7498,-5.4756 8.0308,-6.3736 1.9612,-0.5368 4.7696,-1.0873 5.6088,0.76483 0.93533,2.0644 -1.8633,4.2374 -3.4418,5.8637 -1.5025,1.5482 -3.7944,2.0969 -5.4813,3.4418 -3.1951,2.547205 -7.607,10.544005 -8.2857,7.011005 z"
     style="fill:#ffffff;stroke-width:0.85911"
     id="path8" />
</svg>
