<?xml version="1.0" encoding="UTF-8" standalone="no"?>
<svg
   xmlns:dc="http://purl.org/dc/elements/1.1/"
   xmlns:cc="http://creativecommons.org/ns#"
   xmlns:rdf="http://www.w3.org/1999/02/22-rdf-syntax-ns#"
   xmlns:svg="http://www.w3.org/2000/svg"
   xmlns="http://www.w3.org/2000/svg"
   xmlns:sodipodi="http://sodipodi.sourceforge.net/DTD/sodipodi-0.dtd"
   xmlns:inkscape="http://www.inkscape.org/namespaces/inkscape"
   viewBox="0 0 192 192"
   version="1.1"
   id="svg16"
   sodipodi:docname="amiga_forever.svg"
   inkscape:version="0.92.4 (5da689c313, 2019-01-14)">
  <metadata
     id="metadata20">
    <rdf:RDF>
      <cc:Work
         rdf:about="">
        <dc:format>image/svg+xml</dc:format>
        <dc:type
           rdf:resource="http://purl.org/dc/dcmitype/StillImage" />
        <dc:title></dc:title>
      </cc:Work>
    </rdf:RDF>
  </metadata>
  <sodipodi:namedview
     pagecolor="#ffffff"
     bordercolor="#666666"
     borderopacity="1"
     objecttolerance="10"
     gridtolerance="10"
     guidetolerance="10"
     inkscape:pageopacity="0"
     inkscape:pageshadow="2"
     inkscape:window-width="1920"
     inkscape:window-height="1017"
     id="namedview18"
     showgrid="true"
     inkscape:zoom="3.5327288"
     inkscape:cx="104.72389"
     inkscape:cy="70.31366"
     inkscape:window-x="-8"
     inkscape:window-y="-8"
     inkscape:window-maximized="1"
     inkscape:current-layer="svg16"
     inkscape:snap-global="true">
    <inkscape:grid
       type="xygrid"
       id="grid827"
       spacingx="4"
       spacingy="4" />
  </sodipodi:namedview>
  <defs
     id="defs4">
    <style
       id="style2">.a{fill:none;stroke:#b1b5bd;stroke-linecap:round;stroke-linejoin:round;isolation:isolate;opacity:0.63;}</style>
  </defs>
  <path
     style="fill:#f9de81;stroke:none;stroke-width:1px;stroke-linecap:butt;stroke-linejoin:miter;stroke-opacity:1"
     d="m 76.302117,118.81715 c 0,0 -16.156415,15.02181 -25.673983,20.39522 -7.581059,4.2801 -20.999491,11.10921 -24.474264,9.11787 -2.502023,-1.43387 -2.044435,-5.02479 -3.557988,-7.47943 -1.514136,-2.45558 -5.712104,-4.05911 -5.319931,-6.9172 0.609768,-4.4439 12.20602,-13.25679 23.754433,-19.43545 8.931571,-4.77859 28.313364,-11.03741 28.313364,-11.03741 0,0 -19.970838,3.11712 -29.922693,2.80905 -8.004681,-0.2478 -18.264587,-0.68809 -23.075769,-3.59915 -1.759334,-1.06451 0.967062,-3.263948 0.930665,-5.319939 -0.02645,-1.493939 -2.105384,-4.516731 -0.690721,-4.99765 12.501581,-4.249955 27.084535,-3.048992 27.084535,-3.048992 0,0 -21.300944,-6.905349 -23.274545,-11.997188 -0.943753,-2.434858 2.550801,-4.499282 3.42949,-6.958369 0.907879,-2.540776 -0.646442,-6.892866 1.849273,-7.918144 1.87666,-0.770961 13.857844,-0.507175 20.155276,1.91955 17.089259,6.58537 35.511677,18.955557 35.511677,18.955557 0,0 -12.22388,-17.226068 -16.316176,-26.873701 -7.485718,-17.647663 -7.862899,-23.874784 -6.238538,-26.15387 1.486192,-2.085224 4.774637,-0.921543 7.078341,-2.039522 1.899683,-0.921909 3.309662,-4.026511 5.398735,-3.719129 3.175274,0.467203 7.020917,4.683194 12.956963,18.715614 3.124925,7.387116 6.958369,23.034601 6.958369,23.034601 0,0 0.0082,-20.000264 1.91955,-29.753027 2.207413,-11.263357 8.26469,-27.6434533 12.47708,-28.0734198 2.56598,-0.2619146 4.26947,2.7679228 6.83839,2.9992968 2.03273,0.183081 5.10044,-0.633275 7.55823,0.119972 3.05967,0.937708 1.77207,15.584308 0.71983,23.274545 -1.45405,10.626825 -9.59775,30.712802 -9.59775,30.712802 0,0 8.13566,-11.317337 12.95697,-16.316176 4.52885,-4.695611 11.31281,-12.660361 14.87651,-12.71702 1.68699,-0.02682 1.85108,2.48634 3.11927,3.599157 1.18418,1.039106 3.79192,1.064639 3.8391,2.639381 0.0894,2.984705 -6.22052,12.148974 -10.07764,17.755839 -1.99662,2.902363 -6.71843,8.158088 -6.71843,8.158088 0,0 10.86484,-5.243128 16.55612,-7.198313 5.4672,-1.878205 14.54375,-5.410226 16.79607,-4.318988 2.07742,1.0065 0.68752,4.634086 1.6796,6.718425 1.20308,2.527634 3.72754,4.779944 4.02082,6.718426 0.45964,3.038002 -12.27004,9.216787 -19.61716,12.477076 -5.34279,2.370864 -16.79606,5.038819 -16.79606,5.038819 0,0 17.88364,-2.649268 26.8737,-2.399438 8.32176,0.231258 23.57079,0.922884 24.71421,3.599156 0.89433,2.093263 -1.25126,4.204823 -1.1415,6.478482 0.11394,2.360423 2.61174,4.237619 1.86133,6.478479 -1.18733,3.54557 -18.09855,6.68014 -27.59354,7.6782 -10.28076,1.08065 -30.95274,-1.91955 -30.95274,-1.91955 0,0 7.9221,15.65689 11.27736,23.75444 3.28281,7.92272 8.91569,20.72585 8.63797,24.23432 -0.15002,1.89521 -3.57894,1.43154 -5.17938,2.45766 -1.9139,1.22708 -2.38486,4.24688 -4.65831,4.26076 -2.59208,0.0158 -12.95697,-12.47707 -12.95697,-12.47707 0,0 2.35299,7.48118 3.25983,13.90467 0.70755,5.01192 1.25724,11.84313 -1.10033,13.9288 -2.11029,1.86691 -5.27105,0.42723 -7.88903,1.46878 -2.22948,0.88698 -3.87182,3.94136 -6.26766,3.80998 -5.17133,-0.28359 -10.15589,-11.63809 -12.278295,-18.82206 -2.915481,-9.86841 -4.757707,-31.32618 -4.757707,-31.32618 0,0 -1.91963,13.50188 -4.037876,18.97261 -2.825919,7.29842 -7.691295,17.73236 -11.529358,18.35923 -2.997937,0.48965 -3.142019,-2.50366 -6.92926,-3.44155 -1.9409,-0.48066 -4.64277,0.59171 -5.828928,-1.018 -2.218281,-3.01038 -1.44052,-17.21414 0.731889,-25.43404 2.056871,-7.78273 10.317582,-21.83488 10.317582,-21.83488 z"
     id="path829"
     inkscape:connector-curvature="0"
     sodipodi:nodetypes="cssssscsssscsssscssssscssssscssssscssssscssssscsssscssssscsssssc" />
  <rect
     style="opacity:1;vector-effect:none;fill:#c39a54;fill-opacity:1;fill-rule:evenodd;stroke:none;stroke-width:10.66666603;stroke-linecap:round;stroke-linejoin:round;stroke-miterlimit:4;stroke-dasharray:none;paint-order:stroke fill markers"
     id="rect831"
     width="32"
     height="32"
     x="84"
     y="84"
     ry="16" />
</svg>
