<?xml version="1.0" encoding="UTF-8" standalone="no"?>
<svg
   xmlns:dc="http://purl.org/dc/elements/1.1/"
   xmlns:cc="http://creativecommons.org/ns#"
   xmlns:rdf="http://www.w3.org/1999/02/22-rdf-syntax-ns#"
   xmlns:svg="http://www.w3.org/2000/svg"
   xmlns="http://www.w3.org/2000/svg"
   xmlns:sodipodi="http://sodipodi.sourceforge.net/DTD/sodipodi-0.dtd"
   xmlns:inkscape="http://www.inkscape.org/namespaces/inkscape"
   width="192"
   height="192"
   viewBox="0 0 192 192"
   fill="none"
   version="1.1"
   id="svg8"
   sodipodi:docname="avast.svg"
   inkscape:version="0.92.4 (5da689c313, 2019-01-14)">
  <metadata
     id="metadata14">
    <rdf:RDF>
      <cc:Work
         rdf:about="">
        <dc:format>image/svg+xml</dc:format>
        <dc:type
           rdf:resource="http://purl.org/dc/dcmitype/StillImage" />
      </cc:Work>
    </rdf:RDF>
  </metadata>
  <defs
     id="defs12" />
  <sodipodi:namedview
     pagecolor="#ffffff"
     bordercolor="#666666"
     borderopacity="1"
     objecttolerance="10"
     gridtolerance="10"
     guidetolerance="10"
     inkscape:pageopacity="0"
     inkscape:pageshadow="2"
     inkscape:window-width="1920"
     inkscape:window-height="1017"
     id="namedview10"
     showgrid="true"
     inkscape:snap-global="false"
     inkscape:zoom="3.4766083"
     inkscape:cx="83.477178"
     inkscape:cy="108.00308"
     inkscape:window-x="-8"
     inkscape:window-y="-8"
     inkscape:window-maximized="1"
     inkscape:current-layer="svg8">
    <inkscape:grid
       type="xygrid"
       id="grid832" />
  </sodipodi:namedview>
  <path
     fill-rule="evenodd"
     clip-rule="evenodd"
     d="M96 183C144.049 183 183 144.049 183 96C183 47.9512 144.049 9 96 9C47.9512 9 9 47.9512 9 96C9 144.049 47.9512 183 96 183Z"
     fill="#56595B"
     id="path2" />
  <path
     d="m 117.993,81.4407 c 2.807,-1.9134 4.651,-5.1428 4.651,-8.8043 C 122.644,66.7621 117.898,62 112.043,62 c -4.022,0 -7.30463,2.373764 -9.317,5.5579 -1.19463,1.890238 -5.4961,6.1658 -11.1002,6.1658 -3.7839,0 -6.733097,-1.051258 -8.0842,-2.6083 -1.243237,-1.432734 -2.6522,-2.8124 -4.6766,-2.8124 -2.9274,0 -5.3006,2.3811 -5.3006,5.3182 0,1.0478 0.450391,1.947789 0.8235,2.8482 0.623151,1.503829 1.2223,5.2017 0.6183,11.1878 -0.8359,8.2836 -10.52,14.0508 -10.52,14.0508 l 0.0209,0.034 C 62.4008,103.065 61,105.414 61,108.091 c 0,4.134 3.34,7.485 7.4601,7.485 1.6949,0 3.113517,-0.79366 4.5103,-1.523 1.403415,-0.7328 5.3052,-1.384 12.7628,-1.384 7.7807,0 15.19034,6.22736 17.9708,9.478 2.36587,2.76595 5.607,4.853 9.517,4.853 6.505,0 11.779,-5.291 11.779,-11.818 0,-3.446 -1.47,-6.547 -3.814,-8.707 l 0.015,-0.016 c 0,0 -0.055,-0.037 -0.154,-0.11 -0.379,-0.338 -0.78,-0.652 -1.2,-0.94 -2.627,-2.174 -8.16,-7.4768 -8.16,-13.58 0,-5.4295 2.912,-8.2642 4.784,-9.5258 0.493,-0.2277 0.966,-0.4922 1.414,-0.79 0.083,-0.0358 0.128,-0.0526 0.128,-0.0526 z"
     id="path4"
     inkscape:connector-curvature="0"
     style="clip-rule:evenodd;fill:#f8c18c;fill-rule:evenodd"
     sodipodi:nodetypes="csssssssscccsssssssccccscccc" />
  <path
     d="m 104.725,98.32 c -0.765,0 -1.575,-0.27 -1.575,-1.755 V 85 h -5.715 v 1.575 c -1.35,-1.215 -3.06,-1.935 -5.13,-1.935 -4.995,0 -8.91,4.14 -8.91,9.36 0,5.22 3.915,9.36 8.91,9.36 2.61,0 4.725,-1.17 6.165,-3.06 1.125,1.845 3.105,3.06 5.535,3.06 0.585,0 1.125,-0.18 1.53,-0.36 V 98.32 Z M 93.43,98.275 c -2.385,0 -4.275,-1.89 -4.275,-4.275 0,-2.385 1.89,-4.275 4.275,-4.275 2.34,0 4.275,1.89 4.275,4.275 0,2.385 -1.935,4.275 -4.275,4.275 z"
     id="path6"
     inkscape:connector-curvature="0"
     style="fill:#ffffff" />
</svg>
