<svg width="192" height="192" viewBox="0 0 192 192" fill="none" xmlns="http://www.w3.org/2000/svg">
<path fill-rule="evenodd" clip-rule="evenodd" d="M49 166L115.96 165.764L97.0324 90.0157L49 90V90.125H26C23.7908 90.125 22 91.9159 22 94.125V97.4239C22 99.5276 23.6293 101.272 25.7281 101.415L49 103L25.6861 104.835C23.6051 104.999 22 106.735 22 108.823V114.177C22 116.265 23.6051 118.001 25.6861 118.165L49 120L25.6861 121.835C23.6051 121.999 22 123.735 22 125.823V131.177C22 133.265 23.6051 135.001 25.6861 135.165L42.647 136.5L25.6861 137.835C23.6051 137.999 22 139.735 22 141.823V147.177C22 149.265 23.6051 151.001 25.6861 151.165L49 153V153.125L25.7281 154.71C23.6293 154.853 22 156.597 22 158.701V162C22 164.209 23.7908 166 26 166H49Z" fill="#98DC9A"/>
<path fill-rule="evenodd" clip-rule="evenodd" d="M43 94.9935C43 99.2418 46.7665 102.503 50.9711 101.895L98.7135 94.9935H43Z" fill="#71A372"/>
<path fill-rule="evenodd" clip-rule="evenodd" d="M103.564 44.7021H85.1717C79.9866 44.7021 76.6011 50.1429 78.8918 54.7946L98.8775 95.3792L103.564 44.7021Z" fill="#C39A54"/>
<path fill-rule="evenodd" clip-rule="evenodd" d="M30.0225 91.0022C30.0237 93.2105 31.8142 95 34.0225 95H102.398C104.622 95 106.419 93.1854 106.398 90.9612L106 50H105.875V27C105.875 24.7909 104.084 23 101.875 23H98.5761C96.4724 23 94.7283 24.6294 94.5853 26.7281L93 50L91.1651 26.6862C91.0013 24.6052 89.2649 23 87.1774 23H81.8226C79.7351 23 77.9987 24.6052 77.8349 26.6862L76 50L74.1651 26.6862C74.0013 24.6052 72.2649 23 70.1774 23H64.8226C62.7351 23 60.9987 24.6052 60.8349 26.6862L59.5 43.6471L58.1651 26.6862C58.0013 24.6052 56.2649 23 54.1774 23H48.8226C46.7351 23 44.9987 24.6052 44.8349 26.6862L43 50H42.875L41.2897 26.7281C41.1467 24.6294 39.4026 23 37.2989 23H34C31.7909 23 30 24.7909 30 27V50L30.0225 91.0022Z" fill="#F9DE81"/>
<path fill-rule="evenodd" clip-rule="evenodd" d="M102.483 40H86.2556C81.2832 40 77.8962 45.0391 79.7739 49.6434L98.271 95L102.483 40Z" fill="#C39A54"/>
<path fill-rule="evenodd" clip-rule="evenodd" d="M90.7588 33.2192C86.8654 33.2343 84.0173 36.8963 84.9612 40.6737L102.034 108.998L147 109V108.875H170C172.209 108.875 174 107.084 174 104.875V101.576C174 99.4724 172.371 97.7283 170.272 97.5853L147 96L170.314 94.1651C172.395 94.0013 174 92.2649 174 90.1774V84.8226C174 82.7351 172.395 80.9987 170.314 80.8349L147 79L170.314 77.1651C172.395 77.0013 174 75.2649 174 73.1774V67.8226C174 65.7351 172.395 63.9987 170.314 63.8349L153.353 62.5L170.314 61.1651C172.395 61.0013 174 59.2649 174 57.1774V51.8226C174 49.7351 172.395 47.9987 170.314 47.8349L147 46V45.875L170.272 44.2897C172.371 44.1467 174 42.4026 174 40.2989V37C174 34.7909 172.209 33 170 33H147L90.7588 33.2192Z" fill="#9ABEFF"/>
<path fill-rule="evenodd" clip-rule="evenodd" d="M155 105.642V89.4148C155 84.4424 149.961 81.0554 145.357 82.933L100 101.43L155 105.642Z" fill="#728DBE"/>
<path fill-rule="evenodd" clip-rule="evenodd" d="M167 147.894L166.751 84L99.7149 100.751L115.96 165.764L105.409 165.801L105.835 171.208C105.999 173.289 107.735 174.894 109.823 174.894H115.177C117.265 174.894 119.001 173.289 119.165 171.208L121 147.894L122.835 171.208C122.999 173.289 124.735 174.894 126.823 174.894H132.177C134.265 174.894 136.001 173.289 136.165 171.208L137.5 154.247L138.835 171.208C138.999 173.289 140.735 174.894 142.823 174.894H148.177C150.265 174.894 152.001 173.289 152.165 171.208L154 147.894H154.125L155.71 171.166C155.853 173.265 157.597 174.894 159.701 174.894H163C165.209 174.894 167 173.103 167 170.894V147.894ZM91.125 165.852L102.779 165.811L102.415 171.166C102.272 173.265 100.528 174.894 98.4239 174.894H95.125C92.9159 174.894 91.125 173.103 91.125 170.894V165.852Z" fill="#FF837D"/>
<path fill-rule="evenodd" clip-rule="evenodd" d="M113.243 155.321C117.784 155.166 120.766 150.516 119.013 146.324L100.118 101.148L113.243 155.321Z" fill="#BA6561"/>
</svg>
