<?xml version="1.0" encoding="UTF-8" standalone="no"?>
<svg
   xmlns:dc="http://purl.org/dc/elements/1.1/"
   xmlns:cc="http://creativecommons.org/ns#"
   xmlns:rdf="http://www.w3.org/1999/02/22-rdf-syntax-ns#"
   xmlns:svg="http://www.w3.org/2000/svg"
   xmlns="http://www.w3.org/2000/svg"
   xmlns:sodipodi="http://sodipodi.sourceforge.net/DTD/sodipodi-0.dtd"
   xmlns:inkscape="http://www.inkscape.org/namespaces/inkscape"
   width="192"
   height="192"
   viewBox="0 0 192 192"
   fill="none"
   version="1.1"
   id="svg25"
   sodipodi:docname="ccleaner.svg"
   inkscape:version="0.92.4 (5da689c313, 2019-01-14)">
  <metadata
     id="metadata29">
    <rdf:RDF>
      <cc:Work
         rdf:about="">
        <dc:format>image/svg+xml</dc:format>
        <dc:type
           rdf:resource="http://purl.org/dc/dcmitype/StillImage" />
      </cc:Work>
    </rdf:RDF>
  </metadata>
  <sodipodi:namedview
     pagecolor="#ffffff"
     bordercolor="#666666"
     borderopacity="1"
     objecttolerance="10"
     gridtolerance="10"
     guidetolerance="10"
     inkscape:pageopacity="0"
     inkscape:pageshadow="2"
     inkscape:window-width="1920"
     inkscape:window-height="1017"
     id="namedview27"
     showgrid="false"
     inkscape:zoom="2.4583333"
     inkscape:cx="75.10062"
     inkscape:cy="98.616186"
     inkscape:window-x="-8"
     inkscape:window-y="-8"
     inkscape:window-maximized="1"
     inkscape:current-layer="svg25">
    <inkscape:grid
       type="xygrid"
       id="grid855" />
  </sodipodi:namedview>
  <path
     style="fill:#ff837d"
     inkscape:connector-curvature="0"
     id="path2"
     d="m 96.4625,182.05661 c 33.6175,0 62.7155,-18.927 77.1225,-46.6125 l -32.205,-16.6675 c -8.192,16.1025 -24.86,26.8375 -44.9175,26.8375 -28.5325,0 -50.285,-22.035 -50.285,-50.5675 0,-28.5325 21.7525,-50.5675 50.285,-50.5675 20.0575,0 36.7255,10.735 44.9175,26.8375 L 173.585,54.649115 C 159.178,26.96411 130.08,8.0366103 96.4625,8.0366103 c -48.025,0 -87.01,38.9850097 -87.01,87.0099997 0,48.025 38.985,87.01 87.01,87.01 z" />
  <path
     style="clip-rule:evenodd;fill:#d3b69a;fill-rule:evenodd"
     inkscape:connector-curvature="0"
     id="path4"
     d="m 61.9612,167.533 47.5598,-56.053 21.163,4.259 c 0,0 -3.267,15.897 -14.798,30.576 -11.53,14.679 -24.3408,22.759 -24.3408,22.759 z" />
  <path
     style="clip-rule:evenodd;fill:#d3b69a;fill-rule:evenodd"
     inkscape:connector-curvature="0"
     id="path6"
     d="m 72.0035,87.334 c 0,0 -7.5873,16.034 -21.0996,22.328 -13.5124,6.294 -31.8241,12.095 -31.8241,12.095 0,0 0.9318,8.07 6.376,15.263 5.4442,7.193 14.177,14.56 14.177,14.56 0,0 8.7937,1.742 10.0324,0.871 1.2387,-0.871 -3.9993,4.347 -3.9993,4.347 0,0 6.4294,6.229 9.9902,8.041 3.5607,1.811 6.5399,2.927 6.5399,2.927 0,0 38.162,-32.334 47.718,-56.383 C 119.471,87.334 72.0035,87.334 72.0035,87.334 Z" />
  <path
     style="clip-rule:evenodd;fill:#ffffff;fill-opacity:0.7;fill-rule:evenodd"
     inkscape:connector-curvature="0"
     id="path8"
     d="m 72.0035,87.334 c 0,0 -7.5873,16.034 -21.0996,22.328 -13.5124,6.294 -31.8241,12.095 -31.8241,12.095 0,0 0.9318,8.07 6.376,15.263 5.4442,7.193 14.177,14.56 14.177,14.56 0,0 8.7937,1.742 10.0324,0.871 1.2387,-0.871 -3.9993,4.347 -3.9993,4.347 0,0 6.4294,6.229 9.9902,8.041 3.5607,1.811 6.5399,2.927 6.5399,2.927 0,0 38.162,-32.334 47.718,-56.383 C 119.471,87.334 72.0035,87.334 72.0035,87.334 Z" />
  <path
     style="clip-rule:evenodd;fill:#9abeff;fill-rule:evenodd"
     inkscape:connector-curvature="0"
     id="path10"
     d="M 71.78,87.0538 109.03,112.02 121.499,85.9177 85.2437,70.9473 Z" />
  <path
     style="clip-rule:evenodd;fill:#728dbe;fill-rule:evenodd"
     inkscape:connector-curvature="0"
     id="path12"
     d="m 130.808,115.953 -21.778,-3.934 12.469,-26.102 10.92,3.7682 z" />
  <path
     style="clip-rule:evenodd;fill:#9abeff;fill-rule:evenodd"
     inkscape:connector-curvature="0"
     id="path14"
     d="m 102.072,78.1733 28.95,-59.4066 c 0,0 2.422,-3.857 7.426,-1.8831 5.004,1.974 2.168,6.836 2.168,6.836 l -24.289,60.2986 z" />
  <path
     style="clip-rule:evenodd;fill:#728dbe;fill-rule:evenodd"
     inkscape:connector-curvature="0"
     id="path16"
     d="m 109.072,80.1735 28.262,-57.9944 c 0.431,-0.8845 0.381,-1.9171 0.021,-2.8328 -0.567,-1.4414 -0.915,-3.3007 1.761,-2.0899 4.106,1.8577 1.5,6.4634 1.5,6.4634 l -24.289,60.2986 z" />
  <defs
     id="defs23">
    <clipPath
       id="clip0">
      <rect
         width="192"
         height="192"
         fill="white"
         id="rect20" />
    </clipPath>
  </defs>
</svg>
