<?xml version="1.0" encoding="UTF-8" standalone="no"?>
<svg
   xmlns:dc="http://purl.org/dc/elements/1.1/"
   xmlns:cc="http://creativecommons.org/ns#"
   xmlns:rdf="http://www.w3.org/1999/02/22-rdf-syntax-ns#"
   xmlns:svg="http://www.w3.org/2000/svg"
   xmlns="http://www.w3.org/2000/svg"
   xmlns:sodipodi="http://sodipodi.sourceforge.net/DTD/sodipodi-0.dtd"
   xmlns:inkscape="http://www.inkscape.org/namespaces/inkscape"
   width="192"
   height="192"
   fill="none"
   version="1.1"
   viewBox="0 0 192 192"
   id="svg16"
   sodipodi:docname="cinema4d.svg"
   inkscape:version="0.92.4 (5da689c313, 2019-01-14)">
  <metadata
     id="metadata22">
    <rdf:RDF>
      <cc:Work
         rdf:about="">
        <dc:format>image/svg+xml</dc:format>
        <dc:type
           rdf:resource="http://purl.org/dc/dcmitype/StillImage" />
      </cc:Work>
    </rdf:RDF>
  </metadata>
  <defs
     id="defs20" />
  <sodipodi:namedview
     pagecolor="#ffffff"
     bordercolor="#666666"
     borderopacity="1"
     objecttolerance="10"
     gridtolerance="10"
     guidetolerance="10"
     inkscape:pageopacity="0"
     inkscape:pageshadow="2"
     inkscape:window-width="1920"
     inkscape:window-height="1017"
     id="namedview18"
     showgrid="false"
     inkscape:zoom="4.5052083"
     inkscape:cx="96"
     inkscape:cy="96"
     inkscape:window-x="-8"
     inkscape:window-y="-8"
     inkscape:window-maximized="1"
     inkscape:current-layer="svg16" />
  <path
     style="clip-rule:evenodd;fill:#ffffff;fill-rule:evenodd"
     inkscape:connector-curvature="0"
     id="path2"
     d="m 96,183 c 48.049,0 87,-38.951 87,-87 C 183,47.951 144.049,9 96,9 47.951,9 9,47.951 9,96 c 0,48.049 38.951,87 87,87 z" />
  <path
     style="clip-rule:evenodd;fill:#9abeff;fill-opacity:1;fill-rule:evenodd;opacity:0.5"
     inkscape:connector-curvature="0"
     id="path4"
     d="m 90,160 c 31.48,0 57,-25.52 57,-57 0,-31.48 -25.52,-57 -57,-57 -31.48,0 -57,25.52 -57,57 0,31.48 25.52,57 57,57 z" />
  <path
     style="clip-rule:evenodd;fill:#728dbe;fill-rule:evenodd"
     inkscape:connector-curvature="0"
     id="path6"
     d="m 96.5,147 c 27.89,0 50.526,-22.61 50.5,-50.5 -0.048,-50.5 26.279,-40.497 26.279,-40.497 0,0 -5.613,-10.716 -13.242,-19.124 -7.629,-8.4082 -16.273,-13.527 -16.273,-13.527 0,0 -4.445,23.181 -47.264,22.649 -27.888,-0.3466 -50.5,22.61 -50.5,50.5 0,27.89 22.61,50.5 50.5,50.5 z" />
  <mask
     x="46"
     y="23"
     width="128"
     height="124"
     mask-type="alpha"
     maskUnits="userSpaceOnUse"
     id="mask12">
    <path
       d="m96.5 147c27.89 0 50.526-22.61 50.5-50.5-0.048-50.5 26.279-40.497 26.279-40.497s-5.613-10.716-13.242-19.124c-7.629-8.4082-16.273-13.527-16.273-13.527s-4.445 23.181-47.264 22.649c-27.888-0.3466-50.5 22.61-50.5 50.5 0 27.89 22.61 50.5 50.5 50.5z"
       clip-rule="evenodd"
       fill="#fff"
       fill-rule="evenodd"
       id="path10" />
  </mask>
  <path
     d="m131 96.5c0 19.054-15.446 34.5-34.5 34.5-19.054 0-34.5-15.446-34.5-34.5 0-19.054 15.446-34.5 34.5-34.5 6.203 0 12.023 1.6368 17.053 4.5021-2.257-0.7058-4.658-1.0863-7.147-1.0863-13.206 0-23.911 10.705-23.911 23.911 0 13.205 10.705 23.911 23.911 23.911 13.106 0 23.749-10.545 23.909-23.613 0.449 2.2216 0.685 4.5206 0.685 6.8747z"
     clip-rule="evenodd"
     fill="#9ABEFF"
     fill-rule="evenodd"
     id="path14" />
</svg>
