<?xml version="1.0" encoding="UTF-8" standalone="no"?>
<svg
   xmlns:dc="http://purl.org/dc/elements/1.1/"
   xmlns:cc="http://creativecommons.org/ns#"
   xmlns:rdf="http://www.w3.org/1999/02/22-rdf-syntax-ns#"
   xmlns:svg="http://www.w3.org/2000/svg"
   xmlns="http://www.w3.org/2000/svg"
   xmlns:sodipodi="http://sodipodi.sourceforge.net/DTD/sodipodi-0.dtd"
   xmlns:inkscape="http://www.inkscape.org/namespaces/inkscape"
   viewBox="0 0 192 192"
   version="1.1"
   id="svg16"
   sodipodi:docname="cmder.svg"
   inkscape:version="0.92.4 (5da689c313, 2019-01-14)">
  <metadata
     id="metadata20">
    <rdf:RDF>
      <cc:Work
         rdf:about="">
        <dc:format>image/svg+xml</dc:format>
        <dc:type
           rdf:resource="http://purl.org/dc/dcmitype/StillImage" />
        <dc:title></dc:title>
      </cc:Work>
    </rdf:RDF>
  </metadata>
  <sodipodi:namedview
     pagecolor="#ffffff"
     bordercolor="#666666"
     borderopacity="1"
     objecttolerance="10"
     gridtolerance="10"
     guidetolerance="10"
     inkscape:pageopacity="0"
     inkscape:pageshadow="2"
     inkscape:window-width="1920"
     inkscape:window-height="1017"
     id="namedview18"
     showgrid="true"
     inkscape:zoom="4.9166667"
     inkscape:cx="67.285552"
     inkscape:cy="99.427694"
     inkscape:window-x="-8"
     inkscape:window-y="-8"
     inkscape:window-maximized="1"
     inkscape:current-layer="svg16"
     inkscape:snap-global="true">
    <inkscape:grid
       type="xygrid"
       id="grid827"
       spacingx="4"
       spacingy="4" />
  </sodipodi:namedview>
  <defs
     id="defs4">
    <style
       id="style2">.a{fill:none;stroke:#b1b5bd;stroke-linecap:round;stroke-linejoin:round;isolation:isolate;opacity:0.63;}</style>
  </defs>
  <rect
     class="a"
     x="20"
     y="20"
     width="152"
     height="152"
     rx="10"
     id="rect6"
     style="fill:#98dc9a;stroke:none;opacity:1" />
  <path
     style="fill:#56595b;stroke:none;stroke-width:1px;stroke-linecap:butt;stroke-linejoin:miter;stroke-opacity:1"
     d="m 75.792259,59.830956 v 7.76619 c 0,0 4.640961,-1.662866 7.047098,-1.582002 3.380745,0.113618 5.430157,2.882121 7.137746,6.341311 1.707589,3.45919 2.641901,8.256249 2.641901,8.256249 L 70.902436,132.02776 h 9.49201 L 96.789735,91.902443 108.72666,125.84357 c 0,0 2.54317,6.54457 8.91673,6.90328 1.84135,0.10363 5.4651,-0.86291 5.4651,-0.86291 v -7.19092 c 0,0 -2.52139,0.39008 -3.59546,-0.14382 -2.11217,-1.04991 -3.30782,-4.31455 -3.30782,-4.31455 L 98.515555,69.754421 c 0,0 -2.92514,-10.527884 -14.381833,-11.074012 -2.803629,-0.133646 -8.341463,1.150547 -8.341463,1.150547 z"
     id="path829"
     inkscape:connector-curvature="0"
     sodipodi:nodetypes="ccsscccccsccsccsc" />
</svg>
