<?xml version="1.0" encoding="UTF-8" standalone="no"?>
<svg
   xmlns:dc="http://purl.org/dc/elements/1.1/"
   xmlns:cc="http://creativecommons.org/ns#"
   xmlns:rdf="http://www.w3.org/1999/02/22-rdf-syntax-ns#"
   xmlns:svg="http://www.w3.org/2000/svg"
   xmlns="http://www.w3.org/2000/svg"
   xmlns:sodipodi="http://sodipodi.sourceforge.net/DTD/sodipodi-0.dtd"
   xmlns:inkscape="http://www.inkscape.org/namespaces/inkscape"
   viewBox="0 0 192 192"
   version="1.1"
   id="svg16"
   sodipodi:docname="daz-bryce.svg"
   inkscape:version="0.92.4 (5da689c313, 2019-01-14)">
  <metadata
     id="metadata20">
    <rdf:RDF>
      <cc:Work
         rdf:about="">
        <dc:format>image/svg+xml</dc:format>
        <dc:type
           rdf:resource="http://purl.org/dc/dcmitype/StillImage" />
        <dc:title />
      </cc:Work>
    </rdf:RDF>
  </metadata>
  <sodipodi:namedview
     pagecolor="#ffffff"
     bordercolor="#666666"
     borderopacity="1"
     objecttolerance="10"
     gridtolerance="10"
     guidetolerance="10"
     inkscape:pageopacity="0"
     inkscape:pageshadow="2"
     inkscape:window-width="1920"
     inkscape:window-height="1017"
     id="namedview18"
     showgrid="true"
     inkscape:zoom="3.4766083"
     inkscape:cx="52.483066"
     inkscape:cy="109.93426"
     inkscape:window-x="-8"
     inkscape:window-y="-8"
     inkscape:window-maximized="1"
     inkscape:current-layer="svg16">
    <inkscape:grid
       type="xygrid"
       id="grid827"
       spacingx="4"
       spacingy="4" />
  </sodipodi:namedview>
  <defs
     id="defs4">
    <style
       id="style2">.a{fill:none;stroke:#b1b5bd;stroke-linecap:round;stroke-linejoin:round;isolation:isolate;opacity:0.63;}</style>
  </defs>
  <path
     style="fill:#a0a5af;stroke:none;stroke-width:1px;stroke-linecap:butt;stroke-linejoin:miter;stroke-opacity:1"
     d="m 8,172 4,8 172,-40 v -8 l -92,4 z"
     id="path831"
     inkscape:connector-curvature="0"
     sodipodi:nodetypes="cccccc" />
  <path
     style="fill:#d8d8d8;stroke:none;stroke-width:1px;stroke-linecap:butt;stroke-linejoin:miter;stroke-opacity:1"
     d="M 8,172 20,60 124,44 l 60,88 z"
     id="path829"
     inkscape:connector-curvature="0" />
  <path
     style="fill:#b1b5bd;stroke:none;stroke-width:1px;stroke-linecap:butt;stroke-linejoin:miter;stroke-opacity:1"
     d="M 36,88 C 36.298362,80.231125 48,68 48,68 L 56,52 60,28 72,12 v 24 l 4,8 4,-4 8,8 4,16 16,-4 c 0,0 8,12 20,20 1.1094,0.7396 -0.30634,2.702335 0,4 0.68499,2.901668 4.47757,5.057074 4,8 -0.90613,5.58381 -11.09387,6.41619 -12,12 -0.95514,5.88585 11.13485,10.9277 8,16 -2.10292,3.4026 -8.30448,-1.53073 -12,0 -3.48417,1.44319 -4.32965,7.13355 -8,8 -4.10358,0.96872 -7.83807,-4.67539 -12,-4 -6.580583,1.06788 -9.498489,10.52528 -16,12 -6.630267,1.50392 -13.234394,-3.33007 -20,-4 -5.307378,-0.52553 -11.673377,3.11845 -16,0 -3.420497,-2.46536 -2.57304,-7.7809 -3.717915,-12.11047 C 39.137209,115.55996 36,112.21637 36,108 c 0,-4.21637 4.298894,-7.79424 4,-12 -0.21135,-2.973923 -4.114417,-5.020772 -4,-8 z"
     id="path833"
     inkscape:connector-curvature="0"
     sodipodi:nodetypes="sccccccccccsssssssssssssss" />
  <path
     style="fill:#d2d2d2;stroke:none;stroke-width:1px;stroke-linecap:butt;stroke-linejoin:miter;stroke-opacity:1"
     d="M 60,28 72,60 88,48 84,32 80,36 76,28 72,12 Z"
     id="path835"
     inkscape:connector-curvature="0"
     sodipodi:nodetypes="cccccccc" />
  <path
     style="fill:#d2d2d2;stroke:none;stroke-width:1px;stroke-linecap:butt;stroke-linejoin:miter;stroke-opacity:1"
     d="m 88,48 -4,12 12,28 12,-8 16,8 -16,-28 z"
     id="path837"
     inkscape:connector-curvature="0"
     sodipodi:nodetypes="ccccccc" />
  <rect
     style="opacity:1;vector-effect:none;fill:#71a372;fill-opacity:1;fill-rule:evenodd;stroke:none;stroke-width:4;stroke-linecap:round;stroke-linejoin:round;stroke-miterlimit:4;stroke-dasharray:none;paint-order:stroke fill markers"
     id="rect857"
     width="36"
     height="36"
     x="144"
     y="92"
     ry="18" />
  <path
     style="fill:#71a372;stroke:none;stroke-width:1px;stroke-linecap:butt;stroke-linejoin:miter;stroke-opacity:1"
     d="M 16,141.9661 20,160 50.033898,152 48,136 H 32 Z"
     id="path861"
     inkscape:connector-curvature="0"
     sodipodi:nodetypes="cccccc" />
  <path
     style="opacity:0.25;fill:#000000;stroke:none;stroke-width:1px;stroke-linecap:butt;stroke-linejoin:miter;stroke-opacity:1"
     d="M 16,141.9661 20,160 50.033898,152 48,136 H 32 Z"
     id="path861-5"
     inkscape:connector-curvature="0"
     sodipodi:nodetypes="cccccc" />
  <path
     style="fill:#71a372;stroke:none;stroke-width:1px;stroke-linecap:butt;stroke-linejoin:miter;stroke-opacity:1"
     d="m 16,116 v 25.9661 L 48,136 44,112 Z"
     id="path859"
     inkscape:connector-curvature="0"
     sodipodi:nodetypes="ccccc" />
  <path
     style="opacity:0.25;vector-effect:none;fill:#000000;fill-opacity:1;fill-rule:evenodd;stroke:none;stroke-width:4;stroke-linecap:round;stroke-linejoin:round;stroke-miterlimit:4;stroke-dasharray:none;paint-order:stroke fill markers"
     d="M 160.56445,92.072266 C 151.27071,92.801167 144,100.51276 144,110 c 0,9.972 8.028,18 18,18 9.972,0 18,-8.028 18,-18 0,-9.48724 -7.27071,-17.198833 -16.56445,-17.927734 C 170.51228,92.786655 176,98.72875 176,106 c 0,7.756 -6.244,14 -14,14 -7.756,0 -14,-6.244 -14,-14 0,-7.27125 5.48772,-13.213345 12.56445,-13.927734 z"
     id="rect857-0"
     inkscape:connector-curvature="0" />
  <path
     style="fill:#71a372"
     d="m 20,68 8,-16 4,12 v 8 z"
     id="path865"
     inkscape:connector-curvature="0"
     sodipodi:nodetypes="ccccc" />
  <path
     style="opacity:0.25;fill:#000000"
     d="m 20,68 8,-16 4,12 v 8 z"
     id="path865-5"
     inkscape:connector-curvature="0"
     sodipodi:nodetypes="ccccc" />
  <path
     style="fill:#71a372;stroke:none;stroke-width:1px;stroke-linecap:butt;stroke-linejoin:miter;stroke-opacity:1"
     d="M 32,72 44,64 28,52 Z"
     id="path867"
     inkscape:connector-curvature="0" />
  <path
     style="opacity:1;vector-effect:none;fill:#71a372;fill-opacity:1;fill-rule:evenodd;stroke:none;paint-order:stroke fill markers"
     d="m 108,40 v 12 c 0,2.216 3.568,4 8,4 4.432,0 8,-1.784 8,-4 V 40 Z"
     id="rect871"
     inkscape:connector-curvature="0" />
  <path
     inkscape:connector-curvature="0"
     style="opacity:0.25;vector-effect:none;fill:#000000;fill-opacity:1;fill-rule:evenodd;stroke:none;paint-order:stroke fill markers"
     d="m 108,40 v 12 c 0,2.216 3.568,4 8,4 4.432,0 8,-1.784 8,-4 V 40 Z"
     id="rect871-1" />
  <rect
     style="opacity:1;vector-effect:none;fill:#71a372;fill-opacity:1;fill-rule:evenodd;stroke:none;paint-order:stroke fill markers"
     id="rect869"
     width="16"
     height="8"
     x="108"
     y="36"
     ry="4"
     rx="8" />
</svg>
