<?xml version="1.0" encoding="UTF-8" standalone="no"?>
<svg
   xmlns:dc="http://purl.org/dc/elements/1.1/"
   xmlns:cc="http://creativecommons.org/ns#"
   xmlns:rdf="http://www.w3.org/1999/02/22-rdf-syntax-ns#"
   xmlns:svg="http://www.w3.org/2000/svg"
   xmlns="http://www.w3.org/2000/svg"
   xmlns:sodipodi="http://sodipodi.sourceforge.net/DTD/sodipodi-0.dtd"
   xmlns:inkscape="http://www.inkscape.org/namespaces/inkscape"
   viewBox="0 0 192 192"
   version="1.1"
   id="svg16"
   sodipodi:docname="dvdisaster.svg"
   inkscape:version="0.92.4 (5da689c313, 2019-01-14)">
  <metadata
     id="metadata20">
    <rdf:RDF>
      <cc:Work
         rdf:about="">
        <dc:format>image/svg+xml</dc:format>
        <dc:type
           rdf:resource="http://purl.org/dc/dcmitype/StillImage" />
        <dc:title />
      </cc:Work>
    </rdf:RDF>
  </metadata>
  <sodipodi:namedview
     pagecolor="#ffffff"
     bordercolor="#666666"
     borderopacity="1"
     objecttolerance="10"
     gridtolerance="10"
     guidetolerance="10"
     inkscape:pageopacity="0"
     inkscape:pageshadow="2"
     inkscape:window-width="1920"
     inkscape:window-height="1017"
     id="namedview18"
     showgrid="true"
     inkscape:zoom="3.4766083"
     inkscape:cx="26.812966"
     inkscape:cy="91.230048"
     inkscape:window-x="-8"
     inkscape:window-y="-8"
     inkscape:window-maximized="1"
     inkscape:current-layer="svg16">
    <inkscape:grid
       type="xygrid"
       id="grid827"
       spacingx="4"
       spacingy="4" />
  </sodipodi:namedview>
  <defs
     id="defs4">
    <style
       id="style2">.a{fill:none;stroke:#b1b5bd;stroke-linecap:round;stroke-linejoin:round;isolation:isolate;opacity:0.63;}</style>
  </defs>
  <path
     inkscape:connector-curvature="0"
     d="M 96,63.93 A 32.068,32.068 0 0 0 63.93,96 32.068,32.068 0 0 0 96,128.07 32.068,32.068 0 0 0 128.07,96 32.068,32.068 0 0 0 96,63.93 Z M 96,84 A 12,12 0 0 1 108,96 12,12 0 0 1 96,108 12,12 0 0 1 84,96 12,12 0 0 1 96,84 Z"
     style="opacity:0.25;fill:#ffffff;stroke-width:4.58109999;paint-order:stroke fill markers"
     id="path2" />
  <path
     inkscape:connector-curvature="0"
     style="fill:#d8d8d8;stroke-width:4"
     d="m 96,8 v 60 a 28,28 0 0 0 -28,28 28,28 0 0 0 28,28 v 60 A 88,88 0 0 1 8,96 88,88 0 0 1 96,8 Z"
     id="path4-5" />
  <path
     style="fill:#728dbe;stroke-width:4"
     d="M 96 8 L 96 68 A 28 28 0 0 1 124 96 A 28 28 0 0 1 96 124 L 96 184 A 88 88 0 0 0 184 96 A 88 88 0 0 0 96 8 z "
     id="path4" />
  <rect
     style="opacity:1;vector-effect:none;fill:#d8d8d8;fill-opacity:1;fill-rule:evenodd;stroke:none;stroke-width:8;stroke-linecap:round;stroke-linejoin:round;stroke-miterlimit:4;stroke-dasharray:none;stroke-opacity:1;paint-order:stroke fill markers"
     id="rect828-7"
     width="60"
     height="60"
     x="64"
     y="8"
     ry="30" />
  <path
     style="opacity:0.25;fill:#9abeff;stroke-width:4"
     d="m 142.62,21.414 -31.797,50.875 a 28,28 0 0 1 13.18,23.711 28,28 0 0 1 -1.4609,8.8438 l 56.844,18.953 a 88,88 0 0 0 4.6172,-27.797 88,88 0 0 0 -41.383,-74.586 z"
     id="path823" />
  <path
     style="opacity:0.25;fill:#ffffff;stroke-width:4"
     d="M 12.62,68.203 A 88,88 0 0 0 8.0028,96 a 88,88 0 0 0 41.383,74.586 l 31.797,-50.875 A 28,28 0 0 1 68.0028,96 28,28 0 0 1 69.4637,87.1562 Z"
     id="path6" />
  <rect
     style="opacity:1;vector-effect:none;fill:#728dbe;fill-opacity:1;fill-rule:evenodd;stroke:none;stroke-width:8;stroke-linecap:round;stroke-linejoin:round;stroke-miterlimit:4;stroke-dasharray:none;stroke-opacity:1;paint-order:stroke fill markers"
     id="rect828"
     width="60"
     height="60"
     x="68"
     y="124"
     ry="30" />
  <rect
     style="opacity:1;vector-effect:none;fill:#728dbe;fill-opacity:1;fill-rule:evenodd;stroke:none;stroke-width:8;stroke-linecap:round;stroke-linejoin:round;stroke-miterlimit:4;stroke-dasharray:none;stroke-opacity:1;paint-order:stroke fill markers"
     id="rect847"
     width="28"
     height="28"
     x="80"
     y="24"
     ry="14" />
  <rect
     style="opacity:1;vector-effect:none;fill:#ececec;fill-opacity:1;fill-rule:evenodd;stroke:none;stroke-width:8;stroke-linecap:round;stroke-linejoin:round;stroke-miterlimit:4;stroke-dasharray:none;stroke-opacity:1;paint-order:stroke fill markers"
     id="rect849"
     width="28"
     height="28"
     x="84"
     y="140"
     ry="14" />
</svg>
