<svg width="192" height="192" viewBox="0 0 192 192" fill="none" xmlns="http://www.w3.org/2000/svg">
<path d="M38 37.5C38 21.2076 51.2076 8 67.5 8H96V67H67.5C51.2076 67 38 53.7924 38 37.5Z" fill="#FF837D"/>
<path d="M38 96.5C38 80.2076 51.2076 67 67.5 67H96V126H67.5C51.2076 126 38 112.792 38 96.5Z" fill="#BD9AFF"/>
<rect x="96" y="67" width="58" height="59" rx="29" fill="#9ABEFF"/>
<path d="M38 155.5C38 139.208 51.2076 126 67.5 126H96V167.845C96 177.319 88.3195 185 78.8451 185H67.5C51.2076 185 38 171.792 38 155.5Z" fill="#98DC9A"/>
<path d="M154 37.5C154 21.2076 140.792 8 124.5 8H96V67H124.5C140.792 67 154 53.7924 154 37.5Z" fill="#FFB0AC"/>
</svg>
