<?xml version="1.0" encoding="UTF-8" standalone="no"?>
<svg
   xmlns:dc="http://purl.org/dc/elements/1.1/"
   xmlns:cc="http://creativecommons.org/ns#"
   xmlns:rdf="http://www.w3.org/1999/02/22-rdf-syntax-ns#"
   xmlns:svg="http://www.w3.org/2000/svg"
   xmlns="http://www.w3.org/2000/svg"
   xmlns:sodipodi="http://sodipodi.sourceforge.net/DTD/sodipodi-0.dtd"
   xmlns:inkscape="http://www.inkscape.org/namespaces/inkscape"
   viewBox="0 0 192 192"
   version="1.1"
   id="svg16"
   sodipodi:docname="houdini.svg"
   inkscape:version="0.92.4 (5da689c313, 2019-01-14)">
  <metadata
     id="metadata20">
    <rdf:RDF>
      <cc:Work
         rdf:about="">
        <dc:format>image/svg+xml</dc:format>
        <dc:type
           rdf:resource="http://purl.org/dc/dcmitype/StillImage" />
        <dc:title></dc:title>
      </cc:Work>
    </rdf:RDF>
  </metadata>
  <sodipodi:namedview
     pagecolor="#ffffff"
     bordercolor="#666666"
     borderopacity="1"
     objecttolerance="10"
     gridtolerance="10"
     guidetolerance="10"
     inkscape:pageopacity="0"
     inkscape:pageshadow="2"
     inkscape:window-width="1920"
     inkscape:window-height="1017"
     id="namedview18"
     showgrid="true"
     inkscape:zoom="6.9532167"
     inkscape:cx="80.930164"
     inkscape:cy="83.854431"
     inkscape:window-x="-8"
     inkscape:window-y="-8"
     inkscape:window-maximized="1"
     inkscape:current-layer="svg16"
     inkscape:snap-global="false">
    <inkscape:grid
       type="xygrid"
       id="grid827"
       spacingx="4"
       spacingy="4" />
  </sodipodi:namedview>
  <defs
     id="defs4">
    <style
       id="style2">.a{fill:none;stroke:#b1b5bd;stroke-linecap:round;stroke-linejoin:round;isolation:isolate;opacity:0.63;}</style>
  </defs>
  <rect
     class="a"
     x="20"
     y="20"
     width="152"
     height="152"
     rx="10"
     id="rect6"
     style="fill:#f8c18c;stroke:none;opacity:1" />
  <path
     style="opacity:1;vector-effect:none;fill:#ffffff;fill-opacity:1;fill-rule:evenodd;stroke:none;paint-order:stroke fill markers"
     d="m 69.541016,48.032672 c -4.127418,0.02093 -8.639524,0.268503 -11.480469,0.6875 C 45.823839,50.525133 33.3659,55.266848 22.800781,62.144001 21.458587,63.017678 20.153459,63.711523 20,63.755329 v 21.482218 l 2.902344,-2.677735 c 15.201135,-14.014594 38.18425,-21.524465 58.353515,-17.443359 6.475501,1.31027 13.222108,4.238264 18.695313,8.111328 3.558858,2.518404 9.573778,8.479116 11.980468,11.873047 6.23848,8.797565 9.52768,18.266852 10.0918,29.885502 0.68986,14.20728 -4.34463,28.59464 -12.83008,36.66211 -5.40093,5.13486 -12.422309,8.65085 -20.658204,10.34375 -2.945273,0.60572 -12.272041,1.03804 -15.03125,0.69726 -5.956291,-0.73492 -13.1834,-2.84865 -17.677734,-5.16992 -8.645558,-4.46522 -15.422694,-12.46588 -18.458984,-21.79297 -1.235943,-3.79658 -1.558594,-5.57016 -1.558594,-8.54883 0,-11.02721 6.331459,-20.3214 17.408203,-25.55468 5.723504,-2.704086 11.036468,-4.041715 17.130859,-4.312503 3.504792,-0.1558 4.244815,-0.100703 6.09375,0.460937 6.921711,2.102387 11.929313,9.085986 11.607422,16.187496 -0.148276,3.27089 -1.88657,6.7446 -5.011719,10.01563 -4.771726,4.99449 -10.407817,6.39746 -14.175781,3.5293 -1.563965,-1.19047 -3.134193,-3.32526 -3.601562,-5.92872 -0.556168,-3.09821 -1.215543,-4.48805 -2.44336,-5.15039 -1.600347,-0.86344 -3.30753,-0.33122 -5.590266,1.90234 -3.212139,3.14306 -4.926052,6.96017 -4.988281,12.6338 -0.0418,3.80691 0.483368,5.42023 2.78125,8.52734 2.996883,4.05216 8.589138,7.10457 15.293391,8.54492 2.702581,0.58064 9.790312,0.49507 12.919922,-0.15625 5.334932,-1.11021 9.535948,-3.40893 13.693359,-7.49218 4.167149,-4.09275 7.169949,-8.83268 9.242189,-14.5918 4.42252,-12.29095 3.11731,-23.62485 -3.77344,-32.769532 C 96.901595,85.733756 88.473658,80.920388 76.865234,78.445312 73.414873,77.709633 72.41877,77.631924 66.511719,77.621094 59.520482,77.608174 57.513168,77.875411 52.544922,79.478516 41.668978,82.987883 28.743374,93.451011 21.314453,104.76172 L 20,106.5 v 41.02148 l 0.905587,2.39702 c 5.567896,8.95241 14.794418,17.31688 23.666016,21.45508 L 46.552734,172 h 63.646486 l 3.91332,-1.74805 c 16.37585,-10.16819 24.67394,-25.42237 28.57675,-42.93945 2.38144,-10.68871 1.63462,-21.77771 -2.15039,-31.919922 -8.3164,-22.284459 -29.5333,-40.586936 -56.077962,-45.895062 -2.432014,-0.4864 -6.189858,-1.047049 -8.351563,-1.246094 -1.754544,-0.161538 -4.091909,-0.231307 -6.568359,-0.21875 z"
     id="rect846"
     inkscape:connector-curvature="0"
     sodipodi:nodetypes="scccccscsccccccsccccccccccccccsccccccccccccssccs" />
</svg>
