<?xml version="1.0" encoding="UTF-8" standalone="no"?>
<svg
   xmlns:dc="http://purl.org/dc/elements/1.1/"
   xmlns:cc="http://creativecommons.org/ns#"
   xmlns:rdf="http://www.w3.org/1999/02/22-rdf-syntax-ns#"
   xmlns:svg="http://www.w3.org/2000/svg"
   xmlns="http://www.w3.org/2000/svg"
   xmlns:sodipodi="http://sodipodi.sourceforge.net/DTD/sodipodi-0.dtd"
   xmlns:inkscape="http://www.inkscape.org/namespaces/inkscape"
   viewBox="0 0 192 192"
   version="1.1"
   id="svg16"
   sodipodi:docname="installforge.svg"
   inkscape:version="0.92.4 (5da689c313, 2019-01-14)">
  <metadata
     id="metadata20">
    <rdf:RDF>
      <cc:Work
         rdf:about="">
        <dc:format>image/svg+xml</dc:format>
        <dc:type
           rdf:resource="http://purl.org/dc/dcmitype/StillImage" />
        <dc:title></dc:title>
      </cc:Work>
    </rdf:RDF>
  </metadata>
  <sodipodi:namedview
     pagecolor="#ffffff"
     bordercolor="#666666"
     borderopacity="1"
     objecttolerance="10"
     gridtolerance="10"
     guidetolerance="10"
     inkscape:pageopacity="0"
     inkscape:pageshadow="2"
     inkscape:window-width="1920"
     inkscape:window-height="1017"
     id="namedview18"
     showgrid="true"
     inkscape:zoom="1.4734844"
     inkscape:cx="48.97947"
     inkscape:cy="106.24073"
     inkscape:window-x="-8"
     inkscape:window-y="-8"
     inkscape:window-maximized="1"
     inkscape:current-layer="svg16"
     inkscape:snap-global="true">
    <inkscape:grid
       type="xygrid"
       id="grid827"
       spacingx="4"
       spacingy="4" />
  </sodipodi:namedview>
  <defs
     id="defs4">
    <style
       id="style2">.a{fill:none;stroke:#b1b5bd;stroke-linecap:round;stroke-linejoin:round;isolation:isolate;opacity:0.63;}</style>
  </defs>
  <rect
     class="a"
     x="20"
     y="20"
     width="152"
     height="152"
     rx="10"
     id="rect6"
     style="fill:#56595b;stroke:none;opacity:1" />
  <rect
     style="opacity:1;vector-effect:none;fill:#728dbe;fill-opacity:1;fill-rule:evenodd;stroke:none;stroke-width:8;stroke-linecap:round;stroke-linejoin:round;stroke-miterlimit:4;stroke-dasharray:none;paint-order:stroke fill markers"
     id="rect890"
     width="128"
     height="128"
     x="32"
     y="32"
     ry="4" />
  <path
     style="font-style:normal;font-variant:normal;font-weight:500;font-stretch:normal;font-size:81.97383118px;line-height:1.25;font-family:Now;-inkscape-font-specification:'Now Medium';letter-spacing:0px;word-spacing:0px;fill:#9abeff;fill-opacity:1;stroke:none;stroke-width:2.04934573"
     d="M 68.029297 68.140625 L 68.029297 129.62109 L 78.072266 129.62109 L 78.072266 68.140625 L 68.029297 68.140625 z M 92.525391 68.140625 L 92.525391 129.62109 L 102.56836 129.62109 L 102.56836 103.49219 L 124.39258 103.49219 L 124.39258 94.269531 L 102.56836 94.269531 L 102.56836 77.261719 L 127.77539 77.261719 L 127.77539 68.140625 L 92.525391 68.140625 z "
     id="path835" />
  <path
     style="fill:#9abeff;stroke:none;stroke-width:1px;stroke-linecap:butt;stroke-linejoin:miter;stroke-opacity:1"
     d="M 36 32 C 33.784 32 32 33.784 32 36 L 32 69.466797 C 44.637018 78.830947 66.252825 93.275083 92 104 C 109.85028 111.43549 142.47012 116.33387 160 118.57422 L 160 36 C 160 33.784 158.216 32 156 32 L 36 32 z "
     id="path833" />
  <path
     style="fill:#728dbe;stroke:none;stroke-width:1px;stroke-linecap:butt;stroke-linejoin:miter;stroke-opacity:1"
     d="M 68.029297 68.140625 L 68.029297 92.472656 C 71.264168 94.230626 74.614824 95.971874 78.072266 97.669922 L 78.072266 68.140625 L 68.029297 68.140625 z M 92.525391 68.140625 L 92.525391 104.20898 C 95.520084 105.42918 98.904871 106.58248 102.56836 107.66602 L 102.56836 103.49219 L 124.39258 103.49219 L 124.39258 94.269531 L 102.56836 94.269531 L 102.56836 77.261719 L 127.77539 77.261719 L 127.77539 68.140625 L 92.525391 68.140625 z "
     id="path833-1" />
</svg>
