<?xml version="1.0" encoding="UTF-8" standalone="no"?>
<svg
   xmlns:dc="http://purl.org/dc/elements/1.1/"
   xmlns:cc="http://creativecommons.org/ns#"
   xmlns:rdf="http://www.w3.org/1999/02/22-rdf-syntax-ns#"
   xmlns:svg="http://www.w3.org/2000/svg"
   xmlns="http://www.w3.org/2000/svg"
   xmlns:sodipodi="http://sodipodi.sourceforge.net/DTD/sodipodi-0.dtd"
   xmlns:inkscape="http://www.inkscape.org/namespaces/inkscape"
   viewBox="0 0 192 192"
   version="1.1"
   id="svg16"
   sodipodi:docname="ldtk.svg"
   inkscape:version="0.92.4 (5da689c313, 2019-01-14)">
  <metadata
     id="metadata20">
    <rdf:RDF>
      <cc:Work
         rdf:about="">
        <dc:format>image/svg+xml</dc:format>
        <dc:type
           rdf:resource="http://purl.org/dc/dcmitype/StillImage" />
        <dc:title />
      </cc:Work>
    </rdf:RDF>
  </metadata>
  <sodipodi:namedview
     pagecolor="#ffffff"
     bordercolor="#666666"
     borderopacity="1"
     objecttolerance="10"
     gridtolerance="10"
     guidetolerance="10"
     inkscape:pageopacity="0"
     inkscape:pageshadow="2"
     inkscape:window-width="1920"
     inkscape:window-height="1017"
     id="namedview18"
     showgrid="true"
     inkscape:zoom="3.4766083"
     inkscape:cx="43.207988"
     inkscape:cy="79.724582"
     inkscape:window-x="-8"
     inkscape:window-y="-8"
     inkscape:window-maximized="1"
     inkscape:current-layer="svg16">
    <inkscape:grid
       type="xygrid"
       id="grid827"
       spacingx="4"
       spacingy="4" />
  </sodipodi:namedview>
  <defs
     id="defs4">
    <style
       id="style2">.a{fill:none;stroke:#b1b5bd;stroke-linecap:round;stroke-linejoin:round;isolation:isolate;opacity:0.63;}</style>
  </defs>
  <rect
     class="a"
     x="20"
     y="20"
     width="152"
     height="152"
     rx="10"
     id="rect6"
     style="opacity:1;isolation:isolate;fill:#56595b;stroke:none;stroke-linecap:round;stroke-linejoin:round" />
  <rect
     style="opacity:1;vector-effect:none;fill:#c39a54;fill-opacity:1;fill-rule:evenodd;stroke:none;stroke-width:9.46572781;stroke-linecap:round;stroke-linejoin:round;stroke-miterlimit:4;stroke-dasharray:none;paint-order:stroke fill markers"
     id="rect882"
     width="112"
     height="60"
     x="20"
     y="80" />
  <rect
     style="opacity:1;vector-effect:none;fill:#83868c;fill-opacity:1;fill-rule:evenodd;stroke:none;stroke-width:8;stroke-linecap:round;stroke-linejoin:round;stroke-miterlimit:4;stroke-dasharray:none;paint-order:stroke fill markers"
     id="rect884"
     width="20"
     height="20"
     x="92"
     y="20" />
  <rect
     style="opacity:1;vector-effect:none;fill:#83868c;fill-opacity:1;fill-rule:evenodd;stroke:none;stroke-width:8;stroke-linecap:round;stroke-linejoin:round;stroke-miterlimit:4;stroke-dasharray:none;paint-order:stroke fill markers"
     id="rect884-9"
     width="20"
     height="20"
     x="132"
     y="40" />
  <path
     style="opacity:1;vector-effect:none;fill:#83868c;fill-opacity:1;fill-rule:evenodd;stroke:none;stroke-width:8;stroke-linecap:round;stroke-linejoin:round;stroke-miterlimit:4;stroke-dasharray:none;paint-order:stroke fill markers"
     d="M 152 20 L 152 40 L 172 40 L 172 30 C 172 24.46 167.54 20 162 20 L 152 20 z "
     id="rect884-6" />
  <rect
     style="opacity:1;vector-effect:none;fill:#83868c;fill-opacity:1;fill-rule:evenodd;stroke:none;stroke-width:8;stroke-linecap:round;stroke-linejoin:round;stroke-miterlimit:4;stroke-dasharray:none;paint-order:stroke fill markers"
     id="rect884-2"
     width="20"
     height="20"
     x="92"
     y="140" />
  <text
     xml:space="preserve"
     style="font-style:normal;font-variant:normal;font-weight:normal;font-stretch:normal;font-size:37.83499146px;line-height:1.25;font-family:Aleo;-inkscape-font-specification:Aleo;letter-spacing:0px;word-spacing:0px;fill:#f9de81;fill-opacity:1;stroke:none;stroke-width:0.94587481"
     x="34.14576"
     y="126.37658"
     id="text933"><tspan
       sodipodi:role="line"
       id="tspan931"
       x="34.14576"
       y="126.37658"
       style="font-style:normal;font-variant:normal;font-weight:bold;font-stretch:normal;font-family:Now;-inkscape-font-specification:'Now Bold';fill:#f9de81;stroke-width:0.94587481"><tspan
         style="font-style:normal;font-variant:normal;font-weight:900;font-stretch:normal;font-family:Now;-inkscape-font-specification:'Now Heavy';fill:#f9de81;stroke-width:0.94587481"
         id="tspan937">LD</tspan><tspan
         style="font-style:normal;font-variant:normal;font-weight:normal;font-stretch:normal;font-family:Now;-inkscape-font-specification:Now;fill:#f9de81;stroke-width:0.94587481"
         id="tspan935">tk</tspan></tspan></text>
  <path
     style="opacity:0.25;vector-effect:none;fill:#ffffff;fill-opacity:1;fill-rule:evenodd;stroke:none;stroke-width:8;stroke-linecap:round;stroke-linejoin:round;stroke-miterlimit:4;stroke-dasharray:none;paint-order:stroke fill markers"
     d="M 30 20 C 29.31435 20 28.646157 20.068995 28 20.199219 L 28 36 L 20 36 L 20 40 L 28 40 L 28 56 L 20 56 L 20 60 L 28 60 L 28 76 L 20 76 L 20 80 L 28 80 L 32 80 L 48 80 L 52 80 L 68 80 L 72 80 L 88 80 L 92 80 L 108 80 L 112 80 L 128 80 L 132 80 L 148 80 L 148 96 L 132 96 L 132 100 L 148 100 L 148 116 L 132 116 L 132 120 L 148 120 L 148 136 L 132 136 L 132 140 L 148 140 L 148 156 L 132 156 L 132 140 L 128 140 L 128 156 L 112 156 L 112 160 L 128 160 L 128 172 L 132 172 L 132 160 L 148 160 L 148 172 L 152 172 L 152 160 L 168 160 L 168 169.99609 C 170.42698 168.17485 172 165.28135 172 162 L 172 140 L 172 136 L 172 120 L 172 116 L 172 100 L 172 96 L 172 80 L 172 40 L 168 40 L 168 56 L 152 56 L 152 60 L 168 60 L 168 76 L 152 76 L 152 60 L 148 60 L 148 76 L 132 76 L 132 60 L 132 56 L 132 40 L 148 40 L 152 40 L 152 36 L 152 20 L 148 20 L 148 36 L 132 36 L 132 20 L 128 20 L 128 36 L 112 36 L 112 40 L 128 40 L 128 56 L 112 56 L 112 40 L 108 40 L 108 56 L 92 56 L 92 40 L 92 36 L 92 20 L 88 20 L 88 36 L 72 36 L 72 20 L 68 20 L 68 36 L 52 36 L 52 20 L 48 20 L 48 36 L 32 36 L 32 20 L 30 20 z M 112 160 L 108 160 L 108 172 L 112 172 L 112 160 z M 32 40 L 48 40 L 48 56 L 32 56 L 32 40 z M 52 40 L 68 40 L 68 56 L 52 56 L 52 40 z M 72 40 L 88 40 L 88 56 L 72 56 L 72 40 z M 32 60 L 48 60 L 48 76 L 32 76 L 32 60 z M 52 60 L 68 60 L 68 76 L 52 76 L 52 60 z M 72 60 L 88 60 L 88 76 L 72 76 L 72 60 z M 92 60 L 108 60 L 108 76 L 92 76 L 92 60 z M 112 60 L 128 60 L 128 76 L 112 76 L 112 60 z M 152 80 L 168 80 L 168 96 L 152 96 L 152 80 z M 152 100 L 168 100 L 168 116 L 152 116 L 152 100 z M 152 120 L 168 120 L 168 136 L 152 136 L 152 120 z M 28 140 L 28 156 L 20 156 L 20 160 L 28 160 L 28 171.80078 C 28.646157 171.931 29.31435 172 30 172 L 32 172 L 32 160 L 48 160 L 48 172 L 52 172 L 52 160 L 68 160 L 68 172 L 72 172 L 72 160 L 88 160 L 88 172 L 92 172 L 92 160 L 92 156 L 92 140 L 88 140 L 88 156 L 72 156 L 72 140 L 68 140 L 68 156 L 52 156 L 52 140 L 48 140 L 48 156 L 32 156 L 32 140 L 28 140 z M 152 140 L 168 140 L 168 156 L 152 156 L 152 140 z "
     id="rect823" />
</svg>
