<?xml version="1.0" encoding="UTF-8" standalone="no"?>
<svg
   xmlns:dc="http://purl.org/dc/elements/1.1/"
   xmlns:cc="http://creativecommons.org/ns#"
   xmlns:rdf="http://www.w3.org/1999/02/22-rdf-syntax-ns#"
   xmlns:svg="http://www.w3.org/2000/svg"
   xmlns="http://www.w3.org/2000/svg"
   xmlns:sodipodi="http://sodipodi.sourceforge.net/DTD/sodipodi-0.dtd"
   xmlns:inkscape="http://www.inkscape.org/namespaces/inkscape"
   viewBox="0 0 192 192"
   version="1.1"
   id="svg16"
   sodipodi:docname="lightwave-3d-alt.svg"
   inkscape:version="0.92.4 (5da689c313, 2019-01-14)">
  <metadata
     id="metadata20">
    <rdf:RDF>
      <cc:Work
         rdf:about="">
        <dc:format>image/svg+xml</dc:format>
        <dc:type
           rdf:resource="http://purl.org/dc/dcmitype/StillImage" />
        <dc:title></dc:title>
      </cc:Work>
    </rdf:RDF>
  </metadata>
  <sodipodi:namedview
     pagecolor="#ffffff"
     bordercolor="#666666"
     borderopacity="1"
     objecttolerance="10"
     gridtolerance="10"
     guidetolerance="10"
     inkscape:pageopacity="0"
     inkscape:pageshadow="2"
     inkscape:window-width="1920"
     inkscape:window-height="1017"
     id="namedview18"
     showgrid="true"
     inkscape:zoom="3.4766083"
     inkscape:cx="77.523769"
     inkscape:cy="105.18043"
     inkscape:window-x="-8"
     inkscape:window-y="-8"
     inkscape:window-maximized="1"
     inkscape:current-layer="svg16"
     inkscape:snap-global="false">
    <inkscape:grid
       type="xygrid"
       id="grid827"
       spacingx="4"
       spacingy="4" />
  </sodipodi:namedview>
  <defs
     id="defs4">
    <style
       id="style2">.a{fill:none;stroke:#b1b5bd;stroke-linecap:round;stroke-linejoin:round;isolation:isolate;opacity:0.63;}</style>
  </defs>
  <circle
     class="a"
     cx="96"
     cy="96"
     r="88"
     id="circle8"
     style="fill:#9abeff;stroke:none;opacity:1" />
  <path
     style="fill:#54688c;stroke-width:1.01707172"
     d="m 79.025391,9.734375 c -2.54019,0.488428 -5.057608,1.08862 -7.544922,1.798828 -6.960777,11.152874 -16.203125,27.959581 -16.203125,30.585938 0,1.506475 3.050171,1.352592 8.035156,-0.40625 2.322809,-0.81949 7.744686,-2.215955 12.048828,-3.105469 4.304165,-0.889032 7.971877,-1.760765 8.148438,-1.9375 0.176518,-0.176549 -0.896229,-3.927928 -2.382813,-8.335938 -2.401491,-7.120794 -2.641037,-9.063147 -2.152344,-17.421875 0.02438,-0.417117 0.03107,-0.774624 0.05078,-1.177734 z M 28.464844,39.607422 c -5.182261,6.234705 -9.4781,13.155633 -12.765625,20.566406 0.466627,3.265813 0.971589,5.668336 1.484375,6.498047 1.102909,1.784532 2.750653,0.926139 8.582031,-4.472656 3.216737,-2.978087 7.967821,-6.755813 10.558594,-8.392578 2.590758,-1.636858 4.711898,-3.512179 4.71289,-4.167969 9.95e-4,-0.656266 -3.21424,-3.330445 -7.144531,-5.94336 -2.000417,-1.329877 -3.799498,-2.682825 -5.427734,-4.08789 z m 73.099606,1.68164 C 90.674457,41.315022 79.613847,42.34669 71.041016,44.603516 40.654794,52.602855 17.954231,72.555801 8.1328125,99.759766 10.145922,146.83519 48.881563,183.97191 96,184 c 12.75936,-0.0355 25.3584,-2.84519 36.92383,-8.23438 -0.36487,-0.1404 -0.71357,-0.26419 -1.0918,-0.41796 -10.1123,-4.11341 -15.44608,-4.11631 -31.15039,-0.0195 -13.462025,3.51198 -17.441858,3.75552 -27.263671,1.67383 -9.932153,-2.10512 -17.859512,-6.24662 -24.308594,-12.69922 -17.2405,-17.2498 -18.872751,-46.24039 -3.689453,-65.531246 19.737683,-25.077247 61.895828,-22.52393 71.976558,4.359376 4.53772,12.10116 1.94542,25.21335 -6.72851,34.03516 -5.5036,5.59738 -11.577724,8.02301 -21.318361,8.51171 -7.369375,0.36971 -8.663997,0.13813 -13.730468,-2.46679 -7.647489,-3.93188 -10.379529,-8.68275 -9.917969,-17.24805 0.393694,-7.30689 3.595712,-12.41643 9.722656,-15.51758 8.416465,-4.26001 15.25289,-3.56842 19.953125,2.01758 5.657967,6.72408 4.290937,13.991 -3.925781,20.85938 -2.554402,2.13523 -4.644531,4.24221 -4.644531,4.68359 0,1.45839 6.54225,0.7894 10.6875,-1.09375 7.329529,-3.32974 12.693359,-11.55479 12.693359,-19.46289 0,-9.41176 -8.31866,-19.571406 -18.677734,-22.810548 -12.000071,-3.752186 -24.406281,-0.365133 -33.853516,9.242188 -7.253663,7.37652 -9.855109,14.27707 -9.912109,26.2832 -0.03789,7.95878 0.33369,9.97987 2.853515,15.48242 3.403593,7.43249 11.428799,15.55889 18.664063,18.9004 6.929039,3.19973 26.791778,3.14143 37.865231,-0.11133 9.90208,-2.90837 14.04182,-2.8177 20.71094,0.45312 3.87601,1.90127 6.27638,2.48684 8.20117,2.00391 4.3998,-1.10429 8.10812,-8.25975 11.68555,-22.54492 4.39035,-17.53114 6.30174,-21.30952 12.32031,-24.35938 4.97298,-2.52001 6.09375,-4.02202 6.09375,-8.16797 0,-4.75201 -5.84781,-14.967385 -18.99805,-33.191404 -10.32903,-14.314222 -11.15069,-17.179614 -6.45703,-22.52539 1.78135,-2.028885 3.08833,-4.503356 2.9043,-5.498047 -1.06314,-5.750476 -21.23344,-9.365965 -42.02344,-9.316407 z m 7.15235,10.22461 c 2.01903,0.02975 4.1828,0.230615 6.44922,0.617187 9.1695,1.564035 9.73208,2.578186 4.1875,7.558594 -2.51727,2.261065 -5.55024,4.75682 -6.74024,5.544922 -2.90351,1.922451 -7.41014,3.014909 -10.7207,2.599609 -3.983751,-0.499423 -7.966799,-4.615665 -7.966799,-8.234375 0,-5.1284 6.04187,-8.214836 14.791019,-8.085937 z m 27.375,34.658203 c 2.13424,0.01152 4.44497,0.957855 6.46289,3.107422 2.64426,2.816795 6.24248,10.662751 6.27148,13.677733 0.0188,1.92573 -0.50123,2.27837 -3.2832,2.20117 -7.59718,-0.20099 -14.45014,-3.80479 -15.96485,-8.394528 -2.02108,-6.123907 1.81835,-10.617138 6.51368,-10.591797 z m -2.67774,45.896485 c 1.75634,0.10011 3.3215,1.15751 3.84766,3.25391 0.68483,2.72854 -0.25288,9.0381 -1.76172,11.85742 -2.96598,5.54194 -10.40818,-4.60649 -8.00781,-10.91992 1.08908,-2.86461 3.66373,-4.32013 5.92187,-4.19141 z"
     id="path839"
     inkscape:connector-curvature="0"
     sodipodi:nodetypes="ccsccccccccccccccsccccccccccccccccsssscccccccccsscccssccccsssccccsccccc" />
</svg>
