<?xml version="1.0" encoding="UTF-8" standalone="no"?>
<svg
   xmlns:dc="http://purl.org/dc/elements/1.1/"
   xmlns:cc="http://creativecommons.org/ns#"
   xmlns:rdf="http://www.w3.org/1999/02/22-rdf-syntax-ns#"
   xmlns:svg="http://www.w3.org/2000/svg"
   xmlns="http://www.w3.org/2000/svg"
   xmlns:xlink="http://www.w3.org/1999/xlink"
   xmlns:sodipodi="http://sodipodi.sourceforge.net/DTD/sodipodi-0.dtd"
   xmlns:inkscape="http://www.inkscape.org/namespaces/inkscape"
   viewBox="0 0 192 192"
   version="1.1"
   id="svg16"
   sodipodi:docname="paint_tool_sai.svg"
   inkscape:version="0.92.4 (5da689c313, 2019-01-14)">
  <metadata
     id="metadata20">
    <rdf:RDF>
      <cc:Work
         rdf:about="">
        <dc:format>image/svg+xml</dc:format>
        <dc:type
           rdf:resource="http://purl.org/dc/dcmitype/StillImage" />
        <dc:title></dc:title>
      </cc:Work>
    </rdf:RDF>
  </metadata>
  <sodipodi:namedview
     pagecolor="#ffffff"
     bordercolor="#666666"
     borderopacity="1"
     objecttolerance="10"
     gridtolerance="10"
     guidetolerance="10"
     inkscape:pageopacity="0"
     inkscape:pageshadow="2"
     inkscape:window-width="1920"
     inkscape:window-height="1017"
     id="namedview18"
     showgrid="true"
     inkscape:zoom="3.4766083"
     inkscape:cx="50.044922"
     inkscape:cy="100.78702"
     inkscape:window-x="-8"
     inkscape:window-y="-8"
     inkscape:window-maximized="1"
     inkscape:current-layer="svg16"
     inkscape:snap-global="true"
     showguides="false">
    <inkscape:grid
       type="xygrid"
       id="grid827"
       spacingx="4"
       spacingy="4" />
  </sodipodi:namedview>
  <defs
     id="defs4">
    <linearGradient
       inkscape:collect="always"
       id="linearGradient857">
      <stop
         style="stop-color:#ff837d;stop-opacity:1;"
         offset="0"
         id="stop853" />
      <stop
         id="stop865"
         offset="0.25"
         style="stop-color:#f8c18c;stop-opacity:1" />
      <stop
         id="stop861"
         offset="0.5"
         style="stop-color:#f9de81;stop-opacity:1" />
      <stop
         style="stop-color:#98dc9a;stop-opacity:1"
         offset="0.75"
         id="stop863" />
      <stop
         id="stop867"
         offset="0.875"
         style="stop-color:#96dfd3;stop-opacity:1" />
      <stop
         style="stop-color:#96dfd3;stop-opacity:0"
         offset="1"
         id="stop855" />
    </linearGradient>
    <style
       id="style2">.a{fill:none;stroke:#b1b5bd;stroke-linecap:round;stroke-linejoin:round;isolation:isolate;opacity:0.63;}</style>
    <linearGradient
       inkscape:collect="always"
       xlink:href="#linearGradient857"
       id="linearGradient859"
       x1="156"
       y1="164"
       x2="72"
       y2="36"
       gradientUnits="userSpaceOnUse" />
  </defs>
  <circle
     class="a"
     cx="96"
     cy="96"
     r="88"
     id="circle8"
     style="fill:#98dc9a;stroke:none;opacity:1" />
  <rect
     style="opacity:1;vector-effect:none;fill:#ffffff;fill-opacity:1;fill-rule:evenodd;stroke:none;stroke-width:4;stroke-linecap:round;stroke-linejoin:round;stroke-miterlimit:4;stroke-dasharray:none;paint-order:stroke fill markers"
     id="rect826"
     width="152"
     height="152"
     x="20"
     y="20"
     ry="76" />
  <path
     inkscape:connector-curvature="0"
     d="m 164.6017,96.3544 c 0.016,10.9158 -11.332,18.1378 -21.214,13.5008 l -28.725,-13.4787 28.725,-13.4789 c 9.865,-4.629 21.197,2.5597 21.214,13.4568 z m -20.183,-48.4188 c -7.702,-7.6704 -20.764,-4.7438 -24.458,5.4799 l -10.758,29.7802 29.78,-10.7582 c 10.249,-3.7025 13.158,-16.8124 5.436,-24.5019 z M 96,28 C 85.1472,28.0161 77.9877,39.3026 82.5979,49.1276 L 96.022,77.736 109.4457,49.1276 C 114.0647,39.2853 106.8717,27.9839 96,28 Z M 47.7044,48.0589 c -7.6739,7.6739 -4.7647,20.7223 5.4422,24.4096 L 82.8412,83.1957 72.114,53.5012 C 68.4267,43.2942 55.3783,40.385 47.7044,48.0589 Z M 27.6455,96.3545 c -0.0161,10.8717 11.2854,18.0647 21.1276,13.4457 L 77.3815,96.3765 48.7731,82.9524 c -9.825,-4.6102 -21.1115,2.5493 -21.1276,13.4021 z m 19.9356,48.4187 c 7.6895,7.722 20.7994,4.813 24.5019,-5.436 l 10.7582,-29.78 -29.7802,10.758 c -10.2237,3.694 -13.1503,16.756 -5.4799,24.458 z m 48.4188,20.183 c 10.9158,0.016 18.1378,-11.332 13.5008,-21.214 l -13.4787,-28.725 -13.4789,28.725 c -4.629,9.865 2.5597,21.197 13.4568,21.214 z m 48.5428,-20.059 c 7.718,-7.718 4.792,-20.842 -5.474,-24.551 l -29.866,-10.789 10.789,29.866 c 3.709,10.266 16.833,13.192 24.551,5.474 z"
     id="path4"
     style="clip-rule:evenodd;fill:#98dc9a;fill-rule:evenodd" />
  <path
     style="fill:#8e6f60;stroke:none;stroke-width:1px;stroke-linecap:butt;stroke-linejoin:miter;stroke-opacity:1"
     d="M 7.9322034,95.38983 C 9.0261626,93.057981 12.139548,94.01184 14.033898,94.779661 51.515745,109.97187 120.61017,143.18644 120.61017,143.18644 l -10.98305,9.35593 c 0,0 -69.137967,-39.92752 -97.42373,-52.881353 C 10.372771,98.822661 7.0770443,97.212661 7.9322034,95.38983 Z"
     id="path839"
     inkscape:connector-curvature="0"
     sodipodi:nodetypes="ssccss" />
  <path
     style="fill:#d2d2d2;stroke:none;stroke-width:1px;stroke-linecap:butt;stroke-linejoin:miter;stroke-opacity:1"
     d="m 109.62712,152.54237 c 0,0 -1.05144,-2.96322 2.23729,-7.32203 3.25747,-4.31738 8.74576,-2.0339 8.74576,-2.0339 l 18.30508,11.18644 -5.69491,10.37288 z"
     id="path841"
     inkscape:connector-curvature="0"
     sodipodi:nodetypes="cscccc" />
  <path
     style="fill:#d3b69a;stroke:none;stroke-width:1px;stroke-linecap:butt;stroke-linejoin:miter;stroke-opacity:1"
     d="m 14.238015,124.98066 c 0,0 -1.235791,-1.82256 0.719091,-4.74601 2.000601,-2.99182 5.033642,-2.87636 5.033642,-2.87636 l 93.769552,46.16568 -7.47856,9.49201 z"
     id="path843"
     inkscape:connector-curvature="0"
     sodipodi:nodetypes="cscccc" />
  <path
     style="fill:#a0a5af;stroke:none;stroke-width:1px;stroke-linecap:butt;stroke-linejoin:miter;stroke-opacity:1"
     d="m 106.7132,167.98234 c 3.36344,-5.39023 7.0471,-4.45837 7.0471,-4.45837 l 4.31455,3.8831 -3.73928,9.63582 -8.05383,-4.02691 c 0,0 -1.66209,-1.67853 0.43146,-5.03364 z"
     id="path845"
     inkscape:connector-curvature="0"
     sodipodi:nodetypes="sccccs" />
  <path
     style="fill:#fcecdc;stroke:none;stroke-width:1px;stroke-linecap:butt;stroke-linejoin:miter;stroke-opacity:1"
     d="m 118.07485,167.40707 c 0,0 6.50457,-0.051 9.34819,1.29436 3.1279,1.4798 4.89864,4.91288 7.62237,7.0471 2.12458,1.66475 6.75946,4.45837 6.75946,4.45837 0,0 -9.07463,3.37671 -13.80656,3.30782 -7.85978,-0.11442 -13.66274,-6.47183 -13.66274,-6.47183 0,0 -0.61199,-3.02022 0.71909,-5.89655 1.20596,-2.60596 3.02019,-3.73927 3.02019,-3.73927 z"
     id="path847"
     inkscape:connector-curvature="0"
     sodipodi:nodetypes="csscscsc" />
  <path
     style="fill:url(#linearGradient859);stroke:none;stroke-width:1px;stroke-linecap:butt;stroke-linejoin:miter;stroke-opacity:1;fill-opacity:1;opacity:0.75"
     d="m 138.91525,154.37288 c 0,0 25.07825,-38.74383 -26.23728,-82.57627 C 83.223285,46.637157 36,48 36,48 L 68,12 c 0,0 44,12 68.47458,41.084746 60.1746,71.509414 23.59522,114.034684 23.59522,114.034684 z"
     id="path851"
     inkscape:connector-curvature="0"
     sodipodi:nodetypes="csccscc" />
  <path
     style="fill:#fcecdc;stroke:none;stroke-width:1px;stroke-linecap:butt;stroke-linejoin:miter;stroke-opacity:1"
     d="m 133.22034,164.74576 c 0,0 -0.95915,-3.47747 1.2498,-6.97452 2.00818,-3.17921 4.44511,-3.39836 4.44511,-3.39836 0,0 3.73741,-0.45032 6.48508,0.95345 3.35088,1.71194 5.06645,5.62205 8.05383,7.91 2.03005,1.55475 6.61564,3.8831 6.61564,3.8831 0,0 -8.61095,4.3571 -15.24474,3.73928 -7.52384,-0.70071 -11.60472,-6.11295 -11.60472,-6.11295 z"
     id="path849"
     inkscape:connector-curvature="0"
     sodipodi:nodetypes="cscsscsc" />
</svg>
