<?xml version="1.0" encoding="UTF-8" standalone="no"?>
<svg
   xmlns:dc="http://purl.org/dc/elements/1.1/"
   xmlns:cc="http://creativecommons.org/ns#"
   xmlns:rdf="http://www.w3.org/1999/02/22-rdf-syntax-ns#"
   xmlns:svg="http://www.w3.org/2000/svg"
   xmlns="http://www.w3.org/2000/svg"
   xmlns:sodipodi="http://sodipodi.sourceforge.net/DTD/sodipodi-0.dtd"
   xmlns:inkscape="http://www.inkscape.org/namespaces/inkscape"
   viewBox="0 0 192 192"
   version="1.1"
   id="svg16"
   sodipodi:docname="softimage-xsi.svg"
   inkscape:version="0.92.4 (5da689c313, 2019-01-14)">
  <metadata
     id="metadata20">
    <rdf:RDF>
      <cc:Work
         rdf:about="">
        <dc:format>image/svg+xml</dc:format>
        <dc:type
           rdf:resource="http://purl.org/dc/dcmitype/StillImage" />
        <dc:title></dc:title>
      </cc:Work>
    </rdf:RDF>
  </metadata>
  <sodipodi:namedview
     pagecolor="#ffffff"
     bordercolor="#666666"
     borderopacity="1"
     objecttolerance="10"
     gridtolerance="10"
     guidetolerance="10"
     inkscape:pageopacity="0"
     inkscape:pageshadow="2"
     inkscape:window-width="1920"
     inkscape:window-height="1017"
     id="namedview18"
     showgrid="true"
     inkscape:zoom="6.9532167"
     inkscape:cx="119.35102"
     inkscape:cy="110.93316"
     inkscape:window-x="-8"
     inkscape:window-y="-8"
     inkscape:window-maximized="1"
     inkscape:current-layer="svg16">
    <inkscape:grid
       type="xygrid"
       id="grid827"
       spacingx="4"
       spacingy="4" />
  </sodipodi:namedview>
  <defs
     id="defs4">
    <style
       id="style2">.a{fill:none;stroke:#b1b5bd;stroke-linecap:round;stroke-linejoin:round;isolation:isolate;opacity:0.63;}</style>
  </defs>
  <circle
     class="a"
     cx="96"
     cy="96"
     r="88"
     id="circle8"
     style="fill:#56595b;stroke:none;opacity:1" />
  <path
     style="opacity:1;vector-effect:none;fill:#ffffff;fill-opacity:1;fill-rule:evenodd;stroke:none;stroke-width:4;stroke-linecap:round;stroke-linejoin:round;stroke-miterlimit:4;stroke-dasharray:none;paint-order:stroke fill markers"
     d="m 104,56 c -5.39067,0.06712 -9.664378,1.206828 -15.607421,4.039063 -2.437358,1.161555 -4.26486,2.483655 -8.189453,5.923828 -8.281406,7.259218 -9.049886,8.07679 -8.96875,9.541015 0.06933,1.251191 -1.191343,3.520506 -6.22461,11.199219 -3.17584,4.845038 -5.969227,11.62062 -5.134765,12.45508 0.443083,0.44308 2.169587,-2.059218 4.195312,-6.08008 2.185627,-4.338255 4.896515,-7.969235 9.335938,-12.501953 4.244715,-4.333917 9.763272,-8.873047 10.787109,-8.873047 0.688158,0 1.997154,2.20884 2,3.375 0.0011,0.515625 0.656957,2.45625 1.457031,4.3125 0.800074,1.85625 1.72432,4.43234 2.054688,5.724609 0.788884,3.085819 2.708018,7.560254 3.691406,8.607422 0.430182,0.458078 1.389704,1.027864 2.132813,1.265625 1.943316,0.621781 3.603692,1.978676 4.171872,3.410154 0.91011,2.292975 1.3111,2.515385 3.22657,1.787115 0.56798,-0.215945 1.26194,-0.721845 1.54296,-1.123045 0.71876,-1.02618 1.52337,-1.391708 5.25586,-2.392583 1.80317,-0.483525 4.20742,-1.154565 5.3418,-1.490235 1.13438,-0.335669 3.32813,-0.784431 4.875,-0.998046 1.54688,-0.213615 3.825,-0.707257 5.0625,-1.095704 1.2375,-0.388452 2.79689,-0.813847 3.46484,-0.947265 1.79268,-0.358072 1.86929,-0.935547 0.125,-0.935547 -2.06561,0 -13.56202,1.061008 -16.33984,1.507812 -3.35253,0.539243 -8.58071,0.455695 -10.01758,-0.160156 -0.67731,-0.290299 -1.97905,-0.728565 -2.89062,-0.972656 -1.08895,-0.291593 -2.276955,-1.041544 -3.4668,-2.189453 -1.55046,-1.495807 -2.274993,-2.772952 -5.029297,-8.873047 -3.694523,-8.182442 -4.361891,-9.883223 -4.066406,-10.361328 0.116749,-0.188905 1.207175,-0.843852 2.421875,-1.457031 6.965689,-3.516269 12.071868,-4.510738 19.791018,-3.853516 8.11378,0.69082 11.2328,2.198288 15.54492,7.515625 1.21263,1.495313 2.38551,2.71875 2.60547,2.71875 0.21996,0 0.64094,0.295313 0.93554,0.65625 0.48213,0.590681 0.50578,0.543847 0.24415,-0.46875 -0.15986,-0.61875 -0.2983,-2.221875 -0.3086,-3.5625 -0.0241,-3.133905 -1.51984,-6.136825 -4.42773,-8.886719 -4.93552,-4.66736 -9.5356,-6.47991 -17.20508,-6.78125 -0.82387,-0.03237 -1.61662,-0.04474 -2.38672,-0.03516 z M 72.566407,76.849609 c 0.0688,-0.0056 0.108893,0.03219 0.111328,0.123047 0.01756,0.655219 -2.131973,3.730469 -2.607422,3.730469 -0.169098,0 -0.220655,-0.329293 -0.115234,-0.732422 0.240436,-0.919428 2.12974,-3.081973 2.611328,-3.121094 z m 55.720703,18.482422 c -0.63403,0.003 -2.02245,1.94699 -4.41602,6.183599 -0.58263,1.03125 -2.0153,2.8875 -3.18359,4.125 -1.16828,1.23749 -2.63783,3.01093 -3.26562,3.94141 -1.46375,2.16949 -4.28014,4.89774 -6.70118,6.49217 -1.04606,0.68892 -2.26309,1.61466 -2.70507,2.05664 -0.44197,0.44197 -1.22913,0.91031 -1.75,1.04103 -0.52352,0.1314 -0.95269,0.51322 -0.95899,0.85352 -0.0241,1.29908 -0.73386,-0.62441 -2.03711,-5.51955 -0.7173,-2.69424 -1.58399,-5.53667 -1.92578,-6.31834 -0.34179,-0.78169 -0.72504,-2.5063 -0.85351,-3.83205 l -0.23438,-2.41015 -1.875,-0.42382 c -2.519584,-0.56843 -3.701559,-1.41367 -5.058594,-3.619145 -0.626655,-1.018442 -1.373813,-1.942107 -1.662109,-2.052736 -1.394738,-0.535211 -8.12386,0.603657 -13.341797,2.257816 -2.990625,0.94807 -7.209375,2.138375 -9.375,2.644525 -2.165625,0.50616 -5.628692,1.39089 -7.695312,1.9668 -3.142168,0.87564 -3.736328,1.15873 -3.625,1.72656 0.100293,0.51156 0.379937,0.63458 1.132812,0.49804 0.54965,-0.0997 2.6875,-0.45765 4.75,-0.79491 2.0625,-0.33727 4.717568,-0.85684 5.900391,-1.15429 1.182824,-0.29746 2.645823,-0.54102 3.251953,-0.54102 0.606129,0 1.916687,-0.16408 2.912109,-0.36523 0.995422,-0.20116 3.887719,-0.6395 6.425781,-0.97266 l 4.613282,-0.60547 1.232422,0.84375 c 0.677411,0.46416 1.62241,1.4149 2.099609,2.11132 0.583826,0.85205 1.784651,1.70651 3.669922,2.61329 2.778783,1.33654 2.81118,1.36916 4.066406,4.08593 0.696075,1.50657 1.265625,2.89424 1.265625,3.08203 0,0.18781 0.30815,0.61942 0.68555,0.96095 0.37739,0.34154 1.23331,1.70764 1.90039,3.03515 1.15007,2.28869 1.18036,2.46163 0.61133,3.33008 -1.45475,2.22023 -7.97624,3.97377 -14.82227,3.98632 -4.602083,0.008 -7.664322,-0.61777 -9.744141,-1.99414 -0.819807,-0.54251 -1.635747,-0.98632 -1.814453,-0.98632 -0.178705,0 -0.630599,-0.33751 -1.003906,-0.75 -0.373307,-0.4125 -0.890843,-0.75 -1.150391,-0.75 -0.259549,0 -1.852924,-1.02376 -3.541015,-2.27539 -1.688092,-1.25165 -3.10051,-2.22196 -3.138672,-2.15625 -0.998869,1.7198 -1.06413,2.20239 -0.613281,4.5918 0.422036,2.2367 0.691851,2.71997 2.888671,5.16991 1.332782,1.48635 2.707396,2.89911 3.052735,3.14062 1.13668,0.79491 6.209379,2.41467 8.501953,2.71485 2.980702,0.39029 8.807936,0.0767 9.75,-0.52539 0.4125,-0.26361 1.425,-0.59168 2.25,-0.72852 2.738325,-0.45419 6.95244,-1.71882 9.43359,-2.83202 1.34706,-0.6044 2.56893,-1.09961 2.71485,-1.09961 0.14593,0 0.63306,0.75936 1.08398,1.6875 0.9196,1.89281 1.77647,2.27501 1.4707,0.65624 -0.10712,-0.56719 -0.31421,-1.64052 -0.45898,-2.38477 l -0.26172,-1.35351 3.61328,-2.72655 c 3.48476,-2.63073 7.16223,-6.53286 11.14063,-11.81641 2.00185,-2.65858 4.82617,-7.6958 4.82617,-8.60938 0,-0.35361 0.59062,-1.699395 1.3125,-2.990235 1.48104,-2.648352 1.59668,-3.213686 0.65625,-3.208984 z"
     id="rect831"
     inkscape:connector-curvature="0" />
</svg>
