<?xml version="1.0" encoding="UTF-8" standalone="no"?>
<svg
   xmlns:dc="http://purl.org/dc/elements/1.1/"
   xmlns:cc="http://creativecommons.org/ns#"
   xmlns:rdf="http://www.w3.org/1999/02/22-rdf-syntax-ns#"
   xmlns:svg="http://www.w3.org/2000/svg"
   xmlns="http://www.w3.org/2000/svg"
   xmlns:sodipodi="http://sodipodi.sourceforge.net/DTD/sodipodi-0.dtd"
   xmlns:inkscape="http://www.inkscape.org/namespaces/inkscape"
   viewBox="0 0 192 192"
   version="1.1"
   id="svg16"
   sodipodi:docname="stencyl.svg"
   inkscape:version="0.92.4 (5da689c313, 2019-01-14)">
  <metadata
     id="metadata20">
    <rdf:RDF>
      <cc:Work
         rdf:about="">
        <dc:format>image/svg+xml</dc:format>
        <dc:type
           rdf:resource="http://purl.org/dc/dcmitype/StillImage" />
        <dc:title></dc:title>
      </cc:Work>
    </rdf:RDF>
  </metadata>
  <sodipodi:namedview
     pagecolor="#ffffff"
     bordercolor="#666666"
     borderopacity="1"
     objecttolerance="10"
     gridtolerance="10"
     guidetolerance="10"
     inkscape:pageopacity="0"
     inkscape:pageshadow="2"
     inkscape:window-width="1920"
     inkscape:window-height="1017"
     id="namedview18"
     showgrid="true"
     inkscape:zoom="2.9469688"
     inkscape:cx="70.107299"
     inkscape:cy="77.447476"
     inkscape:window-x="-8"
     inkscape:window-y="-8"
     inkscape:window-maximized="1"
     inkscape:current-layer="svg16"
     inkscape:snap-global="false">
    <inkscape:grid
       type="xygrid"
       id="grid827"
       spacingx="4"
       spacingy="4" />
  </sodipodi:namedview>
  <defs
     id="defs4">
    <style
       id="style2">.a{fill:none;stroke:#b1b5bd;stroke-linecap:round;stroke-linejoin:round;isolation:isolate;opacity:0.63;}</style>
  </defs>
  <rect
     class="a"
     x="20"
     y="20"
     width="152"
     height="152"
     rx="10"
     id="rect6"
     style="fill:#ba6561;stroke:none;opacity:1" />
  <path
     style="fill:#ffffff;stroke:none;stroke-width:1px;stroke-linecap:butt;stroke-linejoin:miter;stroke-opacity:1"
     d="m 125.7224,125.49098 -2.88432,-10.68895 c 0,0 -7.95623,4.86345 -17.30591,3.73265 C 94.481218,117.19812 82.401202,110.47601 83.136272,93.763466 83.86659,77.158961 95.563897,71.710933 106.3805,71.02824 c 9.42235,-0.594694 16.11825,4.071981 16.11825,4.071981 l 3.39332,-10.858615 c 0,0 -16.1036,-7.041015 -34.060302,-2.127043 -17.405642,4.763169 -24.870148,22.082766 -24.813752,33.175896 0.05594,11.002731 5.570076,26.696821 25.491829,33.023261 14.704025,4.66948 33.212555,-2.82274 33.212555,-2.82274 z"
     id="path829"
     inkscape:connector-curvature="0"
     sodipodi:nodetypes="ccsssccsssc" />
  <path
     style="fill:#ffffff;stroke:none;stroke-width:1px;stroke-linecap:butt;stroke-linejoin:miter;stroke-opacity:1"
     d="m 104.61548,140.53206 7.55823,-18.71561 -23.274546,-2.87933 -12.477075,-21.474963 8.877919,-24.474264 21.714912,-6.238537 2.03952,-4.918848 -4.31899,-11.037413 -4.6789,10.917442 -10.317582,2.339451 -9.357807,-7.018355 2.039522,11.517301 -7.078341,6.898383 -11.877217,-1.859564 8.637976,9.717722 -3.479185,8.27806 -11.157385,3.959072 11.157385,3.8391 2.339452,9.657733 -7.438257,8.21808 12.896978,-1.79958 5.698664,7.49824 -1.61962,11.0974 11.5173,-9.11786 7.498242,2.21948 z"
     id="path831"
     inkscape:connector-curvature="0"
     sodipodi:nodetypes="cccccccccccccccccccccccccc" />
</svg>
