<?xml version="1.0" encoding="UTF-8" standalone="no"?>
<svg
   xmlns:dc="http://purl.org/dc/elements/1.1/"
   xmlns:cc="http://creativecommons.org/ns#"
   xmlns:rdf="http://www.w3.org/1999/02/22-rdf-syntax-ns#"
   xmlns:svg="http://www.w3.org/2000/svg"
   xmlns="http://www.w3.org/2000/svg"
   xmlns:sodipodi="http://sodipodi.sourceforge.net/DTD/sodipodi-0.dtd"
   xmlns:inkscape="http://www.inkscape.org/namespaces/inkscape"
   inkscape:export-ydpi="96"
   inkscape:export-xdpi="96"
   inkscape:export-filename="/home/jphilippe/github/android/app/src/main/res/drawable-nodpi/syncthing.png"
   inkscape:version="0.92.4 (5da689c313, 2019-01-14)"
   sodipodi:docname="syncthing.svg"
   xml:space="preserve"
   enable-background="new 0 0 192 192"
   viewBox="0 0 192 192"
   y="0px"
   x="0px"
   id="Слой_1"
   version="1.1"><metadata
   id="metadata15"><rdf:RDF><cc:Work
       rdf:about=""><dc:format>image/svg+xml</dc:format><dc:type
         rdf:resource="http://purl.org/dc/dcmitype/StillImage" /></cc:Work></rdf:RDF></metadata><defs
   id="defs13" /><sodipodi:namedview
   inkscape:current-layer="Слой_1"
   inkscape:window-maximized="1"
   inkscape:window-y="-8"
   inkscape:window-x="-8"
   inkscape:cy="86.520393"
   inkscape:cx="95.345456"
   inkscape:zoom="4.5833334"
   showgrid="false"
   id="namedview11"
   inkscape:window-height="1017"
   inkscape:window-width="1920"
   inkscape:pageshadow="2"
   inkscape:pageopacity="0"
   guidetolerance="10"
   gridtolerance="10"
   objecttolerance="10"
   borderopacity="1"
   bordercolor="#666666"
   pagecolor="#ffffff"
   inkscape:document-rotation="0" />


<circle
   style="stroke-width:0.921875;fill:#9abeff;fill-opacity:1"
   id="circle6"
   r="88.5"
   cy="96"
   cx="96"
   fill="#88bfff" />
<path
   style="stroke-width:0.444447;fill:#ffffff"
   id="path8"
   d="m 130.85438,86.263914 c 1.42223,-1.644454 1.91112,-3.555576 1.51112,-5.733366 -0.31111,-1.60001 -1.2889,-2.755572 -2.40001,-3.866689 -1.24445,-0.84445 -2.5778,-1.466676 -4.13336,-1.333341 -0.88889,0.08889 -1.42223,-0.266669 -1.95557,-0.933339 C 113.60984,61.55266 95.254176,57.908195 80.854093,65.774907 c -3.155574,1.733343 -5.911145,3.911133 -8.488938,6.400037 -3.422242,3.777799 -6.088924,7.955601 -7.688933,12.800074 -1.333341,3.955578 -1.822233,8.044491 -1.822233,12.177848 0.133334,0.66667 -0.133334,0.977783 -0.666671,1.377786 -1.866677,1.333341 -2.84446,3.377798 -2.666682,5.511138 0.222224,3.02224 1.955567,5.60004 5.555588,6.31115 0.75556,0.13334 1.244452,0.48889 1.600009,1.20001 0.800005,1.60001 1.688899,3.15557 2.711127,4.5778 0.222223,0.26667 0.444447,0.4889 0.622226,0.75556 3.822244,4.93337 8.622272,8.66672 14.444528,10.9334 9.733389,3.82224 19.333446,3.28891 28.666836,-1.37779 0.48889,-0.22222 0.84444,-0.48889 1.46667,-0.13333 2.62224,1.37779 5.20003,1.15556 7.42227,-0.75556 2.22223,-1.91112 2.8889,-4.40003 2.00001,-7.20004 -0.13334,-0.35556 -0.17778,-0.62223 0.0889,-0.97778 1.77779,-2.13335 3.11113,-4.53336 4.40002,-7.02227 0,-0.0889 0.0444,-0.22222 0.0889,-0.31111 3.20002,-7.28893 3.82225,-14.800086 1.91113,-22.533464 -0.13334,-0.577781 0.0444,-0.888894 0.35555,-1.244452 z M 68.009574,97.463979 c -0.400002,-0.133334 -0.711115,-0.222224 -0.711115,-0.75556 -0.04444,-5.422254 0.977783,-10.577839 3.822244,-15.288977 4.177802,-7.422266 10.355616,-12.355627 18.577885,-14.355639 12.000072,-2.888905 22.222352,0.444447 30.489062,9.688945 0.48889,0.533336 0.71112,0.977783 0.13334,1.644454 -0.62223,0.75556 -0.80001,1.777788 -1.06668,2.666682 0.0889,0.888894 -0.22222,1.866677 0.26667,2.711127 0.17778,0.311113 0,0.577781 -0.22222,0.75556 -2.35557,1.911122 -4.71114,3.777799 -7.02226,5.733366 -1.51112,1.244452 -3.02224,2.577793 -4.48892,3.866689 -0.4,0.355558 -0.75556,0.488892 -1.33334,0.266668 -3.91113,-1.822232 -7.733377,0.488892 -8.80005,3.644466 -0.222224,0.66667 -0.622226,0.800004 -1.200007,0.844449 -6.444482,0.577781 -12.888963,1.200011 -19.333445,1.777791 -1.333341,0.13333 -2.666682,0.22222 -3.955578,0.4 -0.577782,0.0444 -0.888894,-0.0444 -1.200007,-0.57778 -0.977784,-1.555566 -2.311125,-2.53335 -3.955579,-3.022241 z m 43.955806,19.777891 c -0.8,1.2889 -1.02222,2.75557 -0.75556,4.26669 0.13334,0.71112 -0.0889,1.02223 -0.71111,1.2889 -4.22225,2.04446 -8.62227,3.11113 -15.066755,3.11113 -9.955613,-0.44445 -18.844553,-5.60003 -24.666809,-15.86676 -0.355558,-0.62223 -0.488892,-1.11112 0.177779,-1.64445 0.711115,-0.57779 1.155562,-1.37779 1.42223,-2.26668 0.177779,-0.57779 0.488892,-0.75556 1.066673,-0.80001 7.600044,-0.66667 15.155643,-1.37778 22.755687,-2.13334 0.933339,-0.0889 1.51112,0 2.088901,0.88889 1.466675,2.22223 3.644464,3.06668 6.266704,2.75557 0.66667,-0.0889 1.02223,0.0889 1.42223,0.62223 1.91112,2.84446 3.86669,5.60003 5.82225,8.40005 0.40001,0.53333 0.53334,0.84444 0.17778,1.37778 z m 9.42228,-3.60002 c -0.44445,0.62223 -0.84445,0.93334 -1.64445,0.57778 -0.93334,-0.4 -1.95557,-0.44445 -2.9778,-0.26667 -0.57778,0.0889 -0.93334,0 -1.24445,-0.48889 -2.00001,-2.8889 -4.00002,-5.77781 -6.04448,-8.66672 -0.31111,-0.4 -0.26667,-0.71111 -0.0444,-1.15556 0.88889,-1.51112 1.15556,-3.15557 0.66667,-4.888915 -0.13333,-0.533336 -0.0889,-0.844449 0.35556,-1.200007 3.82224,-3.155574 7.64449,-6.355592 11.42229,-9.511166 0.35555,-0.311113 0.66667,-0.400002 1.15556,-0.177779 0.75556,0.400003 1.60001,0.666671 2.4889,0.622226 0.57778,0 0.71112,0.266668 0.80001,0.75556 0.53333,2.222235 0.75556,4.44447 0.75556,6.666705 0,6.577816 -1.86668,12.444516 -5.68893,17.733436 z"
   fill="#fefefe" />
</svg>