<?xml version="1.0" encoding="UTF-8" standalone="no"?>
<svg
   xmlns:dc="http://purl.org/dc/elements/1.1/"
   xmlns:cc="http://creativecommons.org/ns#"
   xmlns:rdf="http://www.w3.org/1999/02/22-rdf-syntax-ns#"
   xmlns:svg="http://www.w3.org/2000/svg"
   xmlns="http://www.w3.org/2000/svg"
   xmlns:sodipodi="http://sodipodi.sourceforge.net/DTD/sodipodi-0.dtd"
   xmlns:inkscape="http://www.inkscape.org/namespaces/inkscape"
   viewBox="0 0 192 192"
   version="1.1"
   id="svg16"
   sodipodi:docname="synthedit.svg"
   inkscape:version="0.92.4 (5da689c313, 2019-01-14)">
  <metadata
     id="metadata20">
    <rdf:RDF>
      <cc:Work
         rdf:about="">
        <dc:format>image/svg+xml</dc:format>
        <dc:type
           rdf:resource="http://purl.org/dc/dcmitype/StillImage" />
        <dc:title></dc:title>
      </cc:Work>
    </rdf:RDF>
  </metadata>
  <sodipodi:namedview
     pagecolor="#ffffff"
     bordercolor="#666666"
     borderopacity="1"
     objecttolerance="10"
     gridtolerance="10"
     guidetolerance="10"
     inkscape:pageopacity="0"
     inkscape:pageshadow="2"
     inkscape:window-width="1920"
     inkscape:window-height="1017"
     id="namedview18"
     showgrid="true"
     inkscape:zoom="4.1676432"
     inkscape:cx="101.74499"
     inkscape:cy="87.045226"
     inkscape:window-x="-8"
     inkscape:window-y="-8"
     inkscape:window-maximized="1"
     inkscape:current-layer="svg16"
     inkscape:snap-global="false">
    <inkscape:grid
       type="xygrid"
       id="grid827"
       spacingx="4"
       spacingy="4" />
  </sodipodi:namedview>
  <defs
     id="defs4">
    <style
       id="style2">.a{fill:none;stroke:#b1b5bd;stroke-linecap:round;stroke-linejoin:round;isolation:isolate;opacity:0.63;}</style>
  </defs>
  <rect
     class="a"
     x="20"
     y="20"
     width="152"
     height="152"
     rx="10"
     id="rect6"
     style="fill:#56595b;stroke:none;opacity:1" />
  <rect
     style="opacity:1;vector-effect:none;fill:#f9de81;fill-opacity:1;fill-rule:evenodd;stroke:none;stroke-width:2;stroke-linecap:round;stroke-linejoin:round;stroke-miterlimit:4;stroke-dasharray:none;stroke-opacity:1;paint-order:stroke fill markers"
     id="rect876"
     width="128"
     height="128"
     x="32"
     y="32" />
  <path
     id="path824"
     style="clip-rule:evenodd;fill:#56595b;fill-rule:nonzero;stroke-width:1.67566192;stroke-linejoin:round;stroke-miterlimit:1.41420996"
     d="M 58.749431,56.0909 83.467119,89.036087 87.083198,72.163849 105.08986,85.646222 83.467119,60.112488 80.655359,74.977284 Z"
     inkscape:connector-curvature="0" />
  <path
     id="path826"
     style="clip-rule:evenodd;fill:#56595b;fill-rule:nonzero;stroke-width:1.67566192;stroke-linejoin:round;stroke-miterlimit:1.41420996"
     d="m 119.72844,79.759623 c 0,4.177425 -3.38652,7.565614 -7.56562,7.565614 -4.17909,0 -7.5656,-3.388189 -7.5656,-7.565614 0,-4.179101 3.38651,-7.567289 7.5656,-7.567289 4.1791,0 7.56562,3.388188 7.56562,7.567289"
     inkscape:connector-curvature="0" />
  <path
     id="path828"
     style="clip-rule:evenodd;fill:#56595b;fill-rule:nonzero;stroke-width:1.67566192;stroke-linejoin:round;stroke-miterlimit:1.41420996"
     d="m 93.97687,99.973131 c 6.61049,-0.822747 13.2193,-1.645503 19.8281,-2.469925 2.65257,-0.330107 5.29509,-2.520194 7.55557,-3.818832 3.03796,-1.742689 6.07595,-3.485377 9.11392,-5.229742 3.33122,-1.91193 0.33178,-7.061239 -3.00949,-5.147632 -2.61068,1.499717 -5.22471,2.999434 -7.83372,4.499152 -1.73263,0.995343 -3.46527,1.987335 -5.19622,2.982678 -0.56135,0.320051 -1.1227,0.643454 -1.68404,0.96518 -1.06237,0.608266 2.01581,-0.330105 0.88641,-0.189349 -6.55351,0.817723 -13.10702,1.63377 -19.66053,2.448141 -3.76186,0.469186 -3.807104,6.437888 0,5.960329"
     inkscape:connector-curvature="0" />
  <path
     id="path830"
     style="clip-rule:evenodd;fill:#56595b;fill-rule:nonzero;stroke-width:1.67566192;stroke-linejoin:round;stroke-miterlimit:1.41420996"
     d="m 84.625002,132.28492 c 1.940417,2.22695 2.905597,2.52186 5.48444,3.92943 1.214856,0.66188 2.603979,0.46918 3.611053,-0.46751 4.740446,-4.40364 9.831105,-9.4256 13.966635,-14.37215 10.52484,-12.58088 8.74695,-15.55015 8.90112,-24.778018 0.0653,-3.845643 -7.32264,-3.441808 -7.38632,0.397129 -0.13572,8.234209 -0.99032,13.897939 -5.8447,20.292269 -3.589269,4.73039 -9.485925,10.19137 -13.851026,14.24647 1.204801,-0.15415 2.407927,-0.30831 3.611052,-0.46583 -2.175009,-1.18469 -2.645871,-1.1227 -4.277965,-2.99607 -2.530249,-2.90393 -6.727782,1.33046 -4.214289,4.21428"
     inkscape:connector-curvature="0" />
  <path
     id="path832"
     style="clip-rule:evenodd;fill:#56595b;fill-rule:nonzero;stroke-width:1.67566192;stroke-linejoin:round;stroke-miterlimit:1.41420996"
     d="m 80.357091,109.21776 c -0.157511,2.75982 -0.315025,2.51516 -0.472537,5.27331 -0.120649,2.10797 1.982309,3.15861 3.773592,2.87208 8.716791,-1.38409 17.142024,-1.87004 25.771674,-3.78197 3.75013,-0.83113 2.15826,-6.57698 -1.58518,-5.74752 -8.740249,1.93706 -16.366181,2.29063 -25.771672,3.78197 1.256746,0.96015 2.513494,1.91528 3.771916,2.87544 0.159187,-2.75815 0.3167,-2.51349 0.472536,-5.27331 0.221186,-3.84061 -5.742493,-3.82051 -5.960329,0"
     inkscape:connector-curvature="0" />
  <path
     id="path834"
     style="clip-rule:evenodd;fill:#56595b;fill-rule:nonzero;stroke-width:1.67566192;stroke-linejoin:round;stroke-miterlimit:1.41420996"
     d="m 107.92843,95.634844 c 0,0 0.0201,10.534886 -1.44442,14.194526 2.92738,1.09923 9.38203,-1.20312 9.38203,-1.20312 0,0 1.92534,-13.633184 1.92534,-14.913391 -0.91659,0 -9.86295,1.921985 -9.86295,1.921985"
     inkscape:connector-curvature="0" />
</svg>
