<?xml version="1.0" encoding="UTF-8" standalone="no"?>
<svg
   xmlns:dc="http://purl.org/dc/elements/1.1/"
   xmlns:cc="http://creativecommons.org/ns#"
   xmlns:rdf="http://www.w3.org/1999/02/22-rdf-syntax-ns#"
   xmlns:svg="http://www.w3.org/2000/svg"
   xmlns="http://www.w3.org/2000/svg"
   xmlns:sodipodi="http://sodipodi.sourceforge.net/DTD/sodipodi-0.dtd"
   xmlns:inkscape="http://www.inkscape.org/namespaces/inkscape"
   viewBox="0 0 192 192"
   version="1.1"
   id="svg16"
   sodipodi:docname="xnalara.svg"
   inkscape:version="0.92.4 (5da689c313, 2019-01-14)">
  <metadata
     id="metadata20">
    <rdf:RDF>
      <cc:Work
         rdf:about="">
        <dc:format>image/svg+xml</dc:format>
        <dc:type
           rdf:resource="http://purl.org/dc/dcmitype/StillImage" />
        <dc:title></dc:title>
      </cc:Work>
    </rdf:RDF>
  </metadata>
  <sodipodi:namedview
     pagecolor="#ffffff"
     bordercolor="#666666"
     borderopacity="1"
     objecttolerance="10"
     gridtolerance="10"
     guidetolerance="10"
     inkscape:pageopacity="0"
     inkscape:pageshadow="2"
     inkscape:window-width="1920"
     inkscape:window-height="1017"
     id="namedview18"
     showgrid="true"
     inkscape:zoom="4.1676432"
     inkscape:cx="66.554401"
     inkscape:cy="96.642977"
     inkscape:window-x="-8"
     inkscape:window-y="-8"
     inkscape:window-maximized="1"
     inkscape:current-layer="svg16"
     inkscape:snap-global="false">
    <inkscape:grid
       type="xygrid"
       id="grid827"
       spacingx="4"
       spacingy="4" />
  </sodipodi:namedview>
  <defs
     id="defs4">
    <style
       id="style2">.a{fill:none;stroke:#b1b5bd;stroke-linecap:round;stroke-linejoin:round;isolation:isolate;opacity:0.63;}</style>
  </defs>
  <path
     inkscape:connector-curvature="0"
     id="path861"
     d="m 106.14348,180.06484 c -0.20887,-0.0846 -1.49001,-0.24978 -2.84697,-0.36718 -1.35697,-0.11742 -3.07309,-0.33183 -3.813616,-0.47649 -1.082213,-0.21142 -1.851639,-0.22693 -3.921234,-0.079 -2.82655,0.20199 -3.498106,0.0738 -3.606884,-0.68817 -0.06537,-0.45799 0.866777,-1.14906 1.551536,-1.15025 0.215272,-3.8e-4 0.940382,-0.20734 1.611357,-0.45989 0.670977,-0.25255 1.361116,-0.45918 1.533644,-0.45918 0.172532,0 0.728558,-0.15497 1.23562,-0.34457 1.915157,-0.71577 5.048477,-1.36389 7.993457,-1.65342 l 3.03065,-0.29796 -0.0396,-1.37322 c -0.0218,-0.75527 -0.13434,-1.78845 -0.25012,-2.29595 -0.11578,-0.50751 -0.23634,-1.84932 -0.26791,-2.98181 -0.0701,-2.51542 -0.37165,-5.7722 -0.76162,-8.22677 -0.29391,-1.84992 -0.3247,-2.8854 -0.24576,-8.26542 0.0319,-2.17351 -0.0577,-3.6738 -0.3439,-5.76124 -0.21287,-1.55234 -0.38703,-3.21029 -0.38703,-3.68433 0,-1.33996 -0.22538,-1.51531 -1.57802,-1.22771 -0.61536,0.13084 -1.20094,0.28864 -1.30128,0.35065 -0.10035,0.062 -0.33039,0.83955 -0.51121,1.72785 -0.45678,2.24396 -0.62038,2.46522 -1.80908,2.44658 -0.52445,-0.008 -1.609328,0.0208 -2.41084,0.0645 -0.801509,0.0437 -1.6496,0.006 -1.884645,-0.083 -0.352572,-0.13404 -0.512675,-0.0667 -0.914938,0.38475 -0.630039,0.70711 -0.94154,0.68968 -1.659771,-0.0929 -1.018783,-1.11007 -1.030079,-1.08068 -1.057908,2.75241 -0.01711,2.35689 -0.101069,3.66873 -0.258613,4.04087 -0.128309,0.30307 -0.28056,1.08503 -0.33835,1.7377 -0.06139,0.69329 -0.28476,1.54443 -0.537243,2.04712 -0.237692,0.47323 -0.43217,0.93734 -0.43217,1.03132 0,0.23926 -0.804467,0.96964 -1.067975,0.96964 -0.31148,0 -0.270351,-0.40398 0.149588,-1.46939 0.408427,-1.03619 0.458782,-1.79775 0.182256,-2.75635 -0.101804,-0.35291 -0.306786,-1.38555 -0.455521,-2.29474 -0.280322,-1.71357 -1.172461,-4.66344 -1.749491,-5.78472 -0.501897,-0.97527 -1.266086,-1.58241 -2.397185,-1.90453 -1.572409,-0.4478 -2.448929,-1.17994 -2.92992,-2.44731 -0.222859,-0.58722 -0.463179,-1.53994 -0.534043,-2.11715 -0.07149,-0.58228 -0.27208,-1.20775 -0.450605,-1.40501 -1.256069,-1.38795 -1.057346,-7.17701 0.341099,-9.93671 1.113009,-2.19642 3.197814,-4.18404 5.238272,-4.9941 0.686312,-0.27247 1.33544,-0.73649 2.024542,-1.44723 1.044891,-1.07771 2.256525,-1.83101 2.945039,-1.83101 0.721447,0 2.328436,0.55977 2.660566,0.92677 0.281595,0.31116 0.298605,0.45979 0.119441,1.04359 -0.260092,0.84746 0.111701,1.57667 0.757039,1.48482 0.371107,-0.0528 0.412312,-0.19595 0.541673,-1.88153 0.137143,-1.78696 0.130546,-1.83423 -0.321432,-2.306 -0.602292,-0.62866 -0.582444,-0.99323 0.07974,-1.46476 0.44708,-0.31835 0.550885,-0.53538 0.596947,-1.24809 l 0.05575,-0.86274 0.816536,-0.13853 c 0.970393,-0.16464 1.163352,-0.3496 1.461422,-1.40085 0.44041,-1.55323 3.53858,-3.83193 5.66175,-4.1642 1.04391,-0.16338 2.26632,0.4105 4.18291,1.96373 2.1674,1.75648 2.09514,1.73409 3.34763,1.03708 3.04171,-1.69271 3.57039,-2.86811 2.34632,-5.21651 -0.35358,-0.67834 -0.64287,-1.49435 -0.64287,-1.81336 0,-0.71123 -0.28471,-1.02085 -0.93875,-1.02085 -0.919,0 -2.73892,-0.69386 -3.53856,-1.3491 -0.43587,-0.35718 -1.55644,-0.97877 -2.49014,-1.38131 -0.9337,-0.40254 -2.04115,-0.96539 -2.46099,-1.25077 -1.17557,-0.79909 -3.70783,-3.37781 -4.06279,-4.137335 -0.17469,-0.373799 -0.59945,-0.894596 -0.9439,-1.157322 -0.34445,-0.262729 -0.626283,-0.632448 -0.626283,-0.8216 0,-0.774628 -1.105607,-1.658093 -4.07868,-3.259185 -0.914829,-0.492662 -1.227659,-0.573327 -1.877847,-0.484208 -0.72393,0.09922 -0.846595,0.04917 -1.702025,-0.694591 -0.507026,-0.440838 -1.085828,-0.934121 -1.286228,-1.096185 -0.200398,-0.162064 -0.480803,-0.459537 -0.623122,-0.661047 -0.244178,-0.34574 -0.752369,-0.722467 -4.285638,-3.177 -0.799808,-0.555619 -2.080673,-1.556377 -2.846367,-2.223905 -2.557894,-2.22996 -5.809459,-4.379251 -7.912665,-5.230289 -4.135933,-1.673556 -3.945005,-1.644548 -10.431711,-1.584972 -5.621268,0.05162 -5.776369,0.06303 -7.036021,0.517415 -1.35757,0.489702 -1.660333,0.485154 -3.343644,-0.05022 -0.714813,-0.227345 -0.984116,-0.238618 -1.417002,-0.05931 -0.485871,0.201255 -0.789707,0.118135 -3.342007,-0.914229 -1.544149,-0.624585 -3.344797,-1.439282 -4.001438,-1.810437 -0.65664,-0.371156 -1.276548,-0.707276 -1.377569,-0.746934 -0.10102,-0.03967 -0.390312,-0.21653 -0.642866,-0.393044 -0.650005,-0.454297 -6.721404,-3.568782 -7.714387,-3.957299 -0.454598,-0.177865 -1.17531,-0.569587 -1.601579,-0.870493 -0.641673,-0.452956 -0.823005,-0.507289 -1.053798,-0.315749 -0.458637,0.380637 -0.817922,0.0777 -1.371718,-1.156613 -0.288717,-0.643499 -0.672963,-1.2268 -0.853875,-1.296221 -0.217213,-0.08335 -0.582697,0.05523 -1.076068,0.407997 -0.410923,0.29382 -1.243059,0.783895 -1.849189,1.089057 -0.606131,0.305163 -1.255561,0.724821 -1.443177,0.932576 -0.489483,0.542018 -2.448507,1.442087 -3.470488,1.594505 -0.679101,0.101281 -0.984816,0.05894 -1.377568,-0.190837 -0.642558,-0.40863 -1.959833,-1.827859 -3.279756,-3.533607 -0.980957,-1.267696 -1.025814,-1.371944 -0.913279,-2.122378 0.117727,-0.785029 0.111766,-0.795495 -1.12735,-1.98141 C 15.796901,60.178321 14.733059,59.25842 14.117937,58.789811 11.593824,56.866901 9.8077178,54.25714 8.6146288,50.748669 8.1076384,49.257782 7.9811406,48.602164 7.9811406,47.465412 c 0,-0.85264 0.091778,-1.541205 0.2295955,-1.722658 0.1262838,-0.166249 0.7396381,-0.553044 1.3630226,-0.85954 0.8822033,-0.43375 1.3911043,-0.560264 2.2959513,-0.57079 0.639386,-0.0075 1.41048,-0.02085 1.713547,-0.0298 0.351728,-0.01045 0.906477,0.226251 1.533782,0.654281 0.540517,0.368809 1.074398,0.670562 1.1864,0.670562 0.112011,0 1.116212,0.940665 2.231573,2.090367 1.720979,1.773967 2.244283,2.195657 3.457307,2.785983 1.089934,0.530423 1.480325,0.644673 1.643901,0.481095 0.117988,-0.117987 0.383961,-0.207993 0.591055,-0.200019 0.207095,0.008 0.27269,0.05637 0.145766,0.107536 -0.127198,0.05128 0.178109,0.312671 0.680322,0.582446 0.501102,0.269177 1.307509,0.704769 1.792014,0.967986 0.484508,0.263217 1.666138,0.66765 2.625845,0.89874 1.947223,0.468875 3.376607,0.999881 6.451383,2.396649 3.632999,1.650346 4.589028,1.880963 6.03979,1.456934 0.9532,-0.2786 2.305299,0.09401 3.052513,0.841237 0.443442,0.443442 0.881704,0.658644 1.666847,0.818484 0.58587,0.119278 1.566424,0.332748 2.179009,0.474394 1.40761,0.325475 3.131754,0.329878 4.05196,0.01029 0.798838,-0.277386 2.246518,-0.05319 3.048153,0.472066 0.655206,0.429307 2.781754,1.244535 3.246407,1.244535 0.643984,0 1.063884,0.309206 1.175941,0.865937 0.0656,0.325919 0.324425,0.637599 0.71305,0.858665 0.335537,0.190866 0.871177,0.592404 1.190311,0.892302 0.589592,0.554055 0.668547,0.577197 5.756576,1.687249 0.656642,0.143267 2.191014,0.264085 3.409719,0.268501 2.497364,0.009 4.572057,0.45784 6.692456,1.447688 1.181062,0.551344 2.027844,0.833299 5.602116,1.865352 1.010217,0.291696 2.291356,0.714981 2.846976,0.940633 3.079202,1.250553 12.277252,4.287857 13.543571,4.472248 0.94909,0.138205 1.94305,0.576743 2.81843,1.24352 0.36174,0.275534 1.58036,0.93043 2.70804,1.455322 l 2.05033,0.954347 0.99164,-0.658415 c 0.73384,-0.487242 1.1806,-0.655807 1.71844,-0.648385 0.8572,0.01176 1.29827,-0.201212 2.5068,-1.210813 2.01288,-1.681544 2.3523,-2.04326 2.79459,-2.978178 0.45269,-0.956898 0.50458,-0.997311 2.60912,-2.031855 1.18099,-0.580546 2.74276,-1.450695 3.4706,-1.933661 0.72785,-0.482968 1.4009,-0.878124 1.49568,-0.878124 0.0948,0 0.21989,-0.123981 0.27804,-0.275514 0.0582,-0.151531 0.18513,-0.275514 0.28218,-0.275514 0.0971,0 0.65756,-0.319351 1.24558,-0.70967 0.58802,-0.390322 1.6477,-1.001517 2.35485,-1.358216 2.12491,-1.071837 5.41898,-3.38628 6.94905,-4.882463 1.28353,-1.255106 3.06129,-3.451495 3.06129,-3.782168 0,-0.06847 0.16028,-0.476371 0.3562,-0.906424 0.43042,-0.944822 1.26603,-4.29702 1.76967,-7.099362 0.13651,-0.759514 0.37526,-1.741091 0.53057,-2.181285 0.1553,-0.440192 0.28237,-1.042024 0.28237,-1.337407 0,-0.29538 0.12523,-0.779221 0.27829,-1.0752 0.18807,-0.363678 0.24037,-0.775252 0.16133,-1.2695 -0.0901,-0.563618 -0.0276,-0.882832 0.27274,-1.39183 0.21433,-0.36326 0.39,-0.883049 0.39038,-1.155084 0.001,-1.065389 2.19646,-3.893332 5.23352,-6.742701 1.28658,-1.207072 3.39988,-3.353257 4.69622,-4.7693 1.29634,-1.416046 2.61422,-2.840797 2.92862,-3.166118 0.3144,-0.325319 0.61148,-0.821244 0.66018,-1.102055 0.11225,-0.647387 0.45152,-0.900297 1.7191,-1.281536 1.58513,-0.476748 1.60342,-0.513485 1.14292,-2.296475 -0.21655,-0.838447 -0.44359,-1.979048 -0.50454,-2.53467 -0.0609,-0.555621 -0.22573,-1.316176 -0.36617,-1.690127 -0.14044,-0.373954 -0.3098,-1.332663 -0.37633,-2.130465 l -0.12098,-1.450556 0.62104,-0.472422 c 0.96923,-0.737288 2.27781,-1.162097 4.57008,-1.483601 3.43763,-0.482146 4.52676,-0.557533 4.67149,-0.323353 0.0712,0.115211 0.20641,0.161933 0.30044,0.103813 0.16391,-0.101315 0.24259,0.141046 0.1895,0.58389 -0.0469,0.390549 0.49934,0.41148 1.4373,0.05508 0.51475,-0.195589 1.06924,-0.355616 1.2322,-0.355616 0.44669,0 4.62546,-1.5479052 5.65139,-2.0934042 0.49452,-0.262932 1.05753,-0.478059 1.25119,-0.478059 0.19363,0 0.50772,-0.0833 0.69795,-0.185111 0.55344,-0.296193 3.47157,0.233127 3.83808,0.696194 0.16053,0.202859 0.76673,0.503637 1.34699,0.668396 1.21402,0.344697 1.45528,0.6312962 1.86297,2.2132502 0.25348,0.983564 0.25376,1.154206 0.003,1.653083 -0.15399,0.305969 -0.35924,0.968937 -0.45604,1.473267 -0.0968,0.504327 -0.32131,1.062269 -0.4989,1.239868 -0.48095,0.480951 -4.20966,1.99961 -5.31975,2.166665 -1.42862,0.214992 -3.85589,1.856798 -4.70308,3.181147 -0.34941,0.546213 -0.9863,1.271456 -1.41534,1.611648 -0.42901,0.340192 -1.25839,1.267718 -1.84302,2.061168 -0.58467,0.793454 -2.17549,2.660836 -3.53517,4.149741 -2.75518,3.017019 -3.60502,4.353084 -3.61525,5.683627 -0.008,1.129364 -0.58393,2.084438 -1.75046,2.906308 -0.38547,0.271562 -0.90319,1.081222 -1.64112,2.56651 -0.94902,1.910122 -1.08591,2.323669 -1.14386,3.455529 -0.10711,2.092405 0.0376,1.820335 -2.49137,4.683735 -0.22306,0.252554 -0.52285,0.686489 -0.6662,0.9643 -0.14335,0.27781 -0.3358,0.505109 -0.42767,0.505109 -0.0919,0 -0.49437,0.330616 -0.89444,0.734703 -0.40007,0.404087 -0.87711,0.734702 -1.06009,0.734702 -0.74711,0 -1.76979,1.050193 -2.95928,3.038885 -0.65664,1.097827 -1.22708,2.082339 -1.26763,2.187802 -0.0405,0.105462 -0.34783,0.757818 -0.68283,1.449675 -0.33499,0.691858 -0.69237,1.708495 -0.79418,2.259192 -0.35574,1.924417 -1.11996,3.225406 -3.32866,5.666682 -0.73118,0.808174 -1.9349,2.397142 -2.67494,3.531041 -0.74004,1.133901 -3.47498,4.605375 -6.07763,7.714388 -2.60266,3.109016 -4.96421,6.106301 -5.2479,6.660637 -0.65345,1.27688 -1.07654,1.722826 -2.29706,2.421135 -1.54945,0.886506 -1.67086,1.762547 -0.45065,3.251657 1.02571,1.251737 2.02792,4.466873 2.30811,7.404466 0.17493,1.83405 0.30338,2.43993 0.60359,2.84697 0.2653,0.35972 0.41928,0.93635 0.50591,1.89466 0.0685,0.75767 0.24726,2.08013 0.39726,2.93882 0.15,0.85868 0.37012,2.80606 0.48915,4.3275 0.20141,2.57424 0.18962,2.90572 -0.16992,4.77557 -0.24527,1.27562 -0.62768,2.5243 -1.04726,3.41965 l -0.6609,1.41033 0.69254,1.25297 c 0.67742,1.2256 0.69254,1.2951 0.69254,3.18157 0,1.73982 -0.0481,2.01849 -0.49156,2.84698 -0.59354,1.1089 -1.36446,1.73959 -2.92541,2.39329 -0.64621,0.27062 -1.25758,0.55494 -1.3586,0.63182 -0.16123,0.12271 -2.85394,0.97843 -3.85719,1.22579 -1.28144,0.31595 -2.3055,0.87787 -2.64332,1.45044 -0.48029,0.81402 -1.87925,1.82521 -3.20962,2.31995 -0.59254,0.22036 -1.35335,0.66095 -1.69068,0.9791 l -0.61332,0.57843 0.26719,0.88782 c 0.33655,1.11826 0.36241,6.37804 0.0535,10.87701 -0.16161,2.35334 -0.1642,3.33773 -0.0103,3.85719 0.11373,0.3836 0.3049,1.64345 0.42484,2.79966 0.21519,2.07447 0.0571,4.9359 -0.39134,7.0816 -0.0845,0.40408 -0.2458,1.76787 -0.35857,3.03065 -0.11276,1.26277 -0.23738,2.50258 -0.27692,2.75513 -0.35459,2.26514 -0.49853,4.02838 -0.5399,6.61415 -0.0557,3.481 -0.12846,3.71564 -1.54774,4.9917 -0.73068,0.65694 -1.22972,0.91315 -2.55074,1.30961 -1.71069,0.5134 -2.26776,0.57397 -2.90536,0.31588 z m 56.8746,-144.850428 c 0.008,-0.213974 0.0523,-0.257496 0.11105,-0.110966 0.0531,0.132588 0.0465,0.291012 -0.0147,0.352047 -0.0611,0.06103 -0.10451,-0.04746 -0.0965,-0.241074 z"
     style="fill:#f8c18c;stroke-width:0.18367592" />
</svg>
