<?xml version="1.0" encoding="UTF-8" standalone="no"?>
<svg
   xmlns:dc="http://purl.org/dc/elements/1.1/"
   xmlns:cc="http://creativecommons.org/ns#"
   xmlns:rdf="http://www.w3.org/1999/02/22-rdf-syntax-ns#"
   xmlns:svg="http://www.w3.org/2000/svg"
   xmlns="http://www.w3.org/2000/svg"
   xmlns:sodipodi="http://sodipodi.sourceforge.net/DTD/sodipodi-0.dtd"
   xmlns:inkscape="http://www.inkscape.org/namespaces/inkscape"
   viewBox="0 0 192 192"
   version="1.1"
   id="svg16"
   sodipodi:docname="zxpinstaller.svg"
   inkscape:version="0.92.4 (5da689c313, 2019-01-14)">
  <metadata
     id="metadata20">
    <rdf:RDF>
      <cc:Work
         rdf:about="">
        <dc:format>image/svg+xml</dc:format>
        <dc:type
           rdf:resource="http://purl.org/dc/dcmitype/StillImage" />
        <dc:title />
      </cc:Work>
    </rdf:RDF>
  </metadata>
  <sodipodi:namedview
     pagecolor="#ffffff"
     bordercolor="#666666"
     borderopacity="1"
     objecttolerance="10"
     gridtolerance="10"
     guidetolerance="10"
     inkscape:pageopacity="0"
     inkscape:pageshadow="2"
     inkscape:window-width="1920"
     inkscape:window-height="1017"
     id="namedview18"
     showgrid="false"
     inkscape:zoom="4.7485337"
     inkscape:cx="58.177828"
     inkscape:cy="102.75182"
     inkscape:window-x="-8"
     inkscape:window-y="-8"
     inkscape:window-maximized="1"
     inkscape:current-layer="svg16"
     inkscape:snap-global="true">
    <inkscape:grid
       type="xygrid"
       id="grid827"
       spacingx="4"
       spacingy="4" />
  </sodipodi:namedview>
  <defs
     id="defs4">
    <style
       id="style2">.a{fill:none;stroke:#b1b5bd;stroke-linecap:round;stroke-linejoin:round;isolation:isolate;opacity:0.63;}</style>
  </defs>
  <path
     inkscape:connector-curvature="0"
     d="m 90.558,10.679 c 3.0497,-1.7636 6.8086,-1.753 9.8482,0.02752 l 65.736,38.507 c 3.0086,1.7626 4.8581,4.9933 4.8581,8.4864 v 76.201 c 0,3.4924 -1.8495,6.7233 -4.8581,8.4857 l -65.736,38.507 c -3.0396,1.7811 -6.7985,1.7919 -9.8482,0.0275 l -66.652,-38.543 C 20.8703,140.62262 19,137.37692 19,133.86392 v -76.127 c 0,-3.5128 1.8703,-6.7586 4.906,-8.514 z"
     style="clip-rule:evenodd;fill:#ff837d;fill-rule:evenodd;stroke-width:0.98179001"
     id="path2" />
  <path
     inkscape:connector-curvature="0"
     d="M 170.05,53.664 94.51,95.309 v 86.806 c 2.0208,0.19776 4.087,-0.15924 5.8992,-1.221 l 65.734,-38.504 c 3.0086,-1.7624 4.8572,-4.9932 4.8572,-8.4855 v -76.209 c 0,-1.4262 -0.38041,-2.775 -0.95,-4.0316 z"
     style="clip-rule:evenodd;fill:#ba6561;fill-rule:evenodd;stroke-width:0.98179001"
     id="path4" />
  <path
     inkscape:connector-curvature="0"
     d="m 95.486,9.3633 c -1.7009,-0.00476 -3.4029,0.43461 -4.9277,1.3164 l -66.652,38.543 c -1.9132,1.1064 -3.3609,2.805 -4.1719,4.7891 l 0.04687,0.09766 74.729,41.199 75.54099,-41.645 0.041,-0.05469 c -0.82711,-1.8073 -2.17959,-3.3597 -3.94919,-4.3965 l -65.73599,-38.506 C 98.88727,9.816 97.18807,9.36727 95.48717,9.36257 Z"
     style="opacity:0.2;fill:#ffffff"
     id="path6" />
  <path
     style="fill:#ffffff;stroke:none;stroke-width:1px;stroke-linecap:butt;stroke-linejoin:miter;stroke-opacity:1;opacity:0.25"
     d="M 60 116 L 20.804688 139.51758 C 21.611224 140.66487 22.652458 141.65386 23.90625 142.37891 L 90.558594 180.92188 C 91.782318 181.62986 93.120659 182.03718 94.480469 182.17383 L 94.509766 182.11523 L 60 116 z "
     id="path838" />
  <path
     style="fill:#000000;stroke:none;stroke-width:1px;stroke-linecap:butt;stroke-linejoin:miter;stroke-opacity:1;opacity:0.25"
     d="M 19.7344,54.0118 60,116 94.51027,95.30846 Z"
     id="path840"
     inkscape:connector-curvature="0" />
  <path
     style="opacity:0.25;fill:#ffffff;stroke:none;stroke-width:1px;stroke-linecap:butt;stroke-linejoin:miter;stroke-opacity:1"
     d="M 129.01953 116 L 94.509766 182.11523 L 94.541016 182.17773 C 96.550835 182.36712 98.60439 181.95036 100.40625 180.89453 L 166.14258 142.38672 C 167.23433 141.74719 168.16837 140.91 168.92188 139.94141 L 129.01953 116 z "
     id="path838-8" />
  <path
     style="opacity:0.25;fill:#000000;stroke:none;stroke-width:1px;stroke-linecap:butt;stroke-linejoin:miter;stroke-opacity:1"
     d="M 169.28587,54.012335 129.02027,116.00054 94.51,95.309 Z"
     id="path840-1"
     inkscape:connector-curvature="0" />
  <path
     style="fill:#ffffff;stroke:none;stroke-width:1px;stroke-linecap:butt;stroke-linejoin:miter;stroke-opacity:1;opacity:0.25"
     d="M 19.78127,54.10946 94.714258,55.767164 94.51027,95.30846 Z"
     id="path860"
     inkscape:connector-curvature="0"
     sodipodi:nodetypes="cccc" />
  <path
     style="fill:#000000;stroke:none;stroke-width:1px;stroke-linecap:butt;stroke-linejoin:miter;stroke-opacity:1;opacity:0.25"
     d="M 95.486328 9.3632812 L 94.714844 55.767578 L 170.05078 53.664062 L 170.08984 53.607422 C 169.26264 51.801141 167.9114 50.249235 166.14258 49.212891 L 100.40625 10.707031 C 98.88644 9.8167613 97.187228 9.3679812 95.486328 9.3632812 z "
     id="path862" />
  <path
     style="fill:#ffffff;stroke:none;stroke-width:1px;stroke-linecap:butt;stroke-linejoin:miter;stroke-opacity:1"
     d="M 148 140 L 120 156 L 120 169.41602 L 148 153.01367 L 148 140 z "
     id="path909" />
  <path
     style="fill:#ffffff;stroke:none;stroke-width:1px;stroke-linecap:butt;stroke-linejoin:miter;stroke-opacity:1"
     d="M 75.769531 19.232422 L 47.904297 35.345703 L 72 56 L 96 72 L 120 80 L 120 92 L 148 76 L 148 64 L 128 56 L 100 40 L 75.769531 19.232422 z "
     id="path909-2" />
  <path
     style="fill:#ececec;stroke:none;stroke-width:1px;stroke-linecap:butt;stroke-linejoin:miter;stroke-opacity:1"
     d="M 72,56 100,40 128,56 96,72 Z"
     id="path944"
     inkscape:connector-curvature="0" />
  <path
     style="fill:#ececec;stroke:none;stroke-width:1px;stroke-linecap:butt;stroke-linejoin:miter;stroke-opacity:1"
     d="M 120,80 148,64 V 76 L 120,92 Z"
     id="path946"
     inkscape:connector-curvature="0" />
</svg>
