<?xml version="1.0" encoding="UTF-8" standalone="no"?>
<svg
   xmlns:dc="http://purl.org/dc/elements/1.1/"
   xmlns:cc="http://creativecommons.org/ns#"
   xmlns:rdf="http://www.w3.org/1999/02/22-rdf-syntax-ns#"
   xmlns:svg="http://www.w3.org/2000/svg"
   xmlns="http://www.w3.org/2000/svg"
   xmlns:sodipodi="http://sodipodi.sourceforge.net/DTD/sodipodi-0.dtd"
   xmlns:inkscape="http://www.inkscape.org/namespaces/inkscape"
   viewBox="0 0 192 192"
   version="1.1"
   id="svg16"
   sodipodi:docname="absynth.svg"
   inkscape:version="0.92.4 (5da689c313, 2019-01-14)">
  <metadata
     id="metadata20">
    <rdf:RDF>
      <cc:Work
         rdf:about="">
        <dc:format>image/svg+xml</dc:format>
        <dc:type
           rdf:resource="http://purl.org/dc/dcmitype/StillImage" />
        <dc:title></dc:title>
      </cc:Work>
    </rdf:RDF>
  </metadata>
  <sodipodi:namedview
     pagecolor="#ffffff"
     bordercolor="#666666"
     borderopacity="1"
     objecttolerance="10"
     gridtolerance="10"
     guidetolerance="10"
     inkscape:pageopacity="0"
     inkscape:pageshadow="2"
     inkscape:window-width="1920"
     inkscape:window-height="1017"
     id="namedview18"
     showgrid="true"
     inkscape:zoom="5.8939376"
     inkscape:cx="108.22354"
     inkscape:cy="106.24073"
     inkscape:window-x="-8"
     inkscape:window-y="-8"
     inkscape:window-maximized="1"
     inkscape:current-layer="svg16"
     inkscape:snap-global="false">
    <inkscape:grid
       type="xygrid"
       id="grid827"
       spacingx="4"
       spacingy="4" />
  </sodipodi:namedview>
  <defs
     id="defs4">
    <style
       id="style2">.a{fill:none;stroke:#b1b5bd;stroke-linecap:round;stroke-linejoin:round;isolation:isolate;opacity:0.63;}</style>
  </defs>
  <circle
     class="a"
     cx="96"
     cy="96"
     r="88"
     id="circle8"
     style="fill:#73ada4;stroke:none;opacity:1" />
  <path
     style="fill:#ffffff;stroke:none;stroke-width:1.14564729px;stroke-linecap:butt;stroke-linejoin:miter;stroke-opacity:1"
     d="m 79.128078,129.05236 c 0,0 23.321312,5.7451 34.670502,-16.76834 7.13538,-14.154456 -4.15761,-26.389533 -4.15761,-26.389533 0,0 3.5643,9.928391 1.09956,18.142793 -2.66555,8.88367 -14.884283,17.71256 -24.740183,16.25935 C 69.280839,117.83142 58.332275,101.85508 60.072502,88.368512 64.765658,51.997145 108.81629,60.879419 108.81629,60.879419 c 0,0 -30.870188,-3.361265 -36.326379,25.839751 -2.576133,13.78722 9.387079,18.96747 9.387079,18.96747 0,0 -6.111974,-7.471355 -3.573583,-17.318128 3.530493,-13.695276 14.870549,-16.194908 23.915503,-16.194908 15.96788,0 31.78509,21.736117 23.59331,39.835516 -13.7793,30.44477 -46.684142,17.04324 -46.684142,17.04324 z"
     id="path829"
     inkscape:connector-curvature="0"
     sodipodi:nodetypes="cscssscscsssc" />
</svg>
