<?xml version="1.0" encoding="UTF-8" standalone="no"?>
<svg
   xmlns:dc="http://purl.org/dc/elements/1.1/"
   xmlns:cc="http://creativecommons.org/ns#"
   xmlns:rdf="http://www.w3.org/1999/02/22-rdf-syntax-ns#"
   xmlns:svg="http://www.w3.org/2000/svg"
   xmlns="http://www.w3.org/2000/svg"
   xmlns:sodipodi="http://sodipodi.sourceforge.net/DTD/sodipodi-0.dtd"
   xmlns:inkscape="http://www.inkscape.org/namespaces/inkscape"
   width="192"
   height="192"
   fill="none"
   version="1.1"
   viewBox="0 0 192 192"
   id="svg8"
   sodipodi:docname="3d-coat.svg"
   inkscape:version="0.92.4 (5da689c313, 2019-01-14)">
  <metadata
     id="metadata14">
    <rdf:RDF>
      <cc:Work
         rdf:about="">
        <dc:format>image/svg+xml</dc:format>
        <dc:type
           rdf:resource="http://purl.org/dc/dcmitype/StillImage" />
        <dc:title></dc:title>
      </cc:Work>
    </rdf:RDF>
  </metadata>
  <defs
     id="defs12" />
  <sodipodi:namedview
     pagecolor="#ffffff"
     bordercolor="#666666"
     borderopacity="1"
     objecttolerance="10"
     gridtolerance="10"
     guidetolerance="10"
     inkscape:pageopacity="0"
     inkscape:pageshadow="2"
     inkscape:window-width="1920"
     inkscape:window-height="1017"
     id="namedview10"
     showgrid="true"
     inkscape:snap-global="false"
     inkscape:zoom="3.4766083"
     inkscape:cx="114.48059"
     inkscape:cy="73.222393"
     inkscape:window-x="-8"
     inkscape:window-y="-8"
     inkscape:window-maximized="1"
     inkscape:current-layer="svg8">
    <inkscape:grid
       type="xygrid"
       id="grid844"
       spacingx="4"
       spacingy="4" />
  </sodipodi:namedview>
  <path
     d="m96 184c48.601 0 88-39.399 88-88 0-48.601-39.399-88-88-88-48.601 0-88 39.399-88 88 0 48.601 39.399 88 88 88z"
     clip-rule="evenodd"
     fill="#fff"
     fill-rule="evenodd"
     id="path2"
     style="fill:#73ada4" />
  <path
     style="color:#000000;font-style:normal;font-variant:normal;font-weight:normal;font-stretch:normal;font-size:medium;line-height:normal;font-family:sans-serif;font-variant-ligatures:normal;font-variant-position:normal;font-variant-caps:normal;font-variant-numeric:normal;font-variant-alternates:normal;font-feature-settings:normal;text-indent:0;text-align:start;text-decoration:none;text-decoration-line:none;text-decoration-style:solid;text-decoration-color:#000000;letter-spacing:normal;word-spacing:normal;text-transform:none;writing-mode:lr-tb;direction:ltr;text-orientation:mixed;dominant-baseline:auto;baseline-shift:baseline;text-anchor:start;white-space:normal;shape-padding:0;clip-rule:evenodd;display:inline;overflow:visible;visibility:visible;opacity:1;isolation:auto;mix-blend-mode:normal;color-interpolation:sRGB;color-interpolation-filters:linearRGB;solid-color:#000000;solid-opacity:1;vector-effect:none;fill:#ffffff;fill-opacity:1;fill-rule:evenodd;stroke:none;stroke-width:10;stroke-linecap:butt;stroke-linejoin:miter;stroke-miterlimit:4;stroke-dasharray:none;stroke-dashoffset:0;stroke-opacity:1;color-rendering:auto;image-rendering:auto;shape-rendering:auto;text-rendering:auto;enable-background:accumulate"
     d="m 42.837891,57.615234 c -3.273504,-0.123142 -8.771702,1.899626 -10.361329,7.75586 -0.815373,3.003877 0.236698,9.205281 -0.735601,12.162109 -0.879373,2.67427 -3.105367,5.220294 -5.919922,5.277344 -2.078453,0.04217 -2.522955,-2.15885 -3.899164,-3.736328 -0.376185,1.647596 -0.711636,3.309974 -0.978516,4.996093 -0.04177,0.26541 -0.08214,0.531039 -0.121093,0.796876 -0.347379,2.357097 -0.593763,4.746315 -0.71875,7.167968 l -0.0059,0.119141 C 20.033895,93.428227 20,94.710486 20,96 c 0,32.66401 20.703169,60.56882 49.677734,71.29688 0.154115,0.0565 0.308413,0.11247 0.462891,0.16796 2.130047,0.77289 4.304244,1.45052 6.517578,2.03321 0.268501,0.0705 0.537385,0.13949 0.806641,0.20703 2.20231,0.55383 4.441498,1.0147 6.714844,1.37109 0.188693,0.0294 0.377497,0.058 0.566406,0.0859 2.408751,0.35895 4.851826,0.60979 7.328125,0.73633 0.0066,3.3e-4 0.01296,0.002 0.01953,0.002 h 0.01953 C 93.400629,171.96551 94.696725,172 96,172 c 2.61766,0 5.20566,-0.13308 7.75586,-0.39258 l 0.0195,-0.002 c 2.50202,-0.25525 4.96578,-0.63607 7.39063,-1.12891 0.15375,-0.0327 0.30739,-0.0659 0.46093,-0.0996 2.31689,-0.48602 4.59747,-1.07329 6.83203,-1.76562 0.13945,-0.0445 0.27878,-0.0894 0.41797,-0.13477 22.38086,-7.0777 40.30946,-24.24937 48.41993,-46.15429 0.0426,-0.11448 0.0849,-0.22906 0.12695,-0.34375 0.3561,-0.97633 0.68723,-1.96454 1.0039,-2.95899 -1.62864,-0.68651 -4.24612,-2.31118 -4.28452,-4.78906 -0.0222,-1.44334 -0.0152,-6.10239 0.0476,-7.54451 0.24471,-5.64049 -2.35769,-10.915721 -7.79164,-10.589843 -9.18337,0.550594 -8.91111,13.760083 -9.63163,24.935133 -0.58217,9.02936 0.56994,12.74598 1.06094,19.59064 0.29097,5.25747 -2.86026,7.43827 -5.92188,7.2207 -2.82381,-0.20068 -3.5551,-3.96967 -3.45508,-6.79883 0.20726,-3.03412 1.9615,-6.09875 1.9625,-7.8504 0.002,-7.53694 -5.43325,-16.45296 -14.57812,-16.41016 -7.13115,0.0334 -8.56258,7.7344 -10.18594,13.98242 -0.62426,2.40255 0.49893,6.18785 0.23633,8.65626 -0.3555,3.34102 -1.99669,5.81337 -4.61914,5.73437 -2.51151,-0.0747 -4.1718,-3.72666 -3.93946,-6.22852 0.95046,-10.23247 0.99796,-18.78773 0.80899,-25.82421 C 107.69851,96.786398 97.827019,83.027711 84.505859,83.144531 66.301787,83.304148 65.727294,103.15023 64.615234,118.76367 c -0.728529,10.22807 2.822559,16.74487 4.039063,30.56641 0.289457,3.28865 -1.791718,8.40389 -5.091797,8.49609 -3.191825,0.089 -4.262684,-4.73759 -4.086719,-7.92578 0.846555,-15.34018 0.501529,-34.52952 0.148438,-52.933593 -0.290385,-15.139291 3.159664,-36.666287 -16.163281,-39.298828 -0.196631,-0.02679 -0.404814,-0.04453 -0.623047,-0.05273 z"
     id="path6"
     inkscape:connector-curvature="0"
     sodipodi:nodetypes="cccccccccscccccccccsccccccccccccscccccccccsccccccscc" />
</svg>
