<?xml version="1.0" encoding="UTF-8" standalone="no"?>
<svg
   xmlns:dc="http://purl.org/dc/elements/1.1/"
   xmlns:cc="http://creativecommons.org/ns#"
   xmlns:rdf="http://www.w3.org/1999/02/22-rdf-syntax-ns#"
   xmlns:svg="http://www.w3.org/2000/svg"
   xmlns="http://www.w3.org/2000/svg"
   xmlns:sodipodi="http://sodipodi.sourceforge.net/DTD/sodipodi-0.dtd"
   xmlns:inkscape="http://www.inkscape.org/namespaces/inkscape"
   viewBox="0 0 192 192"
   version="1.1"
   id="svg16"
   sodipodi:docname="artrage.svg"
   inkscape:version="0.92.4 (5da689c313, 2019-01-14)">
  <metadata
     id="metadata20">
    <rdf:RDF>
      <cc:Work
         rdf:about="">
        <dc:format>image/svg+xml</dc:format>
        <dc:type
           rdf:resource="http://purl.org/dc/dcmitype/StillImage" />
        <dc:title></dc:title>
      </cc:Work>
    </rdf:RDF>
  </metadata>
  <sodipodi:namedview
     pagecolor="#ffffff"
     bordercolor="#666666"
     borderopacity="1"
     objecttolerance="10"
     gridtolerance="10"
     guidetolerance="10"
     inkscape:pageopacity="0"
     inkscape:pageshadow="2"
     inkscape:window-width="1920"
     inkscape:window-height="1017"
     id="namedview18"
     showgrid="true"
     inkscape:zoom="4.1676432"
     inkscape:cx="58.486386"
     inkscape:cy="87.336578"
     inkscape:window-x="-8"
     inkscape:window-y="-8"
     inkscape:window-maximized="1"
     inkscape:current-layer="svg16"
     inkscape:snap-global="false">
    <inkscape:grid
       type="xygrid"
       id="grid827"
       spacingx="4"
       spacingy="4" />
  </sodipodi:namedview>
  <defs
     id="defs4">
    <style
       id="style2">.a{fill:none;stroke:#b1b5bd;stroke-linecap:round;stroke-linejoin:round;isolation:isolate;opacity:0.63;}</style>
  </defs>
  <path
     style="opacity:1;fill:#d3b69a;stroke:none;stroke-width:7.54018307px;stroke-linecap:butt;stroke-linejoin:miter;stroke-opacity:1"
     d="m 55.036417,121.30145 c -4.68458,-1.76803 -15.007854,7.06497 -19.02265,13.77655 -4.955362,8.28399 -2.586139,18.94593 -3.849826,28.68237 -0.455519,3.50978 -4.30274,9.71136 -4.30274,9.71136 0,0 18.815745,-6.18826 28.9869,-28.90819 3.179272,-7.10171 3.122356,-21.39994 -1.811684,-23.26209 z"
     id="path855"
     inkscape:connector-curvature="0"
     sodipodi:nodetypes="ssscss" />
  <path
     style="fill:#ececec;stroke:none;stroke-width:7.54018307px;stroke-linecap:butt;stroke-linejoin:miter;stroke-opacity:1"
     d="m 48.80876,122.54359 9.73779,4.96855 c 0,0 19.467394,-33.344075 27.276574,-50.673026 9.424264,-20.912825 24.339986,-64.35779 24.339986,-64.35779 0,0 1.18519,-3.2929176 -1.60131,-4.3117937 -3.13962,-1.1480146 -4.80395,2.2357147 -4.80395,2.2357147 0,0 -24.283288,39.612225 -34.90867,62.60113 -9.243643,19.999368 -20.04042,49.537215 -20.04042,49.537215 z"
     id="path857"
     inkscape:connector-curvature="0"
     sodipodi:nodetypes="ccscscsc" />
  <path
     style="fill:#98dc9a;fill-opacity:1;stroke-width:3.55767179"
     d="m 69.008381,61.141073 c 0,0 2.269436,-0.173942 2.361627,0.824302 0.133643,1.445146 -2.641295,2.244675 -3.896707,3.562264 -1.958736,2.055749 -2.882155,3.841098 -2.833907,7.536716 0.114766,8.792033 11.759133,28.244505 13.756527,30.470655 1.569057,1.74875 4.08056,4.50425 3.601485,5.1815 -0.434151,0.61369 -2.850745,0.0956 -9.55667,-5.81101 C 66.313176,97.508271 54.749599,84.03126 54.787502,74.230668 54.840355,61.326837 69.008381,61.141073 69.008381,61.141073 Z"
     id="path833"
     inkscape:connector-curvature="0"
     sodipodi:nodetypes="csssssssc" />
  <path
     style="fill:#98dc9a;fill-opacity:1;stroke-width:3.55767179"
     d="M 89.535238,90.085859 C 93.356441,65.82206 105.21615,24.969127 130.01663,27.722826 c 10.32198,1.146057 15.57505,10.966152 14.12521,18.896307 -2.90986,15.91656 -21.70903,9.159645 -21.70903,9.159645 0,0 13.58242,-1.77428 13.52639,-8.326984 -0.0302,-3.887784 -3.13132,-7.208562 -8.3985,-7.87609 -11.21415,-1.421277 -21.87394,28.89953 -25.71688,51.765094 -3.650038,21.717782 -2.655343,49.150322 4.21949,72.101422 2.04118,6.81415 7.86348,15.47358 9.34691,16.89606 0.99825,0.9572 3.03543,2.24167 2.7643,3.09285 -0.30429,0.95472 -2.00299,0.8322 -2.96416,0.5414 -11.74894,-3.55639 -19.992962,-22.70879 -23.057988,-36.86576 -3.780204,-17.46072 -5.263866,-40.21439 -2.617134,-57.02076 z"
     id="path837"
     inkscape:connector-curvature="0"
     sodipodi:nodetypes="ssscsssssssss" />
  <path
     style="fill:#98dc9a;fill-opacity:1;stroke-width:3.55767179"
     d="m 112.75768,69.737628 c 1.09995,-2.11004 2.65685,-1.295375 2.65685,-1.295375 0,0 8.04114,4.643035 22.19935,4.357124 16.64344,-0.335836 17.58007,-3.753675 24.32481,-6.300225 3.1363,-1.184083 1.2989,2.119753 1.2989,2.119753 0,0 -12.05881,13.919319 -36.01493,14.131287 -5.19432,0.04518 -15.46866,-1.884217 -15.46866,-1.884217 0,0 -2.07086,-0.09563 -1.93828,-2.174948 0.12308,-1.933387 0.62216,-3.286592 1.11166,-4.831811 0.45378,-1.432797 1.13528,-2.788488 1.8303,-4.121588 z"
     id="path839"
     inkscape:connector-curvature="0"
     sodipodi:nodetypes="scsscscsss" />
  <path
     style="fill:#98dc9a;fill-opacity:1;stroke-width:3.55767179"
     d="m 106.91265,96.174944 c 0.9568,-2.941796 2.71582,-1.413143 2.71582,-1.413143 0,0 6.28499,4.169025 24.62003,7.183409 3.10746,0.51053 8.41421,0.0301 9.44658,-0.17695 2.22278,-0.44502 1.94832,1.53091 1.94832,1.53091 0,0 -1.30283,12.03397 -3.60149,17.54641 -2.4585,5.89572 -7.5829,12.76484 -10.04284,15.49865 -0.7256,0.80669 -0.98646,2.61771 -0.8797,3.69638 0.37526,3.78846 1.1383,6.91632 3.24722,10.95176 0.8603,1.64613 1.87825,3.22583 3.07016,4.65163 2.84501,3.40315 -1.12177,1.76637 -1.12177,1.76637 0,0 -4.70158,-2.25883 -8.61996,-7.41895 -2.48757,-3.2759 -5.87749,-7.9849 -5.84503,-10.86254 0.0151,-1.44251 2.15113,-3.08358 3.04683,-4.21624 3.39838,-4.29734 5.46773,-7.51458 7.46241,-12.35949 1.47762,-3.58892 1.95028,-7.51368 2.77494,-11.30507 0.53608,-2.46245 -1.417,-1.53062 -1.417,-1.53062 0,0 -10.82823,2.69896 -16.35433,2.70853 -5.70005,0.008 -9.98697,-1.37121 -10.77576,-1.64447 -0.64028,-0.22213 -1.1266,-0.39231 -1.09142,-1.71178 0.0604,-2.16034 -0.11778,-3.09194 0.29523,-6.4768 0.26275,-2.15575 0.45,-4.352383 1.12176,-6.417996 z"
     id="path841"
     inkscape:connector-curvature="0"
     sodipodi:nodetypes="scsscssssscssssscsssss" />
</svg>
