<?xml version="1.0" encoding="UTF-8" standalone="no"?>
<svg
   xmlns:dc="http://purl.org/dc/elements/1.1/"
   xmlns:cc="http://creativecommons.org/ns#"
   xmlns:rdf="http://www.w3.org/1999/02/22-rdf-syntax-ns#"
   xmlns:svg="http://www.w3.org/2000/svg"
   xmlns="http://www.w3.org/2000/svg"
   xmlns:sodipodi="http://sodipodi.sourceforge.net/DTD/sodipodi-0.dtd"
   xmlns:inkscape="http://www.inkscape.org/namespaces/inkscape"
   viewBox="0 0 192 192"
   version="1.1"
   id="svg16"
   sodipodi:docname="libresprite.svg"
   inkscape:version="0.92.4 (5da689c313, 2019-01-14)">
  <metadata
     id="metadata20">
    <rdf:RDF>
      <cc:Work
         rdf:about="">
        <dc:format>image/svg+xml</dc:format>
        <dc:type
           rdf:resource="http://purl.org/dc/dcmitype/StillImage" />
        <dc:title></dc:title>
      </cc:Work>
    </rdf:RDF>
  </metadata>
  <sodipodi:namedview
     pagecolor="#ffffff"
     bordercolor="#666666"
     borderopacity="1"
     objecttolerance="10"
     gridtolerance="10"
     guidetolerance="10"
     inkscape:pageopacity="0"
     inkscape:pageshadow="2"
     inkscape:window-width="1920"
     inkscape:window-height="1017"
     id="namedview18"
     showgrid="true"
     inkscape:zoom="4.9166667"
     inkscape:cx="107.15562"
     inkscape:cy="105.18043"
     inkscape:window-x="-8"
     inkscape:window-y="-8"
     inkscape:window-maximized="1"
     inkscape:current-layer="svg16">
    <inkscape:grid
       type="xygrid"
       id="grid827"
       spacingx="4"
       spacingy="4" />
  </sodipodi:namedview>
  <defs
     id="defs4">
    <style
       id="style2">.a{fill:none;stroke:#b1b5bd;stroke-linecap:round;stroke-linejoin:round;isolation:isolate;opacity:0.63;}</style>
  </defs>
  <path
     inkscape:connector-curvature="0"
     d="m 48,20 c -2.216,0 -4,1.784 -4,4 v 8 h -8 c -2.216,0 -4,1.784 -4,4 v 8 h -8 c -2.216,0 -4,1.784 -4,4 v 96 c 0,2.216 1.784,4 4,4 h 8 v 8 c 0,2.216 1.784,4 4,4 h 8 v 8 c 0,2.216 1.784,4 4,4 h 96 c 2.216,0 4,-1.784 4,-4 v -8 h 8 c 2.216,0 4,-1.784 4,-4 v -8 h 8 c 2.216,0 4,-1.784 4,-4 V 48 c 0,-2.216 -1.784,-4 -4,-4 h -8 v -8 c 0,-2.216 -1.784,-4 -4,-4 h -8 v -8 c 0,-2.216 -1.784,-4 -4,-4 z"
     style="fill:#8c72bd;stroke-width:4;paint-order:stroke fill markers"
     id="path6" />
  <path
     inkscape:connector-curvature="0"
     d="M 44,32 V 44 H 32 v 104 h 12 v 12 h 104 v -12 h 12 V 44 H 148 V 32 Z"
     style="fill:#ececec;stroke-width:4;paint-order:stroke fill markers"
     id="path8" />
  <path
     inkscape:connector-curvature="0"
     d="m 32,124 v 24 h 12 v 12 h 104 v -12 h 12 v -24 h -8 c -2.216,0 -4,1.784 -4,4 v 8 H 44 v -8 c 0,-2.216 -1.784,-4 -4,-4 z"
     style="opacity:1;fill:#bd9aff;stroke-width:4;paint-order:stroke fill markers"
     id="path16" />
  <path
     style="fill:none;stroke:#8c72bd;stroke-width:8;stroke-linecap:round;stroke-linejoin:round;stroke-miterlimit:4;stroke-dasharray:none;stroke-opacity:1"
     d="m 56,72 c 0,0 0,-12 12,-12 12,0 12,12 12,12"
     id="path838"
     inkscape:connector-curvature="0"
     sodipodi:nodetypes="czc" />
  <path
     style="fill:none;stroke:#8c72bd;stroke-width:8;stroke-linecap:round;stroke-linejoin:round;stroke-miterlimit:4;stroke-dasharray:none;stroke-opacity:1"
     d="m 112,72 c 0,0 0,-12 12,-12 12,0 12,12 12,12"
     id="path838-9"
     inkscape:connector-curvature="0"
     sodipodi:nodetypes="czc" />
  <path
     style="fill:#8c72bd;stroke:#8c72bd;stroke-width:16;stroke-linecap:round;stroke-linejoin:round;stroke-miterlimit:4;stroke-dasharray:none;stroke-opacity:1"
     d="m 72,96 h 48 c 0,0 0,24 -24,24 C 72,120 72,96 72,96 Z"
     id="path855"
     inkscape:connector-curvature="0"
     sodipodi:nodetypes="cczc" />
</svg>
