<?xml version="1.0" encoding="UTF-8" standalone="no"?>
<svg
   xmlns:dc="http://purl.org/dc/elements/1.1/"
   xmlns:cc="http://creativecommons.org/ns#"
   xmlns:rdf="http://www.w3.org/1999/02/22-rdf-syntax-ns#"
   xmlns:svg="http://www.w3.org/2000/svg"
   xmlns="http://www.w3.org/2000/svg"
   xmlns:sodipodi="http://sodipodi.sourceforge.net/DTD/sodipodi-0.dtd"
   xmlns:inkscape="http://www.inkscape.org/namespaces/inkscape"
   viewBox="0 0 192 192"
   version="1.1"
   id="svg16"
   sodipodi:docname="lightwave-3d.svg"
   inkscape:version="0.92.4 (5da689c313, 2019-01-14)">
  <metadata
     id="metadata20">
    <rdf:RDF>
      <cc:Work
         rdf:about="">
        <dc:format>image/svg+xml</dc:format>
        <dc:type
           rdf:resource="http://purl.org/dc/dcmitype/StillImage" />
        <dc:title></dc:title>
      </cc:Work>
    </rdf:RDF>
  </metadata>
  <sodipodi:namedview
     pagecolor="#ffffff"
     bordercolor="#666666"
     borderopacity="1"
     objecttolerance="10"
     gridtolerance="10"
     guidetolerance="10"
     inkscape:pageopacity="0"
     inkscape:pageshadow="2"
     inkscape:window-width="1920"
     inkscape:window-height="1017"
     id="namedview18"
     showgrid="true"
     inkscape:zoom="6.9532167"
     inkscape:cx="77.523769"
     inkscape:cy="128.19136"
     inkscape:window-x="-8"
     inkscape:window-y="-8"
     inkscape:window-maximized="1"
     inkscape:current-layer="svg16"
     inkscape:snap-global="false">
    <inkscape:grid
       type="xygrid"
       id="grid827"
       spacingx="4"
       spacingy="4" />
  </sodipodi:namedview>
  <defs
     id="defs4">
    <style
       id="style2">.a{fill:none;stroke:#b1b5bd;stroke-linecap:round;stroke-linejoin:round;isolation:isolate;opacity:0.63;}</style>
  </defs>
  <circle
     class="a"
     cx="96"
     cy="96"
     r="88"
     id="circle8"
     style="fill:#9abeff;stroke:none;opacity:1" />
  <path
     inkscape:connector-curvature="0"
     id="path839"
     d="m 88.578154,131.27998 c -5.605306,-1.17377 -11.439298,-4.64913 -14.99164,-8.93058 -2.31619,-2.79154 -4.858097,-7.98812 -5.729558,-11.71324 -0.525771,-2.24744 -0.636031,-4.29076 -0.491403,-9.10676 0.16643,-5.542371 0.325039,-6.631801 1.47665,-10.144967 3.794747,-11.576256 13.213117,-20.083526 25.945112,-23.435294 10.150125,-2.672052 28.866745,-1.123624 29.526085,2.442727 0.0749,0.404835 -0.45708,1.411674 -1.18208,2.237421 -1.9103,2.175707 -1.57611,3.341548 2.62776,9.167373 5.35209,7.417096 7.73196,11.575188 7.73196,13.509234 0,1.687382 -0.45578,2.298304 -2.47976,3.323937 -2.44953,1.241277 -3.22728,2.779089 -5.01413,9.914189 -1.456,5.814 -2.96574,8.72654 -4.75644,9.17598 -0.78338,0.19655 -1.75998,-0.042 -3.3375,-0.8158 -2.7143,-1.33121 -4.39912,-1.36804 -8.42922,-0.18435 -4.50685,1.32386 -12.591307,1.34748 -15.411396,0.0452 -2.94472,-1.35998 -6.210761,-4.66753 -7.596008,-7.69252 -1.025558,-2.23951 -1.177197,-3.062 -1.161776,-6.30119 0.0232,-4.886443 1.08253,-7.694805 4.034739,-10.697011 3.844983,-3.91014 8.893842,-5.288442 13.777821,-3.761319 4.2161,1.318316 7.60215,5.453454 7.60215,9.283995 0,3.218565 -2.18304,6.565655 -5.16613,7.920845 -1.6871,0.76643 -4.34995,1.03927 -4.34995,0.44571 0,-0.17964 0.85059,-1.03726 1.89022,-1.90629 3.34417,-2.7954 3.90104,-5.753459 1.59827,-8.490134 -1.91298,-2.273472 -4.695918,-2.554798 -8.121381,-0.820995 -2.493639,1.262154 -3.796536,3.341788 -3.956768,6.315659 -0.187853,3.48604 0.923785,5.41926 4.036278,7.01952 2.062031,1.06019 2.588929,1.15488 5.588231,1.00441 3.9644,-0.1989 6.43653,-1.18589 8.67647,-3.464 3.53025,-3.59044 4.58534,-8.927632 2.73851,-13.852747 -4.10281,-10.941388 -21.260664,-11.98054 -29.293814,-1.774213 -6.179535,7.851293 -5.515243,19.65083 1.501564,26.67142 2.624748,2.62618 5.851303,4.31175 9.893645,5.16852 3.997433,0.84724 5.616805,0.74779 11.095795,-0.68157 6.39158,-1.66737 8.56271,-1.66616 12.67837,0.008 5.33868,2.17056 7.33323,1.10951 11.23795,-5.97817 2.12692,-3.8607 5.00664,-7.31105 6.93361,-8.30752 1.86631,-0.96513 1.78007,-0.69823 -0.60786,1.88106 -1.89313,2.04477 -2.57496,3.22865 -3.99328,6.93356 -2.67944,6.99902 -3.37457,8.33243 -5.24034,10.05224 -2.10849,1.94352 -3.6568,2.29564 -8.18111,1.86058 -4.98308,-0.4792 -5.93001,-0.34867 -10.81057,1.49048 -7.55437,2.84679 -13.882785,3.52909 -20.289076,2.18754 z m 32.443276,-21.58281 c 0.61409,-1.14745 0.99553,-3.71541 0.71681,-4.82591 -0.48947,-1.95023 -3.18799,-1.69178 -3.97599,0.3809 -0.97694,2.56954 2.05204,6.70063 3.25918,4.44509 z m 5.42348,-17.998901 c -0.0118,-1.227083 -1.47604,-4.420361 -2.55224,-5.566784 -2.62811,-2.799566 -6.47801,-0.578891 -5.28154,3.046422 0.61648,1.868004 3.40553,3.334354 6.49755,3.416155 1.13225,0.03142 1.34388,-0.112028 1.33623,-0.895793 z M 111.7063,76.345363 c 0.48432,-0.320754 1.71882,-1.336006 2.74334,-2.256249 2.25662,-2.027004 2.02777,-2.440134 -1.70418,-3.076689 -4.91957,-0.839112 -8.64442,0.470636 -8.64442,3.039542 0,1.472799 1.62105,3.148506 3.24242,3.351769 1.34738,0.169025 3.18112,-0.275944 4.36284,-1.058373 z M 58.416557,129.14776 c -0.150158,-0.24293 0.334591,-0.8585 1.077181,-1.36785 2.601099,-1.7842 3.719413,-3.09513 5.286673,-6.19729 0.869084,-1.72025 1.850959,-3.35244 2.181946,-3.62712 0.701572,-0.58227 0.819901,-0.464 2.5306,2.52897 0.623495,1.09088 1.969741,2.9248 2.991639,4.0754 1.021906,1.15062 1.799414,2.39629 1.727798,2.76819 -0.191155,0.99261 -3.780864,1.70511 -10.099243,2.00448 -3.661693,0.17335 -5.512275,0.1136 -5.696594,-0.18474 z m 1.59948,-18.09025 c -5.009378,-1.48758 -12.237654,-4.39025 -11.978181,-4.81011 0.126297,-0.2044 0.824044,-0.3742 1.55053,-0.37775 3.504159,-0.0158 8.177715,-1.73624 12.290399,-4.52322 1.024512,-0.6943 2.068808,-1.26314 2.320656,-1.26408 0.275589,-0.001 0.567491,1.3579 0.733116,3.41325 0.151376,1.87826 0.390134,4.57924 0.530625,6.0022 l 0.255464,2.58714 -1.195507,-0.0235 c -0.657531,-0.0118 -2.685707,-0.46458 -4.507059,-1.00547 z M 62.499456,91.504519 C 58.782854,87.787931 52.320945,78.868633 52.91473,78.274844 c 0.148899,-0.148978 1.900778,0.498506 3.89301,1.438679 4.287008,2.023152 6.361434,2.543749 10.190115,2.55739 2.737249,0.0079 2.83393,0.04481 2.614068,0.941509 -0.39919,1.628419 -4.188627,10.659039 -4.472782,10.659039 -0.15,0 -1.337877,-1.065134 -2.639685,-2.366942 z M 72.867194,76.930347 c -1.057354,-1.710848 -2.062448,-19.485939 -1.10184,-19.485939 0.201259,0 0.783031,1.027814 1.292894,2.284033 1.349739,3.325534 3.315974,5.660989 6.609333,7.850414 1.599611,1.063444 2.908054,2.152045 2.907649,2.419143 -4.04e-4,0.266903 -0.863454,1.0307 -1.917881,1.696894 -1.054433,0.666156 -2.988312,2.202948 -4.29751,3.415016 -2.373345,2.197286 -3.043766,2.546736 -3.492645,1.820439 z m 15.503987,-9.992371 c 0,-1.619026 8.643811,-16.513609 9.591011,-16.526758 0.152516,-0.0021 0.176534,1.719194 0.05342,3.825133 -0.1989,3.401965 -0.10118,4.192747 0.876215,7.090879 0.605034,1.79404 1.041284,3.320691 0.969441,3.392546 -0.07186,0.07193 -1.563891,0.426651 -3.315667,0.788483 -1.751765,0.362028 -3.958518,0.930818 -4.903891,1.264347 -2.028867,0.715841 -3.270538,0.778616 -3.270538,0.165487 z"
     style="fill:#54688c;stroke-width:0.41394371" />
</svg>
