<?xml version="1.0" encoding="UTF-8" standalone="no"?>
<svg
   xmlns:dc="http://purl.org/dc/elements/1.1/"
   xmlns:cc="http://creativecommons.org/ns#"
   xmlns:rdf="http://www.w3.org/1999/02/22-rdf-syntax-ns#"
   xmlns:svg="http://www.w3.org/2000/svg"
   xmlns="http://www.w3.org/2000/svg"
   xmlns:sodipodi="http://sodipodi.sourceforge.net/DTD/sodipodi-0.dtd"
   xmlns:inkscape="http://www.inkscape.org/namespaces/inkscape"
   viewBox="0 0 192 192"
   version="1.1"
   id="svg16"
   sodipodi:docname="paint_net.svg"
   inkscape:version="0.92.4 (5da689c313, 2019-01-14)">
  <metadata
     id="metadata20">
    <rdf:RDF>
      <cc:Work
         rdf:about="">
        <dc:format>image/svg+xml</dc:format>
        <dc:type
           rdf:resource="http://purl.org/dc/dcmitype/StillImage" />
        <dc:title></dc:title>
      </cc:Work>
    </rdf:RDF>
  </metadata>
  <sodipodi:namedview
     pagecolor="#ffffff"
     bordercolor="#666666"
     borderopacity="1"
     objecttolerance="10"
     gridtolerance="10"
     guidetolerance="10"
     inkscape:pageopacity="0"
     inkscape:pageshadow="2"
     inkscape:window-width="1920"
     inkscape:window-height="1017"
     id="namedview18"
     showgrid="true"
     inkscape:zoom="4.1676432"
     inkscape:cx="100.96939"
     inkscape:cy="98.289691"
     inkscape:window-x="-8"
     inkscape:window-y="-8"
     inkscape:window-maximized="1"
     inkscape:current-layer="svg16"
     inkscape:snap-global="false">
    <inkscape:grid
       type="xygrid"
       id="grid827"
       spacingx="4"
       spacingy="4" />
  </sodipodi:namedview>
  <defs
     id="defs4">
    <style
       id="style2">.a{fill:none;stroke:#b1b5bd;stroke-linecap:round;stroke-linejoin:round;isolation:isolate;opacity:0.63;}</style>
  </defs>
  <rect
     class="a"
     x="32"
     y="8"
     width="128"
     height="176"
     rx="10"
     id="rect12"
     style="fill:#ffffff;stroke:none;opacity:1" />
  <rect
     style="opacity:1;vector-effect:none;fill:#9abeff;fill-opacity:1;fill-rule:evenodd;stroke:none;stroke-width:4;stroke-linecap:round;stroke-linejoin:round;stroke-miterlimit:4;stroke-dasharray:none;paint-order:stroke fill markers"
     id="rect829"
     width="104"
     height="132"
     x="44"
     y="20" />
  <path
     style="fill:#ffffff;stroke:none;stroke-width:1px;stroke-linecap:butt;stroke-linejoin:miter;stroke-opacity:1"
     d="M 64.230469,108.28117 C 55.277191,108.36589 48.686303,109.59656 44,111.03899 V 152 h 104 v -31.06836 c -0.41566,-0.12326 -0.84196,-0.26399 -1.23828,-0.36133 -8.78786,-2.15834 -18.1765,1.36328 -27.14649,0.16992 -17.39619,-2.31437 -33.190533,-11.82414 -50.730464,-12.40242 -1.61749,-0.0533 -3.16872,-0.0707 -4.654297,-0.0566 z"
     id="path839"
     inkscape:connector-curvature="0"
     sodipodi:nodetypes="ccccccscc" />
  <path
     style="fill:#56595b;stroke:none;stroke-width:1px;stroke-linecap:butt;stroke-linejoin:miter;stroke-opacity:1"
     d="M 65.400391,120.53104 C 55.183594,120.53648 48.437671,121.96646 44,123.70096 V 152 h 104 v -15.74805 c -7.25834,0.47742 -16.13598,0.76861 -23.63477,0.0977 -18.3641,-1.64312 -35.026238,-14.86834 -53.445308,-15.69161 -1.943829,-0.0869 -3.781648,-0.12788 -5.519531,-0.12696 z"
     id="path841"
     inkscape:connector-curvature="0"
     sodipodi:nodetypes="cccccscc" />
  <path
     style="fill:#ffffff;stroke:none;stroke-width:0.95289809px;stroke-linecap:butt;stroke-linejoin:miter;stroke-opacity:1"
     d="m 62.636206,157.03817 c 0,0 2.976542,-10.92379 7.275341,-13.90399 2.892704,-2.0054 13.08478,-7.40121 17.137474,-3.23348 3.883552,3.99379 0.788055,11.3783 -3.556834,16.3291 -2.945314,3.35605 -12.287246,5.33525 -12.287246,5.33525 z"
     id="path831"
     inkscape:connector-curvature="0"
     sodipodi:nodetypes="cssscc" />
  <path
     style="fill:#728dbe;stroke:none;stroke-width:0.95289809px;stroke-linecap:butt;stroke-linejoin:miter;stroke-opacity:1"
     d="m 62.636206,157.03817 c 0.482733,-1.74608 3.344318,-2.80959 5.011901,-2.10176 0.958083,0.40666 0.284121,2.30608 1.13172,2.91014 1.141905,0.81379 3.489406,-1.04508 4.203532,0.16167 0.675084,1.14077 -0.575455,3.00008 -1.778418,3.55683 -10.506685,4.8627 -18.269192,6.14362 -18.269192,6.14362 0,0 8.442002,-6.11857 9.700457,-10.6705 z"
     id="path833"
     inkscape:connector-curvature="0"
     sodipodi:nodetypes="ssssscs" />
  <path
     style="fill:#ff837d;stroke:none;stroke-width:0.95289809px;stroke-linecap:butt;stroke-linejoin:miter;stroke-opacity:1"
     d="m 89.635809,132.46369 c 0,0 72.737761,-54.165675 78.573691,-58.202749 3.30775,-2.288167 12.93912,-8.126607 15.03571,-5.981947 2.50871,2.566238 -1.79542,8.489194 -4.85022,11.155524 -3.88958,3.394945 -80.675467,61.759572 -80.675467,61.759572 z"
     id="path837"
     inkscape:connector-curvature="0"
     sodipodi:nodetypes="cssscc" />
  <path
     style="fill:#d8d8d8;stroke:none;stroke-width:0.95289809px;stroke-linecap:butt;stroke-linejoin:miter;stroke-opacity:1"
     d="m 80.905398,138.44563 c 0,0 3.052647,0.61548 5.173577,3.39516 2.874986,3.76794 1.940091,6.79032 1.940091,6.79032 l 9.700457,-7.43702 c 0,0 1.625898,-2.4561 -1.455069,-5.98194 -2.786098,-3.18839 -6.628645,-2.74846 -6.628645,-2.74846 z"
     id="path835"
     inkscape:connector-curvature="0"
     sodipodi:nodetypes="csccscc" />
  <path
     style="fill:#ffffff;opacity:0.75"
     d="M 87.046875 20 C 78.295972 28.297092 66.708894 40.782148 68.714844 47.105469 C 71.080317 54.562107 87.056021 48.439602 92.976562 53.552734 C 99.317413 59.028856 94.531644 72.004703 101.62891 76.457031 C 107.18816 79.944518 126.18128 71.551055 121.31055 75.949219 C 115.54175 81.158327 103.22181 88.409336 109.0957 88.673828 C 123.1979 89.308827 136.45069 88.795982 148 87.800781 L 148 20 L 114.58984 20 L 87.046875 20 z "
     id="path843" />
</svg>
