<?xml version="1.0" encoding="UTF-8" standalone="no"?>
<svg
   xmlns:dc="http://purl.org/dc/elements/1.1/"
   xmlns:cc="http://creativecommons.org/ns#"
   xmlns:rdf="http://www.w3.org/1999/02/22-rdf-syntax-ns#"
   xmlns:svg="http://www.w3.org/2000/svg"
   xmlns="http://www.w3.org/2000/svg"
   xmlns:sodipodi="http://sodipodi.sourceforge.net/DTD/sodipodi-0.dtd"
   xmlns:inkscape="http://www.inkscape.org/namespaces/inkscape"
   viewBox="0 0 192 192"
   version="1.1"
   id="svg16"
   sodipodi:docname="poser.svg"
   inkscape:version="0.92.4 (5da689c313, 2019-01-14)">
  <metadata
     id="metadata20">
    <rdf:RDF>
      <cc:Work
         rdf:about="">
        <dc:format>image/svg+xml</dc:format>
        <dc:type
           rdf:resource="http://purl.org/dc/dcmitype/StillImage" />
        <dc:title></dc:title>
      </cc:Work>
    </rdf:RDF>
  </metadata>
  <sodipodi:namedview
     pagecolor="#ffffff"
     bordercolor="#666666"
     borderopacity="1"
     objecttolerance="10"
     gridtolerance="10"
     guidetolerance="10"
     inkscape:pageopacity="0"
     inkscape:pageshadow="2"
     inkscape:window-width="1920"
     inkscape:window-height="1017"
     id="namedview18"
     showgrid="true"
     inkscape:zoom="3.4766083"
     inkscape:cx="85.874868"
     inkscape:cy="88.785136"
     inkscape:window-x="-8"
     inkscape:window-y="-8"
     inkscape:window-maximized="1"
     inkscape:current-layer="svg16"
     inkscape:snap-global="false">
    <inkscape:grid
       type="xygrid"
       id="grid827"
       spacingx="4"
       spacingy="4" />
  </sodipodi:namedview>
  <defs
     id="defs4">
    <style
       id="style2">.a{fill:none;stroke:#b1b5bd;stroke-linecap:round;stroke-linejoin:round;isolation:isolate;opacity:0.63;}</style>
  </defs>
  <circle
     class="a"
     cx="96"
     cy="96"
     r="88"
     id="circle8"
     style="fill:#ff837d;stroke:none;opacity:1" />
  <rect
     style="opacity:1;vector-effect:none;fill:#ffffff;fill-opacity:1;fill-rule:evenodd;stroke:none;stroke-opacity:1;paint-order:stroke fill markers"
     id="rect818"
     width="152"
     height="152"
     x="20"
     y="20"
     ry="76" />
  <path
     style="fill:#ff837d;stroke-width:8.42876434"
     d="m 28.927994,139.37248 c 0,0 -11.14785,-37.59212 28.217044,-75.152372 C 109.34354,14.41471 138.44366,29.577467 138.44366,29.577467 l 12.29257,10.89561 c 0,0 -29.19282,-32.8722641 -92.753061,25.982087 C 15.169467,106.09902 37.30929,148.03313 37.30929,148.03313 Z"
     id="path831"
     inkscape:connector-curvature="0"
     sodipodi:nodetypes="csccscc" />
  <path
     style="fill:#ff837d;stroke-width:8.42876434"
     d="m 18.870438,94.95155 c 0,0 7.029533,69.2718 82.974872,67.88855 54.61293,-0.99476 69.28543,-41.0684 69.28543,-41.0684 l -7.40349,16.62297 c 0,0 -16.25976,25.1837 -62.16132,26.95982 -60.112139,2.326 -83.813002,-51.96409 -83.813002,-51.96409 z"
     id="path833"
     inkscape:connector-curvature="0"
     sodipodi:nodetypes="csccscc" />
  <path
     style="fill:#ff837d;stroke-width:8.42876434"
     d="M 37.30929,45.222517 26.128413,60.775862 21.664196,77.909601 c 0,0 18.248762,-45.424632 69.5648,-43.582779 70.853194,2.543043 82.416124,62.580368 82.416124,62.580368 l -1.95564,-23.467615 c 0,0 -24.70306,-43.321825 -72.917314,-45.81775 C 61.456461,25.690036 37.30929,45.222517 37.30929,45.222517 Z"
     id="path835"
     inkscape:connector-curvature="0"
     sodipodi:nodetypes="cccsccsc" />
  <path
     style="fill:#ff837d;stroke-width:8.42876434"
     d="m 43.734959,155.01753 c 0,0 35.380605,19.31646 84.092381,-27.09948 43.90442,-41.835245 28.49643,-81.857377 28.49643,-81.857377 l 9.49881,14.248152 c 0,0 -9.2e-4,43.090885 -33.80458,73.196735 -44.336873,39.48673 -74.872962,31.5696 -74.872962,31.5696 z"
     id="path837"
     inkscape:connector-curvature="0"
     sodipodi:nodetypes="csccscc" />
  <path
     inkscape:connector-curvature="0"
     style="fill:#ff837d;stroke-width:6.2363863"
     d="m 57.205303,58.694049 c -0.564327,-0.07858 -1.057511,-0.0062 -1.25458,0.438418 -0.292987,0.662428 1.000218,1.049583 1.461653,1.607865 0.465546,0.563145 0.829234,1.208424 1.315492,1.753983 0.848427,0.951922 1.625249,2.083951 2.777134,2.630944 1.37566,0.653261 3.058804,0.568135 4.458043,1.169322 2.481975,1.066235 3.92245,3.363096 6.358189,4.531109 1.258016,0.603059 2.809031,0.330529 4.092628,0.877023 2.001637,0.852514 3.506634,2.596894 5.408114,3.654148 1.772686,0.985599 5.554287,2.484764 5.554287,2.484764 0,0 -0.09398,5.578634 1.157136,10.901515 0.832478,3.541643 0.68566,7.559249 -0.426319,11.023307 -1.145761,3.569333 -3.950576,6.427343 -5.261951,9.939243 -1.207226,3.23294 -1.072814,6.87493 -2.338645,10.08542 -1.072863,2.72107 -3.308633,4.88091 -4.384959,7.60059 -1.491656,3.76915 -1.379307,8.18938 -3.142552,11.83935 -0.648734,1.34295 -1.096544,2.80475 -2.411729,3.50797 -1.59493,0.85282 -2.447663,0.66835 -5.700449,0.65774 -0.653693,-0.002 -0.517122,0.84791 -0.2923,1.46169 0.510511,1.39359 2.317728,1.53172 3.800292,1.46162 0.609793,-0.0311 1.000522,-0.44902 1.607821,-0.51138 1.165269,-0.11912 2.315801,1.55043 3.361805,1.02321 2.077883,-1.04735 1.779522,-3.84842 2.484807,-6.06589 1.285356,-4.04124 2.813308,-4.32568 3.800298,-6.50436 0.834054,-1.8411 0.832352,-3.98006 1.607815,-5.84661 0.753524,-1.81373 1.962809,-3.40264 2.923306,-5.11578 1.631601,-2.91014 3.251976,-5.64273 5.030525,-8.46539 2.140683,-3.39758 6.808848,-10.09771 6.808848,-10.09771 0,0 4.668168,6.70013 6.808868,10.09759 1.77855,2.82264 3.39893,5.5553 5.03053,8.46539 0.96049,1.71314 2.16978,3.30204 2.92331,5.11577 0.77546,1.86656 0.77375,4.00551 1.60781,5.84662 0.98699,2.17873 2.51494,2.46312 3.8003,6.50436 0.70528,2.21747 0.40692,5.01855 2.4848,6.06588 1.046,0.52697 2.19654,-1.14237 3.36181,-1.02321 0.6073,0.0624 0.99801,0.4827 1.60782,0.51139 1.48256,0.0705 3.28979,-0.0679 3.80029,-1.46162 0.22482,-0.61366 0.3614,-1.46387 -0.2923,-1.46169 -3.25278,0.0125 -4.10551,0.1952 -5.70045,-0.65768 -1.31519,-0.70328 -1.763,-2.1651 -2.41173,-3.50797 -1.76327,-3.65003 -1.65092,-8.07026 -3.14258,-11.83941 -1.07632,-2.71969 -3.31209,-4.87953 -4.38495,-7.6006 -1.26583,-3.21049 -1.13142,-6.85247 -2.33865,-10.08541 -1.31137,-3.51183 -4.11619,-6.36991 -5.26195,-9.939245 -1.11197,-3.464059 -1.25879,-7.481604 -0.42632,-11.02331 1.25115,-5.322818 1.15714,-10.901452 1.15714,-10.901452 0,0 3.7816,-1.499228 5.55429,-2.484826 1.90148,-1.057255 3.40647,-2.801572 5.40811,-3.654148 1.28359,-0.546932 2.83462,-0.273778 4.09263,-0.876961 2.43574,-1.168013 3.87622,-3.464874 6.35819,-4.531171 1.39924,-0.601188 3.08238,-0.516373 4.45804,-1.169322 1.15188,-0.546932 1.92872,-1.67896 2.77713,-2.630945 0.48626,-0.545684 0.84992,-1.190651 1.31549,-1.753983 0.46144,-0.558157 1.75465,-0.945437 1.46166,-1.607803 -0.39414,-0.89118 -1.98528,-0.263799 -2.92331,0 -1.97875,0.556909 -3.50362,2.150867 -5.26195,3.215606 -0.97205,0.588714 -2.9233,1.753983 -2.9233,1.753983 0,0 -5.93086,1.296545 -8.62376,2.631007 -1.34485,0.66642 -2.25335,2.091933 -3.65413,2.630944 -0.82352,0.316808 -1.8259,-0.06923 -2.63098,0.292486 -0.59806,0.268165 -1.09153,0.450891 -1.71744,0.645591 -1.0791,0.335517 -0.35609,-0.508265 -3.10601,0.23137 -1.61896,0.4353 -2.32369,2.285635 -3.983,2.046283 -1.408404,-0.203307 -1.918605,-1.362526 -1.973238,-2.594399 -0.111695,-2.517629 1.728098,-2.844104 1.644358,-5.006197 -0.0262,-0.684007 -0.85674,-0.427816 -0.84045,-0.925729 0.0132,-0.405988 0.0287,-0.799317 0,-1.37637 -0.08148,-1.647467 -0.679628,-3.483583 -3.690669,-3.398332 -0.141753,0.004 -0.233677,0.04989 -0.365389,0.06237 -0.131713,-0.01247 -0.223638,-0.05613 -0.365391,-0.06237 -3.011039,-0.08544 -3.609165,1.750865 -3.690674,3.398332 -0.02869,0.576866 -0.0131,0.970693 0,1.37637 0.01622,0.497664 -0.814253,0.241348 -0.840446,0.925729 -0.08375,2.162093 1.756053,2.488568 1.64436,5.006197 -0.05488,1.231873 -0.564829,2.39128 -1.973236,2.594399 -1.65931,0.239477 -2.36404,-1.610921 -3.982999,-2.046283 -2.749942,-0.739511 -2.026913,0.104147 -3.106014,-0.23137 C 83.05973,70.107446 82.566256,69.92472 81.968187,69.65643 81.163113,69.295344 80.160733,69.681379 79.337212,69.363944 77.936433,68.82512 77.027928,67.39942 75.683083,66.733 c -2.692896,-1.334462 -8.623756,-2.631007 -8.623756,-2.631007 0,0 -1.951253,-1.165394 -2.923306,-1.753983 -1.758324,-1.064739 -3.283189,-2.658946 -5.261951,-3.215606 -0.469042,-0.132211 -1.104414,-0.359839 -1.668718,-0.438418 z"
     id="path839" />
</svg>
